<svg width="985" height="186" viewBox="0 0 985 186" fill="none" xmlns="http://www.w3.org/2000/svg">
<rect x="0.75" y="0.75" width="315.5" height="183.769" rx="1.25" fill="#F0F0F0"/>
<rect x="0.75" y="0.75" width="315.5" height="183.769" rx="1.25" stroke="#333333" stroke-width="1.5"/>
<path d="M26.822 42.216C25.598 42.216 24.536 41.946 23.636 41.406C22.748 40.854 22.064 40.092 21.584 39.12C21.104 38.136 20.864 36.996 20.864 35.7C20.864 34.404 21.104 33.27 21.584 32.298C22.064 31.314 22.748 30.552 23.636 30.012C24.536 29.46 25.598 29.184 26.822 29.184C28.262 29.184 29.432 29.526 30.332 30.21C31.232 30.894 31.808 31.86 32.06 33.108H30.386C30.194 32.328 29.804 31.704 29.216 31.236C28.628 30.756 27.83 30.516 26.822 30.516C25.922 30.516 25.142 30.726 24.482 31.146C23.822 31.554 23.312 32.148 22.952 32.928C22.592 33.696 22.412 34.62 22.412 35.7C22.412 36.78 22.592 37.71 22.952 38.49C23.312 39.258 23.822 39.852 24.482 40.272C25.142 40.68 25.922 40.884 26.822 40.884C27.83 40.884 28.628 40.656 29.216 40.2C29.804 39.732 30.194 39.114 30.386 38.346H32.06C31.808 39.558 31.232 40.506 30.332 41.19C29.432 41.874 28.262 42.216 26.822 42.216ZM38.4823 42.216C37.6423 42.216 36.8863 42.024 36.2143 41.64C35.5423 41.244 35.0143 40.692 34.6303 39.984C34.2463 39.264 34.0543 38.43 34.0543 37.482C34.0543 36.51 34.2463 35.67 34.6303 34.962C35.0263 34.242 35.5603 33.69 36.2323 33.306C36.9163 32.91 37.6783 32.712 38.5183 32.712C39.3823 32.712 40.1443 32.91 40.8043 33.306C41.4763 33.69 42.0043 34.242 42.3883 34.962C42.7843 35.67 42.9823 36.504 42.9823 37.464C42.9823 38.424 42.7843 39.264 42.3883 39.984C41.9923 40.692 41.4583 41.244 40.7863 41.64C40.1143 42.024 39.3463 42.216 38.4823 42.216ZM38.5003 40.92C39.0163 40.92 39.4963 40.794 39.9403 40.542C40.3843 40.278 40.7443 39.888 41.0203 39.372C41.2963 38.856 41.4343 38.22 41.4343 37.464C41.4343 36.696 41.2963 36.06 41.0203 35.556C40.7563 35.04 40.4023 34.656 39.9583 34.404C39.5263 34.14 39.0463 34.008 38.5183 34.008C38.0143 34.008 37.5343 34.14 37.0783 34.404C36.6343 34.656 36.2743 35.04 35.9983 35.556C35.7343 36.06 35.6023 36.696 35.6023 37.464C35.6023 38.22 35.7343 38.856 35.9983 39.372C36.2743 39.888 36.6283 40.278 37.0603 40.542C37.5043 40.794 37.9843 40.92 38.5003 40.92ZM45.3723 42V29.04H46.8843V42H45.3723ZM53.7001 42.216C52.8601 42.216 52.1041 42.024 51.4321 41.64C50.7601 41.244 50.2321 40.692 49.8481 39.984C49.4641 39.264 49.2721 38.43 49.2721 37.482C49.2721 36.51 49.4641 35.67 49.8481 34.962C50.2441 34.242 50.7781 33.69 51.4501 33.306C52.1341 32.91 52.8961 32.712 53.7361 32.712C54.6001 32.712 55.3621 32.91 56.0221 33.306C56.6941 33.69 57.2221 34.242 57.6061 34.962C58.0021 35.67 58.2001 36.504 58.2001 37.464C58.2001 38.424 58.0021 39.264 57.6061 39.984C57.2101 40.692 56.6761 41.244 56.0041 41.64C55.3321 42.024 54.5641 42.216 53.7001 42.216ZM53.7181 40.92C54.2341 40.92 54.7141 40.794 55.1581 40.542C55.6021 40.278 55.9621 39.888 56.2381 39.372C56.5141 38.856 56.6521 38.22 56.6521 37.464C56.6521 36.696 56.5141 36.06 56.2381 35.556C55.9741 35.04 55.6201 34.656 55.1761 34.404C54.7441 34.14 54.2641 34.008 53.7361 34.008C53.2321 34.008 52.7521 34.14 52.2961 34.404C51.8521 34.656 51.4921 35.04 51.2161 35.556C50.9521 36.06 50.8201 36.696 50.8201 37.464C50.8201 38.22 50.9521 38.856 51.2161 39.372C51.4921 39.888 51.8461 40.278 52.2781 40.542C52.7221 40.794 53.2021 40.92 53.7181 40.92ZM60.59 42V32.928H61.958L62.066 34.656C62.27 34.248 62.528 33.9 62.84 33.612C63.164 33.324 63.548 33.102 63.992 32.946C64.448 32.79 64.964 32.712 65.54 32.712V34.296H64.982C64.598 34.296 64.232 34.35 63.884 34.458C63.536 34.554 63.224 34.716 62.948 34.944C62.684 35.172 62.474 35.484 62.318 35.88C62.174 36.264 62.102 36.744 62.102 37.32V42H60.59ZM70.9421 42.216C70.1861 42.216 69.5261 42.09 68.9621 41.838C68.4101 41.586 67.9661 41.238 67.6301 40.794C67.3061 40.338 67.1081 39.804 67.0361 39.192H68.5841C68.6441 39.504 68.7701 39.792 68.9621 40.056C69.1541 40.32 69.4121 40.536 69.7361 40.704C70.0721 40.86 70.4801 40.938 70.9601 40.938C71.3801 40.938 71.7281 40.878 72.0041 40.758C72.2801 40.626 72.4841 40.452 72.6161 40.236C72.7601 40.02 72.8321 39.786 72.8321 39.534C72.8321 39.162 72.7421 38.88 72.5621 38.688C72.3941 38.496 72.1421 38.346 71.8061 38.238C71.4701 38.118 71.0621 38.016 70.5821 37.932C70.1861 37.86 69.7961 37.764 69.4121 37.644C69.0281 37.524 68.6861 37.368 68.3861 37.176C68.0861 36.972 67.8461 36.726 67.6661 36.438C67.4981 36.15 67.4141 35.796 67.4141 35.376C67.4141 34.86 67.5461 34.404 67.8101 34.008C68.0741 33.6 68.4521 33.282 68.9441 33.054C69.4481 32.826 70.0301 32.712 70.6901 32.712C71.6621 32.712 72.4481 32.946 73.0481 33.414C73.6481 33.882 74.0021 34.56 74.1101 35.448H72.6161C72.5561 34.992 72.3581 34.638 72.0221 34.386C71.6981 34.122 71.2481 33.99 70.6721 33.99C70.1081 33.99 69.6761 34.104 69.3761 34.332C69.0881 34.56 68.9441 34.86 68.9441 35.232C68.9441 35.472 69.0221 35.688 69.1781 35.88C69.3461 36.06 69.5861 36.216 69.8981 36.348C70.2221 36.48 70.6181 36.588 71.0861 36.672C71.6861 36.78 72.2321 36.924 72.7241 37.104C73.2161 37.284 73.6121 37.554 73.9121 37.914C74.2241 38.262 74.3801 38.76 74.3801 39.408C74.3801 39.972 74.2361 40.464 73.9481 40.884C73.6721 41.304 73.2761 41.634 72.7601 41.874C72.2441 42.102 71.6381 42.216 70.9421 42.216Z" fill="#333333"/>
<g opacity="0.9" filter="url(#filter0_i_793_11700)">
<rect x="20" y="63.79" width="81" height="33" fill="#DD3C6D"/>
</g>
<path d="M28.6936 86.4523L28.2506 89.1348H27.9173L28.3603 86.4523H28.6936ZM28.8928 88.1187V88.4154H26.5923V88.1187H28.8928ZM27.7304 86.4523L27.2873 89.1348H26.95L27.393 86.4523H27.7304ZM29.0716 87.1676V87.4684H26.7671V87.1676H29.0716ZM30.6295 86.4523C31.0494 86.4523 31.3759 86.5688 31.609 86.8018C31.8447 87.0321 31.9626 87.3627 31.9626 87.7935C31.9626 88.2244 31.8447 88.5563 31.609 88.7893C31.3759 89.0196 31.0494 89.1348 30.6295 89.1348H29.6825V86.4523H30.6295ZM30.6295 88.7649C30.914 88.7649 31.1307 88.6809 31.2798 88.5129C31.4315 88.3422 31.5074 88.1024 31.5074 87.7935C31.5074 87.4846 31.4315 87.2462 31.2798 87.0782C31.1307 86.9075 30.914 86.8221 30.6295 86.8221H30.1173V88.7649H30.6295ZM33.6766 86.4523C34.0966 86.4523 34.4231 86.5688 34.6561 86.8018C34.8918 87.0321 35.0097 87.3627 35.0097 87.7935C35.0097 88.2244 34.8918 88.5563 34.6561 88.7893C34.4231 89.0196 34.0966 89.1348 33.6766 89.1348H32.7296V86.4523H33.6766ZM33.6766 88.7649C33.9611 88.7649 34.1779 88.6809 34.3269 88.5129C34.4786 88.3422 34.5545 88.1024 34.5545 87.7935C34.5545 87.4846 34.4786 87.2462 34.3269 87.0782C34.1779 86.9075 33.9611 86.8221 33.6766 86.8221H33.1645V88.7649H33.6766ZM36.5693 89.1754C36.3173 89.1754 36.0978 89.1199 35.9109 89.0088C35.7266 88.895 35.6006 88.7365 35.5329 88.5332L35.9556 88.3341C35.98 88.4316 36.0179 88.5156 36.0694 88.5861C36.1209 88.6565 36.1886 88.7107 36.2726 88.7487C36.3566 88.7839 36.4609 88.8015 36.5856 88.8015C36.6912 88.8015 36.7807 88.7825 36.8538 88.7446C36.927 88.7067 36.9825 88.6538 37.0205 88.5861C37.0611 88.5183 37.0814 88.4411 37.0814 88.3544C37.0814 88.265 37.0638 88.1905 37.0286 88.1309C36.9961 88.0713 36.9432 88.0279 36.8701 88.0008C36.7996 87.9737 36.7089 87.9602 36.5978 87.9602C36.5652 87.9602 36.5314 87.9615 36.4962 87.9642C36.4636 87.9642 36.4284 87.9669 36.3905 87.9724V87.6066C36.4149 87.6093 36.4379 87.612 36.4596 87.6147C36.484 87.6147 36.507 87.6147 36.5287 87.6147C36.7048 87.6147 36.8308 87.5795 36.9067 87.509C36.9825 87.4386 37.0205 87.3288 37.0205 87.1798C37.0205 87.0525 36.9812 86.9549 36.9026 86.8872C36.8267 86.8194 36.717 86.7856 36.5734 86.7856C36.4244 86.7856 36.3078 86.8208 36.2238 86.8912C36.1426 86.959 36.0802 87.0579 36.0369 87.1879L35.6386 87.0213C35.6765 86.8967 35.7402 86.7883 35.8296 86.6962C35.919 86.604 36.0288 86.5336 36.1588 86.4848C36.2916 86.4333 36.4365 86.4076 36.5937 86.4076C36.7861 86.4076 36.9459 86.4387 37.0733 86.5011C37.2034 86.5634 37.2995 86.6487 37.3619 86.7571C37.4269 86.8655 37.4594 86.9861 37.4594 87.1188C37.4594 87.2218 37.4445 87.3126 37.4147 87.3912C37.3849 87.467 37.3443 87.5334 37.2928 87.5903C37.244 87.6445 37.1898 87.6865 37.1302 87.7163C37.0733 87.7461 37.015 87.7664 36.9554 87.7773V87.7854C37.034 87.7881 37.1058 87.8044 37.1708 87.8342C37.2386 87.8613 37.2982 87.9006 37.3497 87.952C37.4039 88.0008 37.4459 88.0604 37.4757 88.1309C37.5055 88.2013 37.5204 88.2785 37.5204 88.3625C37.5204 88.5251 37.4797 88.6674 37.3984 88.7893C37.3172 88.9112 37.2047 89.0061 37.0611 89.0738C36.9202 89.1415 36.7563 89.1754 36.5693 89.1754ZM40.5034 88.4235C40.4492 88.5861 40.3679 88.7243 40.2595 88.8381C40.1511 88.9492 40.0238 89.0332 39.8774 89.0901C39.7311 89.147 39.5699 89.1754 39.3938 89.1754C39.1364 89.1754 38.9128 89.1199 38.7232 89.0088C38.5335 88.8977 38.3872 88.7392 38.2842 88.5332C38.1813 88.3273 38.1298 88.0807 38.1298 87.7935C38.1298 87.5063 38.1813 87.2597 38.2842 87.0538C38.3872 86.8479 38.5335 86.6894 38.7232 86.5783C38.9128 86.4672 39.135 86.4116 39.3897 86.4116C39.5658 86.4116 39.7244 86.436 39.8652 86.4848C40.0089 86.5336 40.1308 86.6067 40.231 86.7043C40.3313 86.8018 40.4085 86.9238 40.4627 87.0701L40.0522 87.253C39.998 87.0931 39.9194 86.9766 39.8165 86.9034C39.7135 86.8276 39.5794 86.7896 39.4141 86.7896C39.2488 86.7896 39.1039 86.8289 38.9792 86.9075C38.8546 86.9861 38.757 87.0999 38.6866 87.2489C38.6188 87.3979 38.585 87.5795 38.585 87.7935C38.585 88.0049 38.6175 88.1864 38.6825 88.3382C38.7476 88.4872 38.841 88.601 38.963 88.6796C39.0849 88.7581 39.2312 88.7974 39.4019 88.7974C39.5672 88.7974 39.7094 88.7554 39.8287 88.6714C39.9506 88.5847 40.0373 88.456 40.0888 88.2853L40.5034 88.4235ZM42.1193 86.4116C42.2629 86.4116 42.3903 86.432 42.5014 86.4726C42.6125 86.5105 42.7086 86.5715 42.7899 86.6555C42.8739 86.7395 42.943 86.8492 42.9972 86.9847L42.6152 87.1676C42.5772 87.0511 42.5163 86.959 42.4323 86.8912C42.351 86.8235 42.2372 86.7896 42.0909 86.7896C41.9852 86.7896 41.8917 86.8154 41.8104 86.8669C41.7291 86.9183 41.66 86.9915 41.6031 87.0863C41.5462 87.1785 41.5029 87.2882 41.4731 87.4155C41.4433 87.5402 41.4284 87.6757 41.4284 87.822C41.4284 87.8301 41.4284 87.8396 41.4284 87.8504C41.4284 87.8586 41.4284 87.8735 41.4284 87.8951L41.4446 87.9033C41.4744 87.7949 41.5273 87.7082 41.6031 87.6431C41.6817 87.5754 41.7698 87.5253 41.8673 87.4928C41.9649 87.4603 42.0611 87.444 42.1559 87.444C42.3347 87.444 42.4905 87.4792 42.6233 87.5497C42.7561 87.6174 42.859 87.715 42.9322 87.8423C43.0081 87.9697 43.046 88.1214 43.046 88.2975C43.046 88.4763 43.0067 88.6321 42.9281 88.7649C42.8495 88.895 42.7398 88.9966 42.5989 89.0697C42.4607 89.1402 42.2941 89.1754 42.099 89.1754C41.8714 89.1754 41.6777 89.1185 41.5178 89.0047C41.3579 88.8909 41.236 88.731 41.152 88.5251C41.068 88.3192 41.026 88.078 41.026 87.8017C41.026 87.4955 41.0734 87.2394 41.1683 87.0335C41.2658 86.8276 41.3972 86.6731 41.5625 86.5702C41.7278 86.4645 41.9134 86.4116 42.1193 86.4116ZM42.0909 87.8057C41.9879 87.8057 41.8971 87.8274 41.8186 87.8708C41.74 87.9114 41.6777 87.9683 41.6316 88.0415C41.5882 88.1146 41.5666 88.2 41.5666 88.2975C41.5666 88.3923 41.5896 88.4777 41.6357 88.5536C41.6844 88.6294 41.7481 88.6904 41.8267 88.7365C41.9053 88.7798 41.9933 88.8015 42.0909 88.8015C42.2561 88.8015 42.3849 88.7568 42.477 88.6674C42.5691 88.5779 42.6152 88.4547 42.6152 88.2975C42.6152 88.1973 42.5948 88.1105 42.5542 88.0374C42.5136 87.9615 42.4539 87.9046 42.3754 87.8667C42.2995 87.826 42.2047 87.8057 42.0909 87.8057ZM44.734 86.4523C45.154 86.4523 45.4805 86.5688 45.7135 86.8018C45.9493 87.0321 46.0671 87.3627 46.0671 87.7935C46.0671 88.2244 45.9493 88.5563 45.7135 88.7893C45.4805 89.0196 45.154 89.1348 44.734 89.1348H43.787V86.4523H44.734ZM44.734 88.7649C45.0185 88.7649 45.2353 88.6809 45.3843 88.5129C45.5361 88.3422 45.6119 88.1024 45.6119 87.7935C45.6119 87.4846 45.5361 87.2462 45.3843 87.0782C45.2353 86.9075 45.0185 86.8221 44.734 86.8221H44.2219V88.7649H44.734Z" fill="white"/>
<mask id="mask0_793_11700" style="mask-type:alpha" maskUnits="userSpaceOnUse" x="20" y="100" width="81" height="7">
<rect x="20" y="100.252" width="81" height="6.50296" rx="3.25148" fill="#C4C4C4"/>
</mask>
<g mask="url(#mask0_793_11700)">
<rect x="20" y="100.252" width="81" height="6.50296" rx="3.25148" fill="white"/>
<rect x="20" y="99.8457" width="20.25" height="6.9094" fill="#DD3C6D"/>
<rect x="20" y="100.252" width="20.25" height="6.50296" fill="#DD3C6D"/>
<rect opacity="0.75" x="40.251" y="100.252" width="20.25" height="6.50296" fill="#DD3C6D"/>
<rect opacity="0.5" x="60.5" y="100.252" width="20.25" height="6.50296" fill="#DD3C6D"/>
<rect opacity="0.25" x="80.75" y="100.252" width="20.25" height="6.50296" fill="#DD3C6D"/>
</g>
<g clip-path="url(#clip0_793_11700)">
<g opacity="0.9" filter="url(#filter1_i_793_11700)">
<rect x="117" y="64.0352" width="81" height="31" fill="#D8DCEE"/>
</g>
<path d="M125.694 85.4523L125.251 88.1348H124.917L125.36 85.4523H125.694ZM125.893 87.1187V87.4154H123.592V87.1187H125.893ZM124.73 85.4523L124.287 88.1348H123.95L124.393 85.4523H124.73ZM126.072 86.1676V86.4684H123.767V86.1676H126.072ZM127.629 85.4523C128.049 85.4523 128.376 85.5688 128.609 85.8018C128.845 86.0321 128.963 86.3627 128.963 86.7935C128.963 87.2244 128.845 87.5563 128.609 87.7893C128.376 88.0196 128.049 88.1348 127.629 88.1348H126.682V85.4523H127.629ZM127.629 87.7649C127.914 87.7649 128.131 87.6809 128.28 87.5129C128.431 87.3422 128.507 87.1024 128.507 86.7935C128.507 86.4846 128.431 86.2462 128.28 86.0782C128.131 85.9075 127.914 85.8221 127.629 85.8221H127.117V87.7649H127.629ZM130.591 85.4157C130.773 85.4157 130.93 85.4455 131.063 85.5051C131.198 85.562 131.303 85.6433 131.376 85.749C131.449 85.8547 131.485 85.982 131.485 86.131C131.485 86.2692 131.452 86.3912 131.384 86.4968C131.319 86.5998 131.223 86.6784 131.095 86.7326V86.7366C131.25 86.7935 131.372 86.8789 131.461 86.9927C131.553 87.1038 131.599 87.242 131.599 87.4072C131.599 87.5671 131.557 87.7039 131.473 87.8177C131.392 87.9315 131.275 88.0196 131.124 88.0819C130.975 88.1442 130.797 88.1754 130.591 88.1754C130.385 88.1754 130.206 88.1442 130.055 88.0819C129.906 88.0196 129.789 87.9315 129.705 87.8177C129.621 87.7039 129.579 87.5671 129.579 87.4072C129.579 87.2447 129.624 87.1065 129.713 86.9927C129.803 86.8789 129.927 86.7935 130.087 86.7366V86.7326C129.965 86.6811 129.869 86.6039 129.799 86.5009C129.728 86.3952 129.693 86.2719 129.693 86.131C129.693 85.982 129.73 85.8547 129.803 85.749C129.876 85.6433 129.98 85.562 130.116 85.5051C130.251 85.4455 130.41 85.4157 130.591 85.4157ZM130.591 85.7815C130.448 85.7815 130.332 85.8167 130.246 85.8872C130.162 85.9576 130.12 86.0538 130.12 86.1757C130.12 86.2977 130.163 86.3939 130.25 86.4643C130.337 86.5321 130.45 86.5659 130.591 86.5659C130.732 86.5659 130.845 86.5321 130.929 86.4643C131.015 86.3939 131.059 86.2977 131.059 86.1757C131.059 86.0538 131.017 85.9576 130.933 85.8872C130.849 85.8167 130.735 85.7815 130.591 85.7815ZM130.591 87.8096C130.71 87.8096 130.812 87.792 130.896 87.7568C130.98 87.7216 131.045 87.6701 131.091 87.6023C131.137 87.5346 131.16 87.456 131.16 87.3666C131.16 87.2718 131.136 87.1918 131.087 87.1268C131.041 87.0591 130.976 87.0076 130.892 86.9724C130.808 86.9371 130.708 86.9195 130.591 86.9195C130.477 86.9195 130.377 86.9371 130.29 86.9724C130.204 87.0076 130.136 87.0591 130.087 87.1268C130.041 87.1918 130.018 87.2718 130.018 87.3666C130.018 87.456 130.041 87.5346 130.087 87.6023C130.133 87.6701 130.2 87.7216 130.286 87.7568C130.373 87.792 130.475 87.8096 130.591 87.8096ZM133.315 85.4523C133.735 85.4523 134.061 85.5688 134.294 85.8018C134.53 86.0321 134.648 86.3627 134.648 86.7935C134.648 87.2244 134.53 87.5563 134.294 87.7893C134.061 88.0196 133.735 88.1348 133.315 88.1348H132.368V85.4523H133.315ZM133.315 87.7649C133.599 87.7649 133.816 87.6809 133.965 87.5129C134.117 87.3422 134.193 87.1024 134.193 86.7935C134.193 86.4846 134.117 86.2462 133.965 86.0782C133.816 85.9075 133.599 85.8221 133.315 85.8221H132.803V87.7649H133.315ZM137.638 87.4235C137.584 87.5861 137.503 87.7243 137.394 87.8381C137.286 87.9492 137.159 88.0332 137.012 88.0901C136.866 88.147 136.705 88.1754 136.529 88.1754C136.271 88.1754 136.048 88.1199 135.858 88.0088C135.668 87.8977 135.522 87.7392 135.419 87.5332C135.316 87.3273 135.265 87.0807 135.265 86.7935C135.265 86.5063 135.316 86.2597 135.419 86.0538C135.522 85.8479 135.668 85.6894 135.858 85.5783C136.048 85.4672 136.27 85.4116 136.525 85.4116C136.701 85.4116 136.859 85.436 137 85.4848C137.144 85.5336 137.266 85.6067 137.366 85.7043C137.466 85.8018 137.543 85.9238 137.598 86.0701L137.187 86.253C137.133 86.0931 137.054 85.9766 136.951 85.9034C136.848 85.8276 136.714 85.7896 136.549 85.7896C136.384 85.7896 136.239 85.8289 136.114 85.9075C135.99 85.9861 135.892 86.0999 135.822 86.2489C135.754 86.3979 135.72 86.5795 135.72 86.7935C135.72 87.0049 135.752 87.1864 135.817 87.3382C135.883 87.4872 135.976 87.601 136.098 87.6796C136.22 87.7581 136.366 87.7974 136.537 87.7974C136.702 87.7974 136.844 87.7554 136.964 87.6714C137.086 87.5847 137.172 87.456 137.224 87.2853L137.638 87.4235ZM138.315 88.1348V85.4523H140.258V85.8262H138.75V86.5984H139.929V86.9642H138.75V87.7608H140.315V88.1348H138.315ZM141.021 88.1348V85.4523H142.964V85.8262H141.456V86.5984H142.635V86.9642H141.456V87.7608H143.021V88.1348H141.021Z" fill="white"/>
<mask id="mask1_793_11700" style="mask-type:alpha" maskUnits="userSpaceOnUse" x="117" y="99" width="81" height="7">
<rect x="117" y="99.252" width="81" height="6.50296" rx="3.25148" fill="#C4C4C4"/>
</mask>
<g mask="url(#mask1_793_11700)">
<rect x="117" y="99.252" width="81" height="6.50296" rx="3.25148" fill="#D8DCEE"/>
<rect x="117" y="98.8457" width="20.25" height="6.9094" fill="#D8DCEE"/>
<rect x="117" y="99.252" width="20.25" height="6.50296" fill="#D8DCEE"/>
<rect opacity="0.75" x="137.251" y="99.252" width="20.25" height="6.50296" fill="#D8DCEE"/>
<rect opacity="0.5" x="157.5" y="99.252" width="20.25" height="6.50296" fill="#D8DCEE"/>
<rect x="177.75" y="99.252" width="20.25" height="6.50296" fill="#EFEFFD"/>
</g>
</g>
<g opacity="0.9" filter="url(#filter2_i_793_11700)">
<rect x="214" y="64.2812" width="81" height="32" fill="#F3D9DA"/>
</g>
<path d="M222.694 85.4523L222.251 88.1348H221.917L222.36 85.4523H222.694ZM222.893 87.1187V87.4154H220.592V87.1187H222.893ZM221.73 85.4523L221.287 88.1348H220.95L221.393 85.4523H221.73ZM223.072 86.1676V86.4684H220.767V86.1676H223.072ZM225.621 85.8262H224.117V86.6066H225.296V86.9805H224.117V88.1348H223.682V85.4523H225.621V85.8262ZM227.082 88.1754C226.83 88.1754 226.61 88.1199 226.423 88.0088C226.239 87.895 226.113 87.7365 226.045 87.5332L226.468 87.3341C226.492 87.4316 226.53 87.5156 226.582 87.5861C226.633 87.6565 226.701 87.7107 226.785 87.7487C226.869 87.7839 226.973 87.8015 227.098 87.8015C227.204 87.8015 227.293 87.7825 227.366 87.7446C227.439 87.7067 227.495 87.6538 227.533 87.5861C227.573 87.5183 227.594 87.4411 227.594 87.3544C227.594 87.265 227.576 87.1905 227.541 87.1309C227.508 87.0713 227.456 87.0279 227.382 87.0008C227.312 86.9737 227.221 86.9602 227.11 86.9602C227.078 86.9602 227.044 86.9615 227.008 86.9642C226.976 86.9642 226.941 86.9669 226.903 86.9724V86.6066C226.927 86.6093 226.95 86.612 226.972 86.6147C226.996 86.6147 227.019 86.6147 227.041 86.6147C227.217 86.6147 227.343 86.5795 227.419 86.509C227.495 86.4386 227.533 86.3288 227.533 86.1798C227.533 86.0525 227.493 85.9549 227.415 85.8872C227.339 85.8194 227.229 85.7856 227.086 85.7856C226.937 85.7856 226.82 85.8208 226.736 85.8912C226.655 85.959 226.593 86.0579 226.549 86.1879L226.151 86.0213C226.189 85.8967 226.252 85.7883 226.342 85.6962C226.431 85.604 226.541 85.5336 226.671 85.4848C226.804 85.4333 226.949 85.4076 227.106 85.4076C227.298 85.4076 227.458 85.4387 227.586 85.5011C227.716 85.5634 227.812 85.6487 227.874 85.7571C227.939 85.8655 227.972 85.9861 227.972 86.1188C227.972 86.2218 227.957 86.3126 227.927 86.3912C227.897 86.467 227.857 86.5334 227.805 86.5903C227.756 86.6445 227.702 86.6865 227.642 86.7163C227.586 86.7461 227.527 86.7664 227.468 86.7773V86.7854C227.546 86.7881 227.618 86.8044 227.683 86.8342C227.751 86.8613 227.81 86.9006 227.862 86.952C227.916 87.0008 227.958 87.0604 227.988 87.1309C228.018 87.2013 228.033 87.2785 228.033 87.3625C228.033 87.5251 227.992 87.6674 227.911 87.7893C227.829 87.9112 227.717 88.0061 227.573 88.0738C227.432 88.1415 227.269 88.1754 227.082 88.1754ZM229.739 85.4523C230.159 85.4523 230.486 85.5688 230.719 85.8018C230.955 86.0321 231.073 86.3627 231.073 86.7935C231.073 87.2244 230.955 87.5563 230.719 87.7893C230.486 88.0196 230.159 88.1348 229.739 88.1348H228.792V85.4523H229.739ZM229.739 87.7649C230.024 87.7649 230.241 87.6809 230.39 87.5129C230.541 87.3422 230.617 87.1024 230.617 86.7935C230.617 86.4846 230.541 86.2462 230.39 86.0782C230.241 85.9075 230.024 85.8221 229.739 85.8221H229.227V87.7649H229.739ZM232.644 85.4116C232.875 85.4116 233.068 85.4686 233.226 85.5824C233.385 85.6962 233.505 85.856 233.583 86.0619C233.664 86.2679 233.705 86.5104 233.705 86.7895C233.705 87.0984 233.663 87.3558 233.579 87.5617C233.495 87.7649 233.375 87.918 233.217 88.021C233.06 88.1239 232.871 88.1754 232.648 88.1754C232.421 88.1754 232.226 88.1253 232.063 88.025C231.901 87.9248 231.779 87.7744 231.697 87.5739L232.108 87.3829C232.146 87.5102 232.208 87.6118 232.295 87.6877C232.384 87.7636 232.505 87.8015 232.657 87.8015C232.781 87.8015 232.885 87.7771 232.969 87.7283C233.053 87.6796 233.12 87.6091 233.169 87.517C233.22 87.4249 233.257 87.3138 233.278 87.1837C233.3 87.0536 233.311 86.9073 233.311 86.7448C233.311 86.7366 233.311 86.7299 233.311 86.7244C233.311 86.7163 233.311 86.7082 233.311 86.7H233.295C233.265 86.8084 233.211 86.8965 233.132 86.9642C233.056 87.032 232.969 87.0821 232.872 87.1146C232.774 87.1444 232.677 87.1593 232.579 87.1593C232.406 87.1593 232.251 87.1255 232.116 87.0577C231.983 86.9873 231.879 86.8897 231.803 86.7651C231.727 86.6404 231.689 86.4928 231.689 86.3221C231.689 86.1351 231.727 85.9739 231.803 85.8384C231.882 85.7029 231.991 85.5986 232.132 85.5255C232.276 85.4496 232.447 85.4116 232.644 85.4116ZM232.648 85.7937C232.478 85.7937 232.346 85.8398 232.254 85.9319C232.165 86.024 232.12 86.1527 232.12 86.318C232.12 86.4643 232.167 86.5795 232.262 86.6635C232.36 86.7448 232.489 86.7854 232.648 86.7854C232.751 86.7854 232.842 86.7651 232.921 86.7244C232.999 86.6811 233.06 86.6228 233.104 86.5497C233.15 86.4765 233.173 86.3912 233.173 86.2936C233.173 86.1907 233.15 86.1026 233.104 86.0294C233.06 85.9536 232.999 85.8953 232.921 85.8547C232.842 85.814 232.751 85.7937 232.648 85.7937ZM235.417 85.4523C235.837 85.4523 236.163 85.5688 236.396 85.8018C236.632 86.0321 236.75 86.3627 236.75 86.7935C236.75 87.2244 236.632 87.5563 236.396 87.7893C236.163 88.0196 235.837 88.1348 235.417 88.1348H234.47V85.4523H235.417ZM235.417 87.7649C235.701 87.7649 235.918 87.6809 236.067 87.5129C236.219 87.3422 236.295 87.1024 236.295 86.7935C236.295 86.4846 236.219 86.2462 236.067 86.0782C235.918 85.9075 235.701 85.8221 235.417 85.8221H234.905V87.7649H235.417ZM239.649 88.1348H239.19L238.934 87.4316H237.808L237.552 88.1348H237.105L238.117 85.4523H238.637L239.649 88.1348ZM237.93 87.078H238.812L238.373 85.8262L237.93 87.078Z" fill="#262626"/>
<mask id="mask2_793_11700" style="mask-type:alpha" maskUnits="userSpaceOnUse" x="214" y="99" width="81" height="7">
<rect x="214" y="99.252" width="81" height="6.50296" rx="3.25148" fill="#C4C4C4"/>
</mask>
<g mask="url(#mask2_793_11700)">
<rect x="214" y="99.252" width="81" height="6.50296" rx="3.25148" fill="white"/>
<rect x="214" y="98.8457" width="20.25" height="6.9094" fill="#F3D9DA"/>
<rect x="214" y="99.252" width="20.25" height="6.50296" fill="#F3D9DA"/>
<rect opacity="0.75" x="234.251" y="99.252" width="20.25" height="6.50296" fill="#F3D9DA"/>
<rect opacity="0.5" x="254.5" y="99.252" width="20.25" height="6.50296" fill="#F3D9DA"/>
<rect opacity="0.25" x="274.75" y="99.252" width="20.25" height="6.50296" fill="#F3D9DA"/>
</g>
<g opacity="0.9" filter="url(#filter3_i_793_11700)">
<rect x="20" y="120.755" width="63.0296" height="32.5148" fill="#F5F3F3"/>
</g>
<path d="M28.6936 143.207L28.2506 145.89H27.9173L28.3603 143.207H28.6936ZM28.8928 144.874V145.17H26.5923V144.874H28.8928ZM27.7304 143.207L27.2873 145.89H26.95L27.393 143.207H27.7304ZM29.0716 143.923V144.223H26.7671V143.923H29.0716ZM30.5604 145.93C30.2379 145.93 29.9846 145.814 29.8003 145.581C29.6188 145.345 29.528 145.001 29.528 144.548C29.528 144.096 29.6188 143.753 29.8003 143.52C29.9846 143.284 30.2379 143.167 30.5604 143.167C30.8855 143.167 31.1389 143.284 31.3204 143.52C31.5046 143.753 31.5968 144.096 31.5968 144.548C31.5968 145.001 31.5046 145.345 31.3204 145.581C31.1389 145.814 30.8855 145.93 30.5604 145.93ZM30.5604 145.56C30.6904 145.56 30.7988 145.524 30.8855 145.451C30.9749 145.375 31.0413 145.262 31.0847 145.113C31.1307 144.962 31.1538 144.773 31.1538 144.548C31.1538 144.324 31.1307 144.137 31.0847 143.988C31.0413 143.836 30.9749 143.723 30.8855 143.65C30.7988 143.574 30.6904 143.536 30.5604 143.536C30.4303 143.536 30.3206 143.574 30.2311 143.65C30.1444 143.723 30.0794 143.836 30.0361 143.988C29.9927 144.137 29.971 144.324 29.971 144.548C29.971 144.773 29.9927 144.962 30.0361 145.113C30.0794 145.262 30.1444 145.375 30.2311 145.451C30.3206 145.524 30.4303 145.56 30.5604 145.56ZM32.3565 145.89V143.207H34.2993V143.581H32.7914V144.353H33.9701V144.719H32.7914V145.516H34.3562V145.89H32.3565ZM35.9402 145.93C35.6178 145.93 35.3644 145.814 35.1802 145.581C34.9987 145.345 34.9079 145.001 34.9079 144.548C34.9079 144.096 34.9987 143.753 35.1802 143.52C35.3644 143.284 35.6178 143.167 35.9402 143.167C36.2654 143.167 36.5187 143.284 36.7003 143.52C36.8845 143.753 36.9766 144.096 36.9766 144.548C36.9766 145.001 36.8845 145.345 36.7003 145.581C36.5187 145.814 36.2654 145.93 35.9402 145.93ZM35.9402 145.56C36.0703 145.56 36.1787 145.524 36.2654 145.451C36.3548 145.375 36.4212 145.262 36.4645 145.113C36.5106 144.962 36.5336 144.773 36.5336 144.548C36.5336 144.324 36.5106 144.137 36.4645 143.988C36.4212 143.836 36.3548 143.723 36.2654 143.65C36.1787 143.574 36.0703 143.536 35.9402 143.536C35.8102 143.536 35.7004 143.574 35.611 143.65C35.5243 143.723 35.4593 143.836 35.4159 143.988C35.3726 144.137 35.3509 144.324 35.3509 144.548C35.3509 144.773 35.3726 144.962 35.4159 145.113C35.4593 145.262 35.5243 145.375 35.611 145.451C35.7004 145.524 35.8102 145.56 35.9402 145.56ZM37.7364 145.89V143.207H39.6791V143.581H38.1713V144.353H39.3499V144.719H38.1713V145.516H39.736V145.89H37.7364ZM40.3284 145.89V145.573C40.5858 145.388 40.8012 145.226 40.9746 145.085C41.1507 144.944 41.2916 144.814 41.3973 144.695C41.503 144.576 41.5789 144.463 41.6249 144.357C41.6737 144.249 41.6981 144.139 41.6981 144.028C41.6981 143.885 41.6534 143.768 41.564 143.679C41.4745 143.589 41.3499 143.545 41.19 143.545C41.022 143.545 40.8879 143.601 40.7877 143.715C40.6901 143.826 40.6346 143.979 40.621 144.174L40.243 144C40.262 143.829 40.3121 143.681 40.3934 143.557C40.4747 143.432 40.5844 143.336 40.7226 143.268C40.8635 143.2 41.0261 143.167 41.2104 143.167C41.3621 143.167 41.4949 143.188 41.6087 143.232C41.7252 143.275 41.8227 143.336 41.9013 143.414C41.9799 143.49 42.0395 143.58 42.0801 143.683C42.1235 143.786 42.1452 143.895 42.1452 144.012C42.1452 144.183 42.1032 144.348 42.0192 144.508C41.9352 144.665 41.8024 144.826 41.6209 144.991C41.4393 145.157 41.2009 145.334 40.9055 145.524V145.532C40.938 145.527 40.9828 145.524 41.0397 145.524C41.0966 145.521 41.1535 145.52 41.2104 145.52C41.2673 145.517 41.3133 145.516 41.3485 145.516H42.1939V145.89H40.3284ZM45.1728 145.178C45.1186 145.341 45.0373 145.479 44.9289 145.593C44.8205 145.704 44.6932 145.788 44.5468 145.845C44.4005 145.902 44.2393 145.93 44.0632 145.93C43.8058 145.93 43.5822 145.875 43.3926 145.764C43.2029 145.653 43.0566 145.494 42.9536 145.288C42.8507 145.082 42.7992 144.836 42.7992 144.548C42.7992 144.261 42.8507 144.015 42.9536 143.809C43.0566 143.603 43.2029 143.444 43.3926 143.333C43.5822 143.222 43.8044 143.167 44.0591 143.167C44.2352 143.167 44.3938 143.191 44.5347 143.24C44.6783 143.288 44.8002 143.362 44.9004 143.459C45.0007 143.557 45.0779 143.679 45.1321 143.825L44.7216 144.008C44.6674 143.848 44.5888 143.731 44.4859 143.658C44.3829 143.582 44.2488 143.545 44.0835 143.545C43.9182 143.545 43.7733 143.584 43.6486 143.662C43.524 143.741 43.4264 143.855 43.356 144.004C43.2882 144.153 43.2544 144.334 43.2544 144.548C43.2544 144.76 43.2869 144.941 43.3519 145.093C43.417 145.242 43.5104 145.356 43.6324 145.434C43.7543 145.513 43.9006 145.552 44.0713 145.552C44.2366 145.552 44.3789 145.51 44.4981 145.426C44.62 145.34 44.7067 145.211 44.7582 145.04L45.1728 145.178Z" fill="#262626"/>
<g opacity="0.9" filter="url(#filter4_i_793_11700)">
<rect x="90.75" y="120.755" width="63.0296" height="32.5148" fill="#1E1E1E"/>
</g>
<path d="M99.4436 143.207L99.0006 145.89H98.6673L99.1103 143.207H99.4436ZM99.6428 144.874V145.17H97.3423V144.874H99.6428ZM98.4804 143.207L98.0373 145.89H97.7L98.143 143.207H98.4804ZM99.8216 143.923V144.223H97.5171V143.923H99.8216ZM100.859 145.89V144.048C100.859 143.994 100.859 143.939 100.859 143.882C100.862 143.822 100.865 143.76 100.867 143.695C100.775 143.784 100.67 143.862 100.55 143.927C100.434 143.989 100.313 144.034 100.189 144.061L100.107 143.683C100.164 143.675 100.231 143.656 100.306 143.626C100.382 143.596 100.461 143.558 100.542 143.512C100.623 143.466 100.698 143.417 100.766 143.366C100.833 143.311 100.886 143.259 100.924 143.207H101.29V145.89H100.859ZM102.19 145.89V143.207H104.132V143.581H102.625V144.353H103.803V144.719H102.625V145.516H104.189V145.89H102.19ZM105.322 145.89V144.048C105.322 143.994 105.322 143.939 105.322 143.882C105.325 143.822 105.328 143.76 105.33 143.695C105.238 143.784 105.133 143.862 105.013 143.927C104.897 143.989 104.776 144.034 104.652 144.061L104.57 143.683C104.627 143.675 104.694 143.656 104.769 143.626C104.845 143.596 104.924 143.558 105.005 143.512C105.086 143.466 105.161 143.417 105.229 143.366C105.296 143.311 105.349 143.259 105.387 143.207H105.753V145.89H105.322ZM106.653 145.89V143.207H108.595V143.581H107.088V144.353H108.266V144.719H107.088V145.516H108.652V145.89H106.653ZM109.785 145.89V144.048C109.785 143.994 109.785 143.939 109.785 143.882C109.788 143.822 109.791 143.76 109.793 143.695C109.701 143.784 109.596 143.862 109.476 143.927C109.36 143.989 109.239 144.034 109.115 144.061L109.033 143.683C109.09 143.675 109.157 143.656 109.232 143.626C109.308 143.596 109.387 143.558 109.468 143.512C109.549 143.466 109.624 143.417 109.692 143.366C109.759 143.311 109.812 143.259 109.85 143.207H110.216V145.89H109.785ZM111.116 145.89V143.207H113.058V143.581H111.551V144.353H112.729V144.719H111.551V145.516H113.115V145.89H111.116Z" fill="#FAFCFE"/>
<g opacity="0.9" filter="url(#filter5_i_793_11700)">
<rect x="161.5" y="120.755" width="63.0296" height="32.5148" fill="#757575"/>
</g>
<path d="M170.194 143.207L169.751 145.89H169.417L169.86 143.207H170.194ZM170.393 144.874V145.17H168.092V144.874H170.393ZM169.23 143.207L168.787 145.89H168.45L168.893 143.207H169.23ZM170.572 143.923V144.223H168.267V143.923H170.572ZM170.939 143.207H172.983V143.569C172.758 143.802 172.577 144.042 172.438 144.288C172.3 144.532 172.2 144.787 172.138 145.052C172.078 145.315 172.048 145.594 172.048 145.89H171.609C171.609 145.592 171.646 145.302 171.719 145.02C171.795 144.735 171.909 144.464 172.06 144.207C172.215 143.947 172.409 143.703 172.642 143.475L172.723 143.585H170.939V143.207ZM174.394 145.93C174.156 145.93 173.96 145.879 173.805 145.776C173.653 145.673 173.533 145.524 173.443 145.329L173.85 145.117C173.89 145.247 173.951 145.355 174.033 145.439C174.117 145.52 174.24 145.56 174.403 145.56C174.516 145.56 174.613 145.54 174.691 145.499C174.772 145.456 174.835 145.397 174.878 145.321C174.921 145.242 174.943 145.149 174.943 145.04C174.943 144.926 174.923 144.832 174.882 144.756C174.842 144.68 174.783 144.623 174.707 144.585C174.632 144.544 174.537 144.524 174.423 144.524C174.344 144.524 174.271 144.532 174.203 144.548C174.136 144.565 174.075 144.59 174.021 144.626C173.966 144.658 173.919 144.702 173.878 144.756L173.521 144.687L173.683 143.207H175.244V143.581H174.029L173.931 144.337L173.923 144.382H173.931C173.993 144.314 174.073 144.261 174.171 144.223C174.271 144.185 174.389 144.166 174.525 144.166C174.698 144.166 174.847 144.203 174.972 144.276C175.096 144.347 175.194 144.445 175.264 144.573C175.335 144.7 175.37 144.848 175.37 145.016C175.37 145.162 175.346 145.292 175.297 145.406C175.248 145.52 175.179 145.616 175.089 145.695C175 145.773 174.896 145.833 174.777 145.873C174.66 145.911 174.533 145.93 174.394 145.93ZM175.834 143.207H177.879V143.569C177.654 143.802 177.472 144.042 177.334 144.288C177.196 144.532 177.096 144.787 177.033 145.052C176.974 145.315 176.944 145.594 176.944 145.89H176.505C176.505 145.592 176.541 145.302 176.615 145.02C176.69 144.735 176.804 144.464 176.956 144.207C177.11 143.947 177.304 143.703 177.537 143.475L177.618 143.585H175.834V143.207ZM179.29 145.93C179.052 145.93 178.855 145.879 178.701 145.776C178.549 145.673 178.428 145.524 178.339 145.329L178.745 145.117C178.786 145.247 178.847 145.355 178.928 145.439C179.012 145.52 179.136 145.56 179.298 145.56C179.412 145.56 179.508 145.54 179.587 145.499C179.668 145.456 179.73 145.397 179.774 145.321C179.817 145.242 179.839 145.149 179.839 145.04C179.839 144.926 179.818 144.832 179.778 144.756C179.737 144.68 179.679 144.623 179.603 144.585C179.527 144.544 179.432 144.524 179.319 144.524C179.24 144.524 179.167 144.532 179.099 144.548C179.031 144.565 178.97 144.59 178.916 144.626C178.862 144.658 178.815 144.702 178.774 144.756L178.416 144.687L178.579 143.207H180.14V143.581H178.924L178.827 144.337L178.819 144.382H178.827C178.889 144.314 178.969 144.261 179.067 144.223C179.167 144.185 179.285 144.166 179.42 144.166C179.594 144.166 179.743 144.203 179.867 144.276C179.992 144.347 180.089 144.445 180.16 144.573C180.23 144.7 180.266 144.848 180.266 145.016C180.266 145.162 180.241 145.292 180.192 145.406C180.144 145.52 180.075 145.616 179.985 145.695C179.896 145.773 179.791 145.833 179.672 145.873C179.556 145.911 179.428 145.93 179.29 145.93ZM180.73 143.207H182.774V143.569C182.549 143.802 182.368 144.042 182.23 144.288C182.091 144.532 181.991 144.787 181.929 145.052C181.869 145.315 181.839 145.594 181.839 145.89H181.4C181.4 145.592 181.437 145.302 181.51 145.02C181.586 144.735 181.7 144.464 181.852 144.207C182.006 143.947 182.2 143.703 182.433 143.475L182.514 143.585H180.73V143.207ZM184.186 145.93C183.947 145.93 183.751 145.879 183.596 145.776C183.445 145.673 183.324 145.524 183.235 145.329L183.641 145.117C183.682 145.247 183.743 145.355 183.824 145.439C183.908 145.52 184.031 145.56 184.194 145.56C184.308 145.56 184.404 145.54 184.482 145.499C184.564 145.456 184.626 145.397 184.669 145.321C184.713 145.242 184.734 145.149 184.734 145.04C184.734 144.926 184.714 144.832 184.673 144.756C184.633 144.68 184.575 144.623 184.499 144.585C184.423 144.544 184.328 144.524 184.214 144.524C184.136 144.524 184.062 144.532 183.995 144.548C183.927 144.565 183.866 144.59 183.812 144.626C183.758 144.658 183.71 144.702 183.67 144.756L183.312 144.687L183.474 143.207H185.035V143.581H183.82L183.722 144.337L183.714 144.382H183.722C183.785 144.314 183.865 144.261 183.962 144.223C184.062 144.185 184.18 144.166 184.316 144.166C184.489 144.166 184.638 144.203 184.763 144.276C184.888 144.347 184.985 144.445 185.056 144.573C185.126 144.7 185.161 144.848 185.161 145.016C185.161 145.162 185.137 145.292 185.088 145.406C185.039 145.52 184.97 145.616 184.881 145.695C184.791 145.773 184.687 145.833 184.568 145.873C184.451 145.911 184.324 145.93 184.186 145.93Z" fill="#262626"/>
<g opacity="0.9" filter="url(#filter6_i_793_11700)">
<rect x="232.25" y="120.755" width="63.0296" height="32.5148" fill="#C2C2C2"/>
</g>
<path d="M240.944 143.207L240.501 145.89H240.167L240.61 143.207H240.944ZM241.143 144.874V145.17H238.842V144.874H241.143ZM239.98 143.207L239.537 145.89H239.2L239.643 143.207H239.98ZM241.322 143.923V144.223H239.017V143.923H241.322ZM244.156 145.178C244.101 145.341 244.02 145.479 243.912 145.593C243.803 145.704 243.676 145.788 243.53 145.845C243.383 145.902 243.222 145.93 243.046 145.93C242.789 145.93 242.565 145.875 242.375 145.764C242.186 145.653 242.039 145.494 241.937 145.288C241.834 145.082 241.782 144.836 241.782 144.548C241.782 144.261 241.834 144.015 241.937 143.809C242.039 143.603 242.186 143.444 242.375 143.333C242.565 143.222 242.787 143.167 243.042 143.167C243.218 143.167 243.377 143.191 243.518 143.24C243.661 143.288 243.783 143.362 243.883 143.459C243.984 143.557 244.061 143.679 244.115 143.825L243.705 144.008C243.65 143.848 243.572 143.731 243.469 143.658C243.366 143.582 243.232 143.545 243.066 143.545C242.901 143.545 242.756 143.584 242.632 143.662C242.507 143.741 242.409 143.855 242.339 144.004C242.271 144.153 242.237 144.334 242.237 144.548C242.237 144.76 242.27 144.941 242.335 145.093C242.4 145.242 242.493 145.356 242.615 145.434C242.737 145.513 242.884 145.552 243.054 145.552C243.22 145.552 243.362 145.51 243.481 145.426C243.603 145.34 243.69 145.211 243.741 145.04L244.156 145.178ZM244.719 145.89V145.573C244.976 145.388 245.192 145.226 245.365 145.085C245.541 144.944 245.682 144.814 245.788 144.695C245.894 144.576 245.969 144.463 246.015 144.357C246.064 144.249 246.089 144.139 246.089 144.028C246.089 143.885 246.044 143.768 245.955 143.679C245.865 143.589 245.74 143.545 245.581 143.545C245.413 143.545 245.278 143.601 245.178 143.715C245.081 143.826 245.025 143.979 245.012 144.174L244.634 144C244.653 143.829 244.703 143.681 244.784 143.557C244.865 143.432 244.975 143.336 245.113 143.268C245.254 143.2 245.417 143.167 245.601 143.167C245.753 143.167 245.885 143.188 245.999 143.232C246.116 143.275 246.213 143.336 246.292 143.414C246.37 143.49 246.43 143.58 246.471 143.683C246.514 143.786 246.536 143.895 246.536 144.012C246.536 144.183 246.494 144.348 246.41 144.508C246.326 144.665 246.193 144.826 246.011 144.991C245.83 145.157 245.591 145.334 245.296 145.524V145.532C245.329 145.527 245.373 145.524 245.43 145.524C245.487 145.521 245.544 145.52 245.601 145.52C245.658 145.517 245.704 145.516 245.739 145.516H246.584V145.89H244.719ZM249.563 145.178C249.509 145.341 249.428 145.479 249.319 145.593C249.211 145.704 249.084 145.788 248.937 145.845C248.791 145.902 248.63 145.93 248.454 145.93C248.196 145.93 247.973 145.875 247.783 145.764C247.593 145.653 247.447 145.494 247.344 145.288C247.241 145.082 247.19 144.836 247.19 144.548C247.19 144.261 247.241 144.015 247.344 143.809C247.447 143.603 247.593 143.444 247.783 143.333C247.973 143.222 248.195 143.167 248.45 143.167C248.626 143.167 248.784 143.191 248.925 143.24C249.069 143.288 249.191 143.362 249.291 143.459C249.391 143.557 249.468 143.679 249.523 143.825L249.112 144.008C249.058 143.848 248.979 143.731 248.876 143.658C248.773 143.582 248.639 143.545 248.474 143.545C248.309 143.545 248.164 143.584 248.039 143.662C247.915 143.741 247.817 143.855 247.747 144.004C247.679 144.153 247.645 144.334 247.645 144.548C247.645 144.76 247.677 144.941 247.742 145.093C247.808 145.242 247.901 145.356 248.023 145.434C248.145 145.513 248.291 145.552 248.462 145.552C248.627 145.552 248.769 145.51 248.889 145.426C249.011 145.34 249.097 145.211 249.149 145.04L249.563 145.178ZM250.127 145.89V145.573C250.384 145.388 250.599 145.226 250.773 145.085C250.949 144.944 251.09 144.814 251.196 144.695C251.301 144.576 251.377 144.463 251.423 144.357C251.472 144.249 251.496 144.139 251.496 144.028C251.496 143.885 251.452 143.768 251.362 143.679C251.273 143.589 251.148 143.545 250.988 143.545C250.82 143.545 250.686 143.601 250.586 143.715C250.488 143.826 250.433 143.979 250.419 144.174L250.041 144C250.06 143.829 250.11 143.681 250.192 143.557C250.273 143.432 250.383 143.336 250.521 143.268C250.662 143.2 250.824 143.167 251.009 143.167C251.16 143.167 251.293 143.188 251.407 143.232C251.523 143.275 251.621 143.336 251.7 143.414C251.778 143.49 251.838 143.58 251.878 143.683C251.922 143.786 251.943 143.895 251.943 144.012C251.943 144.183 251.901 144.348 251.817 144.508C251.733 144.665 251.601 144.826 251.419 144.991C251.238 145.157 250.999 145.334 250.704 145.524V145.532C250.736 145.527 250.781 145.524 250.838 145.524C250.895 145.521 250.952 145.52 251.009 145.52C251.065 145.517 251.112 145.516 251.147 145.516H251.992V145.89H250.127ZM254.971 145.178C254.917 145.341 254.835 145.479 254.727 145.593C254.619 145.704 254.491 145.788 254.345 145.845C254.199 145.902 254.038 145.93 253.861 145.93C253.604 145.93 253.38 145.875 253.191 145.764C253.001 145.653 252.855 145.494 252.752 145.288C252.649 145.082 252.597 144.836 252.597 144.548C252.597 144.261 252.649 144.015 252.752 143.809C252.855 143.603 253.001 143.444 253.191 143.333C253.38 143.222 253.603 143.167 253.857 143.167C254.033 143.167 254.192 143.191 254.333 143.24C254.476 143.288 254.598 143.362 254.699 143.459C254.799 143.557 254.876 143.679 254.93 143.825L254.52 144.008C254.466 143.848 254.387 143.731 254.284 143.658C254.181 143.582 254.047 143.545 253.882 143.545C253.716 143.545 253.571 143.584 253.447 143.662C253.322 143.741 253.225 143.855 253.154 144.004C253.086 144.153 253.053 144.334 253.053 144.548C253.053 144.76 253.085 144.941 253.15 145.093C253.215 145.242 253.309 145.356 253.431 145.434C253.553 145.513 253.699 145.552 253.87 145.552C254.035 145.552 254.177 145.51 254.296 145.426C254.418 145.34 254.505 145.211 254.556 145.04L254.971 145.178ZM255.534 145.89V145.573C255.792 145.388 256.007 145.226 256.18 145.085C256.357 144.944 256.498 144.814 256.603 144.695C256.709 144.576 256.785 144.463 256.831 144.357C256.88 144.249 256.904 144.139 256.904 144.028C256.904 143.885 256.859 143.768 256.77 143.679C256.68 143.589 256.556 143.545 256.396 143.545C256.228 143.545 256.094 143.601 255.994 143.715C255.896 143.826 255.84 143.979 255.827 144.174L255.449 144C255.468 143.829 255.518 143.681 255.599 143.557C255.681 143.432 255.79 143.336 255.929 143.268C256.069 143.2 256.232 143.167 256.416 143.167C256.568 143.167 256.701 143.188 256.815 143.232C256.931 143.275 257.029 143.336 257.107 143.414C257.186 143.49 257.245 143.58 257.286 143.683C257.329 143.786 257.351 143.895 257.351 144.012C257.351 144.183 257.309 144.348 257.225 144.508C257.141 144.665 257.008 144.826 256.827 144.991C256.645 145.157 256.407 145.334 256.111 145.524V145.532C256.144 145.527 256.189 145.524 256.246 145.524C256.302 145.521 256.359 145.52 256.416 145.52C256.473 145.517 256.519 145.516 256.554 145.516H257.4V145.89H255.534Z" fill="#262626"/>
<rect x="334.75" y="1.38477" width="315.5" height="182.5" rx="1.25" fill="#F0F0F0"/>
<rect x="334.75" y="1.38477" width="315.5" height="182.5" rx="1.25" stroke="#333333" stroke-width="1.5"/>
<path d="M362.302 42.6348V31.2768H358.54V30.0348H367.576V31.2768H363.814V42.6348H362.302ZM369.713 46.5948L371.927 41.6268H371.405L367.841 33.5628H369.479L372.431 40.4928L375.527 33.5628H377.093L371.297 46.5948H369.713ZM378.995 46.5948V33.5628H380.363L380.489 35.0388C380.681 34.7508 380.927 34.4808 381.227 34.2288C381.527 33.9648 381.887 33.7548 382.307 33.5988C382.727 33.4308 383.207 33.3468 383.747 33.3468C384.635 33.3468 385.403 33.5568 386.051 33.9768C386.711 34.3968 387.221 34.9668 387.581 35.6868C387.953 36.3948 388.139 37.2048 388.139 38.1168C388.139 39.0288 387.953 39.8448 387.581 40.5648C387.221 41.2728 386.711 41.8308 386.051 42.2388C385.391 42.6468 384.617 42.8508 383.729 42.8508C382.997 42.8508 382.349 42.7008 381.785 42.4008C381.233 42.1008 380.807 41.6808 380.507 41.1408V46.5948H378.995ZM383.567 41.5368C384.155 41.5368 384.677 41.3928 385.133 41.1048C385.589 40.8168 385.943 40.4208 386.195 39.9168C386.459 39.4008 386.591 38.7948 386.591 38.0988C386.591 37.4148 386.459 36.8148 386.195 36.2988C385.943 35.7828 385.589 35.3808 385.133 35.0928C384.677 34.8048 384.155 34.6608 383.567 34.6608C382.967 34.6608 382.439 34.8048 381.983 35.0928C381.527 35.3808 381.173 35.7828 380.921 36.2988C380.669 36.8148 380.543 37.4148 380.543 38.0988C380.543 38.7948 380.669 39.4008 380.921 39.9168C381.173 40.4208 381.527 40.8168 381.983 41.1048C382.439 41.3928 382.967 41.5368 383.567 41.5368ZM394.583 42.8508C393.743 42.8508 392.987 42.6588 392.315 42.2748C391.643 41.8788 391.115 41.3268 390.731 40.6188C390.347 39.8988 390.155 39.0648 390.155 38.1168C390.155 37.1448 390.347 36.3048 390.731 35.5968C391.127 34.8768 391.661 34.3248 392.333 33.9408C393.017 33.5448 393.779 33.3468 394.619 33.3468C395.483 33.3468 396.245 33.5448 396.905 33.9408C397.577 34.3248 398.105 34.8768 398.489 35.5968C398.885 36.3048 399.083 37.1388 399.083 38.0988C399.083 39.0588 398.885 39.8988 398.489 40.6188C398.093 41.3268 397.559 41.8788 396.887 42.2748C396.215 42.6588 395.447 42.8508 394.583 42.8508ZM394.601 41.5548C395.117 41.5548 395.597 41.4288 396.041 41.1768C396.485 40.9128 396.845 40.5228 397.121 40.0068C397.397 39.4908 397.535 38.8548 397.535 38.0988C397.535 37.3308 397.397 36.6948 397.121 36.1908C396.857 35.6748 396.503 35.2908 396.059 35.0388C395.627 34.7748 395.147 34.6428 394.619 34.6428C394.115 34.6428 393.635 34.7748 393.179 35.0388C392.735 35.2908 392.375 35.6748 392.099 36.1908C391.835 36.6948 391.703 37.3308 391.703 38.0988C391.703 38.8548 391.835 39.4908 392.099 40.0068C392.375 40.5228 392.729 40.9128 393.161 41.1768C393.605 41.4288 394.085 41.5548 394.601 41.5548ZM404.668 46.8108C403.852 46.8108 403.126 46.7028 402.49 46.4868C401.866 46.2828 401.38 45.9648 401.032 45.5328C400.684 45.1008 400.51 44.5668 400.51 43.9308C400.51 43.6548 400.564 43.3608 400.672 43.0488C400.792 42.7368 400.99 42.4308 401.266 42.1308C401.554 41.8308 401.956 41.5608 402.472 41.3208L403.516 41.9328C402.88 42.1968 402.466 42.4968 402.274 42.8328C402.082 43.1808 401.986 43.4988 401.986 43.7868C401.986 44.1828 402.1 44.5128 402.328 44.7768C402.556 45.0408 402.874 45.2388 403.282 45.3708C403.69 45.5028 404.152 45.5688 404.668 45.5688C405.184 45.5688 405.628 45.4968 406 45.3528C406.372 45.2088 406.66 45.0048 406.864 44.7408C407.068 44.4768 407.17 44.1648 407.17 43.8048C407.17 43.3848 407.014 43.0308 406.702 42.7428C406.39 42.4668 405.796 42.3048 404.92 42.2568C404.212 42.2088 403.618 42.1428 403.138 42.0588C402.658 41.9748 402.262 41.8788 401.95 41.7708C401.638 41.6508 401.374 41.5188 401.158 41.3748C400.954 41.2308 400.768 41.0808 400.6 40.9248V40.5108L402.346 38.7828L403.66 39.2508L401.86 40.8708L402.094 40.2408C402.226 40.3368 402.352 40.4268 402.472 40.5108C402.592 40.5948 402.754 40.6668 402.958 40.7268C403.162 40.7868 403.444 40.8408 403.804 40.8888C404.176 40.9368 404.662 40.9848 405.262 41.0328C406.09 41.0928 406.75 41.2368 407.242 41.4648C407.746 41.6928 408.106 41.9988 408.322 42.3828C408.55 42.7668 408.664 43.2228 408.664 43.7508C408.664 44.2668 408.52 44.7528 408.232 45.2088C407.956 45.6768 407.524 46.0608 406.936 46.3608C406.348 46.6608 405.592 46.8108 404.668 46.8108ZM404.65 39.7908C403.894 39.7908 403.246 39.6468 402.706 39.3588C402.178 39.0708 401.776 38.6868 401.5 38.2068C401.224 37.7148 401.086 37.1688 401.086 36.5688C401.086 35.9688 401.224 35.4288 401.5 34.9488C401.788 34.4688 402.196 34.0848 402.724 33.7968C403.252 33.4968 403.894 33.3468 404.65 33.3468C405.406 33.3468 406.048 33.4968 406.576 33.7968C407.104 34.0848 407.506 34.4688 407.782 34.9488C408.058 35.4288 408.196 35.9688 408.196 36.5688C408.196 37.1688 408.058 37.7148 407.782 38.2068C407.506 38.6868 407.104 39.0708 406.576 39.3588C406.048 39.6468 405.406 39.7908 404.65 39.7908ZM404.65 38.5488C405.298 38.5488 405.808 38.3808 406.18 38.0448C406.552 37.7088 406.738 37.2168 406.738 36.5688C406.738 35.9328 406.552 35.4468 406.18 35.1108C405.808 34.7748 405.298 34.6068 404.65 34.6068C404.014 34.6068 403.498 34.7748 403.102 35.1108C402.718 35.4468 402.526 35.9328 402.526 36.5688C402.526 37.2168 402.718 37.7088 403.102 38.0448C403.486 38.3808 404.002 38.5488 404.65 38.5488ZM406.126 34.8408L405.676 33.5628H409.384V34.6968L406.126 34.8408ZM411.393 42.6348V33.5628H412.761L412.869 35.2908C413.073 34.8828 413.331 34.5348 413.643 34.2468C413.967 33.9588 414.351 33.7368 414.795 33.5808C415.251 33.4248 415.767 33.3468 416.343 33.3468V34.9308H415.785C415.401 34.9308 415.035 34.9848 414.687 35.0928C414.339 35.1888 414.027 35.3508 413.751 35.5788C413.487 35.8068 413.277 36.1188 413.121 36.5148C412.977 36.8988 412.905 37.3788 412.905 37.9548V42.6348H411.393ZM421.277 42.8508C420.545 42.8508 419.933 42.7248 419.441 42.4728C418.949 42.2088 418.583 41.8668 418.343 41.4468C418.103 41.0148 417.983 40.5468 417.983 40.0428C417.983 39.4308 418.139 38.9148 418.451 38.4948C418.775 38.0628 419.225 37.7388 419.801 37.5228C420.389 37.2948 421.079 37.1808 421.871 37.1808H424.265C424.265 36.6168 424.175 36.1488 423.995 35.7768C423.827 35.3928 423.575 35.1048 423.239 34.9128C422.915 34.7208 422.507 34.6248 422.015 34.6248C421.439 34.6248 420.941 34.7688 420.521 35.0568C420.101 35.3448 419.843 35.7708 419.747 36.3348H418.199C418.271 35.6868 418.487 35.1468 418.847 34.7148C419.219 34.2708 419.687 33.9348 420.251 33.7068C420.815 33.4668 421.403 33.3468 422.015 33.3468C422.855 33.3468 423.551 33.5028 424.103 33.8148C424.667 34.1148 425.087 34.5408 425.363 35.0928C425.639 35.6328 425.777 36.2748 425.777 37.0188V42.6348H424.427L424.337 41.0328C424.217 41.2848 424.061 41.5248 423.869 41.7528C423.689 41.9688 423.473 42.1608 423.221 42.3288C422.969 42.4848 422.681 42.6108 422.357 42.7068C422.045 42.8028 421.685 42.8508 421.277 42.8508ZM421.511 41.5728C421.931 41.5728 422.309 41.4888 422.645 41.3208C422.993 41.1408 423.287 40.9008 423.527 40.6008C423.767 40.2888 423.947 39.9468 424.067 39.5748C424.199 39.2028 424.265 38.8128 424.265 38.4048V38.3508H421.997C421.409 38.3508 420.935 38.4228 420.575 38.5668C420.215 38.6988 419.957 38.8908 419.801 39.1428C419.645 39.3828 419.567 39.6588 419.567 39.9708C419.567 40.2948 419.639 40.5768 419.783 40.8168C419.939 41.0568 420.161 41.2428 420.449 41.3748C420.749 41.5068 421.103 41.5728 421.511 41.5728ZM428.386 46.5948V33.5628H429.754L429.88 35.0388C430.072 34.7508 430.318 34.4808 430.618 34.2288C430.918 33.9648 431.278 33.7548 431.698 33.5988C432.118 33.4308 432.598 33.3468 433.138 33.3468C434.026 33.3468 434.794 33.5568 435.442 33.9768C436.102 34.3968 436.612 34.9668 436.972 35.6868C437.344 36.3948 437.53 37.2048 437.53 38.1168C437.53 39.0288 437.344 39.8448 436.972 40.5648C436.612 41.2728 436.102 41.8308 435.442 42.2388C434.782 42.6468 434.008 42.8508 433.12 42.8508C432.388 42.8508 431.74 42.7008 431.176 42.4008C430.624 42.1008 430.198 41.6808 429.898 41.1408V46.5948H428.386ZM432.958 41.5368C433.546 41.5368 434.068 41.3928 434.524 41.1048C434.98 40.8168 435.334 40.4208 435.586 39.9168C435.85 39.4008 435.982 38.7948 435.982 38.0988C435.982 37.4148 435.85 36.8148 435.586 36.2988C435.334 35.7828 434.98 35.3808 434.524 35.0928C434.068 34.8048 433.546 34.6608 432.958 34.6608C432.358 34.6608 431.83 34.8048 431.374 35.0928C430.918 35.3808 430.564 35.7828 430.312 36.2988C430.06 36.8148 429.934 37.4148 429.934 38.0988C429.934 38.7948 430.06 39.4008 430.312 39.9168C430.564 40.4208 430.918 40.8168 431.374 41.1048C431.83 41.3928 432.358 41.5368 432.958 41.5368ZM439.924 42.6348V29.6748H441.436V35.0928C441.736 34.5528 442.156 34.1268 442.696 33.8148C443.248 33.5028 443.848 33.3468 444.496 33.3468C445.192 33.3468 445.798 33.4908 446.314 33.7788C446.83 34.0548 447.226 34.4808 447.502 35.0568C447.778 35.6328 447.916 36.3588 447.916 37.2348V42.6348H446.422V37.3968C446.422 36.4848 446.23 35.8008 445.846 35.3448C445.462 34.8768 444.904 34.6428 444.172 34.6428C443.656 34.6428 443.188 34.7688 442.768 35.0208C442.36 35.2728 442.036 35.6328 441.796 36.1008C441.556 36.5688 441.436 37.1448 441.436 37.8288V42.6348H439.924ZM451.274 46.5948L453.488 41.6268H452.966L449.402 33.5628H451.04L453.992 40.4928L457.088 33.5628H458.654L452.858 46.5948H451.274Z" fill="#333333"/>
<path d="M367.648 96.4748H379.264L373.552 80.4908H373.456L367.648 96.4748ZM371.056 76.3628H376.096L389.488 110.635H384.448L380.704 100.315H366.208L362.368 110.635H357.712L371.056 76.3628ZM414.181 110.539C413.477 110.955 412.501 111.163 411.253 111.163C410.197 111.163 409.349 110.875 408.709 110.299C408.101 109.691 407.797 108.715 407.797 107.371C406.677 108.715 405.365 109.691 403.861 110.299C402.389 110.875 400.789 111.163 399.061 111.163C397.941 111.163 396.869 111.035 395.845 110.779C394.853 110.523 393.989 110.123 393.253 109.579C392.517 109.035 391.925 108.331 391.477 107.467C391.061 106.571 390.853 105.499 390.853 104.251C390.853 102.843 391.093 101.691 391.573 100.795C392.053 99.8988 392.677 99.1788 393.445 98.6348C394.245 98.0588 395.141 97.6268 396.133 97.3388C397.157 97.0508 398.197 96.8108 399.253 96.6188C400.373 96.3948 401.429 96.2348 402.421 96.1388C403.445 96.0108 404.341 95.8508 405.109 95.6588C405.877 95.4348 406.485 95.1308 406.933 94.7468C407.381 94.3308 407.605 93.7388 407.605 92.9708C407.605 92.0748 407.429 91.3548 407.077 90.8108C406.757 90.2668 406.325 89.8508 405.781 89.5628C405.269 89.2748 404.677 89.0828 404.005 88.9868C403.365 88.8908 402.725 88.8428 402.085 88.8428C400.357 88.8428 398.917 89.1788 397.765 89.8508C396.613 90.4908 395.989 91.7228 395.893 93.5468H391.813C391.877 92.0108 392.197 90.7148 392.773 89.6588C393.349 88.6028 394.117 87.7548 395.077 87.1148C396.037 86.4428 397.125 85.9628 398.341 85.6748C399.589 85.3868 400.917 85.2428 402.325 85.2428C403.445 85.2428 404.549 85.3228 405.637 85.4828C406.757 85.6428 407.765 85.9788 408.661 86.4908C409.557 86.9708 410.277 87.6588 410.821 88.5548C411.365 89.4508 411.637 90.6188 411.637 92.0588V104.827C411.637 105.787 411.685 106.491 411.781 106.939C411.909 107.387 412.293 107.611 412.933 107.611C413.285 107.611 413.701 107.531 414.181 107.371V110.539ZM407.557 97.8188C407.045 98.2028 406.373 98.4908 405.541 98.6828C404.709 98.8428 403.829 98.9868 402.901 99.1148C402.005 99.2108 401.093 99.3388 400.165 99.4988C399.237 99.6268 398.405 99.8508 397.669 100.171C396.933 100.491 396.325 100.955 395.845 101.563C395.397 102.139 395.173 102.939 395.173 103.963C395.173 104.635 395.301 105.211 395.557 105.691C395.845 106.139 396.197 106.507 396.613 106.795C397.061 107.083 397.573 107.291 398.149 107.419C398.725 107.547 399.333 107.611 399.973 107.611C401.317 107.611 402.469 107.435 403.429 107.083C404.389 106.699 405.173 106.235 405.781 105.691C406.389 105.115 406.837 104.507 407.125 103.867C407.413 103.195 407.557 102.571 407.557 101.995V97.8188Z" fill="#BCBDC7"/>
<path d="M359.258 137.158H360.828V141.9H366.797V137.158H368.367V148.635H366.797V143.268H360.828V148.635H359.258V137.158ZM374.078 140.08C374.672 140.08 375.247 140.221 375.805 140.502C376.362 140.778 376.786 141.137 377.078 141.58C377.359 142.002 377.547 142.494 377.641 143.057C377.724 143.442 377.766 144.057 377.766 144.9H371.633C371.659 145.749 371.859 146.432 372.234 146.947C372.609 147.458 373.19 147.713 373.977 147.713C374.711 147.713 375.297 147.471 375.734 146.986C375.984 146.705 376.161 146.38 376.266 146.01H377.648C377.612 146.317 377.49 146.661 377.281 147.041C377.078 147.416 376.849 147.723 376.594 147.963C376.167 148.38 375.638 148.661 375.008 148.807C374.669 148.89 374.286 148.932 373.859 148.932C372.818 148.932 371.935 148.554 371.211 147.799C370.487 147.038 370.125 145.976 370.125 144.611C370.125 143.268 370.49 142.176 371.219 141.338C371.948 140.499 372.901 140.08 374.078 140.08ZM376.32 143.783C376.263 143.174 376.13 142.687 375.922 142.322C375.536 141.645 374.893 141.307 373.992 141.307C373.346 141.307 372.805 141.541 372.367 142.01C371.93 142.473 371.698 143.064 371.672 143.783H376.32ZM379.539 137.158H380.945V148.635H379.539V137.158ZM383.75 140.268L385.984 147.08L388.32 140.268H389.859L386.703 148.635H385.203L382.117 140.268H383.75ZM394.547 140.08C395.141 140.08 395.716 140.221 396.273 140.502C396.831 140.778 397.255 141.137 397.547 141.58C397.828 142.002 398.016 142.494 398.109 143.057C398.193 143.442 398.234 144.057 398.234 144.9H392.102C392.128 145.749 392.328 146.432 392.703 146.947C393.078 147.458 393.659 147.713 394.445 147.713C395.18 147.713 395.766 147.471 396.203 146.986C396.453 146.705 396.63 146.38 396.734 146.01H398.117C398.081 146.317 397.958 146.661 397.75 147.041C397.547 147.416 397.318 147.723 397.062 147.963C396.635 148.38 396.107 148.661 395.477 148.807C395.138 148.89 394.755 148.932 394.328 148.932C393.286 148.932 392.404 148.554 391.68 147.799C390.956 147.038 390.594 145.976 390.594 144.611C390.594 143.268 390.958 142.176 391.688 141.338C392.417 140.499 393.37 140.08 394.547 140.08ZM396.789 143.783C396.732 143.174 396.599 142.687 396.391 142.322C396.005 141.645 395.362 141.307 394.461 141.307C393.815 141.307 393.273 141.541 392.836 142.01C392.398 142.473 392.167 143.064 392.141 143.783H396.789ZM400.25 137.932H401.672V140.268H403.008V141.416H401.672V146.877C401.672 147.169 401.771 147.364 401.969 147.463C402.078 147.52 402.26 147.549 402.516 147.549C402.583 147.549 402.656 147.549 402.734 147.549C402.812 147.544 402.904 147.536 403.008 147.525V148.635C402.846 148.682 402.677 148.715 402.5 148.736C402.328 148.757 402.141 148.768 401.938 148.768C401.281 148.768 400.836 148.601 400.602 148.268C400.367 147.929 400.25 147.492 400.25 146.955V141.416H399.117V140.268H400.25V137.932ZM404.422 140.307H405.852V148.635H404.422V140.307ZM404.422 137.158H405.852V138.752H404.422V137.158ZM411.211 140.025C412.154 140.025 412.919 140.255 413.508 140.713C414.102 141.171 414.458 141.96 414.578 143.08H413.211C413.128 142.564 412.938 142.137 412.641 141.799C412.344 141.455 411.867 141.283 411.211 141.283C410.315 141.283 409.674 141.721 409.289 142.596C409.039 143.163 408.914 143.864 408.914 144.697C408.914 145.536 409.091 146.242 409.445 146.814C409.799 147.387 410.357 147.674 411.117 147.674C411.701 147.674 412.161 147.497 412.5 147.143C412.844 146.783 413.081 146.294 413.211 145.674H414.578C414.422 146.783 414.031 147.596 413.406 148.111C412.781 148.622 411.982 148.877 411.008 148.877C409.914 148.877 409.042 148.479 408.391 147.682C407.74 146.88 407.414 145.88 407.414 144.682C407.414 143.213 407.771 142.07 408.484 141.252C409.198 140.434 410.107 140.025 411.211 140.025ZM417.062 146.408C417.062 146.814 417.211 147.135 417.508 147.369C417.805 147.604 418.156 147.721 418.562 147.721C419.057 147.721 419.536 147.606 420 147.377C420.781 146.997 421.172 146.374 421.172 145.51V144.377C421 144.486 420.779 144.577 420.508 144.65C420.237 144.723 419.971 144.775 419.711 144.807L418.859 144.916C418.349 144.984 417.966 145.09 417.711 145.236C417.279 145.481 417.062 145.872 417.062 146.408ZM420.469 143.564C420.792 143.523 421.008 143.387 421.117 143.158C421.18 143.033 421.211 142.854 421.211 142.619C421.211 142.14 421.039 141.794 420.695 141.58C420.357 141.361 419.87 141.252 419.234 141.252C418.5 141.252 417.979 141.45 417.672 141.846C417.5 142.064 417.388 142.39 417.336 142.822H416.023C416.049 141.791 416.383 141.075 417.023 140.674C417.669 140.268 418.417 140.064 419.266 140.064C420.25 140.064 421.049 140.252 421.664 140.627C422.273 141.002 422.578 141.585 422.578 142.377V147.197C422.578 147.343 422.607 147.46 422.664 147.549C422.727 147.637 422.854 147.682 423.047 147.682C423.109 147.682 423.18 147.679 423.258 147.674C423.336 147.663 423.419 147.65 423.508 147.635V148.674C423.289 148.736 423.122 148.775 423.008 148.791C422.893 148.807 422.737 148.814 422.539 148.814C422.055 148.814 421.703 148.643 421.484 148.299C421.37 148.117 421.289 147.859 421.242 147.525C420.956 147.9 420.544 148.226 420.008 148.502C419.471 148.778 418.88 148.916 418.234 148.916C417.458 148.916 416.823 148.682 416.328 148.213C415.839 147.739 415.594 147.148 415.594 146.439C415.594 145.663 415.836 145.062 416.32 144.635C416.805 144.208 417.44 143.945 418.227 143.846L420.469 143.564ZM429.531 137.158H431.367L437.164 146.455V137.158H438.641V148.635H436.898L431.016 139.346V148.635H429.531V137.158ZM444.391 140.08C444.984 140.08 445.56 140.221 446.117 140.502C446.674 140.778 447.099 141.137 447.391 141.58C447.672 142.002 447.859 142.494 447.953 143.057C448.036 143.442 448.078 144.057 448.078 144.9H441.945C441.971 145.749 442.172 146.432 442.547 146.947C442.922 147.458 443.503 147.713 444.289 147.713C445.023 147.713 445.609 147.471 446.047 146.986C446.297 146.705 446.474 146.38 446.578 146.01H447.961C447.924 146.317 447.802 146.661 447.594 147.041C447.391 147.416 447.161 147.723 446.906 147.963C446.479 148.38 445.951 148.661 445.32 148.807C444.982 148.89 444.599 148.932 444.172 148.932C443.13 148.932 442.247 148.554 441.523 147.799C440.799 147.038 440.438 145.976 440.438 144.611C440.438 143.268 440.802 142.176 441.531 141.338C442.26 140.499 443.214 140.08 444.391 140.08ZM446.633 143.783C446.576 143.174 446.443 142.687 446.234 142.322C445.849 141.645 445.206 141.307 444.305 141.307C443.659 141.307 443.117 141.541 442.68 142.01C442.242 142.473 442.01 143.064 441.984 143.783H446.633ZM451.219 140.268V145.822C451.219 146.249 451.286 146.598 451.422 146.869C451.672 147.369 452.138 147.619 452.82 147.619C453.799 147.619 454.466 147.182 454.82 146.307C455.013 145.838 455.109 145.195 455.109 144.377V140.268H456.516V148.635H455.188L455.203 147.4C455.021 147.718 454.794 147.986 454.523 148.205C453.987 148.643 453.336 148.861 452.57 148.861C451.378 148.861 450.565 148.463 450.133 147.666C449.898 147.239 449.781 146.669 449.781 145.955V140.268H451.219ZM462.203 140.08C462.797 140.08 463.372 140.221 463.93 140.502C464.487 140.778 464.911 141.137 465.203 141.58C465.484 142.002 465.672 142.494 465.766 143.057C465.849 143.442 465.891 144.057 465.891 144.9H459.758C459.784 145.749 459.984 146.432 460.359 146.947C460.734 147.458 461.315 147.713 462.102 147.713C462.836 147.713 463.422 147.471 463.859 146.986C464.109 146.705 464.286 146.38 464.391 146.01H465.773C465.737 146.317 465.615 146.661 465.406 147.041C465.203 147.416 464.974 147.723 464.719 147.963C464.292 148.38 463.763 148.661 463.133 148.807C462.794 148.89 462.411 148.932 461.984 148.932C460.943 148.932 460.06 148.554 459.336 147.799C458.612 147.038 458.25 145.976 458.25 144.611C458.25 143.268 458.615 142.176 459.344 141.338C460.073 140.499 461.026 140.08 462.203 140.08ZM464.445 143.783C464.388 143.174 464.255 142.687 464.047 142.322C463.661 141.645 463.018 141.307 462.117 141.307C461.471 141.307 460.93 141.541 460.492 142.01C460.055 142.473 459.823 143.064 459.797 143.783H464.445Z" fill="#333333"/>
<path d="M500.961 97.3926H510.57L505.836 81.7832H505.719L500.961 97.3926ZM514.578 110.635L511.648 100.932H499.883L496.93 110.635H492.734L503.633 76.8145H508.039L518.938 110.635H514.578ZM532.93 111.08C528.078 111.08 524.844 108.033 524.844 103.416C524.844 98.916 528.078 96.2441 533.867 95.9395L540.852 95.5879V93.291C540.852 90.1035 538.906 88.3457 535.367 88.3457C532.438 88.3457 530.375 89.5879 529.719 91.7676H525.805C526.273 87.6895 530.211 84.9004 535.414 84.9004C541.391 84.9004 544.812 87.9473 544.812 93.2441V110.658H541.016V106.838H540.617C539.398 109.557 536.633 111.08 532.93 111.08ZM534.078 107.588C537.922 107.588 540.852 105.033 540.852 101.635V98.6348L534.312 98.9395C530.75 99.1035 528.875 100.627 528.875 103.275C528.875 105.947 530.867 107.588 534.078 107.588Z" fill="#BCBDC7"/>
<path d="M492.086 145.635H493.43C493.57 146.869 494.562 147.619 496.062 147.619C497.562 147.619 498.547 146.838 498.547 145.627C498.547 144.65 497.891 144.064 496.367 143.689L495.398 143.447C493.305 142.916 492.359 141.924 492.359 140.291C492.359 138.369 493.805 137.127 496.055 137.127C498.18 137.127 499.641 138.354 499.734 140.229H498.391C498.25 139.064 497.391 138.377 496.062 138.377C494.617 138.377 493.75 139.064 493.75 140.213C493.75 141.189 494.375 141.752 495.844 142.119L496.828 142.369C499.016 142.908 499.938 143.861 499.938 145.557C499.938 147.58 498.414 148.869 496.055 148.869C493.727 148.869 492.203 147.635 492.086 145.635ZM504.258 148.635H502.875V137.361H509.523V138.627H504.258V142.494H509.07V143.721H504.258V148.635ZM522.68 144.314V148.635H521.445V137.361H522.969L525.57 144.338H525.672L528.266 137.361H529.789V148.635H528.555V144.314L528.633 139.744H528.531L526.156 145.986H525.078L522.703 139.744H522.602L522.68 144.314ZM535.508 148.791C533.266 148.791 531.836 147.33 531.836 145.041V143.76C531.836 141.471 533.266 140.01 535.508 140.01C537.75 140.01 539.18 141.471 539.18 143.76V145.041C539.18 147.33 537.75 148.791 535.508 148.791ZM535.508 141.182C534.055 141.182 533.148 142.213 533.148 143.877V144.916C533.148 146.588 534.055 147.611 535.508 147.611C536.961 147.611 537.867 146.588 537.867 144.916V143.877C537.867 142.213 536.961 141.182 535.508 141.182ZM541.93 148.635V140.158H543.203V141.65H543.312C543.766 140.596 544.734 140.002 546.023 140.002C547.867 140.002 548.867 141.104 548.867 143.135V148.635H547.539V143.471C547.539 141.939 546.914 141.221 545.594 141.221C544.195 141.221 543.258 142.197 543.258 143.643V148.635H541.93ZM555.289 148.791C553.047 148.791 551.617 147.33 551.617 145.041V143.76C551.617 141.471 553.047 140.01 555.289 140.01C557.531 140.01 558.961 141.471 558.961 143.76V145.041C558.961 147.33 557.531 148.791 555.289 148.791ZM555.289 141.182C553.836 141.182 552.93 142.213 552.93 143.877V144.916C552.93 146.588 553.836 147.611 555.289 147.611C556.742 147.611 557.648 146.588 557.648 144.916V143.877C557.648 142.213 556.742 141.182 555.289 141.182Z" fill="#262626"/>
<rect x="668.75" y="0.75" width="315.5" height="183.769" rx="1.25" fill="#F0F0F0"/>
<rect x="668.75" y="0.75" width="315.5" height="183.769" rx="1.25" stroke="#333333" stroke-width="1.5"/>
<path d="M693.35 42V29.4H694.862V42H693.35ZM701.835 42.216C700.983 42.216 700.215 42.018 699.531 41.622C698.859 41.226 698.331 40.674 697.947 39.966C697.563 39.246 697.371 38.418 697.371 37.482C697.371 36.522 697.563 35.688 697.947 34.98C698.331 34.272 698.859 33.72 699.531 33.324C700.215 32.916 700.983 32.712 701.835 32.712C702.915 32.712 703.815 32.994 704.535 33.558C705.255 34.11 705.711 34.854 705.903 35.79H704.355C704.235 35.226 703.941 34.788 703.473 34.476C703.005 34.164 702.453 34.008 701.817 34.008C701.301 34.008 700.821 34.14 700.377 34.404C699.933 34.656 699.579 35.04 699.315 35.556C699.051 36.072 698.919 36.708 698.919 37.464C698.919 38.028 698.997 38.532 699.153 38.976C699.309 39.408 699.519 39.768 699.783 40.056C700.047 40.344 700.353 40.566 700.701 40.722C701.061 40.866 701.433 40.938 701.817 40.938C702.249 40.938 702.639 40.872 702.987 40.74C703.335 40.596 703.629 40.386 703.869 40.11C704.109 39.834 704.271 39.51 704.355 39.138H705.903C705.711 40.05 705.249 40.794 704.517 41.37C703.797 41.934 702.903 42.216 701.835 42.216ZM712.37 42.216C711.53 42.216 710.774 42.024 710.102 41.64C709.43 41.244 708.902 40.692 708.518 39.984C708.134 39.264 707.942 38.43 707.942 37.482C707.942 36.51 708.134 35.67 708.518 34.962C708.914 34.242 709.448 33.69 710.12 33.306C710.804 32.91 711.566 32.712 712.406 32.712C713.27 32.712 714.032 32.91 714.692 33.306C715.364 33.69 715.892 34.242 716.276 34.962C716.672 35.67 716.87 36.504 716.87 37.464C716.87 38.424 716.672 39.264 716.276 39.984C715.88 40.692 715.346 41.244 714.674 41.64C714.002 42.024 713.234 42.216 712.37 42.216ZM712.388 40.92C712.904 40.92 713.384 40.794 713.828 40.542C714.272 40.278 714.632 39.888 714.908 39.372C715.184 38.856 715.322 38.22 715.322 37.464C715.322 36.696 715.184 36.06 714.908 35.556C714.644 35.04 714.29 34.656 713.846 34.404C713.414 34.14 712.934 34.008 712.406 34.008C711.902 34.008 711.422 34.14 710.966 34.404C710.522 34.656 710.162 35.04 709.886 35.556C709.622 36.06 709.49 36.696 709.49 37.464C709.49 38.22 709.622 38.856 709.886 39.372C710.162 39.888 710.516 40.278 710.948 40.542C711.392 40.794 711.872 40.92 712.388 40.92ZM719.259 42V32.928H720.627L720.699 34.512C720.987 33.948 721.395 33.51 721.923 33.198C722.463 32.874 723.075 32.712 723.759 32.712C724.467 32.712 725.079 32.856 725.595 33.144C726.111 33.42 726.513 33.846 726.801 34.422C727.089 34.986 727.233 35.706 727.233 36.582V42H725.721V36.744C725.721 35.832 725.517 35.148 725.109 34.692C724.713 34.236 724.149 34.008 723.417 34.008C722.913 34.008 722.463 34.134 722.067 34.386C721.671 34.626 721.353 34.98 721.113 35.448C720.885 35.904 720.771 36.474 720.771 37.158V42H719.259ZM733.285 42.216C732.529 42.216 731.869 42.09 731.305 41.838C730.753 41.586 730.309 41.238 729.973 40.794C729.649 40.338 729.451 39.804 729.379 39.192H730.927C730.987 39.504 731.113 39.792 731.305 40.056C731.497 40.32 731.755 40.536 732.079 40.704C732.415 40.86 732.823 40.938 733.303 40.938C733.723 40.938 734.071 40.878 734.347 40.758C734.623 40.626 734.827 40.452 734.959 40.236C735.103 40.02 735.175 39.786 735.175 39.534C735.175 39.162 735.085 38.88 734.905 38.688C734.737 38.496 734.485 38.346 734.149 38.238C733.813 38.118 733.405 38.016 732.925 37.932C732.529 37.86 732.139 37.764 731.755 37.644C731.371 37.524 731.029 37.368 730.729 37.176C730.429 36.972 730.189 36.726 730.009 36.438C729.841 36.15 729.757 35.796 729.757 35.376C729.757 34.86 729.889 34.404 730.153 34.008C730.417 33.6 730.795 33.282 731.287 33.054C731.791 32.826 732.373 32.712 733.033 32.712C734.005 32.712 734.791 32.946 735.391 33.414C735.991 33.882 736.345 34.56 736.453 35.448H734.959C734.899 34.992 734.701 34.638 734.365 34.386C734.041 34.122 733.591 33.99 733.015 33.99C732.451 33.99 732.019 34.104 731.719 34.332C731.431 34.56 731.287 34.86 731.287 35.232C731.287 35.472 731.365 35.688 731.521 35.88C731.689 36.06 731.929 36.216 732.241 36.348C732.565 36.48 732.961 36.588 733.429 36.672C734.029 36.78 734.575 36.924 735.067 37.104C735.559 37.284 735.955 37.554 736.255 37.914C736.567 38.262 736.723 38.76 736.723 39.408C736.723 39.972 736.579 40.464 736.291 40.884C736.015 41.304 735.619 41.634 735.103 41.874C734.587 42.102 733.981 42.216 733.285 42.216Z" fill="#333333"/>
<path d="M695.505 71.8283L699.905 67.7949C700.707 67.06 702 67.6287 702 68.7163V70.8748C710.125 70.8748 708.875 80.8748 708.875 80.8748C708.875 80.8748 706.375 74.6248 702 74.6248V76.7832C702 77.8709 700.707 78.4396 699.905 77.7047L695.505 73.6712C694.964 73.1758 694.964 72.3238 695.505 71.8283Z" stroke="#424242" stroke-width="1.25" stroke-linecap="round" stroke-linejoin="round"/>
<path d="M730.556 75.9892L735.418 71.1278C736.028 70.5176 736.907 70.4072 737.517 71.0173C738.127 71.6275 738.017 72.5064 737.406 73.1166L732.324 78.1989C731.44 79.0828 729.672 79.0828 728.568 77.9779C727.463 76.8731 727.463 75.1053 728.347 74.2214L733.429 69.1391C735.015 67.5526 737.588 67.5526 739.174 69.1391C740.761 70.7256 740.761 73.2978 739.174 74.8843L736.302 77.757" stroke="#424242" stroke-width="1.25" stroke-linecap="round" stroke-linejoin="round"/>
<path d="M765.375 74.9375L767.875 82.125L774.125 65.875L757.875 73.375L765.375 74.9375ZM774.125 65.875L765.375 74.9375" stroke="#424242" stroke-width="1.25" stroke-linecap="round" stroke-linejoin="round"/>
<path d="M798 78.375C798.259 78.375 798.469 78.5849 798.469 78.8438C798.469 79.1026 798.259 79.3125 798 79.3125C797.741 79.3125 797.531 79.1026 797.531 78.8438C797.531 78.5849 797.741 78.375 798 78.375Z" fill="#424242" stroke="#424242" stroke-width="0.625"/>
<path d="M796.75 74.9135C796.75 74.6662 796.823 74.4246 796.961 74.219C797.098 74.0134 797.293 73.8532 797.522 73.7586C797.75 73.664 798.001 73.6393 798.244 73.6875C798.486 73.7357 798.709 73.8548 798.884 74.0296C799.059 74.2044 799.178 74.4271 799.226 74.6696C799.274 74.9121 799.249 75.1634 799.155 75.3918C799.06 75.6202 798.9 75.8155 798.694 75.9528C798.489 76.0902 798.247 76.1635 798 76.1635V76.8125M791.125 71.5H804.875M801.125 69V66.5M794.875 69V66.5M792.375 81.5H803.625C804.315 81.5 804.875 80.9404 804.875 80.25V69C804.875 68.3096 804.315 67.75 803.625 67.75H792.375C791.685 67.75 791.125 68.3096 791.125 69V80.25C791.125 80.9404 791.685 81.5 792.375 81.5Z" stroke="#424242" stroke-width="1.25" stroke-linecap="round" stroke-linejoin="round"/>
<path d="M824.062 74.625L827.812 78.375L835.938 70.25" stroke="#424242" stroke-width="1.25" stroke-linecap="round" stroke-linejoin="round"/>
<path d="M863.875 75.875V78.375C863.875 79.7557 864.994 80.875 866.375 80.875C867.756 80.875 868.875 79.7557 868.875 78.375C868.875 76.9943 867.756 75.875 866.375 75.875H863.875ZM863.875 75.875V72.125M863.875 75.875H860.125M863.875 72.125V69.625C863.875 68.2443 864.994 67.125 866.375 67.125C867.756 67.125 868.875 68.2443 868.875 69.625C868.875 71.0057 867.756 72.125 866.375 72.125H863.875ZM863.875 72.125H860.125M860.125 72.125V69.625C860.125 68.2443 859.006 67.125 857.625 67.125C856.244 67.125 855.125 68.2443 855.125 69.625C855.125 71.0042 856.242 72.1225 857.62 72.125L857.625 72.125M857.62 72.125H860.125M860.125 72.125V75.875M860.125 75.875V78.375C860.125 79.7557 859.006 80.875 857.625 80.875C856.244 80.875 855.125 79.7557 855.125 78.375C855.125 76.9943 856.244 75.875 857.625 75.875H860.125Z" stroke="#424242" stroke-width="1.25"/>
<path d="M885.875 74H889.625L892.125 67.125L895.875 80.875L898.375 74H902.125" stroke="#424242" stroke-width="1.25" stroke-linecap="round" stroke-linejoin="round"/>
<path d="M926 67.75V65.875M921.581 69.5806L920.255 68.2548M919.75 74H917.875M926 82.125V80.25M931.745 79.7452L930.419 78.4194M934.125 74H932.25M921.581 78.4194L920.255 79.7452M931.745 68.2548L930.419 69.5806M929.75 74C929.75 76.0711 928.071 77.75 926 77.75C923.929 77.75 922.25 76.0711 922.25 74C922.25 71.9289 923.929 70.25 926 70.25C928.071 70.25 929.75 71.9289 929.75 74Z" stroke="#424242" stroke-width="1.25" stroke-linecap="round" stroke-linejoin="round"/>
<path d="M703.994 98.3484C703.924 98.0702 703.674 97.875 703.387 97.875H700.613C700.326 97.875 700.076 98.0702 700.007 98.3484L699.594 100C699.553 100.165 699.447 100.305 699.3 100.39L698.493 100.857C698.347 100.942 698.172 100.963 698.009 100.917L696.37 100.448C696.095 100.369 695.801 100.488 695.657 100.736L694.27 103.139C694.127 103.387 694.171 103.701 694.377 103.901L695.602 105.085C695.724 105.203 695.793 105.365 695.793 105.534L695.793 106.466C695.793 106.635 695.724 106.797 695.602 106.915L694.377 108.1C694.171 108.299 694.127 108.613 694.27 108.861L695.657 111.264C695.801 111.512 696.095 111.631 696.37 111.552L698.001 111.086C698.169 111.038 698.348 111.062 698.497 111.152L699.099 111.517C699.226 111.594 699.321 111.713 699.368 111.854L699.983 113.698C700.068 113.953 700.307 114.125 700.576 114.125H703.425C703.694 114.125 703.933 113.953 704.018 113.698L704.632 111.856C704.679 111.714 704.775 111.594 704.904 111.517L705.517 111.15C705.666 111.061 705.845 111.038 706.011 111.086L707.63 111.551C707.905 111.631 708.2 111.512 708.344 111.263L709.732 108.858C709.875 108.611 709.832 108.299 709.628 108.1L708.42 106.915C708.3 106.797 708.232 106.636 708.232 106.468V105.532C708.232 105.364 708.3 105.203 708.42 105.085L709.628 103.9C709.832 103.701 709.875 103.389 709.732 103.142L708.344 100.737C708.2 100.488 707.905 100.369 707.63 100.449L706.004 100.916C705.842 100.963 705.667 100.942 705.521 100.858L704.702 100.39C704.554 100.305 704.447 100.164 704.406 99.9988L703.994 98.3484Z" stroke="#424242" stroke-width="1.25" stroke-linejoin="round"/>
<path d="M705.125 106C705.125 107.726 703.726 109.125 702 109.125C700.274 109.125 698.875 107.726 698.875 106C698.875 104.274 700.274 102.875 702 102.875C703.726 102.875 705.125 104.274 705.125 106Z" stroke="#424242" stroke-width="1.25" stroke-linejoin="round"/>
<path d="M734 100.593C733.345 100.593 732.704 100.788 732.159 101.152C731.614 101.516 731.189 102.033 730.938 102.639C730.687 103.245 730.622 103.911 730.75 104.554C730.878 105.197 731.193 105.787 731.657 106.251C732.12 106.714 732.711 107.03 733.353 107.158C733.996 107.285 734.663 107.22 735.268 106.969C735.874 106.718 736.391 106.293 736.755 105.748C737.12 105.203 737.314 104.563 737.314 103.907C737.314 103.028 736.965 102.185 736.343 101.564C735.722 100.942 734.879 100.593 734 100.593ZM734 106.175C733.552 106.175 733.113 106.042 732.74 105.793C732.367 105.543 732.077 105.189 731.905 104.775C731.734 104.361 731.689 103.905 731.776 103.465C731.864 103.025 732.08 102.621 732.397 102.304C732.714 101.987 733.118 101.771 733.558 101.683C733.997 101.596 734.453 101.641 734.868 101.812C735.282 101.984 735.636 102.275 735.885 102.648C736.134 103.02 736.267 103.459 736.267 103.907C736.267 104.509 736.029 105.085 735.603 105.511C735.178 105.936 734.601 106.175 734 106.175ZM734 96.4072C732.012 96.4095 730.105 97.2005 728.699 98.6065C727.293 100.012 726.502 101.919 726.5 103.907C726.5 106.603 727.751 109.466 730.117 112.187C731.184 113.421 732.386 114.532 733.7 115.501C733.788 115.562 733.893 115.595 734 115.595C734.107 115.595 734.212 115.562 734.3 115.501C735.614 114.532 736.816 113.421 737.883 112.187C740.249 109.466 741.5 106.605 741.5 103.907C741.498 101.919 740.707 100.012 739.301 98.6065C737.895 97.2005 735.988 96.4095 734 96.4072ZM734 114.417C732.692 113.407 727.547 109.107 727.547 103.907C727.547 102.196 728.226 100.554 729.437 99.3439C730.647 98.1337 732.288 97.4537 734 97.4537C735.712 97.4537 737.353 98.1337 738.563 99.3439C739.774 100.554 740.453 102.196 740.453 103.907C740.453 109.107 735.308 113.407 734 114.417Z" fill="#424242"/>
<path d="M766 112.25L766 99.125M761 107.875L766 112.875L771 107.875" stroke="#424242" stroke-width="1.25" stroke-linecap="round" stroke-linejoin="round"/>
<path d="M803 107.875L798 102.875L793 107.875" stroke="#424242" stroke-width="1.25" stroke-linecap="round" stroke-linejoin="round"/>
<path d="M825 104.125L830 109.125L835 104.125" stroke="#424242" stroke-width="1.25" stroke-linecap="round" stroke-linejoin="round"/>
<path d="M855.75 106H868.875M860.125 101L855.125 106L860.125 111" stroke="#424242" stroke-width="1.25" stroke-linecap="round" stroke-linejoin="round"/>
<path d="M887.125 106H900.25M895.875 101L900.875 106L895.875 111" stroke="#424242" stroke-width="1.25" stroke-linecap="round" stroke-linejoin="round"/>
<path d="M926 112.875L926 99.75M931 104.125L926 99.125L921 104.125" stroke="#424242" stroke-width="1.25" stroke-linecap="round" stroke-linejoin="round"/>
<path d="M700.125 143L705.125 138L700.125 133" stroke="#424242" stroke-width="1.25" stroke-linecap="round" stroke-linejoin="round"/>
<path d="M735.875 133L730.875 138L735.875 143" stroke="#424242" stroke-width="1.25" stroke-linecap="round" stroke-linejoin="round"/>
<path d="M763.188 138L765.375 140.188L769.125 136.438M774.125 138C774.125 140.155 773.269 142.222 771.745 143.745C770.222 145.269 768.155 146.125 766 146.125C763.845 146.125 761.778 145.269 760.255 143.745C758.731 142.222 757.875 140.155 757.875 138C757.875 135.845 758.731 133.778 760.255 132.255C761.778 130.731 763.845 129.875 766 129.875C768.155 129.875 770.222 130.731 771.745 132.255C773.269 133.778 774.125 135.845 774.125 138Z" stroke="#424242" stroke-width="1.25" stroke-linecap="round" stroke-linejoin="round"/>
<path d="M802.602 131.304L802.956 130.789V130.789L802.602 131.304ZM796.834 129.959L796.924 130.578V130.578L796.834 129.959ZM791.686 132.887L791.2 132.493V132.493L791.686 132.887ZM789.892 138.531L789.269 138.572V138.572L789.892 138.531ZM803.855 144.503C804.111 144.272 804.132 143.876 803.901 143.62C803.67 143.363 803.275 143.343 803.018 143.574L803.437 144.038L803.855 144.503ZM801.75 134.562C801.75 134.217 801.47 133.938 801.125 133.938C800.78 133.938 800.5 134.217 800.5 134.562H801.125H801.75ZM801.285 140.747L801.785 140.372V140.372L801.285 140.747ZM803.313 141.75L803.313 142.375V142.375L803.313 141.75ZM801.125 138H800.5C800.5 139.726 799.101 141.125 797.375 141.125V141.75V142.375C799.791 142.375 801.75 140.416 801.75 138H801.125ZM797.375 141.75V141.125C795.649 141.125 794.25 139.726 794.25 138H793.625H793C793 140.416 794.959 142.375 797.375 142.375V141.75ZM793.625 138H794.25C794.25 136.274 795.649 134.875 797.375 134.875V134.25V133.625C794.959 133.625 793 135.584 793 138H793.625ZM797.375 134.25V134.875C799.101 134.875 800.5 136.274 800.5 138H801.125H801.75C801.75 135.584 799.791 133.625 797.375 133.625V134.25ZM805.925 136.207L806.535 136.074C806.076 133.958 804.769 132.035 802.956 130.789L802.602 131.304L802.248 131.819C803.805 132.889 804.924 134.542 805.314 136.339L805.925 136.207ZM802.602 131.304L802.956 130.789C801.142 129.542 798.923 129.025 796.744 129.341L796.834 129.959L796.924 130.578C798.792 130.307 800.693 130.75 802.248 131.819L802.602 131.304ZM796.834 129.959L796.744 129.341C794.565 129.657 792.586 130.782 791.2 132.493L791.686 132.887L792.171 133.28C793.359 131.813 795.056 130.848 796.924 130.578L796.834 129.959ZM791.686 132.887L791.2 132.493C789.814 134.205 789.125 136.375 789.269 138.572L789.892 138.531L790.516 138.491C790.393 136.607 790.984 134.747 792.171 133.28L791.686 132.887ZM789.892 138.531L789.269 138.572C789.413 140.769 790.38 142.831 791.977 144.347L792.407 143.894L792.837 143.44C791.468 142.141 790.64 140.374 790.516 138.491L789.892 138.531ZM792.407 143.894L791.977 144.347C793.574 145.863 795.684 146.72 797.885 146.749L797.894 146.124L797.902 145.499C796.015 145.475 794.206 144.739 792.837 143.44L792.407 143.894ZM797.894 146.124L797.885 146.749C800.087 146.778 802.219 145.976 803.855 144.503L803.437 144.038L803.018 143.574C801.616 144.836 799.789 145.524 797.902 145.499L797.894 146.124ZM801.125 134.562H800.5V140.205H801.125H801.75V134.562H801.125ZM801.285 140.747L800.785 141.122C801.122 141.573 801.924 142.375 803.313 142.375L803.313 141.75L803.313 141.125C802.467 141.125 801.994 140.651 801.785 140.372L801.285 140.747ZM801.125 140.205H800.5C800.5 140.485 800.562 140.825 800.785 141.122L801.285 140.747L801.785 140.372C801.775 140.359 801.75 140.313 801.75 140.205H801.125ZM803.313 141.75L803.313 142.375C804.161 142.375 804.853 142.1 805.384 141.625C805.903 141.16 806.23 140.539 806.429 139.898C806.824 138.626 806.764 137.127 806.535 136.074L805.925 136.207L805.314 136.339C805.51 137.244 805.55 138.516 805.236 139.527C805.08 140.027 804.851 140.424 804.55 140.693C804.261 140.952 803.87 141.125 803.313 141.125L803.313 141.75Z" fill="#424242"/>
<path d="M830 138.938V133.938M838.125 138C838.125 140.155 837.269 142.222 835.745 143.745C834.222 145.269 832.155 146.125 830 146.125C827.845 146.125 825.778 145.269 824.255 143.745C822.731 142.222 821.875 140.155 821.875 138C821.875 135.845 822.731 133.778 824.255 132.255C825.778 130.731 827.845 129.875 830 129.875C832.155 129.875 834.222 130.731 835.745 132.255C837.269 133.778 838.125 135.845 838.125 138Z" stroke="#424242" stroke-width="1.25" stroke-linecap="round" stroke-linejoin="round"/>
<path d="M830 141.125C830.345 141.125 830.625 141.405 830.625 141.75C830.625 142.095 830.345 142.375 830 142.375C829.655 142.375 829.375 142.095 829.375 141.75C829.375 141.405 829.655 141.125 830 141.125Z" fill="#424242" stroke="#424242" stroke-width="0.625"/>
<path d="M870.125 138C870.125 139.875 866.487 143.625 862 143.625C857.513 143.625 853.875 139.875 853.875 138C853.875 136.125 857.513 132.375 862 132.375C866.487 132.375 870.125 136.125 870.125 138Z" stroke="#424242" stroke-width="1.25" stroke-linejoin="round"/>
<path d="M865.125 138C865.125 139.726 863.726 141.125 862 141.125C860.274 141.125 858.875 139.726 858.875 138C858.875 136.274 860.274 134.875 862 134.875C863.726 134.875 865.125 136.274 865.125 138Z" stroke="#424242" stroke-width="1.25" stroke-linejoin="round"/>
<path d="M898.375 131.125V144.875M889 132.742V143.258C889 144.35 890.301 144.917 891.101 144.174L896.764 138.916C897.296 138.421 897.296 137.579 896.764 137.084L891.101 131.826C890.301 131.083 889 131.65 889 132.742Z" stroke="#424242" stroke-width="1.25" stroke-linecap="round" stroke-linejoin="round"/>
<path d="M921.625 140.5L926 144.875L930.375 140.5M930.375 135.5L926 131.125L921.625 135.5" stroke="#424242" stroke-width="1.25" stroke-linecap="round" stroke-linejoin="round"/>
<defs>
<filter id="filter0_i_793_11700" x="20" y="63.79" width="81" height="33" filterUnits="userSpaceOnUse" color-interpolation-filters="sRGB">
<feFlood flood-opacity="0" result="BackgroundImageFix"/>
<feBlend mode="normal" in="SourceGraphic" in2="BackgroundImageFix" result="shape"/>
<feColorMatrix in="SourceAlpha" type="matrix" values="0 0 0 0 0 0 0 0 0 0 0 0 0 0 0 0 0 0 127 0" result="hardAlpha"/>
<feOffset/>
<feGaussianBlur stdDeviation="2.43861"/>
<feComposite in2="hardAlpha" operator="arithmetic" k2="-1" k3="1"/>
<feColorMatrix type="matrix" values="0 0 0 0 0 0 0 0 0 0 0 0 0 0 0 0 0 0 0.05 0"/>
<feBlend mode="normal" in2="shape" result="effect1_innerShadow_793_11700"/>
</filter>
<filter id="filter1_i_793_11700" x="117" y="64.0352" width="81" height="31" filterUnits="userSpaceOnUse" color-interpolation-filters="sRGB">
<feFlood flood-opacity="0" result="BackgroundImageFix"/>
<feBlend mode="normal" in="SourceGraphic" in2="BackgroundImageFix" result="shape"/>
<feColorMatrix in="SourceAlpha" type="matrix" values="0 0 0 0 0 0 0 0 0 0 0 0 0 0 0 0 0 0 127 0" result="hardAlpha"/>
<feOffset/>
<feGaussianBlur stdDeviation="2.43861"/>
<feComposite in2="hardAlpha" operator="arithmetic" k2="-1" k3="1"/>
<feColorMatrix type="matrix" values="0 0 0 0 0 0 0 0 0 0 0 0 0 0 0 0 0 0 0.05 0"/>
<feBlend mode="normal" in2="shape" result="effect1_innerShadow_793_11700"/>
</filter>
<filter id="filter2_i_793_11700" x="214" y="64.2812" width="81" height="32" filterUnits="userSpaceOnUse" color-interpolation-filters="sRGB">
<feFlood flood-opacity="0" result="BackgroundImageFix"/>
<feBlend mode="normal" in="SourceGraphic" in2="BackgroundImageFix" result="shape"/>
<feColorMatrix in="SourceAlpha" type="matrix" values="0 0 0 0 0 0 0 0 0 0 0 0 0 0 0 0 0 0 127 0" result="hardAlpha"/>
<feOffset/>
<feGaussianBlur stdDeviation="2.43861"/>
<feComposite in2="hardAlpha" operator="arithmetic" k2="-1" k3="1"/>
<feColorMatrix type="matrix" values="0 0 0 0 0 0 0 0 0 0 0 0 0 0 0 0 0 0 0.05 0"/>
<feBlend mode="normal" in2="shape" result="effect1_innerShadow_793_11700"/>
</filter>
<filter id="filter3_i_793_11700" x="20" y="120.755" width="63.0293" height="32.5146" filterUnits="userSpaceOnUse" color-interpolation-filters="sRGB">
<feFlood flood-opacity="0" result="BackgroundImageFix"/>
<feBlend mode="normal" in="SourceGraphic" in2="BackgroundImageFix" result="shape"/>
<feColorMatrix in="SourceAlpha" type="matrix" values="0 0 0 0 0 0 0 0 0 0 0 0 0 0 0 0 0 0 127 0" result="hardAlpha"/>
<feOffset/>
<feGaussianBlur stdDeviation="2.43861"/>
<feComposite in2="hardAlpha" operator="arithmetic" k2="-1" k3="1"/>
<feColorMatrix type="matrix" values="0 0 0 0 0 0 0 0 0 0 0 0 0 0 0 0 0 0 0.05 0"/>
<feBlend mode="normal" in2="shape" result="effect1_innerShadow_793_11700"/>
</filter>
<filter id="filter4_i_793_11700" x="90.75" y="120.755" width="63.0293" height="32.5146" filterUnits="userSpaceOnUse" color-interpolation-filters="sRGB">
<feFlood flood-opacity="0" result="BackgroundImageFix"/>
<feBlend mode="normal" in="SourceGraphic" in2="BackgroundImageFix" result="shape"/>
<feColorMatrix in="SourceAlpha" type="matrix" values="0 0 0 0 0 0 0 0 0 0 0 0 0 0 0 0 0 0 127 0" result="hardAlpha"/>
<feOffset/>
<feGaussianBlur stdDeviation="2.43861"/>
<feComposite in2="hardAlpha" operator="arithmetic" k2="-1" k3="1"/>
<feColorMatrix type="matrix" values="0 0 0 0 0 0 0 0 0 0 0 0 0 0 0 0 0 0 0.05 0"/>
<feBlend mode="normal" in2="shape" result="effect1_innerShadow_793_11700"/>
</filter>
<filter id="filter5_i_793_11700" x="161.5" y="120.755" width="63.0293" height="32.5146" filterUnits="userSpaceOnUse" color-interpolation-filters="sRGB">
<feFlood flood-opacity="0" result="BackgroundImageFix"/>
<feBlend mode="normal" in="SourceGraphic" in2="BackgroundImageFix" result="shape"/>
<feColorMatrix in="SourceAlpha" type="matrix" values="0 0 0 0 0 0 0 0 0 0 0 0 0 0 0 0 0 0 127 0" result="hardAlpha"/>
<feOffset/>
<feGaussianBlur stdDeviation="2.43861"/>
<feComposite in2="hardAlpha" operator="arithmetic" k2="-1" k3="1"/>
<feColorMatrix type="matrix" values="0 0 0 0 0 0 0 0 0 0 0 0 0 0 0 0 0 0 0.05 0"/>
<feBlend mode="normal" in2="shape" result="effect1_innerShadow_793_11700"/>
</filter>
<filter id="filter6_i_793_11700" x="232.25" y="120.755" width="63.0293" height="32.5146" filterUnits="userSpaceOnUse" color-interpolation-filters="sRGB">
<feFlood flood-opacity="0" result="BackgroundImageFix"/>
<feBlend mode="normal" in="SourceGraphic" in2="BackgroundImageFix" result="shape"/>
<feColorMatrix in="SourceAlpha" type="matrix" values="0 0 0 0 0 0 0 0 0 0 0 0 0 0 0 0 0 0 127 0" result="hardAlpha"/>
<feOffset/>
<feGaussianBlur stdDeviation="2.43861"/>
<feComposite in2="hardAlpha" operator="arithmetic" k2="-1" k3="1"/>
<feColorMatrix type="matrix" values="0 0 0 0 0 0 0 0 0 0 0 0 0 0 0 0 0 0 0.05 0"/>
<feBlend mode="normal" in2="shape" result="effect1_innerShadow_793_11700"/>
</filter>
<clipPath id="clip0_793_11700">
<rect width="81" height="41.7544" fill="white" transform="translate(117 64)"/>
</clipPath>
</defs>
</svg>
