<svg width="64" height="64" viewBox="0 0 64 64" fill="none" xmlns="http://www.w3.org/2000/svg">
<path d="M42.6978 45.3349C42.1393 45.3349 41.6583 45.0866 41.2549 44.5901C40.8825 44.0937 40.6964 43.2248 40.6964 41.9836C40.6964 41.2699 40.836 40.4321 41.1153 39.4701C41.7359 37.5152 42.372 35.4207 43.0236 33.1865C43.7063 30.9523 44.3424 28.6716 44.932 26.3443C45.5526 24.0171 46.0491 21.7674 46.4214 19.5952C46.7938 17.3921 46.98 15.3751 46.98 13.5443C46.98 12.9237 46.949 12.3186 46.8869 11.7291C46.8559 11.1395 46.7783 10.5809 46.6542 10.0534C43.5201 13.0323 40.6188 17.0818 37.9502 22.2018C35.3126 27.2908 32.9077 33.2175 30.7356 39.9821C30.3633 41.0061 29.8978 41.7198 29.3393 42.1232C28.7807 42.5266 28.2532 42.7283 27.7567 42.7283C27.3223 42.7283 26.9034 42.5577 26.5 42.2163C26.0966 41.844 25.8949 41.2854 25.8949 40.5407C25.8949 40.0442 26.019 39.346 26.2673 38.4461C26.5155 37.5152 26.9499 36.6619 27.5705 35.8861C27.9119 33.8381 28.1911 31.666 28.4084 29.3698C28.6566 27.0735 28.7807 24.948 28.7807 22.9931C28.7807 22.0932 28.7342 21.2554 28.6411 20.4796C28.579 19.6728 28.4704 18.9746 28.3153 18.3851C26.7017 20.0917 25.1967 22.2328 23.8004 24.8083C22.435 27.3528 21.2248 30.099 20.1698 33.0469C19.1148 35.9637 18.2304 38.8185 17.5167 41.6112C16.9582 43.6282 16.0583 44.6367 14.8171 44.6367C14.3206 44.6367 13.9017 44.3729 13.5603 43.8454C13.25 43.3179 13.0949 42.5266 13.0949 41.4716C13.0949 40.4476 13.3431 39.0668 13.8396 37.3291C14.3361 35.5914 15.0033 33.683 15.8411 31.604C16.7099 29.5249 17.6719 27.4614 18.7269 25.4134C19.813 23.3344 20.93 21.4415 22.0782 19.7349C23.2573 17.9972 24.4054 16.6008 25.5225 15.5458C26.6396 14.4908 27.6481 13.9632 28.548 13.9632C29.1376 13.9632 29.6651 14.0718 30.1305 14.2891C30.596 14.5063 30.9994 14.9562 31.3407 15.6389C31.682 16.2905 31.9303 17.299 32.0854 18.6643C32.2716 19.9986 32.3647 21.7829 32.3647 24.0171C32.3647 24.4204 32.3647 24.8859 32.3647 25.4134C33.2646 22.931 34.3041 20.5261 35.4833 18.1989C36.6934 15.8406 37.9657 13.7305 39.3 11.8687C40.6343 10.0069 41.9686 8.53293 43.3029 7.44687C44.6372 6.36081 45.8939 5.81778 47.0731 5.81778C48.4074 5.81778 49.4934 6.54699 50.3313 8.00542C51.1691 9.43281 51.588 11.6825 51.588 14.7545C51.588 17.6714 51.3553 20.5106 50.8898 23.2723C50.4244 26.034 49.8348 28.6406 49.1211 31.092C48.4384 33.5434 47.7247 35.7775 46.98 37.7945C46.2663 39.7804 45.6457 41.4871 45.1182 42.9145C44.7768 43.7834 44.42 44.404 44.0476 44.7763C43.6753 45.1487 43.2253 45.3349 42.6978 45.3349Z" fill="url(#paint0_linear_296_2434)"/>
<circle cx="16.4849" cy="53.7366" r="4.84848" fill="url(#paint1_linear_296_2434)"/>
<circle cx="39.7576" cy="53.7366" r="4.84848" fill="url(#paint2_linear_296_2434)"/>
<defs>
<linearGradient id="paint0_linear_296_2434" x1="16.6684" y1="9.45153" x2="52.5503" y2="46.3756" gradientUnits="userSpaceOnUse">
<stop stop-color="#487089"/>
<stop offset="1" stop-color="#88D8C0"/>
</linearGradient>
<linearGradient id="paint1_linear_296_2434" x1="12.5366" y1="49.7798" x2="21.3319" y2="59.0713" gradientUnits="userSpaceOnUse">
<stop stop-color="#487089"/>
<stop offset="1" stop-color="#88D8C0"/>
</linearGradient>
<linearGradient id="paint2_linear_296_2434" x1="35.8093" y1="49.7798" x2="44.6046" y2="59.0713" gradientUnits="userSpaceOnUse">
<stop stop-color="#487089"/>
<stop offset="1" stop-color="#88D8C0"/>
</linearGradient>
</defs>
</svg>
