<svg width="271" height="72" viewBox="0 0 271 72" fill="none" xmlns="http://www.w3.org/2000/svg">
<g filter="url(#filter0_d_666_8640)">
<rect x="78.7832" y="12.1758" width="186.216" height="47.2703" rx="2.86486" fill="white" shape-rendering="crispEdges"/>
<path d="M92.8034 26.5333C92.408 26.5333 92.0528 26.4645 91.7376 26.327C91.4282 26.1838 91.1847 25.989 91.0071 25.7426C90.8295 25.4905 90.7378 25.2011 90.7321 24.8745H91.5658C91.5944 25.1553 91.709 25.3931 91.9095 25.5879C92.1158 25.777 92.4138 25.8715 92.8034 25.8715C93.1758 25.8715 93.468 25.7798 93.68 25.5965C93.8978 25.4074 94.0066 25.1668 94.0066 24.8745C94.0066 24.6454 93.9436 24.4591 93.8175 24.3159C93.6915 24.1727 93.5339 24.0638 93.3448 23.9893C93.1558 23.9148 92.9008 23.8346 92.5799 23.7487C92.1846 23.6455 91.8666 23.5424 91.6259 23.4393C91.391 23.3361 91.1876 23.1757 91.0157 22.958C90.8495 22.7345 90.7665 22.4365 90.7665 22.0641C90.7665 21.7375 90.8495 21.4482 91.0157 21.1961C91.1819 20.944 91.4139 20.7491 91.7119 20.6116C92.0155 20.4741 92.3622 20.4054 92.7518 20.4054C93.3133 20.4054 93.7717 20.5457 94.1269 20.8265C94.4879 21.1073 94.6913 21.4797 94.7372 21.9438H93.8777C93.8491 21.7146 93.7287 21.5141 93.5167 21.3422C93.3047 21.1645 93.024 21.0757 92.6745 21.0757C92.3479 21.0757 92.0814 21.1617 91.8752 21.3336C91.6689 21.4997 91.5658 21.7347 91.5658 22.0383C91.5658 22.2561 91.6259 22.4337 91.7462 22.5712C91.8723 22.7087 92.0241 22.8147 92.2018 22.8892C92.3851 22.958 92.6401 23.0382 92.9667 23.1298C93.362 23.2387 93.68 23.3476 93.9207 23.4564C94.1613 23.5596 94.3676 23.7229 94.5395 23.9463C94.7114 24.1641 94.7973 24.462 94.7973 24.8402C94.7973 25.1324 94.72 25.4074 94.5653 25.6653C94.4106 25.9231 94.1814 26.1322 93.8777 26.2927C93.574 26.4531 93.2159 26.5333 92.8034 26.5333ZM100.125 21.7633V26.4731H99.3431V25.777C99.1942 26.0176 98.985 26.2067 98.7157 26.3442C98.4522 26.476 98.1599 26.5419 97.8391 26.5419C97.4724 26.5419 97.1429 26.4674 96.8507 26.3184C96.5585 26.1637 96.3264 25.9345 96.1545 25.6309C95.9884 25.3272 95.9053 24.9576 95.9053 24.5222V21.7633H96.6788V24.419C96.6788 24.8831 96.7963 25.2413 97.0312 25.4934C97.2661 25.7397 97.587 25.8629 97.9938 25.8629C98.412 25.8629 98.7415 25.734 98.9822 25.4762C99.2228 25.2183 99.3431 24.843 99.3431 24.3503V21.7633H100.125ZM101.154 24.1096C101.154 23.6226 101.251 23.1986 101.446 22.8376C101.641 22.4709 101.91 22.1873 102.254 21.9868C102.603 21.7862 103.001 21.686 103.448 21.686C104.027 21.686 104.503 21.8263 104.875 22.1071C105.253 22.3878 105.502 22.7775 105.623 23.276H104.78C104.7 22.9895 104.543 22.7631 104.308 22.597C104.079 22.4308 103.792 22.3477 103.448 22.3477C103.001 22.3477 102.64 22.5024 102.365 22.8118C102.09 23.1155 101.953 23.5481 101.953 24.1096C101.953 24.6769 102.09 25.1152 102.365 25.4246C102.64 25.734 103.001 25.8887 103.448 25.8887C103.792 25.8887 104.079 25.8085 104.308 25.6481C104.537 25.4876 104.695 25.2584 104.78 24.9605H105.623C105.497 25.4418 105.245 25.8285 104.866 26.1208C104.488 26.4073 104.016 26.5505 103.448 26.5505C103.001 26.5505 102.603 26.4502 102.254 26.2497C101.91 26.0491 101.641 25.7655 101.446 25.3988C101.251 25.0321 101.154 24.6024 101.154 24.1096ZM106.374 24.1096C106.374 23.6226 106.472 23.1986 106.666 22.8376C106.861 22.4709 107.13 22.1873 107.474 21.9868C107.824 21.7862 108.222 21.686 108.669 21.686C109.248 21.686 109.723 21.8263 110.096 22.1071C110.474 22.3878 110.723 22.7775 110.843 23.276H110.001C109.921 22.9895 109.763 22.7631 109.528 22.597C109.299 22.4308 109.013 22.3477 108.669 22.3477C108.222 22.3477 107.861 22.5024 107.586 22.8118C107.311 23.1155 107.173 23.5481 107.173 24.1096C107.173 24.6769 107.311 25.1152 107.586 25.4246C107.861 25.734 108.222 25.8887 108.669 25.8887C109.013 25.8887 109.299 25.8085 109.528 25.6481C109.758 25.4876 109.915 25.2584 110.001 24.9605H110.843C110.717 25.4418 110.465 25.8285 110.087 26.1208C109.709 26.4073 109.236 26.5505 108.669 26.5505C108.222 26.5505 107.824 26.4502 107.474 26.2497C107.13 26.0491 106.861 25.7655 106.666 25.3988C106.472 25.0321 106.374 24.6024 106.374 24.1096ZM116.184 23.9377C116.184 24.0867 116.176 24.2443 116.158 24.4104H112.394C112.423 24.8745 112.58 25.2384 112.867 25.502C113.159 25.7598 113.511 25.8887 113.924 25.8887C114.262 25.8887 114.543 25.8114 114.766 25.6567C114.995 25.4962 115.156 25.2842 115.247 25.0207H116.09C115.964 25.4733 115.711 25.8429 115.333 26.1294C114.955 26.4101 114.485 26.5505 113.924 26.5505C113.477 26.5505 113.076 26.4502 112.721 26.2497C112.371 26.0491 112.096 25.7655 111.895 25.3988C111.695 25.0264 111.595 24.5967 111.595 24.1096C111.595 23.6226 111.692 23.1957 111.887 22.829C112.082 22.4623 112.354 22.1816 112.703 21.9868C113.059 21.7862 113.465 21.686 113.924 21.686C114.371 21.686 114.766 21.7834 115.11 21.9782C115.454 22.173 115.717 22.4423 115.901 22.7861C116.09 23.1241 116.184 23.508 116.184 23.9377ZM115.376 23.7744C115.376 23.4765 115.31 23.2215 115.179 23.0095C115.047 22.7918 114.866 22.6285 114.637 22.5196C114.414 22.405 114.164 22.3477 113.889 22.3477C113.494 22.3477 113.156 22.4738 112.875 22.7259C112.6 22.978 112.443 23.3275 112.403 23.7744H115.376ZM118.884 26.5505C118.523 26.5505 118.199 26.4903 117.913 26.37C117.626 26.244 117.4 26.0721 117.234 25.8543C117.068 25.6309 116.976 25.3759 116.959 25.0894H117.767C117.789 25.3243 117.898 25.5163 118.093 25.6653C118.294 25.8142 118.554 25.8887 118.875 25.8887C119.173 25.8887 119.408 25.8228 119.58 25.691C119.752 25.5593 119.838 25.3931 119.838 25.1925C119.838 24.9863 119.746 24.8344 119.563 24.737C119.379 24.6339 119.096 24.5336 118.712 24.4362C118.362 24.3445 118.076 24.2529 117.853 24.1612C117.635 24.0638 117.446 23.9234 117.285 23.7401C117.131 23.551 117.053 23.3046 117.053 23.0009C117.053 22.7603 117.125 22.5397 117.268 22.3391C117.411 22.1386 117.615 21.981 117.878 21.8664C118.142 21.7461 118.443 21.686 118.781 21.686C119.302 21.686 119.723 21.8177 120.044 22.0813C120.365 22.3449 120.537 22.7058 120.56 23.1642H119.778C119.761 22.9178 119.66 22.7202 119.477 22.5712C119.299 22.4222 119.059 22.3477 118.755 22.3477C118.474 22.3477 118.251 22.4079 118.085 22.5282C117.918 22.6485 117.835 22.8061 117.835 23.0009C117.835 23.1556 117.884 23.2845 117.981 23.3877C118.085 23.4851 118.211 23.5653 118.36 23.6283C118.514 23.6856 118.726 23.7515 118.996 23.826C119.334 23.9177 119.609 24.0094 119.821 24.101C120.033 24.187 120.213 24.3188 120.362 24.4964C120.517 24.674 120.597 24.9061 120.603 25.1925C120.603 25.4504 120.531 25.6824 120.388 25.8887C120.245 26.095 120.041 26.2583 119.778 26.3786C119.52 26.4932 119.222 26.5505 118.884 26.5505ZM123.374 26.5505C123.013 26.5505 122.69 26.4903 122.403 26.37C122.117 26.244 121.89 26.0721 121.724 25.8543C121.558 25.6309 121.466 25.3759 121.449 25.0894H122.257C122.28 25.3243 122.389 25.5163 122.584 25.6653C122.784 25.8142 123.045 25.8887 123.366 25.8887C123.664 25.8887 123.898 25.8228 124.07 25.691C124.242 25.5593 124.328 25.3931 124.328 25.1925C124.328 24.9863 124.237 24.8344 124.053 24.737C123.87 24.6339 123.586 24.5336 123.202 24.4362C122.853 24.3445 122.566 24.2529 122.343 24.1612C122.125 24.0638 121.936 23.9234 121.776 23.7401C121.621 23.551 121.544 23.3046 121.544 23.0009C121.544 22.7603 121.615 22.5397 121.758 22.3391C121.902 22.1386 122.105 21.981 122.369 21.8664C122.632 21.7461 122.933 21.686 123.271 21.686C123.792 21.686 124.214 21.8177 124.534 22.0813C124.855 22.3449 125.027 22.7058 125.05 23.1642H124.268C124.251 22.9178 124.151 22.7202 123.967 22.5712C123.79 22.4222 123.549 22.3477 123.245 22.3477C122.965 22.3477 122.741 22.4079 122.575 22.5282C122.409 22.6485 122.326 22.8061 122.326 23.0009C122.326 23.1556 122.374 23.2845 122.472 23.3877C122.575 23.4851 122.701 23.5653 122.85 23.6283C123.005 23.6856 123.217 23.7515 123.486 23.826C123.824 23.9177 124.099 24.0094 124.311 24.101C124.523 24.187 124.704 24.3188 124.852 24.4964C125.007 24.674 125.087 24.9061 125.093 25.1925C125.093 25.4504 125.022 25.6824 124.878 25.8887C124.735 26.095 124.532 26.2583 124.268 26.3786C124.01 26.4932 123.712 26.5505 123.374 26.5505ZM128.114 22.4079H127.125V26.4731H126.343V22.4079H125.733V21.7633H126.343V21.4281C126.343 20.901 126.478 20.5171 126.747 20.2764C127.022 20.0301 127.461 19.9069 128.062 19.9069V20.5601C127.718 20.5601 127.475 20.6288 127.332 20.7663C127.194 20.8981 127.125 21.1187 127.125 21.4281V21.7633H128.114V22.4079ZM133.203 21.7633V26.4731H132.421V25.777C132.272 26.0176 132.062 26.2067 131.793 26.3442C131.53 26.476 131.237 26.5419 130.917 26.5419C130.55 26.5419 130.22 26.4674 129.928 26.3184C129.636 26.1637 129.404 25.9345 129.232 25.6309C129.066 25.3272 128.983 24.9576 128.983 24.5222V21.7633H129.756V24.419C129.756 24.8831 129.874 25.2413 130.109 25.4934C130.344 25.7397 130.664 25.8629 131.071 25.8629C131.489 25.8629 131.819 25.734 132.06 25.4762C132.3 25.2183 132.421 24.843 132.421 24.3503V21.7633H133.203ZM135.305 20.1131V26.4731H134.523V20.1131H135.305ZM137.42 20.1131V26.4731H136.638V20.1131H137.42ZM142.81 21.7633L139.974 28.6906H139.166L140.094 26.4216L138.195 21.7633H139.063L140.541 25.5793L142.002 21.7633H142.81ZM146.67 22.6314C146.824 22.3621 147.054 22.1386 147.357 21.961C147.667 21.7776 148.025 21.686 148.432 21.686C148.85 21.686 149.228 21.7862 149.566 21.9868C149.91 22.1873 150.179 22.4709 150.374 22.8376C150.569 23.1986 150.666 23.6197 150.666 24.101C150.666 24.5766 150.569 25.0006 150.374 25.373C150.179 25.7455 149.91 26.0348 149.566 26.2411C149.228 26.4474 148.85 26.5505 148.432 26.5505C148.03 26.5505 147.675 26.4617 147.366 26.2841C147.062 26.1007 146.83 25.8744 146.67 25.6051V28.7077H145.888V21.7633H146.67V22.6314ZM149.867 24.101C149.867 23.7458 149.795 23.4364 149.652 23.1728C149.509 22.9093 149.314 22.7087 149.068 22.5712C148.827 22.4337 148.56 22.3649 148.268 22.3649C147.982 22.3649 147.715 22.4365 147.469 22.5798C147.228 22.7173 147.034 22.9207 146.885 23.19C146.741 23.4536 146.67 23.7601 146.67 24.1096C146.67 24.4649 146.741 24.7771 146.885 25.0464C147.034 25.31 147.228 25.5134 147.469 25.6567C147.715 25.7942 147.982 25.8629 148.268 25.8629C148.56 25.8629 148.827 25.7942 149.068 25.6567C149.314 25.5134 149.509 25.31 149.652 25.0464C149.795 24.7771 149.867 24.462 149.867 24.101ZM152.1 20.9984C151.951 20.9984 151.825 20.9468 151.721 20.8437C151.618 20.7405 151.567 20.6145 151.567 20.4655C151.567 20.3165 151.618 20.1905 151.721 20.0874C151.825 19.9842 151.951 19.9327 152.1 19.9327C152.243 19.9327 152.363 19.9842 152.461 20.0874C152.564 20.1905 152.615 20.3165 152.615 20.4655C152.615 20.6145 152.564 20.7405 152.461 20.8437C152.363 20.9468 152.243 20.9984 152.1 20.9984ZM152.478 21.7633V26.4731H151.696V21.7633H152.478ZM156.105 21.6774C156.678 21.6774 157.143 21.8521 157.498 22.2016C157.853 22.5454 158.031 23.0439 158.031 23.6971V26.4731H157.257V23.8088C157.257 23.339 157.14 22.9809 156.905 22.7345C156.67 22.4824 156.349 22.3563 155.942 22.3563C155.53 22.3563 155.2 22.4853 154.954 22.7431C154.713 23.0009 154.593 23.3762 154.593 23.869V26.4731H153.811V21.7633H154.593V22.4337C154.748 22.193 154.957 22.0068 155.22 21.875C155.49 21.7433 155.785 21.6774 156.105 21.6774ZM161.603 21.6774C162.176 21.6774 162.64 21.8521 162.995 22.2016C163.351 22.5454 163.528 23.0439 163.528 23.6971V26.4731H162.755V23.8088C162.755 23.339 162.637 22.9809 162.402 22.7345C162.167 22.4824 161.846 22.3563 161.44 22.3563C161.027 22.3563 160.698 22.4853 160.451 22.7431C160.211 23.0009 160.09 23.3762 160.09 23.869V26.4731H159.308V21.7633H160.09V22.4337C160.245 22.193 160.454 22.0068 160.718 21.875C160.987 21.7433 161.282 21.6774 161.603 21.6774ZM169.103 23.9377C169.103 24.0867 169.094 24.2443 169.077 24.4104H165.313C165.341 24.8745 165.499 25.2384 165.786 25.502C166.078 25.7598 166.43 25.8887 166.843 25.8887C167.181 25.8887 167.461 25.8114 167.685 25.6567C167.914 25.4962 168.075 25.2842 168.166 25.0207H169.008C168.882 25.4733 168.63 25.8429 168.252 26.1294C167.874 26.4101 167.404 26.5505 166.843 26.5505C166.396 26.5505 165.995 26.4502 165.639 26.2497C165.29 26.0491 165.015 25.7655 164.814 25.3988C164.614 25.0264 164.514 24.5967 164.514 24.1096C164.514 23.6226 164.611 23.1957 164.806 22.829C165.001 22.4623 165.273 22.1816 165.622 21.9868C165.977 21.7862 166.384 21.686 166.843 21.686C167.29 21.686 167.685 21.7834 168.029 21.9782C168.372 22.173 168.636 22.4423 168.819 22.7861C169.008 23.1241 169.103 23.508 169.103 23.9377ZM168.295 23.7744C168.295 23.4765 168.229 23.2215 168.097 23.0095C167.966 22.7918 167.785 22.6285 167.556 22.5196C167.333 22.405 167.083 22.3477 166.808 22.3477C166.413 22.3477 166.075 22.4738 165.794 22.7259C165.519 22.978 165.362 23.3275 165.321 23.7744H168.295ZM169.843 24.101C169.843 23.6197 169.941 23.1986 170.135 22.8376C170.33 22.4709 170.597 22.1873 170.935 21.9868C171.278 21.7862 171.662 21.686 172.086 21.686C172.453 21.686 172.794 21.7719 173.109 21.9438C173.424 22.11 173.665 22.3305 173.831 22.6056V20.1131H174.622V26.4731H173.831V25.5879C173.676 25.8687 173.447 26.1007 173.144 26.2841C172.84 26.4617 172.485 26.5505 172.078 26.5505C171.66 26.5505 171.278 26.4474 170.935 26.2411C170.597 26.0348 170.33 25.7455 170.135 25.373C169.941 25.0006 169.843 24.5766 169.843 24.101ZM173.831 24.1096C173.831 23.7544 173.759 23.445 173.616 23.1814C173.473 22.9178 173.278 22.7173 173.032 22.5798C172.791 22.4365 172.525 22.3649 172.232 22.3649C171.94 22.3649 171.674 22.4337 171.433 22.5712C171.193 22.7087 171.001 22.9093 170.857 23.1728C170.714 23.4364 170.642 23.7458 170.642 24.101C170.642 24.462 170.714 24.7771 170.857 25.0464C171.001 25.31 171.193 25.5134 171.433 25.6567C171.674 25.7942 171.94 25.8629 172.232 25.8629C172.525 25.8629 172.791 25.7942 173.032 25.6567C173.278 25.5134 173.473 25.31 173.616 25.0464C173.759 24.7771 173.831 24.4649 173.831 24.1096ZM177.943 24.101C177.943 23.6197 178.04 23.1986 178.235 22.8376C178.43 22.4709 178.696 22.1873 179.034 21.9868C179.378 21.7862 179.759 21.686 180.177 21.686C180.59 21.686 180.948 21.7748 181.251 21.9524C181.555 22.13 181.781 22.3535 181.93 22.6228V21.7633H182.721V26.4731H181.93V25.5965C181.776 25.8715 181.544 26.1007 181.234 26.2841C180.931 26.4617 180.575 26.5505 180.169 26.5505C179.75 26.5505 179.372 26.4474 179.034 26.2411C178.696 26.0348 178.43 25.7455 178.235 25.373C178.04 25.0006 177.943 24.5766 177.943 24.101ZM181.93 24.1096C181.93 23.7544 181.859 23.445 181.716 23.1814C181.572 22.9178 181.378 22.7173 181.131 22.5798C180.891 22.4365 180.624 22.3649 180.332 22.3649C180.04 22.3649 179.773 22.4337 179.533 22.5712C179.292 22.7087 179.1 22.9093 178.957 23.1728C178.813 23.4364 178.742 23.7458 178.742 24.101C178.742 24.462 178.813 24.7771 178.957 25.0464C179.1 25.31 179.292 25.5134 179.533 25.6567C179.773 25.7942 180.04 25.8629 180.332 25.8629C180.624 25.8629 180.891 25.7942 181.131 25.6567C181.378 25.5134 181.572 25.31 181.716 25.0464C181.859 24.7771 181.93 24.4649 181.93 24.1096ZM184.997 22.4079V25.184C184.997 25.4131 185.046 25.5764 185.143 25.6738C185.24 25.7655 185.409 25.8114 185.65 25.8114H186.226V26.4731H185.521C185.086 26.4731 184.759 26.3729 184.541 26.1723C184.324 25.9718 184.215 25.6423 184.215 25.184V22.4079H183.605V21.7633H184.215V20.5773H184.997V21.7633H186.226V22.4079H184.997ZM189.336 23.3017C189.336 22.3162 189.496 21.5484 189.817 20.9984C190.138 20.4426 190.7 20.1647 191.502 20.1647C192.298 20.1647 192.857 20.4426 193.178 20.9984C193.499 21.5484 193.659 22.3162 193.659 23.3017C193.659 24.3044 193.499 25.0837 193.178 25.6395C192.857 26.1953 192.298 26.4731 191.502 26.4731C190.7 26.4731 190.138 26.1953 189.817 25.6395C189.496 25.0837 189.336 24.3044 189.336 23.3017ZM192.885 23.3017C192.885 22.8033 192.851 22.3821 192.782 22.0383C192.719 21.6888 192.585 21.4081 192.378 21.1961C192.178 20.9841 191.886 20.8781 191.502 20.8781C191.112 20.8781 190.814 20.9841 190.608 21.1961C190.407 21.4081 190.273 21.6888 190.204 22.0383C190.141 22.3821 190.109 22.8033 190.109 23.3017C190.109 23.8174 190.141 24.25 190.204 24.5995C190.273 24.949 190.407 25.2298 190.608 25.4418C190.814 25.6538 191.112 25.7598 191.502 25.7598C191.886 25.7598 192.178 25.6538 192.378 25.4418C192.585 25.2298 192.719 24.949 192.782 24.5995C192.851 24.25 192.885 23.8174 192.885 23.3017ZM195.111 26.5247C194.962 26.5247 194.836 26.4731 194.733 26.37C194.63 26.2669 194.578 26.1408 194.578 25.9918C194.578 25.8429 194.63 25.7168 194.733 25.6137C194.836 25.5105 194.962 25.459 195.111 25.459C195.254 25.459 195.374 25.5105 195.472 25.6137C195.575 25.7168 195.627 25.8429 195.627 25.9918C195.627 26.1408 195.575 26.2669 195.472 26.37C195.374 26.4731 195.254 26.5247 195.111 26.5247ZM195.111 22.8462C194.962 22.8462 194.836 22.7947 194.733 22.6915C194.63 22.5884 194.578 22.4623 194.578 22.3134C194.578 22.1644 194.63 22.0383 194.733 21.9352C194.836 21.8321 194.962 21.7805 195.111 21.7805C195.254 21.7805 195.374 21.8321 195.472 21.9352C195.575 22.0383 195.627 22.1644 195.627 22.3134C195.627 22.4623 195.575 22.5884 195.472 22.6915C195.374 22.7947 195.254 22.8462 195.111 22.8462ZM196.562 23.3017C196.562 22.3162 196.723 21.5484 197.044 20.9984C197.365 20.4426 197.926 20.1647 198.728 20.1647C199.525 20.1647 200.083 20.4426 200.404 20.9984C200.725 21.5484 200.886 22.3162 200.886 23.3017C200.886 24.3044 200.725 25.0837 200.404 25.6395C200.083 26.1953 199.525 26.4731 198.728 26.4731C197.926 26.4731 197.365 26.1953 197.044 25.6395C196.723 25.0837 196.562 24.3044 196.562 23.3017ZM200.112 23.3017C200.112 22.8033 200.078 22.3821 200.009 22.0383C199.946 21.6888 199.811 21.4081 199.605 21.1961C199.404 20.9841 199.112 20.8781 198.728 20.8781C198.339 20.8781 198.041 20.9841 197.834 21.1961C197.634 21.4081 197.499 21.6888 197.43 22.0383C197.367 22.3821 197.336 22.8033 197.336 23.3017C197.336 23.8174 197.367 24.25 197.43 24.5995C197.499 24.949 197.634 25.2298 197.834 25.4418C198.041 25.6538 198.339 25.7598 198.728 25.7598C199.112 25.7598 199.404 25.6538 199.605 25.4418C199.811 25.2298 199.946 24.949 200.009 24.5995C200.078 24.25 200.112 23.8174 200.112 23.3017ZM201.865 25.8457C202.592 25.2613 203.162 24.7829 203.575 24.4104C203.988 24.0323 204.334 23.6398 204.615 23.233C204.901 22.8204 205.045 22.4165 205.045 22.0211C205.045 21.6487 204.953 21.3565 204.77 21.1445C204.592 20.9268 204.303 20.8179 203.902 20.8179C203.512 20.8179 203.208 20.9411 202.991 21.1875C202.779 21.4281 202.664 21.7518 202.647 22.1587H201.89C201.913 21.5169 202.108 21.0213 202.475 20.6718C202.842 20.3223 203.314 20.1475 203.893 20.1475C204.483 20.1475 204.95 20.3108 205.294 20.6374C205.643 20.964 205.818 21.4138 205.818 21.9868C205.818 22.4623 205.675 22.9264 205.388 23.3791C205.108 23.826 204.787 24.2214 204.426 24.5651C204.065 24.9032 203.604 25.2985 203.042 25.7512H205.999V26.4044H201.865V25.8457Z" fill="black"/>
<rect x="90.4212" y="31.0843" width="94.8311" height="24.1014" rx="1.25338" stroke="#666666" stroke-width="0.358108"/>
<path d="M101.397 46.6949C101.002 46.6949 100.647 46.6262 100.331 46.4887C100.022 46.3454 99.7785 46.1506 99.6009 45.9042C99.4232 45.6521 99.3316 45.3628 99.3258 45.0362H100.16C100.188 45.3169 100.303 45.5547 100.503 45.7495C100.71 45.9386 101.008 46.0331 101.397 46.0331C101.77 46.0331 102.062 45.9415 102.274 45.7581C102.492 45.569 102.6 45.3284 102.6 45.0362C102.6 44.807 102.537 44.6208 102.411 44.4775C102.285 44.3343 102.128 44.2254 101.939 44.1509C101.75 44.0764 101.495 43.9962 101.174 43.9103C100.778 43.8071 100.46 43.704 100.22 43.6009C99.9847 43.4977 99.7813 43.3373 99.6095 43.1196C99.4433 42.8961 99.3602 42.5982 99.3602 42.2257C99.3602 41.8991 99.4433 41.6098 99.6095 41.3577C99.7756 41.1056 100.008 40.9108 100.306 40.7733C100.609 40.6357 100.956 40.567 101.346 40.567C101.907 40.567 102.365 40.7074 102.721 40.9881C103.082 41.2689 103.285 41.6413 103.331 42.1054H102.471C102.443 41.8762 102.322 41.6757 102.11 41.5038C101.898 41.3262 101.618 41.2374 101.268 41.2374C100.942 41.2374 100.675 41.3233 100.469 41.4952C100.263 41.6614 100.16 41.8963 100.16 42.2C100.16 42.4177 100.22 42.5953 100.34 42.7328C100.466 42.8703 100.618 42.9763 100.796 43.0508C100.979 43.1196 101.234 43.1998 101.56 43.2915C101.956 43.4003 102.274 43.5092 102.514 43.6181C102.755 43.7212 102.961 43.8845 103.133 44.108C103.305 44.3257 103.391 44.6236 103.391 45.0018C103.391 45.294 103.314 45.569 103.159 45.8269C103.004 46.0847 102.775 46.2938 102.471 46.4543C102.168 46.6147 101.81 46.6949 101.397 46.6949ZM106.596 46.7121C106.155 46.7121 105.754 46.6118 105.393 46.4113C105.038 46.2108 104.757 45.9271 104.551 45.5604C104.35 45.188 104.25 44.7583 104.25 44.2713C104.25 43.79 104.353 43.366 104.559 42.9993C104.771 42.6268 105.058 42.3432 105.419 42.1484C105.78 41.9478 106.184 41.8476 106.63 41.8476C107.077 41.8476 107.481 41.9478 107.842 42.1484C108.203 42.3432 108.487 42.624 108.693 42.9907C108.905 43.3574 109.011 43.7842 109.011 44.2713C109.011 44.7583 108.902 45.188 108.685 45.5604C108.473 45.9271 108.183 46.2108 107.817 46.4113C107.45 46.6118 107.043 46.7121 106.596 46.7121ZM106.596 46.0245C106.877 46.0245 107.14 45.9587 107.387 45.8269C107.633 45.6951 107.831 45.4974 107.98 45.2338C108.135 44.9703 108.212 44.6494 108.212 44.2713C108.212 43.8931 108.137 43.5722 107.988 43.3087C107.839 43.0451 107.645 42.8503 107.404 42.7242C107.163 42.5924 106.903 42.5265 106.622 42.5265C106.335 42.5265 106.072 42.5924 105.831 42.7242C105.596 42.8503 105.407 43.0451 105.264 43.3087C105.121 43.5722 105.049 43.8931 105.049 44.2713C105.049 44.6551 105.118 44.9789 105.255 45.2424C105.399 45.506 105.588 45.7037 105.823 45.8355C106.058 45.9615 106.315 46.0245 106.596 46.0245ZM115.703 41.839C116.07 41.839 116.397 41.9163 116.683 42.071C116.97 42.22 117.196 42.4463 117.362 42.75C117.528 43.0537 117.611 43.4233 117.611 43.8587V46.6348H116.838V43.9704C116.838 43.5006 116.72 43.1425 116.485 42.8961C116.256 42.644 115.944 42.518 115.549 42.518C115.142 42.518 114.818 42.6497 114.577 42.9133C114.337 43.1711 114.217 43.5464 114.217 44.0392V46.6348H113.443V43.9704C113.443 43.5006 113.326 43.1425 113.091 42.8961C112.861 42.644 112.549 42.518 112.154 42.518C111.747 42.518 111.423 42.6497 111.183 42.9133C110.942 43.1711 110.822 43.5464 110.822 44.0392V46.6348H110.04V41.9249H110.822V42.6039C110.976 42.3575 111.183 42.1684 111.44 42.0367C111.704 41.9049 111.993 41.839 112.309 41.839C112.704 41.839 113.053 41.9278 113.357 42.1054C113.661 42.283 113.887 42.5437 114.036 42.8875C114.168 42.5552 114.386 42.2974 114.689 42.114C114.993 41.9307 115.331 41.839 115.703 41.839ZM123.192 44.0994C123.192 44.2483 123.183 44.4059 123.166 44.5721H119.401C119.43 45.0362 119.588 45.4 119.874 45.6636C120.166 45.9214 120.519 46.0503 120.931 46.0503C121.269 46.0503 121.55 45.973 121.774 45.8183C122.003 45.6578 122.163 45.4458 122.255 45.1823H123.097C122.971 45.6349 122.719 46.0045 122.341 46.291C121.963 46.5717 121.493 46.7121 120.931 46.7121C120.484 46.7121 120.083 46.6118 119.728 46.4113C119.378 46.2108 119.103 45.9271 118.903 45.5604C118.702 45.188 118.602 44.7583 118.602 44.2713C118.602 43.7842 118.7 43.3574 118.894 42.9907C119.089 42.624 119.361 42.3432 119.711 42.1484C120.066 41.9478 120.473 41.8476 120.931 41.8476C121.378 41.8476 121.774 41.945 122.117 42.1398C122.461 42.3346 122.725 42.6039 122.908 42.9477C123.097 43.2857 123.192 43.6696 123.192 44.0994ZM122.384 43.9361C122.384 43.6381 122.318 43.3831 122.186 43.1711C122.054 42.9534 121.874 42.7901 121.645 42.6813C121.421 42.5667 121.172 42.5094 120.897 42.5094C120.502 42.5094 120.163 42.6354 119.883 42.8875C119.608 43.1396 119.45 43.4891 119.41 43.9361H122.384ZM131.32 47.7693L130.125 46.5746C129.833 46.6548 129.535 46.6949 129.231 46.6949C128.675 46.6949 128.168 46.566 127.71 46.3082C127.252 46.0446 126.888 45.6808 126.618 45.2167C126.355 44.7468 126.223 44.2197 126.223 43.6353C126.223 43.0508 126.355 42.5265 126.618 42.0624C126.888 41.5926 127.252 41.2288 127.71 40.9709C128.168 40.7074 128.675 40.5756 129.231 40.5756C129.793 40.5756 130.303 40.7074 130.761 40.9709C131.219 41.2288 131.58 41.5897 131.844 42.0538C132.108 42.518 132.239 43.0451 132.239 43.6353C132.239 44.2082 132.113 44.7239 131.861 45.1823C131.609 45.6407 131.262 46.0016 130.821 46.2652L132.334 47.7693H131.32ZM127.022 43.6353C127.022 44.1108 127.117 44.5291 127.306 44.8901C127.501 45.251 127.764 45.5289 128.097 45.7237C128.435 45.9185 128.813 46.016 129.231 46.016C129.649 46.016 130.025 45.9185 130.357 45.7237C130.695 45.5289 130.959 45.251 131.148 44.8901C131.343 44.5291 131.44 44.1108 131.44 43.6353C131.44 43.154 131.343 42.7357 131.148 42.3804C130.959 42.0195 130.698 41.7416 130.366 41.5468C130.033 41.352 129.655 41.2545 129.231 41.2545C128.807 41.2545 128.429 41.352 128.097 41.5468C127.764 41.7416 127.501 42.0195 127.306 42.3804C127.117 42.7357 127.022 43.154 127.022 43.6353ZM137.466 41.9249V46.6348H136.683V45.9386C136.534 46.1793 136.325 46.3683 136.056 46.5058C135.792 46.6376 135.5 46.7035 135.179 46.7035C134.813 46.7035 134.483 46.629 134.191 46.4801C133.899 46.3254 133.667 46.0962 133.495 45.7925C133.329 45.4888 133.246 45.1193 133.246 44.6838V41.9249H134.019V44.5807C134.019 45.0448 134.137 45.4029 134.371 45.655C134.606 45.9014 134.927 46.0245 135.334 46.0245C135.752 46.0245 136.082 45.8956 136.322 45.6378C136.563 45.38 136.683 45.0047 136.683 44.5119V41.9249H137.466ZM139.19 41.16C139.041 41.16 138.915 41.1084 138.812 41.0053C138.709 40.9022 138.657 40.7761 138.657 40.6271C138.657 40.4782 138.709 40.3521 138.812 40.249C138.915 40.1458 139.041 40.0943 139.19 40.0943C139.333 40.0943 139.454 40.1458 139.551 40.249C139.654 40.3521 139.706 40.4782 139.706 40.6271C139.706 40.7761 139.654 40.9022 139.551 41.0053C139.454 41.1084 139.333 41.16 139.19 41.16ZM139.568 41.9249V46.6348H138.786V41.9249H139.568ZM140.609 44.2713C140.609 43.7842 140.706 43.3602 140.901 42.9993C141.096 42.6325 141.365 42.3489 141.709 42.1484C142.059 41.9478 142.457 41.8476 142.904 41.8476C143.482 41.8476 143.958 41.988 144.33 42.2687C144.709 42.5495 144.958 42.9391 145.078 43.4376H144.236C144.156 43.1511 143.998 42.9248 143.763 42.7586C143.534 42.5924 143.247 42.5094 142.904 42.5094C142.457 42.5094 142.096 42.6641 141.821 42.9735C141.546 43.2771 141.408 43.7097 141.408 44.2713C141.408 44.8385 141.546 45.2768 141.821 45.5862C142.096 45.8956 142.457 46.0503 142.904 46.0503C143.247 46.0503 143.534 45.9701 143.763 45.8097C143.992 45.6493 144.15 45.4201 144.236 45.1221H145.078C144.952 45.6034 144.7 45.9902 144.322 46.2824C143.944 46.5689 143.471 46.7121 142.904 46.7121C142.457 46.7121 142.059 46.6118 141.709 46.4113C141.365 46.2108 141.096 45.9271 140.901 45.5604C140.706 45.1937 140.609 44.764 140.609 44.2713ZM148.752 46.6348L146.904 44.5549V46.6348H146.122V40.2748H146.904V44.0134L148.717 41.9249H149.809L147.591 44.2713L149.817 46.6348H148.752ZM157.546 46.6348H156.764L153.618 41.8648V46.6348H152.836V40.6357H153.618L156.764 45.3971V40.6357H157.546V46.6348ZM160.933 46.7121C160.492 46.7121 160.091 46.6118 159.73 46.4113C159.375 46.2108 159.094 45.9271 158.888 45.5604C158.687 45.188 158.587 44.7583 158.587 44.2713C158.587 43.79 158.69 43.366 158.897 42.9993C159.109 42.6268 159.395 42.3432 159.756 42.1484C160.117 41.9478 160.521 41.8476 160.968 41.8476C161.415 41.8476 161.819 41.9478 162.18 42.1484C162.541 42.3432 162.824 42.624 163.031 42.9907C163.243 43.3574 163.349 43.7842 163.349 44.2713C163.349 44.7583 163.24 45.188 163.022 45.5604C162.81 45.9271 162.521 46.2108 162.154 46.4113C161.787 46.6118 161.38 46.7121 160.933 46.7121ZM160.933 46.0245C161.214 46.0245 161.478 45.9587 161.724 45.8269C161.971 45.6951 162.168 45.4974 162.317 45.2338C162.472 44.9703 162.549 44.6494 162.549 44.2713C162.549 43.8931 162.475 43.5722 162.326 43.3087C162.177 43.0451 161.982 42.8503 161.741 42.7242C161.501 42.5924 161.24 42.5265 160.959 42.5265C160.673 42.5265 160.409 42.5924 160.169 42.7242C159.934 42.8503 159.745 43.0451 159.601 43.3087C159.458 43.5722 159.386 43.8931 159.386 44.2713C159.386 44.6551 159.455 44.9789 159.593 45.2424C159.736 45.506 159.925 45.7037 160.16 45.8355C160.395 45.9615 160.653 46.0245 160.933 46.0245ZM165.331 42.5695V45.3456C165.331 45.5748 165.38 45.7381 165.477 45.8355C165.574 45.9271 165.743 45.973 165.984 45.973H166.56V46.6348H165.855C165.42 46.6348 165.093 46.5345 164.875 46.334C164.658 46.1334 164.549 45.804 164.549 45.3456V42.5695H163.939V41.9249H164.549V40.7389H165.331V41.9249H166.56V42.5695H165.331ZM171.805 44.0994C171.805 44.2483 171.796 44.4059 171.779 44.5721H168.015C168.043 45.0362 168.201 45.4 168.487 45.6636C168.779 45.9214 169.132 46.0503 169.544 46.0503C169.882 46.0503 170.163 45.973 170.387 45.8183C170.616 45.6578 170.776 45.4458 170.868 45.1823H171.71C171.584 45.6349 171.332 46.0045 170.954 46.291C170.576 46.5717 170.106 46.7121 169.544 46.7121C169.097 46.7121 168.696 46.6118 168.341 46.4113C167.992 46.2108 167.717 45.9271 167.516 45.5604C167.316 45.188 167.215 44.7583 167.215 44.2713C167.215 43.7842 167.313 43.3574 167.507 42.9907C167.702 42.624 167.974 42.3432 168.324 42.1484C168.679 41.9478 169.086 41.8476 169.544 41.8476C169.991 41.8476 170.387 41.945 170.73 42.1398C171.074 42.3346 171.338 42.6039 171.521 42.9477C171.71 43.2857 171.805 43.6696 171.805 44.0994ZM170.997 43.9361C170.997 43.6381 170.931 43.3831 170.799 43.1711C170.667 42.9534 170.487 42.7901 170.258 42.6813C170.034 42.5667 169.785 42.5094 169.51 42.5094C169.115 42.5094 168.777 42.6354 168.496 42.8875C168.221 43.1396 168.063 43.4891 168.023 43.9361H170.997ZM174.504 46.7121C174.144 46.7121 173.82 46.652 173.533 46.5316C173.247 46.4056 173.02 46.2337 172.854 46.016C172.688 45.7925 172.596 45.5375 172.579 45.251H173.387C173.41 45.486 173.519 45.6779 173.714 45.8269C173.914 45.9758 174.175 46.0503 174.496 46.0503C174.794 46.0503 175.029 45.9844 175.201 45.8527C175.373 45.7209 175.458 45.5547 175.458 45.3542C175.458 45.1479 175.367 44.9961 175.183 44.8987C175 44.7955 174.716 44.6953 174.333 44.5978C173.983 44.5062 173.697 44.4145 173.473 44.3228C173.255 44.2254 173.066 44.085 172.906 43.9017C172.751 43.7126 172.674 43.4662 172.674 43.1625C172.674 42.9219 172.745 42.7013 172.889 42.5008C173.032 42.3002 173.235 42.1427 173.499 42.0281C173.762 41.9077 174.063 41.8476 174.401 41.8476C174.923 41.8476 175.344 41.9794 175.665 42.2429C175.986 42.5065 176.158 42.8675 176.18 43.3258H175.398C175.381 43.0795 175.281 42.8818 175.098 42.7328C174.92 42.5838 174.679 42.5094 174.376 42.5094C174.095 42.5094 173.871 42.5695 173.705 42.6898C173.539 42.8102 173.456 42.9677 173.456 43.1625C173.456 43.3173 173.505 43.4462 173.602 43.5493C173.705 43.6467 173.831 43.7269 173.98 43.79C174.135 43.8473 174.347 43.9131 174.616 43.9876C174.954 44.0793 175.229 44.171 175.441 44.2627C175.653 44.3486 175.834 44.4804 175.983 44.658C176.137 44.8356 176.218 45.0677 176.223 45.3542C176.223 45.612 176.152 45.8441 176.009 46.0503C175.865 46.2566 175.662 46.4199 175.398 46.5402C175.14 46.6548 174.843 46.7121 174.504 46.7121Z" fill="#666666"/>
<g filter="url(#filter1_d_666_8640)">
<rect x="209.621" y="32.3379" width="43.9189" height="21.5946" rx="10.7973" fill="#347E92" shape-rendering="crispEdges"/>
<path d="M223.641 46.6954C223.246 46.6954 222.891 46.6267 222.576 46.4891C222.266 46.3459 222.023 46.1511 221.845 45.9047C221.668 45.6526 221.576 45.3633 221.57 45.0367H222.404C222.432 45.3174 222.547 45.5552 222.748 45.75C222.954 45.9391 223.252 46.0336 223.641 46.0336C224.014 46.0336 224.306 45.942 224.518 45.7586C224.736 45.5695 224.845 45.3289 224.845 45.0367C224.845 44.8075 224.782 44.6213 224.656 44.478C224.53 44.3348 224.372 44.2259 224.183 44.1514C223.994 44.0769 223.739 43.9967 223.418 43.9108C223.023 43.8076 222.705 43.7045 222.464 43.6014C222.229 43.4982 222.026 43.3378 221.854 43.1201C221.688 42.8966 221.605 42.5987 221.605 42.2262C221.605 41.8996 221.688 41.6103 221.854 41.3582C222.02 41.1061 222.252 40.9113 222.55 40.7737C222.854 40.6362 223.2 40.5675 223.59 40.5675C224.151 40.5675 224.61 40.7078 224.965 40.9886C225.326 41.2694 225.529 41.6418 225.575 42.1059H224.716C224.687 41.8767 224.567 41.6762 224.355 41.5043C224.143 41.3267 223.862 41.2378 223.513 41.2378C223.186 41.2378 222.919 41.3238 222.713 41.4957C222.507 41.6618 222.404 41.8968 222.404 42.2004C222.404 42.4182 222.464 42.5958 222.584 42.7333C222.71 42.8708 222.862 42.9768 223.04 43.0513C223.223 43.1201 223.478 43.2003 223.805 43.292C224.2 43.4008 224.518 43.5097 224.759 43.6186C224.999 43.7217 225.206 43.885 225.378 44.1084C225.549 44.3262 225.635 44.6241 225.635 45.0023C225.635 45.2945 225.558 45.5695 225.403 45.8274C225.249 46.0852 225.019 46.2943 224.716 46.4548C224.412 46.6152 224.054 46.6954 223.641 46.6954ZM226.494 44.2631C226.494 43.7818 226.591 43.3607 226.786 42.9997C226.981 42.633 227.248 42.3494 227.586 42.1489C227.929 41.9483 228.31 41.8481 228.729 41.8481C229.141 41.8481 229.499 41.9369 229.803 42.1145C230.107 42.2921 230.333 42.5156 230.482 42.7849V41.9254H231.273V46.6353H230.482V45.7586C230.327 46.0336 230.095 46.2628 229.786 46.4462C229.482 46.6238 229.127 46.7126 228.72 46.7126C228.302 46.7126 227.924 46.6095 227.586 46.4032C227.248 46.1969 226.981 45.9076 226.786 45.5351C226.591 45.1627 226.494 44.7387 226.494 44.2631ZM230.482 44.2717C230.482 43.9165 230.41 43.6071 230.267 43.3435C230.124 43.08 229.929 42.8794 229.683 42.7419C229.442 42.5987 229.176 42.527 228.883 42.527C228.591 42.527 228.325 42.5958 228.084 42.7333C227.843 42.8708 227.651 43.0714 227.508 43.3349C227.365 43.5985 227.293 43.9079 227.293 44.2631C227.293 44.6241 227.365 44.9393 227.508 45.2086C227.651 45.4721 227.843 45.6755 228.084 45.8188C228.325 45.9563 228.591 46.025 228.883 46.025C229.176 46.025 229.442 45.9563 229.683 45.8188C229.929 45.6755 230.124 45.4721 230.267 45.2086C230.41 44.9393 230.482 44.627 230.482 44.2717ZM234.348 45.9133L235.809 41.9254H236.642L234.795 46.6353H233.884L232.036 41.9254H232.878L234.348 45.9133ZM241.709 44.0998C241.709 44.2488 241.701 44.4064 241.684 44.5726H237.919C237.948 45.0367 238.105 45.4005 238.392 45.6641C238.684 45.9219 239.036 46.0508 239.449 46.0508C239.787 46.0508 240.068 45.9735 240.291 45.8188C240.52 45.6583 240.681 45.4463 240.773 45.1828H241.615C241.489 45.6354 241.237 46.005 240.858 46.2915C240.48 46.5722 240.01 46.7126 239.449 46.7126C239.002 46.7126 238.601 46.6123 238.246 46.4118C237.896 46.2113 237.621 45.9276 237.421 45.5609C237.22 45.1885 237.12 44.7588 237.12 44.2717C237.12 43.7847 237.217 43.3578 237.412 42.9911C237.607 42.6244 237.879 42.3437 238.229 42.1489C238.584 41.9483 238.991 41.8481 239.449 41.8481C239.896 41.8481 240.291 41.9455 240.635 42.1403C240.979 42.3351 241.242 42.6044 241.426 42.9482C241.615 43.2862 241.709 43.6701 241.709 44.0998ZM240.901 43.9366C240.901 43.6386 240.836 43.3836 240.704 43.1716C240.572 42.9539 240.392 42.7906 240.162 42.6817C239.939 42.5671 239.69 42.5098 239.415 42.5098C239.019 42.5098 238.681 42.6359 238.4 42.888C238.125 43.1401 237.968 43.4896 237.928 43.9366H240.901Z" fill="white"/>
</g>
</g>
<circle cx="35.8108" cy="35.8108" r="35.5608" fill="white" stroke="#333333" stroke-width="0.5"/>
<circle cx="35.6676" cy="24.2081" r="9.16757" fill="#015F7D"/>
<rect x="34.5215" y="27.646" width="2.86486" height="28.6486" rx="1.43243" fill="#015F7D"/>
<defs>
<filter id="filter0_d_666_8640" x="73.0535" y="7.87848" width="197.676" height="58.73" filterUnits="userSpaceOnUse" color-interpolation-filters="sRGB">
<feFlood flood-opacity="0" result="BackgroundImageFix"/>
<feColorMatrix in="SourceAlpha" type="matrix" values="0 0 0 0 0 0 0 0 0 0 0 0 0 0 0 0 0 0 127 0" result="hardAlpha"/>
<feOffset dy="1.43243"/>
<feGaussianBlur stdDeviation="2.86486"/>
<feComposite in2="hardAlpha" operator="out"/>
<feColorMatrix type="matrix" values="0 0 0 0 0 0 0 0 0 0 0 0 0 0 0 0 0 0 0.25 0"/>
<feBlend mode="normal" in2="BackgroundImageFix" result="effect1_dropShadow_666_8640"/>
<feBlend mode="normal" in="SourceGraphic" in2="effect1_dropShadow_666_8640" result="shape"/>
</filter>
<filter id="filter1_d_666_8640" x="205.621" y="30.3379" width="51.918" height="29.5947" filterUnits="userSpaceOnUse" color-interpolation-filters="sRGB">
<feFlood flood-opacity="0" result="BackgroundImageFix"/>
<feColorMatrix in="SourceAlpha" type="matrix" values="0 0 0 0 0 0 0 0 0 0 0 0 0 0 0 0 0 0 127 0" result="hardAlpha"/>
<feOffset dy="2"/>
<feGaussianBlur stdDeviation="2"/>
<feComposite in2="hardAlpha" operator="out"/>
<feColorMatrix type="matrix" values="0 0 0 0 0 0 0 0 0 0 0 0 0 0 0 0 0 0 0.2 0"/>
<feBlend mode="normal" in2="BackgroundImageFix" result="effect1_dropShadow_666_8640"/>
<feBlend mode="normal" in="SourceGraphic" in2="effect1_dropShadow_666_8640" result="shape"/>
</filter>
</defs>
</svg>
