<svg width="840" height="473" viewBox="0 0 840 473" fill="none" xmlns="http://www.w3.org/2000/svg">
<rect width="840" height="472.5" fill="#D1F1FF"/>
<path d="M510.876 227.321L511.178 225.812L528.074 226.416L528.074 227.622C528.074 227.622 525.057 229.734 519.928 229.735C514.799 229.735 511.338 228.15 510.876 227.321Z" fill="#0F141A"/>
<path d="M511.178 225.812L511.194 225.36L510.809 225.346L510.734 225.724L511.178 225.812ZM510.876 227.321L510.432 227.232L510.399 227.396L510.481 227.541L510.876 227.321ZM519.928 229.735L519.928 229.282L519.928 229.282L519.928 229.735ZM528.074 227.622L528.334 227.993C528.455 227.909 528.527 227.77 528.527 227.623L528.074 227.622ZM528.074 226.416L528.527 226.416L528.527 225.979L528.09 225.963L528.074 226.416ZM511.178 225.812L510.734 225.724L510.432 227.232L510.876 227.321L511.32 227.41L511.622 225.901L511.178 225.812ZM510.876 227.321L510.481 227.541C510.577 227.715 510.73 227.872 510.899 228.012C511.074 228.156 511.29 228.3 511.541 228.442C512.044 228.726 512.71 229.013 513.514 229.27C515.124 229.784 517.318 230.187 519.928 230.187L519.928 229.735L519.928 229.282C517.408 229.282 515.308 228.893 513.789 228.407C513.03 228.165 512.423 227.9 511.987 227.653C511.768 227.53 511.598 227.415 511.475 227.313C511.347 227.208 511.291 227.134 511.272 227.101L510.876 227.321ZM519.928 229.735L519.928 230.187C522.555 230.187 524.646 229.646 526.085 229.102C526.804 228.83 527.36 228.557 527.739 228.35C527.929 228.247 528.075 228.16 528.174 228.097C528.224 228.066 528.262 228.041 528.289 228.024C528.302 228.015 528.313 228.008 528.32 228.003C528.324 228 528.327 227.998 528.329 227.997C528.33 227.996 528.331 227.995 528.332 227.995C528.332 227.994 528.333 227.994 528.333 227.994C528.333 227.994 528.333 227.994 528.333 227.994C528.334 227.994 528.334 227.993 528.074 227.622C527.815 227.252 527.815 227.251 527.815 227.251C527.815 227.251 527.815 227.251 527.815 227.251C527.815 227.251 527.815 227.251 527.815 227.251C527.815 227.251 527.815 227.251 527.815 227.251C527.814 227.252 527.813 227.253 527.81 227.254C527.806 227.257 527.799 227.262 527.789 227.269C527.769 227.282 527.737 227.303 527.695 227.329C527.609 227.382 527.479 227.46 527.306 227.555C526.959 227.744 526.441 227.999 525.764 228.255C524.412 228.767 522.429 229.282 519.928 229.282L519.928 229.735ZM528.074 227.622L528.527 227.623L528.527 226.416L528.074 226.416L527.621 226.416L527.621 227.622L528.074 227.622ZM528.074 226.416L528.09 225.963L511.194 225.36L511.178 225.812L511.162 226.265L528.058 226.868L528.074 226.416Z" fill="#0F141A"/>
<path d="M522.666 247.218C523.788 243.533 525.732 231.22 526.068 224.109C526.188 221.62 524.475 219.586 522.092 218.865C517.897 217.592 513.859 220.755 513.659 225.136C513.605 226.327 513.28 229.114 513.28 229.114L512.14 234.995L512.034 235.639C511.934 236.138 511.901 236.626 511.918 237.108C511.575 237.755 511.08 238.614 510.629 239.412C509.736 240.979 508.634 242.928 507.649 244.861C507.223 245.704 507.547 246.732 508.372 247.156C509.197 247.587 510.214 247.25 510.647 246.401C511.579 244.553 514.674 239.106 514.674 239.106C513.986 241.419 512.5 246.665 511.814 248.535C511.485 249.427 511.93 250.408 512.804 250.729C513.666 251.048 514.654 250.598 514.976 249.706C515.156 249.21 515.347 248.667 515.542 248.089L515.51 248.201C515.235 249.104 515.738 250.056 516.623 250.329C517.509 250.602 518.456 250.087 518.731 249.183C518.939 248.497 519.159 247.751 519.371 246.98C519.454 247.615 519.893 248.176 520.539 248.373C521.431 248.641 522.371 248.131 522.647 247.227L522.666 247.218Z" fill="#EAC7AF" stroke="#0F141A" stroke-width="0.905515" stroke-linecap="round" stroke-linejoin="round"/>
<path d="M517.66 240.232L515.521 248.166L517.66 240.232Z" fill="#EAC7AF"/>
<path d="M517.66 240.232L515.521 248.166" stroke="#0F141A" stroke-width="0.905515" stroke-linecap="round" stroke-linejoin="round"/>
<path d="M520.783 239.763L519.396 246.922L520.783 239.763Z" fill="#EAC7AF"/>
<path d="M520.783 239.763L519.396 246.922" stroke="#0F141A" stroke-width="0.905515" stroke-linecap="round" stroke-linejoin="round"/>
<path d="M522.006 239.012C517.955 240.934 514.06 238.178 514.06 238.178L522.006 239.012Z" fill="#EAC7AF"/>
<path d="M522.006 239.012C517.955 240.934 514.06 238.178 514.06 238.178" stroke="#0F141A" stroke-width="0.905515" stroke-linecap="square" stroke-linejoin="round"/>
<path d="M519.113 230.055L518.373 231.245C517.334 232.916 516.598 234.124 514.396 234.718L512 235.362L509.426 237.28C508.449 237.999 507.269 237.964 506.233 237.048C505.858 236.719 505.697 236.177 505.884 235.719C505.951 235.557 506.054 235.405 506.212 235.296L511.729 231.279C512.571 230.672 513.099 229.998 513.217 228.986L513.72 224.664" fill="#EAC7AF"/>
<path d="M518.729 229.816L518.968 229.431L519.737 229.91L519.497 230.294L519.113 230.055L518.729 229.816ZM518.373 231.245L517.988 231.006L517.989 231.005L518.373 231.245ZM514.396 234.718L514.514 235.155L514.514 235.155L514.396 234.718ZM512 235.362L511.73 234.999C511.776 234.965 511.828 234.94 511.883 234.925L512 235.362ZM509.426 237.28L509.696 237.643L509.694 237.645L509.426 237.28ZM506.233 237.048L506.532 236.708L506.533 236.709L506.233 237.048ZM505.884 235.719L505.464 235.548L505.466 235.545L505.884 235.719ZM506.212 235.296L506.479 235.662L506.469 235.669L506.212 235.296ZM511.729 231.279L511.462 230.913L511.464 230.911L511.729 231.279ZM513.271 224.612C513.3 224.363 513.524 224.185 513.773 224.214C514.021 224.243 514.199 224.468 514.17 224.716L513.72 224.664L513.271 224.612ZM519.113 230.055L519.497 230.294L518.757 231.484L518.373 231.245L517.989 231.005L518.729 229.816L519.113 230.055ZM518.373 231.245L518.757 231.484C518.245 232.308 517.773 233.077 517.14 233.706C516.491 234.351 515.685 234.839 514.514 235.155L514.396 234.718L514.278 234.281C515.308 234.003 515.972 233.59 516.501 233.064C517.046 232.523 517.462 231.853 517.988 231.006L518.373 231.245ZM514.396 234.718L514.514 235.155L512.118 235.8L512 235.362L511.883 234.925L514.279 234.281L514.396 234.718ZM512 235.362L512.271 235.726L509.696 237.643L509.426 237.28L509.155 236.917L511.73 234.999L512 235.362ZM509.426 237.28L509.694 237.645C509.131 238.059 508.489 238.269 507.824 238.229C507.16 238.189 506.514 237.901 505.933 237.387L506.233 237.048L506.533 236.709C506.988 237.111 507.449 237.299 507.879 237.325C508.308 237.351 508.744 237.219 509.158 236.915L509.426 237.28ZM506.233 237.048L505.934 237.388C505.435 236.949 505.195 236.209 505.464 235.548L505.884 235.719L506.303 235.89C506.198 236.146 506.282 236.488 506.532 236.708L506.233 237.048ZM505.884 235.719L505.466 235.545C505.557 235.326 505.707 235.094 505.956 234.923L506.212 235.296L506.469 235.669C506.401 235.716 506.345 235.788 506.302 235.893L505.884 235.719ZM506.212 235.296L505.946 234.93L511.462 230.913L511.729 231.279L511.995 231.645L506.479 235.662L506.212 235.296ZM511.729 231.279L511.464 230.911C512.241 230.352 512.669 229.78 512.767 228.933L513.217 228.986L513.667 229.038C513.529 230.217 512.901 230.992 511.993 231.646L511.729 231.279ZM513.217 228.986L512.767 228.933L513.271 224.612L513.72 224.664L514.17 224.716L513.667 229.038L513.217 228.986Z" fill="#0F141A"/>
<path d="M540.444 174.822C540.444 174.822 537.112 188.153 534.712 196.847C531.468 208.592 528.375 227.321 528.375 227.321H510.876C510.876 227.321 513.177 213.744 518.117 194.434C520.315 185.842 523.185 177.489 525.694 170.864C528.987 162.169 537.035 156.335 546.291 155.459C549.612 155.145 552.509 154.908 553.72 154.908" fill="#FFBB45"/>
<path d="M540.444 174.822C540.444 174.822 537.112 188.153 534.712 196.847C531.468 208.592 528.375 227.321 528.375 227.321H510.876C510.876 227.321 513.177 213.744 518.117 194.434C520.315 185.842 523.185 177.489 525.694 170.864C528.987 162.169 537.035 156.335 546.291 155.459C549.612 155.145 552.509 154.908 553.72 154.908" stroke="#0F141A" stroke-width="0.905515" stroke-linecap="square" stroke-linejoin="round"/>
<path d="M530.613 243.712L530.632 228.008V222.495H530.635H555.005H555.011H581.955H581.965V222.532L585.963 350.365L564.842 350.336L556.998 290.683L552.981 350.365H530.622L530.628 243.712H530.613Z" fill="#232B37" stroke="#0F141A" stroke-width="0.905515" stroke-linecap="round" stroke-linejoin="round"/>
<path d="M533.892 232.108V240.292" stroke="#0F141A" stroke-width="0.905515" stroke-linecap="square" stroke-linejoin="round"/>
<path d="M572.007 232.149L573.893 240.334" stroke="#0F141A" stroke-width="0.905515" stroke-linecap="square" stroke-linejoin="round"/>
<path d="M557.448 291.256C557.465 291.506 557.276 291.721 557.027 291.738C556.777 291.755 556.562 291.566 556.545 291.316L556.997 291.286L557.448 291.256ZM553.528 246.059L553.498 245.607L554.401 245.547L554.431 245.998L553.979 246.028L553.528 246.059ZM556.997 291.286L556.545 291.316L553.528 246.059L553.979 246.028L554.431 245.998L557.448 291.256L556.997 291.286Z" fill="#0F141A"/>
<path d="M532.204 354.126L551.112 354.148V350.377L532.204 350.368V354.126Z" fill="#B4B4BB" stroke="#0F141A" stroke-width="0.905515" stroke-linecap="round" stroke-linejoin="round"/>
<path d="M520.811 361.579L551.112 361.523V354.148L532.213 354.126L517.096 357.389C515.091 357.787 513.648 359.627 513.648 361.664L520.814 361.579H520.811Z" fill="#B4B4BB" stroke="#0F141A" stroke-width="0.905515" stroke-linecap="round" stroke-linejoin="round"/>
<path d="M551.122 361.664H513.646V364.169C513.646 364.861 514.209 365.422 514.903 365.422H549.865C550.56 365.422 551.122 364.861 551.122 364.169V361.664Z" fill="#B4B4BB" stroke="#0F141A" stroke-width="0.905515" stroke-linecap="round" stroke-linejoin="round"/>
<path d="M566.444 354.172L585.361 354.194L584.757 350.423H566.051L566.444 354.172Z" fill="#B4B4BB" stroke="#0F141A" stroke-width="0.905515" stroke-linecap="round" stroke-linejoin="round"/>
<path d="M555.652 361.626L586.557 361.569L585.359 354.194L566.452 354.172L551.938 357.435C549.932 357.833 548.49 359.673 548.49 361.71L555.656 361.626H555.652Z" fill="#B4B4BB" stroke="#0F141A" stroke-width="0.905515" stroke-linecap="round" stroke-linejoin="round"/>
<path d="M586.567 361.71H548.488V364.215C548.488 364.908 549.05 365.469 549.745 365.469H585.31C586.005 365.469 586.567 364.908 586.567 364.215V361.71Z" fill="#B4B4BB" stroke="#0F141A" stroke-width="0.905515" stroke-linecap="round" stroke-linejoin="round"/>
<path d="M582.66 218.068C583.55 218.068 583.171 216.788 583.001 215.938C579.768 196.411 579.188 182.394 577.858 168.355C577.151 160.898 570.755 156.115 563.074 156.115H548.026C540.351 156.115 534.945 160.933 533.845 168.336C531.532 183.902 531.806 195.751 528.772 216.664C528.583 217.501 528.618 218.34 529.495 218.34L582.66 218.068Z" fill="#FFBB45"/>
<path d="M533.81 171.985C531.632 187.279 531.067 201.071 528.292 221.601C528.103 222.444 528.622 223.262 529.499 223.262H582.661C583.551 223.262 584.028 222.457 583.862 221.601C580.138 202.355 579.358 181.838 577.859 166.554" fill="#FFBB45"/>
<path d="M533.81 171.985C531.632 187.279 531.067 201.071 528.292 221.601C528.103 222.444 528.622 223.262 529.499 223.262H582.661C583.551 223.262 584.028 222.457 583.862 221.601C580.138 202.355 579.358 181.838 577.859 166.554" stroke="#0F141A" stroke-width="0.905515" stroke-linejoin="round"/>
<path d="M601.397 227.321L601.096 225.812L584.199 226.416L584.199 227.622C584.199 227.622 587.217 229.734 592.346 229.735C597.475 229.735 600.936 228.15 601.397 227.321Z" fill="#0F141A"/>
<path d="M601.096 225.812L601.079 225.36L601.464 225.346L601.54 225.724L601.096 225.812ZM601.397 227.321L601.841 227.232L601.874 227.396L601.793 227.541L601.397 227.321ZM592.346 229.735L592.346 229.282L592.346 229.282L592.346 229.735ZM584.199 227.622L583.94 227.993C583.819 227.909 583.747 227.77 583.747 227.623L584.199 227.622ZM584.199 226.416L583.747 226.416L583.747 225.979L584.183 225.963L584.199 226.416ZM601.096 225.812L601.54 225.724L601.841 227.232L601.397 227.321L600.953 227.41L600.652 225.901L601.096 225.812ZM601.397 227.321L601.793 227.541C601.696 227.715 601.544 227.872 601.374 228.012C601.2 228.156 600.983 228.3 600.732 228.442C600.23 228.726 599.564 229.013 598.76 229.27C597.15 229.784 594.956 230.187 592.346 230.187L592.346 229.735L592.346 229.282C594.865 229.282 596.966 228.893 598.484 228.407C599.244 228.165 599.85 227.9 600.287 227.653C600.505 227.53 600.675 227.415 600.798 227.313C600.926 227.208 600.983 227.134 601.002 227.101L601.397 227.321ZM592.346 229.735L592.346 230.187C589.718 230.187 587.627 229.646 586.189 229.102C585.47 228.83 584.913 228.557 584.534 228.35C584.344 228.247 584.199 228.16 584.099 228.097C584.049 228.066 584.011 228.041 583.984 228.024C583.971 228.015 583.961 228.008 583.953 228.003C583.95 228 583.947 227.998 583.944 227.997C583.943 227.996 583.942 227.995 583.941 227.995C583.941 227.994 583.941 227.994 583.94 227.994C583.94 227.994 583.94 227.994 583.94 227.994C583.94 227.994 583.94 227.993 584.199 227.622C584.459 227.252 584.459 227.251 584.459 227.251C584.459 227.251 584.459 227.251 584.459 227.251C584.458 227.251 584.458 227.251 584.458 227.251C584.458 227.251 584.459 227.251 584.459 227.251C584.46 227.252 584.461 227.253 584.463 227.254C584.467 227.257 584.475 227.262 584.485 227.269C584.505 227.282 584.536 227.303 584.579 227.329C584.664 227.382 584.794 227.46 584.968 227.555C585.314 227.744 585.833 227.999 586.509 228.255C587.862 228.767 589.844 229.282 592.346 229.282L592.346 229.735ZM584.199 227.622L583.747 227.623L583.747 226.416L584.199 226.416L584.652 226.416L584.652 227.622L584.199 227.622ZM584.199 226.416L584.183 225.963L601.079 225.36L601.096 225.812L601.112 226.265L584.215 226.868L584.199 226.416Z" fill="#0F141A"/>
<path d="M600.851 245.59C600.814 246.533 600.03 247.27 599.1 247.233C598.423 247.207 597.857 246.774 597.616 246.179C597.603 246.978 597.581 247.756 597.553 248.474C597.516 249.417 596.732 250.153 595.802 250.117C594.873 250.081 594.149 249.285 594.186 248.342L594.19 248.227C594.149 248.833 594.102 249.41 594.052 249.934C593.962 250.875 593.12 251.561 592.208 251.471C591.28 251.38 590.605 250.544 590.696 249.6C590.887 247.618 590.999 242.17 591.081 239.755C591.081 239.755 589.464 245.811 589.028 247.832C588.829 248.757 587.928 249.344 587.021 249.136C586.113 248.934 585.539 248.021 585.738 247.099C586.202 244.977 586.778 242.814 587.244 241.072C587.481 240.188 587.739 239.229 587.909 238.517C587.773 238.053 587.682 237.572 587.651 237.064L587.609 236.386C586.569 237.957 585.744 239.057 585.682 239.136C585.114 239.884 584.124 240.185 583.262 239.951C582.628 239.824 581.813 239.192 581.806 238.686C581.801 238.314 582.769 237.368 583.009 237.051C583.037 237.019 585.503 233.746 587.206 230.441C587.003 228.835 586.812 227.662 586.563 226.497C585.646 222.208 588.751 218.124 593.133 218.295C595.622 218.393 597.789 219.928 598.305 222.365C599.78 229.329 601.008 241.735 600.857 245.584L600.854 245.584L600.851 245.59Z" fill="#EAC7AF" stroke="#0F141A" stroke-width="0.905515" stroke-linecap="round" stroke-linejoin="round"/>
<path d="M594.186 248.313L594.246 240.095Z" fill="#EAC7AF"/>
<path d="M594.186 248.313L594.246 240.095" stroke="#0F141A" stroke-width="0.905515" stroke-linecap="round" stroke-linejoin="round"/>
<path d="M597.617 246.13L597.146 238.851Z" fill="#EAC7AF"/>
<path d="M597.617 246.13L597.146 238.851" stroke="#0F141A" stroke-width="0.905515" stroke-linecap="round" stroke-linejoin="round"/>
<path d="M571.826 174.822C571.826 174.822 576.365 187.851 578.766 196.546C582.009 208.29 583.895 227.321 583.895 227.321H601.395C601.395 227.321 600.16 215.252 594.757 194.132C592.332 184.65 589.287 176.202 586.667 169.771C583.359 161.649 575.669 156.395 566.94 155.551C563.227 155.192 559.877 154.908 558.551 154.908" fill="#FFBB45"/>
<path d="M571.826 174.822C571.826 174.822 576.365 187.851 578.766 196.546C582.009 208.29 583.895 227.321 583.895 227.321H601.395C601.395 227.321 600.16 215.252 594.757 194.132C592.332 184.65 589.287 176.202 586.667 169.771C583.359 161.649 575.669 156.395 566.94 155.551C563.227 155.192 559.877 154.908 558.551 154.908" stroke="#0F141A" stroke-width="0.905515" stroke-linecap="square" stroke-linejoin="round"/>
<path d="M563.696 156.002C570.826 163.131 559.282 175.352 554.19 175.352C550.117 173.994 542.988 162.112 548.081 156.341" stroke="#0F141A" stroke-width="0.792361"/>
<path d="M558.128 175.022C558.128 174.156 557.517 173.387 556.784 173.387C556.644 173.387 556.508 173.413 556.382 173.46C556.233 172.518 555.532 171.804 554.69 171.804C553.74 171.804 552.97 172.713 552.97 173.835C552.97 173.879 552.971 173.922 552.973 173.965C552.753 173.756 552.473 173.63 552.169 173.63C551.461 173.63 550.887 174.307 550.887 175.143C550.887 175.886 551.341 176.504 551.94 176.632H557.027C557.644 176.497 558.128 175.79 558.128 175.022Z" fill="white"/>
<path d="M547.844 157.521V149.729C547.844 149.729 537.017 152.008 536.885 142.228C536.828 138.038 537.045 134.189 538.415 129.706C540.094 124.215 542.844 119.908 551.223 119.908C557.578 119.933 562.779 125.139 562.779 131.48V157.521C562.779 161.634 559.435 164.969 555.312 164.969C551.188 164.969 547.844 161.634 547.844 157.521V157.521Z" fill="#EAC7AF" stroke="#0F141A" stroke-width="0.905515" stroke-linecap="round" stroke-linejoin="round"/>
<path d="M547.844 149.732C547.844 149.732 551.418 149.193 554.608 147.965C554.885 147.858 555.086 148.231 554.847 148.403L547.844 153.456V149.729" fill="#0F141A"/>
<path d="M547.844 149.732C547.844 149.732 551.418 149.193 554.608 147.965C554.885 147.858 555.086 148.231 554.847 148.403L547.844 153.456V149.729" stroke="#0F141A" stroke-width="0.905515" stroke-linecap="round" stroke-linejoin="round"/>
<path d="M548.882 135.486C549.225 135.486 549.504 135.144 549.504 134.721C549.504 134.299 549.225 133.956 548.882 133.956C548.538 133.956 548.259 134.299 548.259 134.721C548.259 135.144 548.538 135.486 548.882 135.486Z" fill="#0F141A"/>
<path d="M541.7 133.912C542.043 133.912 542.322 133.57 542.322 133.147C542.322 132.725 542.043 132.383 541.7 132.383C541.356 132.383 541.078 132.725 541.078 133.147C541.078 133.57 541.356 133.912 541.7 133.912Z" fill="#0F141A"/>
<path d="M546.163 131.374C545.361 133.085 544.777 134.781 542.328 136.455C541.803 136.815 542.039 137.674 542.614 137.947L543.799 138.504" stroke="#0F141A" stroke-width="0.905515" stroke-linecap="square" stroke-linejoin="round"/>
<path d="M545.882 142.167C545.882 142.167 547.693 141.866 549.073 140.02" stroke="#0F141A" stroke-width="0.905515" stroke-linecap="square" stroke-linejoin="round"/>
<path d="M562.469 139.317C562.082 140.196 561.872 141.169 561.882 142.191C561.898 143.838 562.482 145.345 563.446 146.529L563.377 147.104L563.563 146.669C564.857 148.174 566.781 149.119 568.924 149.098C572.779 149.06 575.869 145.905 575.83 142.056C575.792 138.201 572.638 135.111 568.788 135.15C568.689 135.151 568.59 135.154 568.491 135.159L568.815 134.403C570.162 131.252 570.475 125.904 569.597 122.597C567.29 113.927 560.43 114.115 554.699 114.271C552.167 114.34 549.856 114.404 548.254 113.695C540.684 110.346 535.227 117.808 537.677 122.339C540.811 128.131 551.897 123.866 551.897 123.866C551.699 125.346 552.736 128.862 554.466 130.051C554.994 130.412 555.252 131.41 555.524 132.466C555.808 133.565 556.108 134.726 556.745 135.296L558.556 132.882C558.556 132.882 558.786 138.182 562.469 139.317Z" fill="#232B37" stroke="#0F141A" stroke-width="0.905515" stroke-linecap="round" stroke-linejoin="round"/>
<path d="M558.814 138.202C561.803 136.174 562.01 134.406 561.777 133.406C561.623 132.739 561.095 132.209 560.429 132.04C559.618 131.836 558.71 132.049 558.025 132.607C556.463 133.877 556.026 135.616 556.026 135.616" fill="#EAC7AF"/>
<path d="M558.814 138.202C561.803 136.174 562.01 134.406 561.777 133.406C561.623 132.739 561.095 132.209 560.429 132.04C559.618 131.836 558.71 132.049 558.025 132.607C556.463 133.877 556.026 135.616 556.026 135.616" stroke="#0F141A" stroke-width="0.905515" stroke-linecap="square" stroke-linejoin="round"/>
<path d="M567.909 135.899C567.607 136.503 564.891 138.011 563.383 138.615" stroke="#F3F3F7" stroke-width="1.20735"/>
<path d="M665.855 74.4568L665.274 73.0494C665.245 72.9791 665.143 72.9853 665.123 73.0587L664.924 73.781C664.263 76.1863 662.637 78.2114 660.432 79.3775C660.384 79.4027 660.384 79.4708 660.432 79.496C662.637 80.6621 664.263 82.6872 664.924 85.0925L665.117 85.7919C665.138 85.8672 665.243 85.8705 665.268 85.7967L665.625 84.7602C666.387 82.5432 667.922 80.6747 669.948 79.496C669.995 79.4689 669.996 79.4019 669.951 79.3726C668.121 78.1899 666.686 76.4711 665.855 74.4568Z" stroke="#000716" stroke-width="1.75569" stroke-linecap="round" stroke-linejoin="round"/>
<path d="M643.422 282.401L642.842 280.993C642.813 280.923 642.711 280.929 642.691 281.003L642.492 281.725C641.83 284.13 640.205 286.155 637.999 287.321C637.952 287.347 637.952 287.415 637.999 287.44C640.205 288.606 641.83 290.631 642.492 293.036L642.685 293.736C642.705 293.811 642.811 293.815 642.836 293.741L643.193 292.704C643.955 290.487 645.49 288.619 647.516 287.44C647.563 287.413 647.564 287.346 647.519 287.317C645.689 286.134 644.254 284.415 643.422 282.401Z" stroke="#000716" stroke-width="1.75569" stroke-linecap="round" stroke-linejoin="round"/>
<path d="M704.669 337.559C704.669 337.378 704.816 337.232 704.997 337.232L730.072 337.232C730.253 337.232 730.4 337.378 730.4 337.559L730.4 362.634C730.4 362.815 730.253 362.962 730.072 362.962L704.999 362.962C704.818 362.962 704.671 362.815 704.671 362.634L704.669 337.559Z" fill="#F3F3F7" stroke="#0F141A" stroke-width="0.905515" stroke-linecap="round" stroke-linejoin="round"/>
<path d="M678.939 337.232L704.342 337.232C704.523 337.232 704.669 337.378 704.669 337.559L704.669 362.634C704.669 362.815 704.523 362.962 704.342 362.962L679.268 362.962C679.087 362.962 678.94 362.815 678.94 362.634L678.939 337.232Z" fill="#F3F3F7" stroke="#0F141A" stroke-width="0.905515" stroke-linecap="round" stroke-linejoin="round"/>
<path d="M678.939 311.829C678.939 311.648 679.086 311.501 679.267 311.501L704.342 311.501C704.523 311.501 704.669 311.648 704.669 311.829L704.669 336.904C704.669 337.085 704.523 337.231 704.342 337.231L678.941 337.231L678.939 311.829Z" fill="#F3F3F7" stroke="#0F141A" stroke-width="0.905515" stroke-linecap="round" stroke-linejoin="round"/>
<path d="M719.143 308.738C711.399 308.738 705.122 315.015 705.122 322.758C705.122 330.502 711.399 336.779 719.143 336.779C726.886 336.779 733.163 330.502 733.163 322.758C733.163 315.015 726.886 308.738 719.143 308.738Z" fill="#75CFFF" stroke="#0F141A" stroke-width="0.905515"/>
<path d="M471.239 192.336L470.658 190.928C470.629 190.858 470.528 190.864 470.508 190.938L470.309 191.66C469.647 194.065 468.021 196.091 465.816 197.257C465.769 197.282 465.769 197.35 465.816 197.375C468.021 198.541 469.647 200.566 470.309 202.972L470.501 203.671C470.522 203.746 470.628 203.75 470.653 203.676L471.009 202.639C471.772 200.422 473.306 198.554 475.333 197.375C475.38 197.348 475.381 197.281 475.335 197.252C473.505 196.069 472.07 194.35 471.239 192.336Z" stroke="#000716" stroke-width="1.75569" stroke-linecap="round" stroke-linejoin="round"/>
<g clip-path="url(#clip0_135_988)">
<path d="M72.8837 262.552C72.8837 234.971 95.6478 210.46 122.979 210.46C128.204 210.46 133.239 211.279 137.966 212.793C143.515 182.77 169.612 160.04 200.975 160.04C236.379 160.04 265.076 189.003 265.076 224.726C265.076 226.124 265.028 227.512 264.942 228.888C273.136 222.211 283.562 218.208 294.916 218.208C321.288 218.211 342.664 239.781 342.664 266.391C342.664 290.065 325.743 309.752 303.44 313.807H113.929C90.9205 309.516 72.8837 287.012 72.8837 262.552Z" fill="#F9FCFF"/>
<line x1="273.783" y1="331.204" x2="308.76" y2="331.204" stroke="#0F141A" stroke-width="1.17571"/>
<path fill-rule="evenodd" clip-rule="evenodd" d="M290.223 330.359C290.223 330.359 282.813 332.322 279.219 321.999C279.219 321.999 290.682 319.249 290.223 330.359Z" fill="#00802F" stroke="#0F141A" stroke-width="1.17571" stroke-linejoin="round"/>
<path fill-rule="evenodd" clip-rule="evenodd" d="M290.449 330.343C290.449 330.343 289.388 320.224 303.627 317.603C303.627 317.603 304.906 333.209 290.449 330.343V330.343Z" fill="#00802F" stroke="#0F141A" stroke-width="1.17571" stroke-linejoin="round"/>
<path d="M290.345 286.725C294.095 287.426 302.024 291.005 303.734 299.717" stroke="#006CE0" stroke-width="1.17571"/>
<path d="M290.345 290.121C294.079 290.904 301.159 296.623 298.921 307.569" stroke="#006CE0" stroke-width="1.17571"/>
<path d="M256.465 266.922L249.542 259.998C247.705 258.162 244.727 258.162 242.891 259.998L236.304 266.585C234.467 268.422 234.467 271.4 236.304 273.236L243.227 280.16C245.064 281.996 248.041 281.996 249.878 280.16L256.465 273.573C258.302 271.736 258.302 268.758 256.465 266.922Z" stroke="#0F141A" stroke-width="1.17571" stroke-linecap="round" stroke-linejoin="round"/>
<path d="M268.17 284.582L284.252 285.589L284.509 288.98L260.731 292.02L268.17 284.582Z" fill="#DEDEE3" stroke="#0F141A" stroke-width="1.17571" stroke-linecap="round" stroke-linejoin="round"/>
<path d="M284.87 292.129C285.76 292.181 286.687 290.115 286.931 287.513C287.169 284.907 286.649 282.757 285.745 282.7C284.854 282.647 283.928 284.713 283.684 287.315C283.441 289.917 283.966 292.071 284.865 292.124L284.87 292.129Z" fill="white" stroke="#0F141A" stroke-width="1.17571"/>
<path d="M268.577 284.228C268.543 284.286 268.501 284.34 268.454 284.387L256.44 296.401C256.134 296.707 255.638 296.707 255.332 296.401L239.79 280.859C239.484 280.553 239.484 280.057 239.79 279.751L251.803 267.737C251.851 267.689 251.905 267.648 251.963 267.614L258.398 263.863C258.705 263.684 259.095 263.735 259.346 263.986L272.204 276.844C272.456 277.096 272.506 277.486 272.327 277.793L268.577 284.228Z" fill="#F3F3F7" stroke="#0F141A" stroke-width="1.17571" stroke-linecap="round" stroke-linejoin="round"/>
<path d="M252.207 267.867L268.599 284.259" stroke="#0F141A" stroke-width="1.17571" stroke-linecap="square" stroke-linejoin="round"/>
<path d="M169.036 247.385C170.965 244.043 175.347 242.923 178.837 244.938L211.064 263.544C214.553 265.559 215.774 269.913 213.844 273.255C211.915 276.597 207.534 277.716 204.045 275.701L171.818 257.095C168.328 255.081 167.107 250.727 169.036 247.385Z" fill="#DEDEE3" stroke="#0F141A" stroke-width="1.17571" stroke-linejoin="round"/>
<path d="M213.022 264.818C215.691 267.487 215.762 271.77 213.234 274.523C213.227 274.531 213.221 274.541 213.214 274.549L213.169 274.595C213.121 274.645 213.072 274.695 213.023 274.744C212.866 274.901 212.704 275.049 212.538 275.187L212.51 275.211L185.726 300.363C183.429 302.52 179.834 302.463 177.606 300.235C175.378 298.007 175.322 294.412 177.478 292.116L202.63 265.33L202.654 265.303L202.869 265.057C202.942 264.976 203.018 264.896 203.097 264.818C203.146 264.769 203.195 264.72 203.246 264.673C203.254 264.665 203.263 264.656 203.271 264.647L203.291 264.626C203.3 264.619 203.31 264.614 203.318 264.607C206.071 262.079 210.354 262.15 213.022 264.818Z" fill="#F3F3F7" stroke="#0F141A" stroke-width="1.17571" stroke-linejoin="round"/>
<path fill-rule="evenodd" clip-rule="evenodd" d="M210.879 269.938C210.935 273.907 204.859 273.907 204.927 269.938C204.87 265.969 210.946 265.969 210.879 269.938Z" fill="#006CE0" stroke="#0F141A" stroke-width="1.17571"/>
<path d="M189.383 312.342C186.862 313.798 183.695 313.025 182.23 310.642L175.642 299.929C174.02 297.292 174.945 293.777 177.734 292.166C180.524 290.555 184.031 291.512 185.504 294.235L191.487 305.298C192.818 307.758 191.904 310.887 189.383 312.342Z" fill="#F3F3F7" stroke="#0F141A" stroke-width="1.17571"/>
<path d="M133.584 247.385C131.655 244.043 127.273 242.923 123.783 244.938L91.5567 263.544C88.067 265.559 86.8465 269.913 88.776 273.255C90.7055 276.597 95.0861 277.716 98.5758 275.701L130.802 257.095C134.292 255.081 135.514 250.727 133.584 247.385Z" fill="#DEDEE3" stroke="#0F141A" stroke-width="1.17571" stroke-linejoin="round"/>
<path d="M89.598 264.818C86.9294 267.487 86.8585 271.77 89.386 274.523C89.3932 274.531 89.3992 274.541 89.406 274.549L89.4516 274.595C89.4991 274.645 89.5479 274.695 89.5973 274.744C89.7538 274.901 89.916 275.049 90.0827 275.187L90.1103 275.211L116.895 300.363C119.192 302.52 122.787 302.463 125.015 300.235C127.243 298.007 127.299 294.412 125.142 292.116L99.9905 265.33L99.9663 265.303L99.7516 265.057C99.6779 264.976 99.6019 264.896 99.5237 264.818C99.4745 264.769 99.4248 264.72 99.3745 264.673C99.3659 264.665 99.3571 264.656 99.349 264.647L99.329 264.626C99.3207 264.619 99.3107 264.614 99.3027 264.607C96.5492 262.079 92.2665 262.15 89.598 264.818Z" fill="#F3F3F7" stroke="#0F141A" stroke-width="1.17571" stroke-linejoin="round"/>
<path fill-rule="evenodd" clip-rule="evenodd" d="M91.7415 269.938C91.6852 273.907 97.7611 273.907 97.6935 269.938C97.7498 265.969 91.674 265.969 91.7415 269.938Z" fill="#006CE0" stroke="#0F141A" stroke-width="1.17571"/>
<path d="M112.273 311.291C109.752 309.835 108.838 306.706 110.169 304.246L116.153 293.184C117.626 290.461 121.132 289.504 123.922 291.114C126.712 292.725 127.637 296.24 126.015 298.878L119.426 309.591C117.961 311.973 114.794 312.746 112.273 311.291Z" fill="#F3F3F7" stroke="#0F141A" stroke-width="1.17571"/>
<path d="M159.356 238.168H144.969C144.376 238.168 143.894 238.853 143.894 239.698V243.568C143.894 244.413 144.376 245.098 144.969 245.098H159.356C159.95 245.098 160.431 244.413 160.431 243.568V239.698C160.431 238.853 159.95 238.168 159.356 238.168Z" fill="#DEDEE3" stroke="#0F141A" stroke-width="1.17571"/>
<path d="M159.356 231.239H144.969C144.376 231.239 143.894 231.924 143.894 232.769V236.638C143.894 237.483 144.376 238.168 144.969 238.168H159.356C159.95 238.168 160.431 237.483 160.431 236.638V232.769C160.431 231.924 159.95 231.239 159.356 231.239Z" fill="#DEDEE3" stroke="#0F141A" stroke-width="1.17571"/>
<path d="M144.337 238.168V231.704H160.151V234.687L144.337 238.168Z" fill="#0F141A"/>
<path fill-rule="evenodd" clip-rule="evenodd" d="M142.349 194.528H154.973C160.037 194.528 164.192 198.697 164.362 203.957L165.192 229.319C165.192 232.022 163.08 234.215 160.478 234.215H136.833C134.231 234.215 132.119 232.022 132.119 229.319L132.949 203.957C133.124 198.697 137.274 194.528 142.338 194.528H142.349Z" fill="#0F141A"/>
<path fill-rule="evenodd" clip-rule="evenodd" d="M146.081 195.189H159.226C164.5 195.189 168.826 199.222 169.003 204.31L169.867 228.843C169.867 231.458 167.668 233.579 164.958 233.579H140.338C137.628 233.579 135.429 231.458 135.429 228.843L136.293 204.31C136.475 199.222 140.796 195.189 146.07 195.189H146.081Z" fill="#F3F3F7" stroke="#0F141A" stroke-width="1.17571"/>
<path d="M169.526 226.149L162.808 226.77C155.695 227.431 148.751 226.838 141.638 226.149L135.744 225.574" stroke="#0F141A" stroke-width="1.17571"/>
<path d="M146.704 219.396C148.091 219.396 149.216 218.271 149.216 216.884C149.216 215.496 148.091 214.371 146.704 214.371C145.316 214.371 144.191 215.496 144.191 216.884C144.191 218.271 145.316 219.396 146.704 219.396Z" fill="#006CE0" stroke="#0F141A" stroke-width="1.17571"/>
<path d="M163.632 219.396C165.02 219.396 166.144 218.271 166.144 216.884C166.144 215.496 165.02 214.371 163.632 214.371C162.245 214.371 161.12 215.496 161.12 216.884C161.12 218.271 162.245 219.396 163.632 219.396Z" fill="#006CE0" stroke="#0F141A" stroke-width="1.17571"/>
<path d="M152.135 344.678C164.373 344.678 174.293 343.197 174.293 341.371C174.293 339.545 164.373 338.064 152.135 338.064C139.897 338.064 129.976 339.545 129.976 341.371C129.976 343.197 139.897 344.678 152.135 344.678V344.678Z" fill="#0F141A"/>
<path d="M130.483 241.418H172.207C176.455 241.418 179.793 245.053 179.431 249.285L174.705 304.601C174.107 311.597 168.254 316.97 161.233 316.97H141.924C134.947 316.97 129.115 311.661 128.462 304.714L123.264 249.345C122.865 245.092 126.211 241.418 130.483 241.418Z" fill="#F3F3F7" stroke="#0F141A" stroke-width="1.17571"/>
<path d="M168.852 266.048H134.047C132.381 266.048 130.987 264.772 130.846 263.113L129.987 253.114C129.829 251.24 131.303 249.631 133.189 249.631H169.704C171.584 249.631 173.063 251.24 172.905 253.114L172.047 263.113C171.906 264.772 170.517 266.048 168.846 266.048H168.852Z" fill="#DEDEE3" stroke="#0F141A" stroke-width="1.17571"/>
<path d="M164.692 260.126C165.998 260.126 167.057 259.067 167.057 257.761C167.057 256.454 165.998 255.395 164.692 255.395C163.385 255.395 162.326 256.454 162.326 257.761C162.326 259.067 163.385 260.126 164.692 260.126Z" fill="#006CE0" stroke="#0F141A" stroke-width="1.17571"/>
<path d="M155.419 257.563H133.396" stroke="#0F141A" stroke-width="1.17571"/>
</g>
<defs>
<clipPath id="clip0_135_988">
<rect width="272.764" height="203.789" fill="white" transform="translate(71 151)"/>
</clipPath>
</defs>
</svg>
