<svg width="147" height="106" viewBox="0 0 147 106" fill="none" xmlns="http://www.w3.org/2000/svg">
<g filter="url(#filter0_d_230_1636)">
<path d="M23.12 3.39999L27.2 8.83999H19.04L23.12 3.39999Z" fill="#347E92"/>
<rect x="5.43994" y="8.84" width="136" height="89.56" rx="2.72" fill="#347E92"/>
<path d="M23.8572 24.0846V24.789H22.0484V30.72H21.182V24.789H19.3637V24.0846H23.8572ZM27.513 25.4078C27.9065 25.4078 28.2619 25.4935 28.5792 25.6649C28.8966 25.8299 29.1441 26.0806 29.3218 26.417C29.5058 26.7533 29.5979 27.1627 29.5979 27.645V30.72H28.7411V27.7688C28.7411 27.2484 28.611 26.8517 28.3507 26.5788C28.0905 26.2995 27.7351 26.1599 27.2845 26.1599C26.8275 26.1599 26.4626 26.3027 26.1897 26.5883C25.9231 26.8739 25.7899 27.2896 25.7899 27.8354V30.72H24.9235V23.6752H25.7899V26.2456C25.9612 25.979 26.1961 25.7728 26.4943 25.6268C26.799 25.4808 27.1385 25.4078 27.513 25.4078ZM35.773 27.9116C35.773 28.0766 35.7635 28.2511 35.7444 28.4352H31.5747C31.6064 28.9493 31.7809 29.3523 32.0983 29.6442C32.422 29.9298 32.8123 30.0726 33.2692 30.0726C33.6437 30.0726 33.9547 29.987 34.2022 29.8156C34.4561 29.6379 34.6338 29.4031 34.7353 29.1111H35.6683C35.5287 29.6125 35.2494 30.0219 34.8305 30.3392C34.4116 30.6502 33.8912 30.8057 33.2692 30.8057C32.7742 30.8057 32.3299 30.6946 31.9364 30.4725C31.5493 30.2503 31.2447 29.9362 31.0225 29.53C30.8004 29.1175 30.6893 28.6415 30.6893 28.102C30.6893 27.5625 30.7972 27.0897 31.013 26.6835C31.2288 26.2773 31.5303 25.9663 31.9174 25.7506C32.3109 25.5284 32.7615 25.4174 33.2692 25.4174C33.7643 25.4174 34.2022 25.5253 34.583 25.741C34.9638 25.9568 35.2557 26.2551 35.4588 26.6359C35.6683 27.0104 35.773 27.4356 35.773 27.9116ZM34.8781 27.7307C34.8781 27.4007 34.8051 27.1183 34.6592 26.8834C34.5132 26.6423 34.3133 26.4614 34.0594 26.3408C33.8119 26.2139 33.5358 26.1504 33.2312 26.1504C32.7932 26.1504 32.4188 26.29 32.1078 26.5693C31.8032 26.8485 31.6286 27.2357 31.5842 27.7307H34.8781ZM40.3209 26.4741C40.4986 26.1631 40.7588 25.9092 41.1015 25.7125C41.4442 25.5157 41.8346 25.4174 42.2725 25.4174C42.7421 25.4174 43.1642 25.5284 43.5386 25.7506C43.9131 25.9727 44.2082 26.2869 44.424 26.693C44.6398 27.0929 44.7477 27.5594 44.7477 28.0925C44.7477 28.6193 44.6398 29.0889 44.424 29.5014C44.2082 29.914 43.9099 30.2345 43.5291 30.463C43.1547 30.6914 42.7358 30.8057 42.2725 30.8057C41.8219 30.8057 41.4252 30.7073 41.0825 30.5106C40.7461 30.3138 40.4922 30.0631 40.3209 29.7585V30.72H39.4546V23.6752H40.3209V26.4741ZM43.8623 28.0925C43.8623 27.699 43.783 27.3563 43.6243 27.0643C43.4657 26.7724 43.2499 26.5502 42.977 26.3979C42.7104 26.2456 42.4153 26.1694 42.0916 26.1694C41.7743 26.1694 41.4792 26.2488 41.2062 26.4074C40.9397 26.5598 40.7239 26.7851 40.5589 27.0834C40.4002 27.3753 40.3209 27.7149 40.3209 28.102C40.3209 28.4955 40.4002 28.8414 40.5589 29.1397C40.7239 29.4316 40.9397 29.6569 41.2062 29.8156C41.4792 29.9679 41.7743 30.0441 42.0916 30.0441C42.4153 30.0441 42.7104 29.9679 42.977 29.8156C43.2499 29.6569 43.4657 29.4316 43.6243 29.1397C43.783 28.8414 43.8623 28.4923 43.8623 28.0925ZM46.7543 23.6752V30.72H45.888V23.6752H46.7543ZM52.8575 25.503V30.72H51.9912V29.9489C51.8262 30.2154 51.5945 30.4249 51.2963 30.5772C51.0043 30.7232 50.6806 30.7962 50.3252 30.7962C49.919 30.7962 49.5541 30.7137 49.2304 30.5486C48.9067 30.3773 48.6497 30.1234 48.4593 29.787C48.2752 29.4507 48.1832 29.0413 48.1832 28.559V25.503H49.04V28.4447C49.04 28.9588 49.1701 29.3555 49.4303 29.6347C49.6905 29.9076 50.046 30.0441 50.4966 30.0441C50.9599 30.0441 51.3248 29.9013 51.5914 29.6157C51.8579 29.3301 51.9912 28.9144 51.9912 28.3686V25.503H52.8575ZM59.0803 27.9116C59.0803 28.0766 59.0707 28.2511 59.0517 28.4352H54.8819C54.9137 28.9493 55.0882 29.3523 55.4055 29.6442C55.7292 29.9298 56.1195 30.0726 56.5765 30.0726C56.951 30.0726 57.2619 29.987 57.5095 29.8156C57.7633 29.6379 57.941 29.4031 58.0426 29.1111H58.9755C58.8359 29.6125 58.5567 30.0219 58.1378 30.3392C57.7189 30.6502 57.1985 30.8057 56.5765 30.8057C56.0815 30.8057 55.6372 30.6946 55.2437 30.4725C54.8566 30.2503 54.5519 29.9362 54.3298 29.53C54.1077 29.1175 53.9966 28.6415 53.9966 28.102C53.9966 27.5625 54.1045 27.0897 54.3203 26.6835C54.5361 26.2773 54.8375 25.9663 55.2247 25.7506C55.6182 25.5284 56.0688 25.4174 56.5765 25.4174C57.0715 25.4174 57.5095 25.5253 57.8903 25.741C58.2711 25.9568 58.563 26.2551 58.7661 26.6359C58.9755 27.0104 59.0803 27.4356 59.0803 27.9116ZM58.1854 27.7307C58.1854 27.4007 58.1124 27.1183 57.9664 26.8834C57.8205 26.6423 57.6205 26.4614 57.3667 26.3408C57.1191 26.2139 56.8431 26.1504 56.5384 26.1504C56.1005 26.1504 55.7261 26.29 55.4151 26.5693C55.1104 26.8485 54.9359 27.2357 54.8915 27.7307H58.1854ZM62.4381 28.102C62.4381 27.5625 62.546 27.0929 62.7618 26.693C62.9776 26.2869 63.2759 25.9727 63.6567 25.7506C64.0439 25.5284 64.4849 25.4174 64.98 25.4174C65.621 25.4174 66.1478 25.5729 66.5603 25.8838C66.9792 26.1948 67.2553 26.6264 67.3886 27.1786H66.4556C66.3667 26.8612 66.1922 26.6105 65.932 26.4265C65.6781 26.2424 65.3608 26.1504 64.98 26.1504C64.4849 26.1504 64.0851 26.3218 63.7805 26.6645C63.4758 27.0009 63.3235 27.48 63.3235 28.102C63.3235 28.7303 63.4758 29.2158 63.7805 29.5586C64.0851 29.9013 64.4849 30.0726 64.98 30.0726C65.3608 30.0726 65.6781 29.9838 65.932 29.8061C66.1859 29.6284 66.3604 29.3745 66.4556 29.0445H67.3886C67.2489 29.5776 66.9697 30.006 66.5508 30.3297C66.1319 30.647 65.6083 30.8057 64.98 30.8057C64.4849 30.8057 64.0439 30.6946 63.6567 30.4725C63.2759 30.2503 62.9776 29.9362 62.7618 29.53C62.546 29.1238 62.4381 28.6478 62.4381 28.102ZM68.9919 24.6558C68.8269 24.6558 68.6873 24.5986 68.573 24.4844C68.4588 24.3702 68.4017 24.2305 68.4017 24.0655C68.4017 23.9005 68.4588 23.7609 68.573 23.6466C68.6873 23.5324 68.8269 23.4753 68.9919 23.4753C69.1506 23.4753 69.2839 23.5324 69.3918 23.6466C69.506 23.7609 69.5631 23.9005 69.5631 24.0655C69.5631 24.2305 69.506 24.3702 69.3918 24.4844C69.2839 24.5986 69.1506 24.6558 68.9919 24.6558ZM69.4108 25.503V30.72H68.5445V25.503H69.4108ZM71.7536 26.3503C71.9059 26.052 72.1217 25.8204 72.401 25.6554C72.6866 25.4903 73.0325 25.4078 73.4387 25.4078V26.3027H73.2102C72.2391 26.3027 71.7536 26.8295 71.7536 27.883V30.72H70.8873V25.503H71.7536V26.3503ZM74.115 28.102C74.115 27.5625 74.2229 27.0929 74.4387 26.693C74.6545 26.2869 74.9528 25.9727 75.3336 25.7506C75.7207 25.5284 76.1618 25.4174 76.6569 25.4174C77.2979 25.4174 77.8247 25.5729 78.2372 25.8838C78.6561 26.1948 78.9321 26.6264 79.0654 27.1786H78.1325C78.0436 26.8612 77.8691 26.6105 77.6089 26.4265C77.355 26.2424 77.0377 26.1504 76.6569 26.1504C76.1618 26.1504 75.762 26.3218 75.4573 26.6645C75.1527 27.0009 75.0004 27.48 75.0004 28.102C75.0004 28.7303 75.1527 29.2158 75.4573 29.5586C75.762 29.9013 76.1618 30.0726 76.6569 30.0726C77.0377 30.0726 77.355 29.9838 77.6089 29.8061C77.8627 29.6284 78.0373 29.3745 78.1325 29.0445H79.0654C78.9258 29.5776 78.6465 30.006 78.2277 30.3297C77.8088 30.647 77.2852 30.8057 76.6569 30.8057C76.1618 30.8057 75.7207 30.6946 75.3336 30.4725C74.9528 30.2503 74.6545 29.9362 74.4387 29.53C74.2229 29.1238 74.115 28.6478 74.115 28.102ZM81.0877 23.6752V30.72H80.2214V23.6752H81.0877ZM87.3242 27.9116C87.3242 28.0766 87.3147 28.2511 87.2956 28.4352H83.1259C83.1576 28.9493 83.3321 29.3523 83.6495 29.6442C83.9731 29.9298 84.3635 30.0726 84.8204 30.0726C85.1949 30.0726 85.5059 29.987 85.7534 29.8156C86.0072 29.6379 86.1849 29.4031 86.2865 29.1111H87.2195C87.0798 29.6125 86.8006 30.0219 86.3817 30.3392C85.9628 30.6502 85.4424 30.8057 84.8204 30.8057C84.3254 30.8057 83.8811 30.6946 83.4876 30.4725C83.1005 30.2503 82.7958 29.9362 82.5737 29.53C82.3516 29.1175 82.2405 28.6415 82.2405 28.102C82.2405 27.5625 82.3484 27.0897 82.5642 26.6835C82.78 26.2773 83.0814 25.9663 83.4686 25.7506C83.8621 25.5284 84.3127 25.4174 84.8204 25.4174C85.3155 25.4174 85.7534 25.5253 86.1342 25.741C86.515 25.9568 86.8069 26.2551 87.01 26.6359C87.2195 27.0104 87.3242 27.4356 87.3242 27.9116ZM86.4293 27.7307C86.4293 27.4007 86.3563 27.1183 86.2103 26.8834C86.0644 26.6423 85.8644 26.4614 85.6106 26.3408C85.3631 26.2139 85.087 26.1504 84.7823 26.1504C84.3444 26.1504 83.97 26.29 83.659 26.5693C83.3543 26.8485 83.1798 27.2357 83.1354 27.7307H86.4293ZM90.3146 30.8057C89.9147 30.8057 89.5561 30.739 89.2388 30.6058C88.9215 30.4661 88.6708 30.2757 88.4867 30.0346C88.3027 29.787 88.2011 29.5046 88.1821 29.1873H89.077C89.1024 29.4475 89.2229 29.6601 89.4387 29.8251C89.6609 29.9901 89.9496 30.0726 90.305 30.0726C90.6351 30.0726 90.8953 29.9997 91.0857 29.8537C91.2761 29.7077 91.3713 29.5237 91.3713 29.3015C91.3713 29.073 91.2697 28.9049 91.0667 28.797C90.8636 28.6827 90.5494 28.5717 90.1242 28.4638C89.737 28.3622 89.4197 28.2607 89.1722 28.1591C88.931 28.0512 88.7216 27.8957 88.5438 27.6926C88.3725 27.4832 88.2868 27.2103 88.2868 26.8739C88.2868 26.6074 88.3661 26.363 88.5248 26.1409C88.6835 25.9187 88.9088 25.7442 89.2007 25.6173C89.4927 25.484 89.8259 25.4174 90.2003 25.4174C90.7779 25.4174 91.2444 25.5633 91.5998 25.8553C91.9552 26.1472 92.1456 26.5471 92.171 27.0548H91.3047C91.2856 26.7819 91.1745 26.5629 90.9714 26.3979C90.7747 26.2329 90.5081 26.1504 90.1718 26.1504C89.8608 26.1504 89.6133 26.217 89.4292 26.3503C89.2452 26.4836 89.1531 26.6581 89.1531 26.8739C89.1531 27.0453 89.2071 27.1881 89.315 27.3023C89.4292 27.4102 89.5688 27.4991 89.7338 27.5689C89.9052 27.6323 90.14 27.7053 90.4383 27.7878C90.8128 27.8894 91.1174 27.9909 91.3523 28.0925C91.5871 28.1877 91.787 28.3337 91.952 28.5304C92.1234 28.7271 92.2122 28.9842 92.2186 29.3015C92.2186 29.5871 92.1392 29.8442 91.9806 30.0726C91.8219 30.3011 91.5966 30.482 91.3047 30.6153C91.019 30.7422 90.689 30.8057 90.3146 30.8057ZM95.6559 28.0925C95.6559 27.5594 95.7638 27.0929 95.9796 26.693C96.1954 26.2869 96.4905 25.9727 96.8649 25.7506C97.2457 25.5284 97.6678 25.4174 98.1311 25.4174C98.588 25.4174 98.9847 25.5157 99.3211 25.7125C99.6575 25.9092 99.9082 26.1567 100.073 26.455V25.503H100.949V30.72H100.073V29.749C99.9018 30.0536 99.6448 30.3075 99.302 30.5106C98.9657 30.7073 98.5722 30.8057 98.1216 30.8057C97.6583 30.8057 97.2394 30.6914 96.8649 30.463C96.4905 30.2345 96.1954 29.914 95.9796 29.5014C95.7638 29.0889 95.6559 28.6193 95.6559 28.0925ZM100.073 28.102C100.073 27.7085 99.9938 27.3658 99.8352 27.0738C99.6765 26.7819 99.4607 26.5598 99.1878 26.4074C98.9212 26.2488 98.6261 26.1694 98.3024 26.1694C97.9788 26.1694 97.6836 26.2456 97.4171 26.3979C97.1505 26.5502 96.9379 26.7724 96.7792 27.0643C96.6206 27.3563 96.5412 27.699 96.5412 28.0925C96.5412 28.4923 96.6206 28.8414 96.7792 29.1397C96.9379 29.4316 97.1505 29.6569 97.4171 29.8156C97.6836 29.9679 97.9788 30.0441 98.3024 30.0441C98.6261 30.0441 98.9212 29.9679 99.1878 29.8156C99.4607 29.6569 99.6765 29.4316 99.8352 29.1397C99.9938 28.8414 100.073 28.4955 100.073 28.102ZM103.279 26.3503C103.432 26.052 103.647 25.8204 103.927 25.6554C104.212 25.4903 104.558 25.4078 104.964 25.4078V26.3027H104.736C103.765 26.3027 103.279 26.8295 103.279 27.883V30.72H102.413V25.503H103.279V26.3503ZM110.724 27.9116C110.724 28.0766 110.715 28.2511 110.696 28.4352H106.526C106.558 28.9493 106.732 29.3523 107.05 29.6442C107.373 29.9298 107.764 30.0726 108.221 30.0726C108.595 30.0726 108.906 29.987 109.154 29.8156C109.407 29.6379 109.585 29.4031 109.687 29.1111H110.62C110.48 29.6125 110.201 30.0219 109.782 30.3392C109.363 30.6502 108.843 30.8057 108.221 30.8057C107.726 30.8057 107.281 30.6946 106.888 30.4725C106.501 30.2503 106.196 29.9362 105.974 29.53C105.752 29.1175 105.641 28.6415 105.641 28.102C105.641 27.5625 105.749 27.0897 105.964 26.6835C106.18 26.2773 106.482 25.9663 106.869 25.7506C107.262 25.5284 107.713 25.4174 108.221 25.4174C108.716 25.4174 109.154 25.5253 109.534 25.741C109.915 25.9568 110.207 26.2551 110.41 26.6359C110.62 27.0104 110.724 27.4356 110.724 27.9116ZM109.83 27.7307C109.83 27.4007 109.757 27.1183 109.611 26.8834C109.465 26.6423 109.265 26.4614 109.011 26.3408C108.763 26.2139 108.487 26.1504 108.183 26.1504C107.745 26.1504 107.37 26.29 107.059 26.5693C106.755 26.8485 106.58 27.2357 106.536 27.7307H109.83ZM24.2665 42.503L21.1249 50.1762H20.23L21.2582 47.6629L19.1543 42.503H20.1158L21.7532 46.7299L23.3716 42.503H24.2665ZM27.4127 47.8057C26.924 47.8057 26.4797 47.6946 26.0799 47.4725C25.6864 47.2503 25.3754 46.9362 25.1469 46.53C24.9248 46.1175 24.8137 45.6415 24.8137 45.102C24.8137 44.5689 24.9279 44.0992 25.1564 43.693C25.3912 43.2805 25.7086 42.9663 26.1084 42.7506C26.5083 42.5284 26.9557 42.4174 27.4507 42.4174C27.9458 42.4174 28.3932 42.5284 28.7931 42.7506C29.1929 42.9663 29.5071 43.2773 29.7355 43.6835C29.9704 44.0897 30.0878 44.5625 30.0878 45.102C30.0878 45.6415 29.9672 46.1175 29.726 46.53C29.4912 46.9362 29.1707 47.2503 28.7645 47.4725C28.3583 47.6946 27.9077 47.8057 27.4127 47.8057ZM27.4127 47.0441C27.7236 47.0441 28.0156 46.9711 28.2885 46.8251C28.5614 46.6791 28.7804 46.4602 28.9454 46.1682C29.1167 45.8763 29.2024 45.5209 29.2024 45.102C29.2024 44.6831 29.1199 44.3277 28.9549 44.0358C28.7899 43.7438 28.5741 43.528 28.3075 43.3884C28.041 43.2424 27.7522 43.1694 27.4412 43.1694C27.1239 43.1694 26.8319 43.2424 26.5654 43.3884C26.3052 43.528 26.0957 43.7438 25.9371 44.0358C25.7784 44.3277 25.6991 44.6831 25.6991 45.102C25.6991 45.5272 25.7752 45.8858 25.9275 46.1778C26.0862 46.4697 26.2956 46.6887 26.5559 46.8346C26.8161 46.9743 27.1017 47.0441 27.4127 47.0441ZM35.8536 42.503V47.72H34.9872V46.9489C34.8222 47.2154 34.5906 47.4249 34.2923 47.5772C34.0003 47.7232 33.6766 47.7962 33.3212 47.7962C32.915 47.7962 32.5501 47.7137 32.2264 47.5486C31.9027 47.3773 31.6457 47.1234 31.4553 46.787C31.2713 46.4507 31.1792 46.0413 31.1792 45.559V42.503H32.036V45.4447C32.036 45.9588 32.1661 46.3555 32.4263 46.6347C32.6866 46.9076 33.042 47.0441 33.4926 47.0441C33.9559 47.0441 34.3208 46.9013 34.5874 46.6157C34.854 46.3301 34.9872 45.9144 34.9872 45.3686V42.503H35.8536ZM38.1826 43.3503C38.3349 43.052 38.5507 42.8204 38.83 42.6554C39.1156 42.4903 39.4615 42.4078 39.8676 42.4078V43.3027H39.6392C38.6681 43.3027 38.1826 43.8295 38.1826 44.883V47.72H37.3163V42.503H38.1826V43.3503ZM44.2721 43.4646C44.4434 43.1663 44.6973 42.9187 45.0337 42.722C45.3764 42.5189 45.773 42.4174 46.2237 42.4174C46.687 42.4174 47.1058 42.5284 47.4803 42.7506C47.8611 42.9727 48.1594 43.2869 48.3752 43.693C48.591 44.0929 48.6989 44.5594 48.6989 45.0925C48.6989 45.6193 48.591 46.0889 48.3752 46.5014C48.1594 46.914 47.8611 47.2345 47.4803 47.463C47.1058 47.6914 46.687 47.8057 46.2237 47.8057C45.7794 47.8057 45.3859 47.7073 45.0432 47.5106C44.7068 47.3075 44.4498 47.0568 44.2721 46.7585V50.1952H43.4057V42.503H44.2721V43.4646ZM47.8135 45.0925C47.8135 44.699 47.7342 44.3563 47.5755 44.0643C47.4168 43.7724 47.201 43.5502 46.9281 43.3979C46.6616 43.2456 46.3665 43.1694 46.0428 43.1694C45.7254 43.1694 45.4303 43.2488 45.1574 43.4074C44.8909 43.5598 44.6751 43.7851 44.5101 44.0834C44.3514 44.3753 44.2721 44.7149 44.2721 45.102C44.2721 45.4955 44.3514 45.8414 44.5101 46.1397C44.6751 46.4316 44.8909 46.6569 45.1574 46.8156C45.4303 46.9679 45.7254 47.0441 46.0428 47.0441C46.3665 47.0441 46.6616 46.9679 46.9281 46.8156C47.201 46.6569 47.4168 46.4316 47.5755 46.1397C47.7342 45.8414 47.8135 45.4923 47.8135 45.0925ZM50.2866 41.6558C50.1216 41.6558 49.982 41.5986 49.8677 41.4844C49.7535 41.3702 49.6964 41.2305 49.6964 41.0655C49.6964 40.9005 49.7535 40.7609 49.8677 40.6466C49.982 40.5324 50.1216 40.4753 50.2866 40.4753C50.4453 40.4753 50.5786 40.5324 50.6865 40.6466C50.8007 40.7609 50.8578 40.9005 50.8578 41.0655C50.8578 41.2305 50.8007 41.3702 50.6865 41.4844C50.5786 41.5986 50.4453 41.6558 50.2866 41.6558ZM50.7055 42.503V47.72H49.8392V42.503H50.7055ZM54.7238 42.4078C55.3585 42.4078 55.8726 42.6014 56.2661 42.9886C56.6596 43.3694 56.8563 43.9215 56.8563 44.645V47.72H55.9995V44.7688C55.9995 44.2484 55.8694 43.8517 55.6092 43.5788C55.349 43.2995 54.9936 43.1599 54.5429 43.1599C54.086 43.1599 53.7211 43.3027 53.4481 43.5883C53.1816 43.8739 53.0483 44.2896 53.0483 44.8354V47.72H52.182V42.503H53.0483V43.2456C53.2197 42.979 53.4513 42.7728 53.7433 42.6268C54.0416 42.4808 54.3684 42.4078 54.7238 42.4078ZM60.1183 47.8057C59.7185 47.8057 59.3599 47.739 59.0426 47.6058C58.7252 47.4661 58.4745 47.2757 58.2905 47.0346C58.1064 46.787 58.0049 46.5046 57.9858 46.1873H58.8807C58.9061 46.4475 59.0267 46.6601 59.2425 46.8251C59.4646 46.9901 59.7534 47.0726 60.1088 47.0726C60.4388 47.0726 60.699 46.9997 60.8894 46.8537C61.0798 46.7077 61.175 46.5237 61.175 46.3015C61.175 46.073 61.0735 45.9049 60.8704 45.797C60.6673 45.6827 60.3531 45.5717 59.9279 45.4638C59.5408 45.3622 59.2234 45.2607 58.9759 45.1591C58.7347 45.0512 58.5253 44.8957 58.3476 44.6926C58.1762 44.4832 58.0906 44.2103 58.0906 43.8739C58.0906 43.6074 58.1699 43.363 58.3286 43.1409C58.4872 42.9187 58.7125 42.7442 59.0045 42.6173C59.2964 42.484 59.6296 42.4174 60.0041 42.4174C60.5816 42.4174 61.0481 42.5633 61.4035 42.8553C61.7589 43.1472 61.9493 43.5471 61.9747 44.0548H61.1084C61.0894 43.7819 60.9783 43.5629 60.7752 43.3979C60.5785 43.2329 60.3119 43.1504 59.9755 43.1504C59.6645 43.1504 59.417 43.217 59.233 43.3503C59.0489 43.4836 58.9569 43.6581 58.9569 43.8739C58.9569 44.0453 59.0108 44.1881 59.1187 44.3023C59.233 44.4102 59.3726 44.4991 59.5376 44.5689C59.709 44.6323 59.9438 44.7053 60.2421 44.7878C60.6165 44.8894 60.9212 44.9909 61.156 45.0925C61.3908 45.1877 61.5907 45.3337 61.7558 45.5304C61.9271 45.7271 62.016 45.9842 62.0223 46.3015C62.0223 46.5871 61.943 46.8442 61.7843 47.0726C61.6257 47.3011 61.4003 47.482 61.1084 47.6153C60.8228 47.7422 60.4928 47.8057 60.1183 47.8057ZM64.3686 41.0846L64.2639 45.8446H63.5404L63.4357 41.0846H64.3686ZM63.9402 47.7771C63.7752 47.7771 63.6356 47.72 63.5213 47.6058C63.4071 47.4915 63.35 47.3519 63.35 47.1869C63.35 47.0219 63.4071 46.8822 63.5213 46.768C63.6356 46.6538 63.7752 46.5966 63.9402 46.5966C64.0989 46.5966 64.2322 46.6538 64.3401 46.768C64.4543 46.8822 64.5114 47.0219 64.5114 47.1869C64.5114 47.3519 64.4543 47.4915 64.3401 47.6058C64.2322 47.72 64.0989 47.7771 63.9402 47.7771ZM72.3697 41.0846V41.789H69.4852V44.0262H71.8271V44.7307H69.4852V47.72H68.6189V41.0846H72.3697ZM73.8635 41.6558C73.6985 41.6558 73.5589 41.5986 73.4446 41.4844C73.3304 41.3702 73.2733 41.2305 73.2733 41.0655C73.2733 40.9005 73.3304 40.7609 73.4446 40.6466C73.5589 40.5324 73.6985 40.4753 73.8635 40.4753C74.0222 40.4753 74.1554 40.5324 74.2633 40.6466C74.3776 40.7609 74.4347 40.9005 74.4347 41.0655C74.4347 41.2305 74.3776 41.3702 74.2633 41.4844C74.1554 41.5986 74.0222 41.6558 73.8635 41.6558ZM74.2824 42.503V47.72H73.4161V42.503H74.2824ZM76.6252 40.6752V47.72H75.7589V40.6752H76.6252ZM78.968 40.6752V47.72H78.1017V40.6752H78.968ZM84.0393 43.217V46.292C84.0393 46.5459 84.0932 46.7267 84.2011 46.8346C84.309 46.9362 84.4962 46.987 84.7628 46.987H85.4006V47.72H84.62C84.1376 47.72 83.7759 47.6089 83.5347 47.3868C83.2935 47.1647 83.1729 46.7997 83.1729 46.292V43.217H82.497V42.503H83.1729V41.1893H84.0393V42.503H85.4006V43.217H84.0393ZM89.0397 42.4078C89.4332 42.4078 89.7886 42.4935 90.106 42.6649C90.4233 42.8299 90.6708 43.0806 90.8485 43.417C91.0326 43.7533 91.1246 44.1627 91.1246 44.645V47.72H90.2678V44.7688C90.2678 44.2484 90.1377 43.8517 89.8775 43.5788C89.6173 43.2995 89.2618 43.1599 88.8112 43.1599C88.3543 43.1599 87.9893 43.3027 87.7164 43.5883C87.4499 43.8739 87.3166 44.2896 87.3166 44.8354V47.72H86.4503V40.6752H87.3166V43.2456C87.488 42.979 87.7228 42.7728 88.0211 42.6268C88.3257 42.4808 88.6653 42.4078 89.0397 42.4078ZM97.2997 44.9116C97.2997 45.0766 97.2902 45.2511 97.2712 45.4352H93.1014C93.1331 45.9493 93.3077 46.3523 93.625 46.6442C93.9487 46.9298 94.339 47.0726 94.796 47.0726C95.1704 47.0726 95.4814 46.987 95.7289 46.8156C95.9828 46.6379 96.1605 46.4031 96.262 46.1111H97.195C97.0554 46.6125 96.7761 47.0219 96.3572 47.3392C95.9384 47.6502 95.4179 47.8057 94.796 47.8057C94.3009 47.8057 93.8567 47.6946 93.4632 47.4725C93.076 47.2503 92.7714 46.9362 92.5492 46.53C92.3271 46.1175 92.216 45.6415 92.216 45.102C92.216 44.5625 92.3239 44.0897 92.5397 43.6835C92.7555 43.2773 93.057 42.9663 93.4441 42.7506C93.8376 42.5284 94.2882 42.4174 94.796 42.4174C95.291 42.4174 95.7289 42.5253 96.1097 42.741C96.4905 42.9568 96.7825 43.2551 96.9856 43.6359C97.195 44.0104 97.2997 44.4356 97.2997 44.9116ZM96.4048 44.7307C96.4048 44.4007 96.3319 44.1183 96.1859 43.8834C96.0399 43.6423 95.84 43.4614 95.5861 43.3408C95.3386 43.2139 95.0625 43.1504 94.7579 43.1504C94.32 43.1504 93.9455 43.29 93.6345 43.5693C93.3299 43.8485 93.1553 44.2357 93.1109 44.7307H96.4048ZM104.717 42.4078C105.123 42.4078 105.485 42.4935 105.802 42.6649C106.12 42.8299 106.37 43.0806 106.554 43.417C106.738 43.7533 106.83 44.1627 106.83 44.645V47.72H105.974V44.7688C105.974 44.2484 105.843 43.8517 105.583 43.5788C105.329 43.2995 104.983 43.1599 104.546 43.1599C104.095 43.1599 103.736 43.3059 103.47 43.5978C103.203 43.8834 103.07 44.2991 103.07 44.845V47.72H102.213V44.7688C102.213 44.2484 102.083 43.8517 101.823 43.5788C101.569 43.2995 101.223 43.1599 100.785 43.1599C100.335 43.1599 99.976 43.3059 99.7094 43.5978C99.4428 43.8834 99.3096 44.2991 99.3096 44.845V47.72H98.4432V42.503H99.3096V43.2551C99.4809 42.9822 99.7094 42.7728 99.995 42.6268C100.287 42.4808 100.607 42.4078 100.957 42.4078C101.394 42.4078 101.782 42.5062 102.118 42.703C102.454 42.8997 102.705 43.1885 102.87 43.5693C103.016 43.2012 103.257 42.9156 103.594 42.7125C103.93 42.5094 104.304 42.4078 104.717 42.4078ZM113.065 47.8057C112.576 47.8057 112.132 47.6946 111.732 47.4725C111.338 47.2503 111.027 46.9362 110.799 46.53C110.577 46.1175 110.466 45.6415 110.466 45.102C110.466 44.5689 110.58 44.0992 110.809 43.693C111.043 43.2805 111.361 42.9663 111.761 42.7506C112.16 42.5284 112.608 42.4174 113.103 42.4174C113.598 42.4174 114.045 42.5284 114.445 42.7506C114.845 42.9663 115.159 43.2773 115.388 43.6835C115.622 44.0897 115.74 44.5625 115.74 45.102C115.74 45.6415 115.619 46.1175 115.378 46.53C115.143 46.9362 114.823 47.2503 114.417 47.4725C114.01 47.6946 113.56 47.8057 113.065 47.8057ZM113.065 47.0441C113.376 47.0441 113.668 46.9711 113.941 46.8251C114.214 46.6791 114.432 46.4602 114.597 46.1682C114.769 45.8763 114.855 45.5209 114.855 45.102C114.855 44.6831 114.772 44.3277 114.607 44.0358C114.442 43.7438 114.226 43.528 113.96 43.3884C113.693 43.2424 113.404 43.1694 113.093 43.1694C112.776 43.1694 112.484 43.2424 112.217 43.3884C111.957 43.528 111.748 43.7438 111.589 44.0358C111.431 44.3277 111.351 44.6831 111.351 45.102C111.351 45.5272 111.427 45.8858 111.58 46.1778C111.738 46.4697 111.948 46.6887 112.208 46.8346C112.468 46.9743 112.754 47.0441 113.065 47.0441ZM121.506 42.503V47.72H120.639V46.9489C120.474 47.2154 120.243 47.4249 119.944 47.5772C119.652 47.7232 119.329 47.7962 118.973 47.7962C118.567 47.7962 118.202 47.7137 117.879 47.5486C117.555 47.3773 117.298 47.1234 117.107 46.787C116.923 46.4507 116.831 46.0413 116.831 45.559V42.503H117.688V45.4447C117.688 45.9588 117.818 46.3555 118.078 46.6347C118.339 46.9076 118.694 47.0441 119.145 47.0441C119.608 47.0441 119.973 46.9013 120.24 46.6157C120.506 46.3301 120.639 45.9144 120.639 45.3686V42.503H121.506ZM124.025 43.217V46.292C124.025 46.5459 124.079 46.7267 124.187 46.8346C124.295 46.9362 124.482 46.987 124.749 46.987H125.386V47.72H124.606C124.123 47.72 123.762 47.6089 123.521 47.3868C123.279 47.1647 123.159 46.7997 123.159 46.292V43.217H122.483V42.503H123.159V41.1893H124.025V42.503H125.386V43.217H124.025ZM20.6394 59.4741C20.8171 59.1631 21.0773 58.9092 21.42 58.7125C21.7628 58.5157 22.1531 58.4174 22.591 58.4174C23.0607 58.4174 23.4827 58.5284 23.8572 58.7506C24.2316 58.9727 24.5267 59.2869 24.7425 59.693C24.9583 60.0929 25.0662 60.5594 25.0662 61.0925C25.0662 61.6193 24.9583 62.0889 24.7425 62.5014C24.5267 62.914 24.2284 63.2345 23.8476 63.463C23.4732 63.6914 23.0543 63.8057 22.591 63.8057C22.1404 63.8057 21.7437 63.7073 21.401 63.5106C21.0646 63.3138 20.8108 63.0631 20.6394 62.7585V63.72H19.7731V56.6752H20.6394V59.4741ZM24.1808 61.0925C24.1808 60.699 24.1015 60.3563 23.9428 60.0643C23.7842 59.7724 23.5684 59.5502 23.2955 59.3979C23.0289 59.2456 22.7338 59.1694 22.4101 59.1694C22.0928 59.1694 21.7977 59.2488 21.5248 59.4074C21.2582 59.5598 21.0424 59.7851 20.8774 60.0834C20.7187 60.3753 20.6394 60.7149 20.6394 61.102C20.6394 61.4955 20.7187 61.8414 20.8774 62.1397C21.0424 62.4316 21.2582 62.6569 21.5248 62.8156C21.7977 62.9679 22.0928 63.0441 22.4101 63.0441C22.7338 63.0441 23.0289 62.9679 23.2955 62.8156C23.5684 62.6569 23.7842 62.4316 23.9428 62.1397C24.1015 61.8414 24.1808 61.4923 24.1808 61.0925ZM30.7 58.503L27.5584 66.1762H26.6635L27.6916 63.6629L25.5877 58.503H26.5492L28.1867 62.7299L29.8051 58.503H30.7ZM34.9752 59.3503C35.1275 59.052 35.3433 58.8204 35.6225 58.6554C35.9081 58.4903 36.254 58.4078 36.6602 58.4078V59.3027H36.4317C35.4607 59.3027 34.9752 59.8295 34.9752 60.883V63.72H34.1089V58.503H34.9752V59.3503ZM42.4203 60.9116C42.4203 61.0766 42.4107 61.2511 42.3917 61.4352H38.2219C38.2537 61.9493 38.4282 62.3523 38.7455 62.6442C39.0692 62.9298 39.4595 63.0726 39.9165 63.0726C40.291 63.0726 40.6019 62.987 40.8495 62.8156C41.1033 62.6379 41.281 62.4031 41.3826 62.1111H42.3155C42.1759 62.6125 41.8967 63.0219 41.4778 63.3392C41.0589 63.6502 40.5385 63.8057 39.9165 63.8057C39.4215 63.8057 38.9772 63.6946 38.5837 63.4725C38.1966 63.2503 37.8919 62.9362 37.6698 62.53C37.4477 62.1175 37.3366 61.6415 37.3366 61.102C37.3366 60.5625 37.4445 60.0897 37.6603 59.6835C37.8761 59.2773 38.1775 58.9663 38.5647 58.7506C38.9582 58.5284 39.4088 58.4174 39.9165 58.4174C40.4115 58.4174 40.8495 58.5253 41.2303 58.741C41.6111 58.9568 41.903 59.2551 42.1061 59.6359C42.3155 60.0104 42.4203 60.4356 42.4203 60.9116ZM41.5254 60.7307C41.5254 60.4007 41.4524 60.1183 41.3064 59.8834C41.1605 59.6423 40.9605 59.4614 40.7067 59.3408C40.4591 59.2139 40.1831 59.1504 39.8784 59.1504C39.4405 59.1504 39.0661 59.29 38.7551 59.5693C38.4504 59.8485 38.2759 60.2357 38.2315 60.7307H41.5254ZM45.6867 59.217H44.5919V63.72H43.7256V59.217H43.0497V58.503H43.7256V58.1318C43.7256 57.5479 43.8748 57.1226 44.1731 56.8561C44.4777 56.5832 44.9632 56.4467 45.6296 56.4467V57.1702C45.2488 57.1702 44.9791 57.2464 44.8204 57.3987C44.6681 57.5447 44.5919 57.789 44.5919 58.1318V58.503H45.6867V59.217ZM47.5632 56.6752V63.72H46.6968V56.6752H47.5632ZM53.7996 60.9116C53.7996 61.0766 53.7901 61.2511 53.7711 61.4352H49.6013C49.6331 61.9493 49.8076 62.3523 50.1249 62.6442C50.4486 62.9298 50.8389 63.0726 51.2959 63.0726C51.6703 63.0726 51.9813 62.987 52.2288 62.8156C52.4827 62.6379 52.6604 62.4031 52.762 62.1111H53.6949C53.5553 62.6125 53.276 63.0219 52.8572 63.3392C52.4383 63.6502 51.9179 63.8057 51.2959 63.8057C50.8008 63.8057 50.3566 63.6946 49.9631 63.4725C49.5759 63.2503 49.2713 62.9362 49.0492 62.53C48.827 62.1175 48.716 61.6415 48.716 61.102C48.716 60.5625 48.8239 60.0897 49.0396 59.6835C49.2554 59.2773 49.5569 58.9663 49.944 58.7506C50.3375 58.5284 50.7881 58.4174 51.2959 58.4174C51.7909 58.4174 52.2288 58.5253 52.6096 58.741C52.9904 58.9568 53.2824 59.2551 53.4855 59.6359C53.6949 60.0104 53.7996 60.4356 53.7996 60.9116ZM52.9048 60.7307C52.9048 60.4007 52.8318 60.1183 52.6858 59.8834C52.5398 59.6423 52.3399 59.4614 52.086 59.3408C51.8385 59.2139 51.5624 59.1504 51.2578 59.1504C50.8199 59.1504 50.4454 59.29 50.1344 59.5693C49.8298 59.8485 49.6553 60.2357 49.6108 60.7307H52.9048ZM54.6195 61.102C54.6195 60.5625 54.7274 60.0929 54.9432 59.693C55.1589 59.2869 55.4572 58.9727 55.838 58.7506C56.2252 58.5284 56.6663 58.4174 57.1613 58.4174C57.8023 58.4174 58.3291 58.5729 58.7416 58.8838C59.1605 59.1948 59.4366 59.6264 59.5699 60.1786H58.6369C58.5481 59.8612 58.3735 59.6105 58.1133 59.4265C57.8595 59.2424 57.5421 59.1504 57.1613 59.1504C56.6663 59.1504 56.2664 59.3218 55.9618 59.6645C55.6572 60.0009 55.5048 60.48 55.5048 61.102C55.5048 61.7303 55.6572 62.2158 55.9618 62.5586C56.2664 62.9013 56.6663 63.0726 57.1613 63.0726C57.5421 63.0726 57.8595 62.9838 58.1133 62.8061C58.3672 62.6284 58.5417 62.3745 58.6369 62.0445H59.5699C59.4303 62.5776 59.151 63.006 58.7321 63.3297C58.3132 63.647 57.7896 63.8057 57.1613 63.8057C56.6663 63.8057 56.2252 63.6946 55.838 63.4725C55.4572 63.2503 55.1589 62.9362 54.9432 62.53C54.7274 62.1238 54.6195 61.6478 54.6195 61.102ZM61.7825 59.217V62.292C61.7825 62.5459 61.8365 62.7267 61.9444 62.8346C62.0523 62.9362 62.2395 62.987 62.5061 62.987H63.1439V63.72H62.3633C61.8809 63.72 61.5191 63.6089 61.278 63.3868C61.0368 63.1647 60.9162 62.7997 60.9162 62.292V59.217H60.2403V58.503H60.9162V57.1893H61.7825V58.503H63.1439V59.217H61.7825ZM64.641 57.6558C64.476 57.6558 64.3364 57.5986 64.2221 57.4844C64.1079 57.3702 64.0508 57.2305 64.0508 57.0655C64.0508 56.9005 64.1079 56.7609 64.2221 56.6466C64.3364 56.5324 64.476 56.4753 64.641 56.4753C64.7997 56.4753 64.9329 56.5324 65.0408 56.6466C65.1551 56.7609 65.2122 56.9005 65.2122 57.0655C65.2122 57.2305 65.1551 57.3702 65.0408 57.4844C64.9329 57.5986 64.7997 57.6558 64.641 57.6558ZM65.0599 58.503V63.72H64.1936V58.503H65.0599ZM68.8116 63.8057C68.3229 63.8057 67.8787 63.6946 67.4788 63.4725C67.0853 63.2503 66.7744 62.9362 66.5459 62.53C66.3237 62.1175 66.2127 61.6415 66.2127 61.102C66.2127 60.5689 66.3269 60.0992 66.5554 59.693C66.7902 59.2805 67.1076 58.9663 67.5074 58.7506C67.9072 58.5284 68.3547 58.4174 68.8497 58.4174C69.3448 58.4174 69.7922 58.5284 70.192 58.7506C70.5919 58.9663 70.906 59.2773 71.1345 59.6835C71.3693 60.0897 71.4868 60.5625 71.4868 61.102C71.4868 61.6415 71.3662 62.1175 71.125 62.53C70.8902 62.9362 70.5697 63.2503 70.1635 63.4725C69.7573 63.6946 69.3067 63.8057 68.8116 63.8057ZM68.8116 63.0441C69.1226 63.0441 69.4146 62.9711 69.6875 62.8251C69.9604 62.6791 70.1793 62.4602 70.3444 62.1682C70.5157 61.8763 70.6014 61.5209 70.6014 61.102C70.6014 60.6831 70.5189 60.3277 70.3539 60.0358C70.1889 59.7438 69.9731 59.528 69.7065 59.3884C69.44 59.2424 69.1512 59.1694 68.8402 59.1694C68.5229 59.1694 68.2309 59.2424 67.9644 59.3884C67.7041 59.528 67.4947 59.7438 67.336 60.0358C67.1774 60.3277 67.098 60.6831 67.098 61.102C67.098 61.5272 67.1742 61.8858 67.3265 62.1778C67.4852 62.4697 67.6946 62.6887 67.9548 62.8346C68.2151 62.9743 68.5007 63.0441 68.8116 63.0441ZM75.1677 58.4078C75.8023 58.4078 76.3164 58.6014 76.7099 58.9886C77.1034 59.3694 77.3001 59.9215 77.3001 60.645V63.72H76.4433V60.7688C76.4433 60.2484 76.3132 59.8517 76.053 59.5788C75.7928 59.2995 75.4374 59.1599 74.9868 59.1599C74.5298 59.1599 74.1649 59.3027 73.892 59.5883C73.6254 59.8739 73.4921 60.2896 73.4921 60.8354V63.72H72.6258V58.503H73.4921V59.2456C73.6635 58.979 73.8952 58.7728 74.1871 58.6268C74.4854 58.4808 74.8122 58.4078 75.1677 58.4078ZM78.9913 63.7771C78.8263 63.7771 78.6867 63.72 78.5725 63.6058C78.4582 63.4915 78.4011 63.3519 78.4011 63.1869C78.4011 63.0219 78.4582 62.8822 78.5725 62.768C78.6867 62.6538 78.8263 62.5966 78.9913 62.5966C79.15 62.5966 79.2833 62.6538 79.3912 62.768C79.5054 62.8822 79.5625 63.0219 79.5625 63.1869C79.5625 63.3519 79.5054 63.4915 79.3912 63.6058C79.2833 63.72 79.15 63.7771 78.9913 63.7771Z" fill="white"/>
<path d="M19.3501 79.2976V78.6203H20.8842V84.52H20.1335V79.2976H19.3501Z" fill="white"/>
<path d="M26.8026 76.8333L24.5668 85.9072H23.8324L26.0601 76.8333H26.8026Z" fill="white"/>
<path d="M33.0279 79.2649H30.1638V81.1254C30.2889 80.9513 30.4739 80.8099 30.7187 80.7011C30.9635 80.5869 31.2273 80.5297 31.5102 80.5297C31.9617 80.5297 32.3289 80.6249 32.6118 80.8153C32.8947 81.0003 33.0959 81.2424 33.2156 81.5416C33.3407 81.8353 33.4033 82.1481 33.4033 82.48C33.4033 82.8717 33.3299 83.2225 33.183 83.5326C33.0361 83.8427 32.8103 84.0875 32.5057 84.267C32.2065 84.4465 31.8339 84.5363 31.3878 84.5363C30.8166 84.5363 30.3542 84.3894 30.0006 84.0957C29.647 83.8019 29.4321 83.4102 29.3559 82.9206H30.0822C30.1529 83.2307 30.3025 83.4728 30.531 83.6469C30.7595 83.8209 31.0478 83.908 31.3959 83.908C31.8257 83.908 32.1494 83.7801 32.367 83.5245C32.5846 83.2633 32.6934 82.9206 32.6934 82.4963C32.6934 82.072 32.5846 81.7456 32.367 81.5171C32.1494 81.2832 31.8284 81.1662 31.4041 81.1662C31.1158 81.1662 30.8628 81.2369 30.6452 81.3784C30.4331 81.5144 30.278 81.7021 30.1801 81.9414H29.4783V78.6121H33.0279V79.2649Z" fill="white"/>
<path d="M102.241 81.7604C102.373 81.6276 102.373 81.4124 102.241 81.2796L100.077 79.1158C99.944 78.983 99.7287 78.983 99.5959 79.1158C99.4632 79.2486 99.4632 79.4639 99.5959 79.5967L101.519 81.52L99.5959 83.4433C99.4632 83.5761 99.4632 83.7914 99.5959 83.9242C99.7287 84.0569 99.944 84.0569 100.077 83.9242L102.241 81.7604ZM81.6001 81.52V81.86H102V81.52V81.18H81.6001V81.52Z" fill="white"/>
<path d="M112.54 84.52H111.797L108.811 79.9912V84.52H108.068V78.8243H108.811L111.797 83.3449V78.8243H112.54V84.52ZM117.886 82.1128C117.886 82.2542 117.878 82.4038 117.861 82.5616H114.287C114.314 83.0022 114.464 83.3477 114.736 83.5979C115.013 83.8427 115.348 83.9651 115.74 83.9651C116.061 83.9651 116.327 83.8917 116.539 83.7448C116.757 83.5925 116.909 83.3912 116.996 83.1409H117.796C117.676 83.5707 117.437 83.9216 117.078 84.1936C116.719 84.4601 116.273 84.5934 115.74 84.5934C115.315 84.5934 114.935 84.4982 114.597 84.3078C114.265 84.1174 114.004 83.8481 113.814 83.5C113.624 83.1464 113.528 82.7384 113.528 82.276C113.528 81.8136 113.621 81.4083 113.806 81.0601C113.991 80.712 114.249 80.4454 114.581 80.2605C114.918 80.0701 115.304 79.9749 115.74 79.9749C116.164 79.9749 116.539 80.0673 116.866 80.2523C117.192 80.4373 117.442 80.6929 117.616 81.0193C117.796 81.3403 117.886 81.7048 117.886 82.1128ZM117.119 81.9577C117.119 81.6749 117.056 81.4328 116.931 81.2315C116.806 81.0248 116.635 80.8697 116.417 80.7664C116.205 80.6576 115.968 80.6032 115.707 80.6032C115.332 80.6032 115.011 80.7229 114.744 80.9622C114.483 81.2016 114.333 81.5334 114.295 81.9577H117.119ZM121.2 84.52L120.139 82.8553L119.119 84.52H118.344L119.788 82.3005L118.344 80.0483H119.184L120.245 81.7048L121.257 80.0483H122.032L120.596 82.2597L122.04 84.52H121.2ZM123.676 80.6603V83.296C123.676 83.5136 123.723 83.6686 123.815 83.7611C123.908 83.8481 124.068 83.8917 124.297 83.8917H124.843V84.52H124.174C123.761 84.52 123.451 84.4248 123.244 84.2344C123.037 84.044 122.934 83.7312 122.934 83.296V80.6603H122.354V80.0483H122.934V78.9222H123.676V80.0483H124.843V80.6603H123.676Z" fill="white"/>
<path d="M130.447 13.4867L136.113 19.1533M130.447 19.1533L136.113 13.4867" stroke="white" stroke-width="0.68" stroke-linecap="round" stroke-linejoin="round"/>
</g>
<defs>
<filter id="filter0_d_230_1636" x="-5.8651e-05" y="-6.19888e-06" width="146.88" height="105.88" filterUnits="userSpaceOnUse" color-interpolation-filters="sRGB">
<feFlood flood-opacity="0" result="BackgroundImageFix"/>
<feColorMatrix in="SourceAlpha" type="matrix" values="0 0 0 0 0 0 0 0 0 0 0 0 0 0 0 0 0 0 127 0" result="hardAlpha"/>
<feOffset dy="2.04"/>
<feGaussianBlur stdDeviation="2.72"/>
<feComposite in2="hardAlpha" operator="out"/>
<feColorMatrix type="matrix" values="0 0 0 0 0 0 0 0 0 0 0 0 0 0 0 0 0 0 0.25 0"/>
<feBlend mode="normal" in2="BackgroundImageFix" result="effect1_dropShadow_230_1636"/>
<feBlend mode="normal" in="SourceGraphic" in2="effect1_dropShadow_230_1636" result="shape"/>
</filter>
</defs>
</svg>
