<svg width="360" height="203" viewBox="0 0 360 203" fill="none" xmlns="http://www.w3.org/2000/svg">
<rect width="360" height="38.1429" rx="2.14286" fill="#E8F2F6"/>
<path d="M22.5428 17.6857C22.5428 18.219 22.4142 18.719 22.1571 19.1857C21.9095 19.6524 21.5142 20.0286 20.9714 20.3143C20.438 20.6 19.7618 20.7428 18.9428 20.7428H17.2714V24.5714H15.2714V14.6H18.9428C19.7142 14.6 20.3714 14.7333 20.9142 15C21.4571 15.2666 21.8618 15.6333 22.1285 16.1C22.4047 16.5666 22.5428 17.0952 22.5428 17.6857ZM18.8571 19.1286C19.4095 19.1286 19.819 19.0047 20.0856 18.7571C20.3523 18.5 20.4856 18.1428 20.4856 17.6857C20.4856 16.7143 19.9428 16.2286 18.8571 16.2286H17.2714V19.1286H18.8571ZM24.9771 15.7143C24.6247 15.7143 24.3294 15.6047 24.0913 15.3857C23.8628 15.1571 23.7485 14.8762 23.7485 14.5428C23.7485 14.2095 23.8628 13.9333 24.0913 13.7143C24.3294 13.4857 24.6247 13.3714 24.9771 13.3714C25.3294 13.3714 25.6199 13.4857 25.8485 13.7143C26.0866 13.9333 26.2056 14.2095 26.2056 14.5428C26.2056 14.8762 26.0866 15.1571 25.8485 15.3857C25.6199 15.6047 25.3294 15.7143 24.9771 15.7143ZM25.9628 16.6571V24.5714H23.9628V16.6571H25.9628ZM32.3245 16.5428C33.2673 16.5428 34.0292 16.8428 34.6102 17.4428C35.1912 18.0333 35.4816 18.8619 35.4816 19.9286V24.5714H33.4816V20.2C33.4816 19.5714 33.3245 19.0905 33.0102 18.7571C32.6959 18.4143 32.2673 18.2428 31.7245 18.2428C31.1721 18.2428 30.734 18.4143 30.4102 18.7571C30.0959 19.0905 29.9388 19.5714 29.9388 20.2V24.5714H27.9388V16.6571H29.9388V17.6428C30.2054 17.3 30.5435 17.0333 30.9531 16.8428C31.3721 16.6428 31.8292 16.5428 32.3245 16.5428ZM41.1875 22.3143C42.1018 21.5524 42.8304 20.919 43.3733 20.4143C43.9161 19.9 44.3685 19.3666 44.7304 18.8143C45.0923 18.2619 45.2733 17.719 45.2733 17.1857C45.2733 16.7 45.159 16.319 44.9304 16.0428C44.7018 15.7666 44.3494 15.6286 43.8733 15.6286C43.3971 15.6286 43.0304 15.7905 42.7733 16.1143C42.5161 16.4286 42.3828 16.8619 42.3733 17.4143H40.4304C40.4685 16.2714 40.8066 15.4047 41.4447 14.8143C42.0923 14.2238 42.9114 13.9286 43.9018 13.9286C44.9875 13.9286 45.8209 14.219 46.4018 14.8C46.9828 15.3714 47.2733 16.1286 47.2733 17.0714C47.2733 17.8143 47.0733 18.5238 46.6733 19.2C46.2733 19.8762 45.8161 20.4666 45.3018 20.9714C44.7875 21.4666 44.1161 22.0666 43.2875 22.7714H47.5018V24.4286H40.4447V22.9428L41.1875 22.3143ZM60.009 15.2C61.1137 15.2 62.0709 15.4047 62.8804 15.8143C63.6899 16.2238 64.309 16.8 64.7375 17.5428C65.1756 18.2857 65.3947 19.1428 65.3947 20.1143C65.3947 20.8952 65.2566 21.6333 64.9804 22.3286C64.7137 23.0238 64.3233 23.5857 63.809 24.0143C63.2947 24.4428 62.6852 24.6571 61.9804 24.6571C61.4852 24.6571 61.0852 24.5571 60.7804 24.3571C60.4756 24.1476 60.2804 23.8524 60.1947 23.4714C59.9185 23.8428 59.5614 24.1381 59.1233 24.3571C58.6852 24.5666 58.2233 24.6714 57.7375 24.6714C57.0137 24.6714 56.4471 24.4571 56.0375 24.0286C55.628 23.5905 55.4233 22.9952 55.4233 22.2428C55.4233 21.5286 55.5709 20.8619 55.8661 20.2428C56.1614 19.6238 56.5709 19.1286 57.0947 18.7571C57.6185 18.3762 58.209 18.1857 58.8661 18.1857C59.6852 18.1857 60.2471 18.4714 60.5518 19.0428L60.6804 18.3H62.3518L61.6804 22.1571C61.6518 22.3381 61.6375 22.5047 61.6375 22.6571C61.6375 22.8857 61.6852 23.0571 61.7804 23.1714C61.8756 23.2857 62.0375 23.3428 62.2661 23.3428C62.609 23.3428 62.8947 23.1809 63.1233 22.8571C63.3614 22.5333 63.5375 22.1286 63.6518 21.6428C63.7756 21.1571 63.8375 20.6714 63.8375 20.1857C63.8375 19.0333 63.4852 18.1428 62.7804 17.5143C62.0756 16.8762 61.0804 16.5571 59.7947 16.5571C58.6995 16.5571 57.709 16.8238 56.8233 17.3571C55.9375 17.8809 55.2423 18.6 54.7375 19.5143C54.2423 20.419 53.9947 21.4286 53.9947 22.5428C53.9947 23.7238 54.3423 24.6333 55.0375 25.2714C55.7423 25.9095 56.7375 26.2286 58.0233 26.2286C58.9471 26.2286 59.7614 26.0619 60.4661 25.7286L60.7518 27.0428C59.8471 27.4238 58.8423 27.6143 57.7375 27.6143C56.6709 27.6143 55.7375 27.4095 54.9375 27C54.1375 26.6 53.5185 26.0286 53.0804 25.2857C52.6423 24.5428 52.4233 23.6809 52.4233 22.7C52.4233 21.3 52.7471 20.0286 53.3947 18.8857C54.0518 17.7428 54.9566 16.8428 56.109 16.1857C57.2709 15.5286 58.5709 15.2 60.009 15.2ZM58.3661 23.1857C58.709 23.1857 59.0233 23.0857 59.309 22.8857C59.5947 22.6857 59.8185 22.419 59.9804 22.0857C60.1518 21.7524 60.2375 21.3952 60.2375 21.0143C60.2375 20.6143 60.128 20.2905 59.909 20.0428C59.6899 19.7952 59.3852 19.6714 58.9947 19.6714C58.6423 19.6714 58.3328 19.7809 58.0661 20C57.7995 20.2095 57.5899 20.4857 57.4375 20.8286C57.2947 21.1714 57.2233 21.5333 57.2233 21.9143C57.2233 22.3047 57.3185 22.6143 57.509 22.8428C57.6995 23.0714 57.9852 23.1857 58.3661 23.1857ZM67.2058 16.9C67.2535 15.9476 67.5868 15.2143 68.2058 14.7C68.8344 14.1762 69.6582 13.9143 70.6773 13.9143C71.3725 13.9143 71.9678 14.0381 72.463 14.2857C72.9582 14.5238 73.3297 14.8524 73.5773 15.2714C73.8344 15.6809 73.963 16.1476 73.963 16.6714C73.963 17.2714 73.8059 17.7809 73.4916 18.2C73.1868 18.6095 72.8201 18.8857 72.3916 19.0286V19.0857C72.9439 19.2571 73.3725 19.5619 73.6773 20C73.9916 20.4381 74.1487 21 74.1487 21.6857C74.1487 22.2571 74.0154 22.7666 73.7487 23.2143C73.4916 23.6619 73.1059 24.0143 72.5916 24.2714C72.0868 24.519 71.4773 24.6428 70.763 24.6428C69.6868 24.6428 68.8106 24.3714 68.1344 23.8286C67.4582 23.2857 67.1011 22.4857 67.063 21.4286H69.0059C69.0249 21.8952 69.182 22.2714 69.4773 22.5571C69.782 22.8333 70.1963 22.9714 70.7201 22.9714C71.2059 22.9714 71.5773 22.8381 71.8344 22.5714C72.1011 22.2952 72.2344 21.9428 72.2344 21.5143C72.2344 20.9428 72.0535 20.5333 71.6916 20.2857C71.3297 20.0381 70.7678 19.9143 70.0059 19.9143H69.5916V18.2714H70.0059C71.3582 18.2714 72.0344 17.819 72.0344 16.9143C72.0344 16.5047 71.9106 16.1857 71.663 15.9571C71.4249 15.7286 71.0773 15.6143 70.6201 15.6143C70.1725 15.6143 69.8249 15.7381 69.5773 15.9857C69.3392 16.2238 69.2011 16.5286 69.163 16.9H67.2058ZM76.8435 24.6714C76.4816 24.6714 76.1816 24.5619 75.9435 24.3428C75.7149 24.1143 75.6006 23.8333 75.6006 23.5C75.6006 23.1666 75.7149 22.8905 75.9435 22.6714C76.1816 22.4428 76.4816 22.3286 76.8435 22.3286C77.1958 22.3286 77.4863 22.4428 77.7149 22.6714C77.9435 22.8905 78.0577 23.1666 78.0577 23.5C78.0577 23.8333 77.9435 24.1143 77.7149 24.3428C77.4863 24.5619 77.1958 24.6714 76.8435 24.6714ZM76.8435 18.7571C76.4816 18.7571 76.1816 18.6476 75.9435 18.4286C75.7149 18.2 75.6006 17.919 75.6006 17.5857C75.6006 17.2524 75.7149 16.9762 75.9435 16.7571C76.1816 16.5286 76.4816 16.4143 76.8435 16.4143C77.1958 16.4143 77.4863 16.5286 77.7149 16.7571C77.9435 16.9762 78.0577 17.2524 78.0577 17.5857C78.0577 17.919 77.9435 18.2 77.7149 18.4286C77.4863 18.6476 77.1958 18.7571 76.8435 18.7571ZM79.5105 16.9C79.5582 15.9476 79.8915 15.2143 80.5105 14.7C81.1391 14.1762 81.9629 13.9143 82.982 13.9143C83.6772 13.9143 84.2724 14.0381 84.7677 14.2857C85.2629 14.5238 85.6343 14.8524 85.882 15.2714C86.1391 15.6809 86.2677 16.1476 86.2677 16.6714C86.2677 17.2714 86.1105 17.7809 85.7963 18.2C85.4915 18.6095 85.1248 18.8857 84.6963 19.0286V19.0857C85.2486 19.2571 85.6772 19.5619 85.982 20C86.2963 20.4381 86.4534 21 86.4534 21.6857C86.4534 22.2571 86.3201 22.7666 86.0534 23.2143C85.7963 23.6619 85.4105 24.0143 84.8963 24.2714C84.3915 24.519 83.782 24.6428 83.0677 24.6428C81.9915 24.6428 81.1153 24.3714 80.4391 23.8286C79.7629 23.2857 79.4058 22.4857 79.3677 21.4286H81.3105C81.3296 21.8952 81.4867 22.2714 81.782 22.5571C82.0867 22.8333 82.501 22.9714 83.0248 22.9714C83.5105 22.9714 83.882 22.8381 84.1391 22.5714C84.4058 22.2952 84.5391 21.9428 84.5391 21.5143C84.5391 20.9428 84.3582 20.5333 83.9963 20.2857C83.6343 20.0381 83.0724 19.9143 82.3105 19.9143H81.8963V18.2714H82.3105C83.6629 18.2714 84.3391 17.819 84.3391 16.9143C84.3391 16.5047 84.2153 16.1857 83.9677 15.9571C83.7296 15.7286 83.382 15.6143 82.9248 15.6143C82.4772 15.6143 82.1296 15.7381 81.882 15.9857C81.6439 16.2238 81.5058 16.5286 81.4677 16.9H79.5105ZM94.6624 15.6714L90.8624 24.5714H88.8339L92.6624 15.9H87.7767V14.1857H94.6624V15.6714ZM101.721 26.3H99.7072V13.0286H101.721V26.3ZM112.963 19.4571C113.524 19.5619 113.986 19.8428 114.348 20.3C114.71 20.7571 114.891 21.2809 114.891 21.8714C114.891 22.4047 114.758 22.8762 114.491 23.2857C114.234 23.6857 113.858 24 113.363 24.2286C112.867 24.4571 112.282 24.5714 111.605 24.5714H107.305V14.6H111.42C112.096 14.6 112.677 14.7095 113.163 14.9286C113.658 15.1476 114.029 15.4524 114.277 15.8428C114.534 16.2333 114.663 16.6762 114.663 17.1714C114.663 17.7524 114.505 18.2381 114.191 18.6286C113.886 19.019 113.477 19.2952 112.963 19.4571ZM109.305 18.7143H111.134C111.61 18.7143 111.977 18.6095 112.234 18.4C112.491 18.1809 112.62 17.8714 112.62 17.4714C112.62 17.0714 112.491 16.7619 112.234 16.5428C111.977 16.3238 111.61 16.2143 111.134 16.2143H109.305V18.7143ZM111.32 22.9428C111.805 22.9428 112.182 22.8286 112.448 22.6C112.724 22.3714 112.863 22.0476 112.863 21.6286C112.863 21.2 112.72 20.8666 112.434 20.6286C112.148 20.3809 111.763 20.2571 111.277 20.2571H109.305V22.9428H111.32ZM124.057 16.6571L119.157 28.3143H117.028L118.742 24.3714L115.571 16.6571H117.814L119.857 22.1857L121.928 16.6571H124.057ZM136.11 16.6571L131.21 28.3143H129.082L130.796 24.3714L127.624 16.6571H129.867L131.91 22.1857L133.982 16.6571H136.11ZM140.703 24.7C139.941 24.7 139.255 24.5333 138.645 24.2C138.036 23.8571 137.555 23.3762 137.203 22.7571C136.86 22.1381 136.688 21.4238 136.688 20.6143C136.688 19.8047 136.864 19.0905 137.217 18.4714C137.579 17.8524 138.069 17.3762 138.688 17.0428C139.307 16.7 139.998 16.5286 140.76 16.5286C141.522 16.5286 142.212 16.7 142.831 17.0428C143.45 17.3762 143.936 17.8524 144.288 18.4714C144.65 19.0905 144.831 19.8047 144.831 20.6143C144.831 21.4238 144.645 22.1381 144.274 22.7571C143.912 23.3762 143.417 23.8571 142.788 24.2C142.169 24.5333 141.474 24.7 140.703 24.7ZM140.703 22.9571C141.064 22.9571 141.403 22.8714 141.717 22.7C142.041 22.519 142.298 22.2524 142.488 21.9C142.679 21.5476 142.774 21.119 142.774 20.6143C142.774 19.8619 142.574 19.2857 142.174 18.8857C141.783 18.4762 141.303 18.2714 140.731 18.2714C140.16 18.2714 139.679 18.4762 139.288 18.8857C138.907 19.2857 138.717 19.8619 138.717 20.6143C138.717 21.3666 138.903 21.9476 139.274 22.3571C139.655 22.7571 140.131 22.9571 140.703 22.9571ZM153.77 16.6571V24.5714H151.755V23.5714C151.498 23.9143 151.16 24.1857 150.741 24.3857C150.331 24.5762 149.884 24.6714 149.398 24.6714C148.779 24.6714 148.231 24.5428 147.755 24.2857C147.279 24.019 146.903 23.6333 146.627 23.1286C146.36 22.6143 146.227 22.0047 146.227 21.3V16.6571H148.227V21.0143C148.227 21.6428 148.384 22.1286 148.698 22.4714C149.012 22.8047 149.441 22.9714 149.984 22.9714C150.536 22.9714 150.97 22.8047 151.284 22.4714C151.598 22.1286 151.755 21.6428 151.755 21.0143V16.6571H153.77Z" fill="#23262C"/>
<rect y="43.8572" width="360" height="159" rx="2.14286" fill="#E8F2F6"/>
<path d="M27.8573 60.5001H28.5716C28.761 60.5001 28.9427 60.5753 29.0766 60.7093C29.2106 60.8432 29.2859 61.0249 29.2859 61.2143V68.3572C29.2859 68.5466 29.2106 68.7283 29.0766 68.8623C28.9427 68.9962 28.761 69.0715 28.5716 69.0715H17.143C16.9536 69.0715 16.7719 68.9962 16.6379 68.8623C16.504 68.7283 16.4287 68.5466 16.4287 68.3572V61.2143C16.4287 61.0249 16.504 60.8432 16.6379 60.7093C16.7719 60.5753 16.9536 60.5001 17.143 60.5001H17.8573V59.7858C17.8573 58.4597 18.3841 57.1879 19.3217 56.2502C20.2594 55.3126 21.5312 54.7858 22.8573 54.7858C24.1834 54.7858 25.4551 55.3126 26.3928 56.2502C27.3305 57.1879 27.8573 58.4597 27.8573 59.7858V60.5001ZM17.8573 61.9286V67.6429H27.8573V61.9286H17.8573ZM22.143 63.3572H23.5716V66.2143H22.143V63.3572ZM26.4287 60.5001V59.7858C26.4287 58.8386 26.0524 57.9302 25.3827 57.2604C24.7129 56.5906 23.8045 56.2143 22.8573 56.2143C21.9101 56.2143 21.0017 56.5906 20.3319 57.2604C19.6621 57.9302 19.2859 58.8386 19.2859 59.7858V60.5001H26.4287Z" fill="#015F7D"/>
<path d="M42.7483 66.4286L40.6911 62.8543H39.5726V66.4286H38.1069V57.4929H41.1926C41.8783 57.4929 42.4569 57.6129 42.9283 57.8529C43.4083 58.0929 43.764 58.4143 43.9954 58.8172C44.2354 59.22 44.3554 59.67 44.3554 60.1672C44.3554 60.75 44.184 61.2814 43.8412 61.7614C43.5069 62.2329 42.9883 62.5543 42.2854 62.7257L44.4969 66.4286H42.7483ZM39.5726 61.6843H41.1926C41.7411 61.6843 42.1526 61.5472 42.4269 61.2729C42.7097 60.9986 42.8512 60.63 42.8512 60.1672C42.8512 59.7043 42.714 59.3443 42.4397 59.0872C42.1654 58.8214 41.7497 58.6886 41.1926 58.6886H39.5726V61.6843ZM52.7233 62.7129C52.7233 62.9786 52.7062 63.2186 52.6719 63.4329H47.259C47.3019 63.9986 47.5119 64.4529 47.889 64.7957C48.2662 65.1386 48.729 65.31 49.2776 65.31C50.0662 65.31 50.6233 64.98 50.949 64.32H52.5305C52.3162 64.9714 51.9262 65.5072 51.3605 65.9272C50.8033 66.3386 50.109 66.5443 49.2776 66.5443C48.6005 66.5443 47.9919 66.3943 47.4519 66.0943C46.9205 65.7857 46.5005 65.3572 46.1919 64.8086C45.8919 64.2514 45.7419 63.6086 45.7419 62.88C45.7419 62.1514 45.8876 61.5129 46.179 60.9643C46.479 60.4072 46.8948 59.9786 47.4262 59.6786C47.9662 59.3786 48.5833 59.2286 49.2776 59.2286C49.9462 59.2286 50.5419 59.3743 51.0648 59.6657C51.5876 59.9572 51.9948 60.3686 52.2862 60.9C52.5776 61.4229 52.7233 62.0272 52.7233 62.7129ZM51.1933 62.25C51.1848 61.71 50.9919 61.2772 50.6148 60.9514C50.2376 60.6257 49.7705 60.4629 49.2133 60.4629C48.7076 60.4629 48.2748 60.6257 47.9148 60.9514C47.5548 61.2686 47.3405 61.7014 47.2719 62.25H51.1933ZM57.1357 60.54H55.8243V66.4286H54.3457V60.54H53.51V59.3443H54.3457V58.8429C54.3457 58.0286 54.56 57.4372 54.9886 57.0686C55.4257 56.6914 56.1072 56.5029 57.0329 56.5029V57.7243C56.5872 57.7243 56.2743 57.81 56.0943 57.9814C55.9143 58.1443 55.8243 58.4314 55.8243 58.8429V59.3443H57.1357V60.54ZM59.9004 56.9143V66.4286H58.4347V56.9143H59.9004ZM68.3176 62.7129C68.3176 62.9786 68.3005 63.2186 68.2662 63.4329H62.8533C62.8962 63.9986 63.1062 64.4529 63.4834 64.7957C63.8605 65.1386 64.3234 65.31 64.8719 65.31C65.6605 65.31 66.2176 64.98 66.5434 64.32H68.1248C67.9105 64.9714 67.5205 65.5072 66.9548 65.9272C66.3976 66.3386 65.7034 66.5443 64.8719 66.5443C64.1948 66.5443 63.5862 66.3943 63.0462 66.0943C62.5148 65.7857 62.0948 65.3572 61.7862 64.8086C61.4862 64.2514 61.3362 63.6086 61.3362 62.88C61.3362 62.1514 61.4819 61.5129 61.7733 60.9643C62.0733 60.4072 62.4891 59.9786 63.0205 59.6786C63.5605 59.3786 64.1776 59.2286 64.8719 59.2286C65.5405 59.2286 66.1362 59.3743 66.6591 59.6657C67.1819 59.9572 67.5891 60.3686 67.8805 60.9C68.1719 61.4229 68.3176 62.0272 68.3176 62.7129ZM66.7876 62.25C66.7791 61.71 66.5862 61.2772 66.2091 60.9514C65.8319 60.6257 65.3648 60.4629 64.8076 60.4629C64.3019 60.4629 63.8691 60.6257 63.5091 60.9514C63.1491 61.2686 62.9348 61.7014 62.8662 62.25H66.7876ZM69.2715 62.88C69.2715 62.1514 69.4172 61.5129 69.7086 60.9643C70.0086 60.4072 70.42 59.9786 70.9429 59.6786C71.4658 59.3786 72.0658 59.2286 72.7429 59.2286C73.6 59.2286 74.3072 59.4343 74.8643 59.8457C75.43 60.2486 75.8115 60.8272 76.0086 61.5814H74.4272C74.2986 61.23 74.0929 60.9557 73.81 60.7586C73.5272 60.5614 73.1715 60.4629 72.7429 60.4629C72.1429 60.4629 71.6629 60.6772 71.3029 61.1057C70.9515 61.5257 70.7758 62.1172 70.7758 62.88C70.7758 63.6429 70.9515 64.2386 71.3029 64.6672C71.6629 65.0957 72.1429 65.31 72.7429 65.31C73.5915 65.31 74.1529 64.9372 74.4272 64.1914H76.0086C75.8029 64.9114 75.4172 65.4857 74.8515 65.9143C74.2858 66.3343 73.5829 66.5443 72.7429 66.5443C72.0658 66.5443 71.4658 66.3943 70.9429 66.0943C70.42 65.7857 70.0086 65.3572 69.7086 64.8086C69.4172 64.2514 69.2715 63.6086 69.2715 62.88ZM79.1793 60.54V64.4614C79.1793 64.7272 79.2393 64.92 79.3593 65.04C79.4879 65.1514 79.7022 65.2072 80.0022 65.2072H80.9022V66.4286H79.745C79.085 66.4286 78.5793 66.2743 78.2279 65.9657C77.8765 65.6572 77.7007 65.1557 77.7007 64.4614V60.54H76.865V59.3443H77.7007V57.5829H79.1793V59.3443H80.9022V60.54H79.1793ZM88.6658 66.5443C87.9972 66.5443 87.3929 66.3943 86.8529 66.0943C86.3129 65.7857 85.8886 65.3572 85.5801 64.8086C85.2715 64.2514 85.1172 63.6086 85.1172 62.88C85.1172 62.16 85.2758 61.5214 85.5929 60.9643C85.9101 60.4072 86.3429 59.9786 86.8915 59.6786C87.4401 59.3786 88.0529 59.2286 88.7301 59.2286C89.4072 59.2286 90.0201 59.3786 90.5686 59.6786C91.1172 59.9786 91.5501 60.4072 91.8672 60.9643C92.1843 61.5214 92.3429 62.16 92.3429 62.88C92.3429 63.6 92.1801 64.2386 91.8543 64.7957C91.5286 65.3529 91.0829 65.7857 90.5172 66.0943C89.9601 66.3943 89.3429 66.5443 88.6658 66.5443ZM88.6658 65.2714C89.0429 65.2714 89.3943 65.1814 89.7201 65.0014C90.0543 64.8214 90.3243 64.5514 90.5301 64.1914C90.7358 63.8314 90.8386 63.3943 90.8386 62.88C90.8386 62.3657 90.7401 61.9329 90.5429 61.5814C90.3458 61.2214 90.0843 60.9514 89.7586 60.7714C89.4329 60.5914 89.0815 60.5014 88.7043 60.5014C88.3272 60.5014 87.9758 60.5914 87.6501 60.7714C87.3329 60.9514 87.0801 61.2214 86.8915 61.5814C86.7029 61.9329 86.6086 62.3657 86.6086 62.88C86.6086 63.6429 86.8015 64.2343 87.1872 64.6543C87.5815 65.0657 88.0743 65.2714 88.6658 65.2714ZM97.3661 59.2286C97.9233 59.2286 98.4204 59.3443 98.8576 59.5757C99.3033 59.8072 99.6504 60.15 99.899 60.6043C100.148 61.0586 100.272 61.6072 100.272 62.25V66.4286H98.819V62.4686C98.819 61.8343 98.6604 61.35 98.3433 61.0157C98.0261 60.6729 97.5933 60.5014 97.0447 60.5014C96.4961 60.5014 96.059 60.6729 95.7333 61.0157C95.4161 61.35 95.2576 61.8343 95.2576 62.4686V66.4286H93.7919V59.3443H95.2576V60.1543C95.4976 59.8629 95.8019 59.6357 96.1704 59.4729C96.5476 59.31 96.9461 59.2286 97.3661 59.2286ZM114.996 59.3443L112.797 66.4286H111.254L109.827 61.1957L108.4 66.4286H106.857L104.646 59.3443H106.137L107.616 65.04L109.12 59.3443H110.65L112.09 65.0143L113.556 59.3443H114.996ZM119.755 59.2286C120.295 59.2286 120.775 59.3443 121.195 59.5757C121.624 59.8072 121.958 60.15 122.198 60.6043C122.447 61.0586 122.571 61.6072 122.571 62.25V66.4286H121.118V62.4686C121.118 61.8343 120.96 61.35 120.642 61.0157C120.325 60.6729 119.892 60.5014 119.344 60.5014C118.795 60.5014 118.358 60.6729 118.032 61.0157C117.715 61.35 117.557 61.8343 117.557 62.4686V66.4286H116.091V56.9143H117.557V60.1672C117.805 59.8672 118.118 59.6357 118.495 59.4729C118.881 59.31 119.301 59.2286 119.755 59.2286ZM123.952 62.8543C123.952 62.1429 124.098 61.5129 124.389 60.9643C124.689 60.4157 125.092 59.9914 125.598 59.6914C126.112 59.3829 126.678 59.2286 127.295 59.2286C127.852 59.2286 128.336 59.34 128.748 59.5629C129.168 59.7772 129.502 60.0472 129.751 60.3729V59.3443H131.229V66.4286H129.751V65.3743C129.502 65.7086 129.163 65.9872 128.735 66.21C128.306 66.4329 127.818 66.5443 127.269 66.5443C126.661 66.5443 126.103 66.39 125.598 66.0814C125.092 65.7643 124.689 65.3272 124.389 64.77C124.098 64.2043 123.952 63.5657 123.952 62.8543ZM129.751 62.88C129.751 62.3914 129.648 61.9672 129.442 61.6072C129.245 61.2472 128.983 60.9729 128.658 60.7843C128.332 60.5957 127.981 60.5014 127.603 60.5014C127.226 60.5014 126.875 60.5957 126.549 60.7843C126.223 60.9643 125.958 61.2343 125.752 61.5943C125.555 61.9457 125.456 62.3657 125.456 62.8543C125.456 63.3429 125.555 63.7714 125.752 64.14C125.958 64.5086 126.223 64.7914 126.549 64.9886C126.883 65.1772 127.235 65.2714 127.603 65.2714C127.981 65.2714 128.332 65.1772 128.658 64.9886C128.983 64.8 129.245 64.5257 129.442 64.1657C129.648 63.7972 129.751 63.3686 129.751 62.88ZM134.864 60.54V64.4614C134.864 64.7272 134.924 64.92 135.044 65.04C135.173 65.1514 135.387 65.2072 135.687 65.2072H136.587V66.4286H135.43C134.77 66.4286 134.264 66.2743 133.913 65.9657C133.561 65.6572 133.386 65.1557 133.386 64.4614V60.54H132.55V59.3443H133.386V57.5829H134.864V59.3443H136.587V60.54H134.864ZM147.655 59.3443L143.309 69.7586H141.792L143.232 66.3129L140.442 59.3443H142.075L144.068 64.7443L146.138 59.3443H147.655ZM151.834 66.5443C151.165 66.5443 150.561 66.3943 150.021 66.0943C149.481 65.7857 149.057 65.3572 148.748 64.8086C148.44 64.2514 148.285 63.6086 148.285 62.88C148.285 62.16 148.444 61.5214 148.761 60.9643C149.078 60.4072 149.511 59.9786 150.06 59.6786C150.608 59.3786 151.221 59.2286 151.898 59.2286C152.575 59.2286 153.188 59.3786 153.737 59.6786C154.285 59.9786 154.718 60.4072 155.035 60.9643C155.353 61.5214 155.511 62.16 155.511 62.88C155.511 63.6 155.348 64.2386 155.023 64.7957C154.697 65.3529 154.251 65.7857 153.685 66.0943C153.128 66.3943 152.511 66.5443 151.834 66.5443ZM151.834 65.2714C152.211 65.2714 152.563 65.1814 152.888 65.0014C153.223 64.8214 153.493 64.5514 153.698 64.1914C153.904 63.8314 154.007 63.3943 154.007 62.88C154.007 62.3657 153.908 61.9329 153.711 61.5814C153.514 61.2214 153.253 60.9514 152.927 60.7714C152.601 60.5914 152.25 60.5014 151.873 60.5014C151.495 60.5014 151.144 60.5914 150.818 60.7714C150.501 60.9514 150.248 61.2214 150.06 61.5814C149.871 61.9329 149.777 62.3657 149.777 62.88C149.777 63.6429 149.97 64.2343 150.355 64.6543C150.75 65.0657 151.243 65.2714 151.834 65.2714ZM163.376 59.3443V66.4286H161.91V65.5929C161.679 65.8843 161.374 66.1157 160.997 66.2872C160.629 66.45 160.234 66.5314 159.814 66.5314C159.257 66.5314 158.756 66.4157 158.31 66.1843C157.873 65.9529 157.526 65.61 157.269 65.1557C157.02 64.7014 156.896 64.1529 156.896 63.51V59.3443H158.349V63.2914C158.349 63.9257 158.507 64.4143 158.824 64.7572C159.142 65.0914 159.574 65.2586 160.123 65.2586C160.672 65.2586 161.104 65.0914 161.422 64.7572C161.747 64.4143 161.91 63.9257 161.91 63.2914V59.3443H163.376ZM170.115 60.3857C170.364 60.06 170.702 59.7857 171.131 59.5629C171.56 59.34 172.044 59.2286 172.584 59.2286C173.201 59.2286 173.762 59.3829 174.268 59.6914C174.782 59.9914 175.185 60.4157 175.477 60.9643C175.768 61.5129 175.914 62.1429 175.914 62.8543C175.914 63.5657 175.768 64.2043 175.477 64.77C175.185 65.3272 174.782 65.7643 174.268 66.0814C173.762 66.39 173.201 66.5443 172.584 66.5443C172.044 66.5443 171.564 66.4372 171.144 66.2229C170.724 66 170.381 65.7257 170.115 65.4V69.7972H168.65V59.3443H170.115V60.3857ZM174.422 62.8543C174.422 62.3657 174.32 61.9457 174.114 61.5943C173.917 61.2343 173.651 60.9643 173.317 60.7843C172.991 60.5957 172.64 60.5014 172.262 60.5014C171.894 60.5014 171.542 60.5957 171.208 60.7843C170.882 60.9729 170.617 61.2472 170.411 61.6072C170.214 61.9672 170.115 62.3914 170.115 62.88C170.115 63.3686 170.214 63.7972 170.411 64.1657C170.617 64.5257 170.882 64.8 171.208 64.9886C171.542 65.1772 171.894 65.2714 172.262 65.2714C172.64 65.2714 172.991 65.1772 173.317 64.9886C173.651 64.7914 173.917 64.5086 174.114 64.14C174.32 63.7714 174.422 63.3429 174.422 62.8543ZM178.109 58.4057C177.843 58.4057 177.62 58.3157 177.44 58.1357C177.26 57.9557 177.17 57.7329 177.17 57.4672C177.17 57.2014 177.26 56.9786 177.44 56.7986C177.62 56.6186 177.843 56.5286 178.109 56.5286C178.366 56.5286 178.585 56.6186 178.765 56.7986C178.945 56.9786 179.035 57.2014 179.035 57.4672C179.035 57.7329 178.945 57.9557 178.765 58.1357C178.585 58.3157 178.366 58.4057 178.109 58.4057ZM178.829 59.3443V66.4286H177.363V59.3443H178.829ZM184.328 59.2286C184.885 59.2286 185.382 59.3443 185.819 59.5757C186.265 59.8072 186.612 60.15 186.86 60.6043C187.109 61.0586 187.233 61.6072 187.233 62.25V66.4286H185.78V62.4686C185.78 61.8343 185.622 61.35 185.305 61.0157C184.988 60.6729 184.555 60.5014 184.006 60.5014C183.458 60.5014 183.02 60.6729 182.695 61.0157C182.378 61.35 182.219 61.8343 182.219 62.4686V66.4286H180.753V59.3443H182.219V60.1543C182.459 59.8629 182.763 59.6357 183.132 59.4729C183.509 59.31 183.908 59.2286 184.328 59.2286ZM192.677 59.2286C193.234 59.2286 193.732 59.3443 194.169 59.5757C194.614 59.8072 194.962 60.15 195.21 60.6043C195.459 61.0586 195.583 61.6072 195.583 62.25V66.4286H194.13V62.4686C194.13 61.8343 193.972 61.35 193.654 61.0157C193.337 60.6729 192.904 60.5014 192.356 60.5014C191.807 60.5014 191.37 60.6729 191.044 61.0157C190.727 61.35 190.569 61.8343 190.569 62.4686V66.4286H189.103V59.3443H190.569V60.1543C190.809 59.8629 191.113 59.6357 191.482 59.4729C191.859 59.31 192.257 59.2286 192.677 59.2286ZM203.945 62.7129C203.945 62.9786 203.928 63.2186 203.894 63.4329H198.481C198.524 63.9986 198.734 64.4529 199.111 64.7957C199.488 65.1386 199.951 65.31 200.5 65.31C201.288 65.31 201.845 64.98 202.171 64.32H203.753C203.538 64.9714 203.148 65.5072 202.583 65.9272C202.025 66.3386 201.331 66.5443 200.5 66.5443C199.823 66.5443 199.214 66.3943 198.674 66.0943C198.143 65.7857 197.723 65.3572 197.414 64.8086C197.114 64.2514 196.964 63.6086 196.964 62.88C196.964 62.1514 197.11 61.5129 197.401 60.9643C197.701 60.4072 198.117 59.9786 198.648 59.6786C199.188 59.3786 199.805 59.2286 200.5 59.2286C201.168 59.2286 201.764 59.3743 202.287 59.6657C202.81 59.9572 203.217 60.3686 203.508 60.9C203.8 61.4229 203.945 62.0272 203.945 62.7129ZM202.415 62.25C202.407 61.71 202.214 61.2772 201.837 60.9514C201.46 60.6257 200.993 60.4629 200.435 60.4629C199.93 60.4629 199.497 60.6257 199.137 60.9514C198.777 61.2686 198.563 61.7014 198.494 62.25H202.415ZM204.899 62.8543C204.899 62.1429 205.045 61.5129 205.336 60.9643C205.636 60.4157 206.039 59.9914 206.545 59.6914C207.059 59.3829 207.629 59.2286 208.255 59.2286C208.718 59.2286 209.172 59.3314 209.618 59.5372C210.072 59.7343 210.432 60 210.698 60.3343V56.9143H212.176V66.4286H210.698V65.3614C210.458 65.7043 210.124 65.9872 209.695 66.21C209.275 66.4329 208.791 66.5443 208.242 66.5443C207.625 66.5443 207.059 66.39 206.545 66.0814C206.039 65.7643 205.636 65.3272 205.336 64.77C205.045 64.2043 204.899 63.5657 204.899 62.8543ZM210.698 62.88C210.698 62.3914 210.595 61.9672 210.389 61.6072C210.192 61.2472 209.931 60.9729 209.605 60.7843C209.279 60.5957 208.928 60.5014 208.551 60.5014C208.174 60.5014 207.822 60.5957 207.496 60.7843C207.171 60.9643 206.905 61.2343 206.699 61.5943C206.502 61.9457 206.404 62.3657 206.404 62.8543C206.404 63.3429 206.502 63.7714 206.699 64.14C206.905 64.5086 207.171 64.7914 207.496 64.9886C207.831 65.1772 208.182 65.2714 208.551 65.2714C208.928 65.2714 209.279 65.1772 209.605 64.9886C209.931 64.8 210.192 64.5257 210.389 64.1657C210.595 63.7972 210.698 63.3686 210.698 62.88Z" fill="#23262C"/>
<rect x="14.6428" y="74.6429" width="330.714" height="113.571" rx="1.78571" fill="white"/>
<rect x="14.6428" y="74.6429" width="330.714" height="113.571" rx="1.78571" stroke="#E8F2F6" stroke-width="0.714286"/>
<path d="M23.7269 82.72H24.5069V86.73C24.5069 87.32 24.6553 87.7467 24.9519 88.01C25.2486 88.27 25.6369 88.4 26.1169 88.4C26.5936 88.4 26.9786 88.27 27.2719 88.01C27.5686 87.7467 27.7169 87.32 27.7169 86.73V82.72H28.4969V86.73C28.4969 87.2567 28.3986 87.6983 28.2019 88.055C28.0086 88.4083 27.7336 88.675 27.3769 88.855C27.0203 89.0317 26.6003 89.12 26.1169 89.12C25.6336 89.12 25.2119 89.0317 24.8519 88.855C24.4953 88.675 24.2186 88.4083 24.0219 88.055C23.8253 87.6983 23.7269 87.2567 23.7269 86.73V82.72ZM32.1201 89.12C31.6568 89.12 31.2701 89.055 30.9601 88.925C30.6501 88.7917 30.4151 88.61 30.2551 88.38C30.0951 88.1467 30.0101 87.88 30.0001 87.58H30.7501C30.7668 87.8833 30.8885 88.1117 31.1151 88.265C31.3451 88.415 31.6568 88.49 32.0501 88.49C32.2568 88.49 32.4468 88.4567 32.6201 88.39C32.7935 88.3233 32.9318 88.2317 33.0351 88.115C33.1385 87.9983 33.1901 87.8667 33.1901 87.72C33.1901 87.5333 33.1218 87.3867 32.9851 87.28C32.8485 87.1733 32.6301 87.08 32.3301 87L31.4001 86.7C30.9968 86.5733 30.6868 86.4 30.4701 86.18C30.2568 85.9567 30.1501 85.69 30.1501 85.38C30.1501 84.9933 30.3201 84.6833 30.6601 84.45C31.0001 84.2167 31.4468 84.1 32.0001 84.1C32.5868 84.1 33.0418 84.22 33.3651 84.46C33.6885 84.7 33.8568 85 33.8701 85.36H33.1001C33.0701 85.15 32.9635 84.9917 32.7801 84.885C32.5968 84.775 32.3368 84.72 32.0001 84.72C31.6768 84.72 31.4235 84.7933 31.2401 84.94C31.0601 85.0833 30.9701 85.2433 30.9701 85.42C30.9701 85.75 31.2535 85.9933 31.8201 86.15L32.7701 86.47C33.1801 86.5933 33.4935 86.755 33.7101 86.955C33.9301 87.155 34.0401 87.41 34.0401 87.72C34.0401 87.96 33.9618 88.1867 33.8051 88.4C33.6485 88.6133 33.4268 88.7867 33.1401 88.92C32.8535 89.0533 32.5135 89.12 32.1201 89.12ZM37.314 89.12C36.9007 89.12 36.5307 89.015 36.204 88.805C35.8807 88.5917 35.624 88.2967 35.434 87.92C35.2474 87.5433 35.154 87.11 35.154 86.62C35.154 86.0967 35.2474 85.6467 35.434 85.27C35.6207 84.8933 35.8757 84.605 36.199 84.405C36.5257 84.2017 36.8974 84.1 37.314 84.1C37.6774 84.1 37.9874 84.1733 38.244 84.32C38.5007 84.4667 38.7074 84.665 38.864 84.915C39.0207 85.165 39.129 85.4483 39.189 85.765C39.2524 86.0783 39.2707 86.4033 39.244 86.74H35.784V86.26H38.729L38.499 86.41C38.509 86.2133 38.4974 86.0167 38.464 85.82C38.434 85.6233 38.3757 85.4433 38.289 85.28C38.2024 85.1133 38.0807 84.98 37.924 84.88C37.7674 84.78 37.5674 84.73 37.324 84.73C37.0174 84.73 36.7607 84.8083 36.554 84.965C36.3474 85.1217 36.1924 85.3283 36.089 85.585C35.9857 85.8383 35.934 86.1133 35.934 86.41V86.73C35.934 87.0633 35.984 87.3617 36.084 87.625C36.1874 87.8883 36.3407 88.0967 36.544 88.25C36.7474 88.4033 37.004 88.48 37.314 88.48C37.624 88.48 37.879 88.405 38.079 88.255C38.279 88.105 38.4007 87.8833 38.444 87.59H39.254C39.204 87.9067 39.0907 88.18 38.914 88.41C38.7374 88.6367 38.5124 88.8117 38.239 88.935C37.9657 89.0583 37.6574 89.12 37.314 89.12ZM44.8938 89.12C44.4638 89.12 44.0805 89.025 43.7438 88.835C43.4105 88.645 43.1471 88.3633 42.9538 87.99C42.7605 87.6167 42.6638 87.1567 42.6638 86.61C42.6638 86.06 42.7605 85.6 42.9538 85.23C43.1471 84.8567 43.4105 84.575 43.7438 84.385C44.0805 84.195 44.4638 84.1 44.8938 84.1C45.3205 84.1 45.7005 84.195 46.0338 84.385C46.3705 84.575 46.6338 84.8567 46.8238 85.23C47.0171 85.6 47.1138 86.06 47.1138 86.61C47.1138 87.1567 47.0171 87.6167 46.8238 87.99C46.6338 88.3633 46.3705 88.645 46.0338 88.835C45.7005 89.025 45.3205 89.12 44.8938 89.12ZM44.8738 88.44C45.1838 88.44 45.4471 88.3667 45.6638 88.22C45.8805 88.07 46.0438 87.8583 46.1538 87.585C46.2671 87.3117 46.3238 86.9867 46.3238 86.61C46.3238 86.04 46.2055 85.5917 45.9688 85.265C45.7321 84.935 45.3805 84.77 44.9138 84.77C44.6005 84.77 44.3355 84.845 44.1188 84.995C43.9055 85.1417 43.7421 85.3533 43.6288 85.63C43.5188 85.9033 43.4638 86.23 43.4638 86.61C43.4638 87.1733 43.5821 87.62 43.8188 87.95C44.0588 88.2767 44.4105 88.44 44.8738 88.44ZM50.8026 89.12C50.4526 89.12 50.1476 89.04 49.8876 88.88C49.6309 88.72 49.4326 88.4867 49.2926 88.18C49.1526 87.87 49.0826 87.4933 49.0826 87.05H49.4126C49.4126 87.3467 49.4742 87.5967 49.5976 87.8C49.7209 88.0033 49.8809 88.1583 50.0776 88.265C50.2776 88.3683 50.4892 88.42 50.7126 88.42C50.9526 88.42 51.1826 88.3517 51.4026 88.215C51.6226 88.075 51.8026 87.87 51.9426 87.6C52.0826 87.33 52.1526 86.9967 52.1526 86.6C52.1526 86.22 52.0876 85.895 51.9576 85.625C51.8309 85.355 51.6592 85.1483 51.4426 85.005C51.2259 84.8617 50.9859 84.79 50.7226 84.79C50.4959 84.79 50.2826 84.845 50.0826 84.955C49.8826 85.065 49.7209 85.2267 49.5976 85.44C49.4742 85.65 49.4126 85.91 49.4126 86.22H49.0826C49.0826 85.7567 49.1592 85.3683 49.3126 85.055C49.4659 84.7383 49.6742 84.5 49.9376 84.34C50.2009 84.18 50.4959 84.1 50.8226 84.1C51.1959 84.1 51.5442 84.2 51.8676 84.4C52.1909 84.6 52.4526 84.8867 52.6526 85.26C52.8526 85.6333 52.9526 86.08 52.9526 86.6C52.9526 87.1267 52.8509 87.5783 52.6476 87.955C52.4476 88.3317 52.1842 88.62 51.8576 88.82C51.5309 89.02 51.1792 89.12 50.8026 89.12ZM48.6326 91.35V84.22H49.2826L49.4126 85.34V91.35H48.6326ZM56.1422 89.12C55.7288 89.12 55.3588 89.015 55.0322 88.805C54.7088 88.5917 54.4522 88.2967 54.2622 87.92C54.0755 87.5433 53.9822 87.11 53.9822 86.62C53.9822 86.0967 54.0755 85.6467 54.2622 85.27C54.4488 84.8933 54.7038 84.605 55.0272 84.405C55.3538 84.2017 55.7255 84.1 56.1422 84.1C56.5055 84.1 56.8155 84.1733 57.0722 84.32C57.3288 84.4667 57.5355 84.665 57.6922 84.915C57.8488 85.165 57.9572 85.4483 58.0172 85.765C58.0805 86.0783 58.0988 86.4033 58.0722 86.74H54.6122V86.26H57.5572L57.3272 86.41C57.3372 86.2133 57.3255 86.0167 57.2922 85.82C57.2622 85.6233 57.2038 85.4433 57.1172 85.28C57.0305 85.1133 56.9088 84.98 56.7522 84.88C56.5955 84.78 56.3955 84.73 56.1522 84.73C55.8455 84.73 55.5888 84.8083 55.3822 84.965C55.1755 85.1217 55.0205 85.3283 54.9172 85.585C54.8138 85.8383 54.7622 86.1133 54.7622 86.41V86.73C54.7622 87.0633 54.8122 87.3617 54.9122 87.625C55.0155 87.8883 55.1688 88.0967 55.3722 88.25C55.5755 88.4033 55.8322 88.48 56.1422 88.48C56.4522 88.48 56.7072 88.405 56.9072 88.255C57.1072 88.105 57.2288 87.8833 57.2722 87.59H58.0822C58.0322 87.9067 57.9188 88.18 57.7422 88.41C57.5655 88.6367 57.3405 88.8117 57.0672 88.935C56.7938 89.0583 56.4855 89.12 56.1422 89.12ZM63.0189 89V86.19C63.0189 85.7333 62.9089 85.3867 62.6889 85.15C62.4722 84.91 62.1756 84.79 61.7989 84.79C61.5122 84.79 61.2639 84.8683 61.0539 85.025C60.8439 85.1817 60.6822 85.4067 60.5689 85.7C60.4556 85.99 60.3989 86.3367 60.3989 86.74H60.0989C60.0989 86.1833 60.1722 85.7083 60.3189 85.315C60.4656 84.9217 60.6789 84.6217 60.9589 84.415C61.2422 84.205 61.5856 84.1 61.9889 84.1C62.3656 84.1 62.6872 84.185 62.9539 84.355C63.2239 84.5217 63.4306 84.7617 63.5739 85.075C63.7172 85.3883 63.7889 85.76 63.7889 86.19V89H63.0189ZM59.6189 89V84.22H60.2889L60.3989 85.32V89H59.6189ZM69.6871 89.12C69.2738 89.12 68.9038 89.015 68.5771 88.805C68.2538 88.5917 67.9971 88.2967 67.8071 87.92C67.6204 87.5433 67.5271 87.11 67.5271 86.62C67.5271 86.0967 67.6204 85.6467 67.8071 85.27C67.9938 84.8933 68.2488 84.605 68.5721 84.405C68.8988 84.2017 69.2704 84.1 69.6871 84.1C70.0504 84.1 70.3604 84.1733 70.6171 84.32C70.8738 84.4667 71.0804 84.665 71.2371 84.915C71.3938 85.165 71.5021 85.4483 71.5621 85.765C71.6254 86.0783 71.6438 86.4033 71.6171 86.74H68.1571V86.26H71.1021L70.8721 86.41C70.8821 86.2133 70.8704 86.0167 70.8371 85.82C70.8071 85.6233 70.7488 85.4433 70.6621 85.28C70.5754 85.1133 70.4538 84.98 70.2971 84.88C70.1404 84.78 69.9404 84.73 69.6971 84.73C69.3904 84.73 69.1338 84.8083 68.9271 84.965C68.7204 85.1217 68.5654 85.3283 68.4621 85.585C68.3588 85.8383 68.3071 86.1133 68.3071 86.41V86.73C68.3071 87.0633 68.3571 87.3617 68.4571 87.625C68.5604 87.8883 68.7138 88.0967 68.9171 88.25C69.1204 88.4033 69.3771 88.48 69.6871 88.48C69.9971 88.48 70.2521 88.405 70.4521 88.255C70.6521 88.105 70.7738 87.8833 70.8171 87.59H71.6271C71.5771 87.9067 71.4638 88.18 71.2871 88.41C71.1104 88.6367 70.8854 88.8117 70.6121 88.935C70.3388 89.0583 70.0304 89.12 69.6871 89.12ZM76.5638 89V86.19C76.5638 85.7333 76.4538 85.3867 76.2338 85.15C76.0171 84.91 75.7205 84.79 75.3438 84.79C75.0571 84.79 74.8088 84.8683 74.5988 85.025C74.3888 85.1817 74.2271 85.4067 74.1138 85.7C74.0005 85.99 73.9438 86.3367 73.9438 86.74H73.6438C73.6438 86.1833 73.7171 85.7083 73.8638 85.315C74.0105 84.9217 74.2238 84.6217 74.5038 84.415C74.7871 84.205 75.1305 84.1 75.5338 84.1C75.9105 84.1 76.2321 84.185 76.4988 84.355C76.7688 84.5217 76.9755 84.7617 77.1188 85.075C77.2621 85.3883 77.3338 85.76 77.3338 86.19V89H76.5638ZM73.1638 89V84.22H73.8338L73.9438 85.32V89H73.1638ZM80.909 89.12C80.5223 89.12 80.1673 89.0167 79.844 88.81C79.5206 88.6 79.2623 88.3067 79.069 87.93C78.8756 87.55 78.779 87.1033 78.779 86.59C78.779 86.08 78.874 85.6383 79.064 85.265C79.254 84.8917 79.5056 84.605 79.819 84.405C80.1356 84.2017 80.4823 84.1 80.859 84.1C81.209 84.1 81.5156 84.185 81.779 84.355C82.0456 84.525 82.2523 84.77 82.399 85.09C82.5456 85.41 82.619 85.7967 82.619 86.25H82.319C82.319 85.9333 82.2556 85.6667 82.129 85.45C82.0056 85.2333 81.844 85.07 81.644 84.96C81.444 84.8467 81.229 84.79 80.999 84.79C80.739 84.79 80.5006 84.8633 80.284 85.01C80.0706 85.1533 79.899 85.36 79.769 85.63C79.6423 85.8967 79.579 86.2167 79.579 86.59C79.579 86.97 79.6423 87.2967 79.769 87.57C79.899 87.8433 80.0706 88.0533 80.284 88.2C80.5006 88.3467 80.739 88.42 80.999 88.42C81.2156 88.42 81.424 88.3633 81.624 88.25C81.8273 88.1367 81.994 87.9717 82.124 87.755C82.254 87.535 82.319 87.27 82.319 86.96H82.619C82.619 87.4233 82.5423 87.8167 82.389 88.14C82.239 88.46 82.034 88.7033 81.774 88.87C81.5173 89.0367 81.229 89.12 80.909 89.12ZM82.449 89L82.319 87.88V82.18H83.099V89H82.449ZM86.7867 89.12C86.3734 89.12 86.0034 89.015 85.6767 88.805C85.3534 88.5917 85.0967 88.2967 84.9067 87.92C84.72 87.5433 84.6267 87.11 84.6267 86.62C84.6267 86.0967 84.72 85.6467 84.9067 85.27C85.0934 84.8933 85.3484 84.605 85.6717 84.405C85.9984 84.2017 86.37 84.1 86.7867 84.1C87.15 84.1 87.46 84.1733 87.7167 84.32C87.9734 84.4667 88.18 84.665 88.3367 84.915C88.4934 85.165 88.6017 85.4483 88.6617 85.765C88.725 86.0783 88.7434 86.4033 88.7167 86.74H85.2567V86.26H88.2017L87.9717 86.41C87.9817 86.2133 87.97 86.0167 87.9367 85.82C87.9067 85.6233 87.8484 85.4433 87.7617 85.28C87.675 85.1133 87.5534 84.98 87.3967 84.88C87.24 84.78 87.04 84.73 86.7967 84.73C86.49 84.73 86.2334 84.8083 86.0267 84.965C85.82 85.1217 85.665 85.3283 85.5617 85.585C85.4584 85.8383 85.4067 86.1133 85.4067 86.41V86.73C85.4067 87.0633 85.4567 87.3617 85.5567 87.625C85.66 87.8883 85.8134 88.0967 86.0167 88.25C86.22 88.4033 86.4767 88.48 86.7867 88.48C87.0967 88.48 87.3517 88.405 87.5517 88.255C87.7517 88.105 87.8734 87.8833 87.9167 87.59H88.7267C88.6767 87.9067 88.5634 88.18 88.3867 88.41C88.21 88.6367 87.985 88.8117 87.7117 88.935C87.4384 89.0583 87.13 89.12 86.7867 89.12ZM91.9734 89.12C91.5868 89.12 91.2318 89.0167 90.9084 88.81C90.5851 88.6 90.3268 88.3067 90.1334 87.93C89.9401 87.55 89.8434 87.1033 89.8434 86.59C89.8434 86.08 89.9384 85.6383 90.1284 85.265C90.3184 84.8917 90.5701 84.605 90.8834 84.405C91.2001 84.2017 91.5468 84.1 91.9234 84.1C92.2734 84.1 92.5801 84.185 92.8434 84.355C93.1101 84.525 93.3168 84.77 93.4634 85.09C93.6101 85.41 93.6834 85.7967 93.6834 86.25H93.3834C93.3834 85.9333 93.3201 85.6667 93.1934 85.45C93.0701 85.2333 92.9084 85.07 92.7084 84.96C92.5084 84.8467 92.2934 84.79 92.0634 84.79C91.8034 84.79 91.5651 84.8633 91.3484 85.01C91.1351 85.1533 90.9634 85.36 90.8334 85.63C90.7068 85.8967 90.6434 86.2167 90.6434 86.59C90.6434 86.97 90.7068 87.2967 90.8334 87.57C90.9634 87.8433 91.1351 88.0533 91.3484 88.2C91.5651 88.3467 91.8034 88.42 92.0634 88.42C92.2801 88.42 92.4884 88.3633 92.6884 88.25C92.8918 88.1367 93.0584 87.9717 93.1884 87.755C93.3184 87.535 93.3834 87.27 93.3834 86.96H93.6834C93.6834 87.4233 93.6068 87.8167 93.4534 88.14C93.3034 88.46 93.0984 88.7033 92.8384 88.87C92.5818 89.0367 92.2934 89.12 91.9734 89.12ZM93.5134 89L93.3834 87.88V82.18H94.1634V89H93.5134ZM100.224 89.12C99.8442 89.12 99.4892 89.02 99.1592 88.82C98.8325 88.62 98.5675 88.3317 98.3642 87.955C98.1642 87.5783 98.0642 87.1267 98.0642 86.6C98.0642 86.08 98.1642 85.6333 98.3642 85.26C98.5642 84.8867 98.8259 84.6 99.1492 84.4C99.4759 84.2 99.8242 84.1 100.194 84.1C100.521 84.1 100.816 84.18 101.079 84.34C101.346 84.5 101.556 84.7383 101.709 85.055C101.866 85.3683 101.944 85.7567 101.944 86.22H101.604C101.604 85.91 101.543 85.65 101.419 85.44C101.296 85.2267 101.134 85.065 100.934 84.955C100.734 84.845 100.521 84.79 100.294 84.79C100.034 84.79 99.7959 84.8617 99.5792 85.005C99.3625 85.1483 99.1892 85.355 99.0592 85.625C98.9292 85.895 98.8642 86.22 98.8642 86.6C98.8642 86.9967 98.9325 87.33 99.0692 87.6C99.2092 87.87 99.3892 88.075 99.6092 88.215C99.8292 88.3517 100.061 88.42 100.304 88.42C100.524 88.42 100.733 88.3683 100.929 88.265C101.129 88.1617 101.291 88.0083 101.414 87.805C101.541 87.6017 101.604 87.35 101.604 87.05H101.834C101.834 87.4633 101.773 87.825 101.649 88.135C101.526 88.445 101.344 88.6867 101.104 88.86C100.864 89.0333 100.571 89.12 100.224 89.12ZM102.844 91.46C102.391 91.3333 102.071 91.1383 101.884 90.875C101.698 90.6117 101.604 90.24 101.604 89.76V85.34L101.844 84.22H102.374V89.81C102.374 90.0367 102.396 90.215 102.439 90.345C102.483 90.475 102.558 90.5767 102.664 90.65C102.771 90.7267 102.918 90.7967 103.104 90.86L102.844 91.46ZM107.664 84.21H108.444V89H107.664V84.21ZM104.274 84.21H105.054V87.19C105.054 87.59 105.15 87.8933 105.344 88.1C105.54 88.3067 105.82 88.41 106.184 88.41C106.484 88.41 106.744 88.33 106.964 88.17C107.187 88.01 107.359 87.79 107.479 87.51C107.602 87.2267 107.664 86.9033 107.664 86.54H107.954C107.954 87.0767 107.875 87.535 107.719 87.915C107.565 88.295 107.347 88.5867 107.064 88.79C106.784 88.99 106.454 89.09 106.074 89.09C105.714 89.09 105.399 89.0233 105.129 88.89C104.859 88.7567 104.649 88.555 104.499 88.285C104.349 88.0117 104.274 87.6667 104.274 87.25V84.21ZM112.128 89.12C111.715 89.12 111.345 89.015 111.018 88.805C110.695 88.5917 110.438 88.2967 110.248 87.92C110.062 87.5433 109.968 87.11 109.968 86.62C109.968 86.0967 110.062 85.6467 110.248 85.27C110.435 84.8933 110.69 84.605 111.013 84.405C111.34 84.2017 111.712 84.1 112.128 84.1C112.492 84.1 112.802 84.1733 113.058 84.32C113.315 84.4667 113.522 84.665 113.678 84.915C113.835 85.165 113.943 85.4483 114.003 85.765C114.067 86.0783 114.085 86.4033 114.058 86.74H110.598V86.26H113.543L113.313 86.41C113.323 86.2133 113.312 86.0167 113.278 85.82C113.248 85.6233 113.19 85.4433 113.103 85.28C113.017 85.1133 112.895 84.98 112.738 84.88C112.582 84.78 112.382 84.73 112.138 84.73C111.832 84.73 111.575 84.8083 111.368 84.965C111.162 85.1217 111.007 85.3283 110.903 85.585C110.8 85.8383 110.748 86.1133 110.748 86.41V86.73C110.748 87.0633 110.798 87.3617 110.898 87.625C111.002 87.8883 111.155 88.0967 111.358 88.25C111.562 88.4033 111.818 88.48 112.128 88.48C112.438 88.48 112.693 88.405 112.893 88.255C113.093 88.105 113.215 87.8833 113.258 87.59H114.068C114.018 87.9067 113.905 88.18 113.728 88.41C113.552 88.6367 113.327 88.8117 113.053 88.935C112.78 89.0583 112.472 89.12 112.128 89.12ZM117.325 89.12C116.862 89.12 116.475 89.055 116.165 88.925C115.855 88.7917 115.62 88.61 115.46 88.38C115.3 88.1467 115.215 87.88 115.205 87.58H115.955C115.972 87.8833 116.094 88.1117 116.32 88.265C116.55 88.415 116.862 88.49 117.255 88.49C117.462 88.49 117.652 88.4567 117.825 88.39C117.999 88.3233 118.137 88.2317 118.24 88.115C118.344 87.9983 118.395 87.8667 118.395 87.72C118.395 87.5333 118.327 87.3867 118.19 87.28C118.054 87.1733 117.835 87.08 117.535 87L116.605 86.7C116.202 86.5733 115.892 86.4 115.675 86.18C115.462 85.9567 115.355 85.69 115.355 85.38C115.355 84.9933 115.525 84.6833 115.865 84.45C116.205 84.2167 116.652 84.1 117.205 84.1C117.792 84.1 118.247 84.22 118.57 84.46C118.894 84.7 119.062 85 119.075 85.36H118.305C118.275 85.15 118.169 84.9917 117.985 84.885C117.802 84.775 117.542 84.72 117.205 84.72C116.882 84.72 116.629 84.7933 116.445 84.94C116.265 85.0833 116.175 85.2433 116.175 85.42C116.175 85.75 116.459 85.9933 117.025 86.15L117.975 86.47C118.385 86.5933 118.699 86.755 118.915 86.955C119.135 87.155 119.245 87.41 119.245 87.72C119.245 87.96 119.167 88.1867 119.01 88.4C118.854 88.6133 118.632 88.7867 118.345 88.92C118.059 89.0533 117.719 89.12 117.325 89.12ZM122.329 89.12C122.069 89.12 121.836 89.07 121.629 88.97C121.422 88.87 121.259 88.72 121.139 88.52C121.019 88.32 120.959 88.07 120.959 87.77V82.89H121.729V87.75C121.729 88.2433 121.959 88.49 122.419 88.49C122.556 88.49 122.687 88.475 122.814 88.445C122.944 88.415 123.089 88.37 123.249 88.31L123.359 88.87C123.189 88.9433 123.019 89.0033 122.849 89.05C122.682 89.0967 122.509 89.12 122.329 89.12ZM120.189 84.76V84.22H123.239V84.76H120.189ZM125.059 83.09C124.899 83.09 124.772 83.045 124.679 82.955C124.586 82.8617 124.539 82.74 124.539 82.59C124.539 82.4433 124.586 82.3267 124.679 82.24C124.772 82.1533 124.899 82.11 125.059 82.11C125.219 82.11 125.346 82.1533 125.439 82.24C125.532 82.3267 125.579 82.4433 125.579 82.59C125.579 82.74 125.532 82.8617 125.439 82.955C125.346 83.045 125.219 83.09 125.059 83.09ZM124.669 89V84.21H125.449V89H124.669ZM129.327 89.12C128.897 89.12 128.514 89.025 128.177 88.835C127.844 88.645 127.581 88.3633 127.387 87.99C127.194 87.6167 127.097 87.1567 127.097 86.61C127.097 86.06 127.194 85.6 127.387 85.23C127.581 84.8567 127.844 84.575 128.177 84.385C128.514 84.195 128.897 84.1 129.327 84.1C129.754 84.1 130.134 84.195 130.467 84.385C130.804 84.575 131.067 84.8567 131.257 85.23C131.451 85.6 131.547 86.06 131.547 86.61C131.547 87.1567 131.451 87.6167 131.257 87.99C131.067 88.3633 130.804 88.645 130.467 88.835C130.134 89.025 129.754 89.12 129.327 89.12ZM129.307 88.44C129.617 88.44 129.881 88.3667 130.097 88.22C130.314 88.07 130.477 87.8583 130.587 87.585C130.701 87.3117 130.757 86.9867 130.757 86.61C130.757 86.04 130.639 85.5917 130.402 85.265C130.166 84.935 129.814 84.77 129.347 84.77C129.034 84.77 128.769 84.845 128.552 84.995C128.339 85.1417 128.176 85.3533 128.062 85.63C127.952 85.9033 127.897 86.23 127.897 86.61C127.897 87.1733 128.016 87.62 128.252 87.95C128.492 88.2767 128.844 88.44 129.307 88.44ZM136.466 89V86.19C136.466 85.7333 136.356 85.3867 136.136 85.15C135.919 84.91 135.623 84.79 135.246 84.79C134.959 84.79 134.711 84.8683 134.501 85.025C134.291 85.1817 134.129 85.4067 134.016 85.7C133.903 85.99 133.846 86.3367 133.846 86.74H133.546C133.546 86.1833 133.619 85.7083 133.766 85.315C133.913 84.9217 134.126 84.6217 134.406 84.415C134.689 84.205 135.033 84.1 135.436 84.1C135.813 84.1 136.134 84.185 136.401 84.355C136.671 84.5217 136.878 84.7617 137.021 85.075C137.164 85.3883 137.236 85.76 137.236 86.19V89H136.466ZM133.066 89V84.22H133.736L133.846 85.32V89H133.066ZM138.391 88.535C138.391 88.3783 138.446 88.2433 138.556 88.13C138.666 88.0167 138.805 87.96 138.971 87.96C139.138 87.96 139.28 88.0167 139.396 88.13C139.513 88.2433 139.571 88.3783 139.571 88.535C139.571 88.6917 139.513 88.8233 139.396 88.93C139.28 89.0367 139.138 89.09 138.971 89.09C138.805 89.09 138.666 89.0367 138.556 88.93C138.446 88.82 138.391 88.6883 138.391 88.535ZM145.481 89.12C144.961 89.12 144.496 89 144.086 88.76C143.676 88.52 143.353 88.16 143.116 87.68C142.88 87.1967 142.761 86.5933 142.761 85.87C142.761 85.1367 142.88 84.53 143.116 84.05C143.353 83.5667 143.676 83.2067 144.086 82.97C144.496 82.73 144.961 82.61 145.481 82.61C146.001 82.61 146.466 82.73 146.876 82.97C147.286 83.21 147.61 83.5717 147.846 84.055C148.083 84.5383 148.201 85.1433 148.201 85.87C148.201 86.6 148.083 87.2067 147.846 87.69C147.61 88.17 147.286 88.5283 146.876 88.765C146.466 89.0017 146.001 89.12 145.481 89.12ZM147.361 90.67C147.068 90.67 146.803 90.5933 146.566 90.44C146.33 90.29 146.111 90.07 145.911 89.78L145.261 88.85L145.961 88.63L146.541 89.46C146.651 89.61 146.765 89.715 146.881 89.775C147.001 89.8383 147.118 89.8733 147.231 89.88C147.408 89.88 147.571 89.8567 147.721 89.81C147.871 89.7633 148.031 89.7 148.201 89.62V90.48C148.051 90.5433 147.908 90.59 147.771 90.62C147.635 90.6533 147.498 90.67 147.361 90.67ZM145.481 88.4C146.071 88.4 146.536 88.185 146.876 87.755C147.22 87.325 147.391 86.6933 147.391 85.86C147.391 85.0433 147.22 84.415 146.876 83.975C146.536 83.5317 146.071 83.31 145.481 83.31C144.898 83.31 144.433 83.5317 144.086 83.975C143.743 84.4183 143.571 85.05 143.571 85.87C143.571 86.7 143.743 87.33 144.086 87.76C144.433 88.1867 144.898 88.4 145.481 88.4ZM153.025 84.21H153.805V89H153.025V84.21ZM149.635 84.21H150.415V87.19C150.415 87.59 150.512 87.8933 150.705 88.1C150.902 88.3067 151.182 88.41 151.545 88.41C151.845 88.41 152.105 88.33 152.325 88.17C152.548 88.01 152.72 87.79 152.84 87.51C152.963 87.2267 153.025 86.9033 153.025 86.54H153.315C153.315 87.0767 153.237 87.535 153.08 87.915C152.927 88.295 152.708 88.5867 152.425 88.79C152.145 88.99 151.815 89.09 151.435 89.09C151.075 89.09 150.76 89.0233 150.49 88.89C150.22 88.7567 150.01 88.555 149.86 88.285C149.71 88.0117 149.635 87.6667 149.635 87.25V84.21ZM157.49 89.12C157.076 89.12 156.706 89.015 156.38 88.805C156.056 88.5917 155.8 88.2967 155.61 87.92C155.423 87.5433 155.33 87.11 155.33 86.62C155.33 86.0967 155.423 85.6467 155.61 85.27C155.796 84.8933 156.051 84.605 156.375 84.405C156.701 84.2017 157.073 84.1 157.49 84.1C157.853 84.1 158.163 84.1733 158.42 84.32C158.676 84.4667 158.883 84.665 159.04 84.915C159.196 85.165 159.305 85.4483 159.365 85.765C159.428 86.0783 159.446 86.4033 159.42 86.74H155.96V86.26H158.905L158.675 86.41C158.685 86.2133 158.673 86.0167 158.64 85.82C158.61 85.6233 158.551 85.4433 158.465 85.28C158.378 85.1133 158.256 84.98 158.1 84.88C157.943 84.78 157.743 84.73 157.5 84.73C157.193 84.73 156.936 84.8083 156.73 84.965C156.523 85.1217 156.368 85.3283 156.265 85.585C156.161 85.8383 156.11 86.1133 156.11 86.41V86.73C156.11 87.0633 156.16 87.3617 156.26 87.625C156.363 87.8883 156.516 88.0967 156.72 88.25C156.923 88.4033 157.18 88.48 157.49 88.48C157.8 88.48 158.055 88.405 158.255 88.255C158.455 88.105 158.576 87.8833 158.62 87.59H159.43C159.38 87.9067 159.266 88.18 159.09 88.41C158.913 88.6367 158.688 88.8117 158.415 88.935C158.141 89.0583 157.833 89.12 157.49 89.12ZM162.687 89.12C162.223 89.12 161.837 89.055 161.527 88.925C161.217 88.7917 160.982 88.61 160.822 88.38C160.662 88.1467 160.577 87.88 160.567 87.58H161.317C161.333 87.8833 161.455 88.1117 161.682 88.265C161.912 88.415 162.223 88.49 162.617 88.49C162.823 88.49 163.013 88.4567 163.187 88.39C163.36 88.3233 163.498 88.2317 163.602 88.115C163.705 87.9983 163.757 87.8667 163.757 87.72C163.757 87.5333 163.688 87.3867 163.552 87.28C163.415 87.1733 163.197 87.08 162.897 87L161.967 86.7C161.563 86.5733 161.253 86.4 161.037 86.18C160.823 85.9567 160.717 85.69 160.717 85.38C160.717 84.9933 160.887 84.6833 161.227 84.45C161.567 84.2167 162.013 84.1 162.567 84.1C163.153 84.1 163.608 84.22 163.932 84.46C164.255 84.7 164.423 85 164.437 85.36H163.667C163.637 85.15 163.53 84.9917 163.347 84.885C163.163 84.775 162.903 84.72 162.567 84.72C162.243 84.72 161.99 84.7933 161.807 84.94C161.627 85.0833 161.537 85.2433 161.537 85.42C161.537 85.75 161.82 85.9933 162.387 86.15L163.337 86.47C163.747 86.5933 164.06 86.755 164.277 86.955C164.497 87.155 164.607 87.41 164.607 87.72C164.607 87.96 164.528 88.1867 164.372 88.4C164.215 88.6133 163.993 88.7867 163.707 88.92C163.42 89.0533 163.08 89.12 162.687 89.12ZM167.69 89.12C167.43 89.12 167.197 89.07 166.99 88.97C166.784 88.87 166.62 88.72 166.5 88.52C166.38 88.32 166.32 88.07 166.32 87.77V82.89H167.09V87.75C167.09 88.2433 167.32 88.49 167.78 88.49C167.917 88.49 168.049 88.475 168.175 88.445C168.305 88.415 168.45 88.37 168.61 88.31L168.72 88.87C168.55 88.9433 168.38 89.0033 168.21 89.05C168.044 89.0967 167.87 89.12 167.69 89.12ZM165.55 84.76V84.22H168.6V84.76H165.55ZM170.42 83.09C170.26 83.09 170.134 83.045 170.04 82.955C169.947 82.8617 169.9 82.74 169.9 82.59C169.9 82.4433 169.947 82.3267 170.04 82.24C170.134 82.1533 170.26 82.11 170.42 82.11C170.58 82.11 170.707 82.1533 170.8 82.24C170.894 82.3267 170.94 82.4433 170.94 82.59C170.94 82.74 170.894 82.8617 170.8 82.955C170.707 83.045 170.58 83.09 170.42 83.09ZM170.03 89V84.21H170.81V89H170.03ZM174.689 89.12C174.259 89.12 173.875 89.025 173.539 88.835C173.205 88.645 172.942 88.3633 172.749 87.99C172.555 87.6167 172.459 87.1567 172.459 86.61C172.459 86.06 172.555 85.6 172.749 85.23C172.942 84.8567 173.205 84.575 173.539 84.385C173.875 84.195 174.259 84.1 174.689 84.1C175.115 84.1 175.495 84.195 175.829 84.385C176.165 84.575 176.429 84.8567 176.619 85.23C176.812 85.6 176.909 86.06 176.909 86.61C176.909 87.1567 176.812 87.6167 176.619 87.99C176.429 88.3633 176.165 88.645 175.829 88.835C175.495 89.025 175.115 89.12 174.689 89.12ZM174.669 88.44C174.979 88.44 175.242 88.3667 175.459 88.22C175.675 88.07 175.839 87.8583 175.949 87.585C176.062 87.3117 176.119 86.9867 176.119 86.61C176.119 86.04 176 85.5917 175.764 85.265C175.527 84.935 175.175 84.77 174.709 84.77C174.395 84.77 174.13 84.845 173.914 84.995C173.7 85.1417 173.537 85.3533 173.424 85.63C173.314 85.9033 173.259 86.23 173.259 86.61C173.259 87.1733 173.377 87.62 173.614 87.95C173.854 88.2767 174.205 88.44 174.669 88.44ZM181.827 89V86.19C181.827 85.7333 181.717 85.3867 181.497 85.15C181.281 84.91 180.984 84.79 180.607 84.79C180.321 84.79 180.072 84.8683 179.862 85.025C179.652 85.1817 179.491 85.4067 179.377 85.7C179.264 85.99 179.207 86.3367 179.207 86.74H178.907C178.907 86.1833 178.981 85.7083 179.127 85.315C179.274 84.9217 179.487 84.6217 179.767 84.415C180.051 84.205 180.394 84.1 180.797 84.1C181.174 84.1 181.496 84.185 181.762 84.355C182.032 84.5217 182.239 84.7617 182.382 85.075C182.526 85.3883 182.597 85.76 182.597 86.19V89H181.827ZM178.427 89V84.22H179.097L179.207 85.32V89H178.427ZM186.006 84.22H186.816L188.036 88.21H187.936L189.126 84.45H189.776L190.956 88.22H190.866L192.086 84.22H192.866L191.296 89H190.536L189.376 85.47H189.496L188.346 89H187.586L186.006 84.22ZM197.042 89L196.942 87.95V85.9C196.942 85.47 196.85 85.1617 196.667 84.975C196.483 84.785 196.208 84.69 195.842 84.69C195.635 84.69 195.447 84.72 195.277 84.78C195.11 84.84 194.977 84.9333 194.877 85.06C194.78 85.1833 194.732 85.3433 194.732 85.54H193.862C193.862 85.1933 193.947 84.915 194.117 84.705C194.287 84.4917 194.52 84.3383 194.817 84.245C195.117 84.1483 195.458 84.1 195.842 84.1C196.208 84.1 196.533 84.1617 196.817 84.285C197.1 84.4083 197.322 84.605 197.482 84.875C197.642 85.1417 197.722 85.49 197.722 85.92V89H197.042ZM195.412 89.12C195.018 89.12 194.693 89.05 194.437 88.91C194.18 88.77 193.988 88.5883 193.862 88.365C193.735 88.1417 193.672 87.9067 193.672 87.66C193.672 87.3367 193.752 87.0733 193.912 86.87C194.075 86.6667 194.297 86.5183 194.577 86.425C194.857 86.3283 195.172 86.28 195.522 86.28C195.772 86.28 196.022 86.305 196.272 86.355C196.525 86.405 196.772 86.4733 197.012 86.56V87.05C196.812 86.97 196.585 86.9067 196.332 86.86C196.082 86.8133 195.852 86.79 195.642 86.79C195.322 86.79 195.052 86.8567 194.832 86.99C194.612 87.12 194.502 87.3433 194.502 87.66C194.502 87.8933 194.585 88.0933 194.752 88.26C194.922 88.4267 195.192 88.51 195.562 88.51C195.822 88.51 196.055 88.45 196.262 88.33C196.472 88.2067 196.637 88.0533 196.757 87.87C196.88 87.6867 196.942 87.5033 196.942 87.32H197.132C197.132 87.64 197.062 87.9367 196.922 88.21C196.785 88.4833 196.588 88.7033 196.332 88.87C196.075 89.0367 195.768 89.12 195.412 89.12ZM201.31 89.12C200.846 89.12 200.46 89.055 200.15 88.925C199.84 88.7917 199.605 88.61 199.445 88.38C199.285 88.1467 199.2 87.88 199.19 87.58H199.94C199.956 87.8833 200.078 88.1117 200.305 88.265C200.535 88.415 200.846 88.49 201.24 88.49C201.446 88.49 201.636 88.4567 201.81 88.39C201.983 88.3233 202.121 88.2317 202.225 88.115C202.328 87.9983 202.38 87.8667 202.38 87.72C202.38 87.5333 202.311 87.3867 202.175 87.28C202.038 87.1733 201.82 87.08 201.52 87L200.59 86.7C200.186 86.5733 199.876 86.4 199.66 86.18C199.446 85.9567 199.34 85.69 199.34 85.38C199.34 84.9933 199.51 84.6833 199.85 84.45C200.19 84.2167 200.636 84.1 201.19 84.1C201.776 84.1 202.231 84.22 202.555 84.46C202.878 84.7 203.046 85 203.06 85.36H202.29C202.26 85.15 202.153 84.9917 201.97 84.885C201.786 84.775 201.526 84.72 201.19 84.72C200.866 84.72 200.613 84.7933 200.43 84.94C200.25 85.0833 200.16 85.2433 200.16 85.42C200.16 85.75 200.443 85.9933 201.01 86.15L201.96 86.47C202.37 86.5933 202.683 86.755 202.9 86.955C203.12 87.155 203.23 87.41 203.23 87.72C203.23 87.96 203.151 88.1867 202.995 88.4C202.838 88.6133 202.616 88.7867 202.33 88.92C202.043 89.0533 201.703 89.12 201.31 89.12ZM207.217 89V82.18H207.997V89H207.217ZM211.679 89.12C211.266 89.12 210.896 89.015 210.569 88.805C210.246 88.5917 209.989 88.2967 209.799 87.92C209.613 87.5433 209.519 87.11 209.519 86.62C209.519 86.0967 209.613 85.6467 209.799 85.27C209.986 84.8933 210.241 84.605 210.564 84.405C210.891 84.2017 211.263 84.1 211.679 84.1C212.043 84.1 212.353 84.1733 212.609 84.32C212.866 84.4667 213.073 84.665 213.229 84.915C213.386 85.165 213.494 85.4483 213.554 85.765C213.618 86.0783 213.636 86.4033 213.609 86.74H210.149V86.26H213.094L212.864 86.41C212.874 86.2133 212.863 86.0167 212.829 85.82C212.799 85.6233 212.741 85.4433 212.654 85.28C212.568 85.1133 212.446 84.98 212.289 84.88C212.133 84.78 211.933 84.73 211.689 84.73C211.383 84.73 211.126 84.8083 210.919 84.965C210.713 85.1217 210.558 85.3283 210.454 85.585C210.351 85.8383 210.299 86.1133 210.299 86.41V86.73C210.299 87.0633 210.349 87.3617 210.449 87.625C210.553 87.8883 210.706 88.0967 210.909 88.25C211.113 88.4033 211.369 88.48 211.679 88.48C211.989 88.48 212.244 88.405 212.444 88.255C212.644 88.105 212.766 87.8833 212.809 87.59H213.619C213.569 87.9067 213.456 88.18 213.279 88.41C213.103 88.6367 212.878 88.8117 212.604 88.935C212.331 89.0583 212.023 89.12 211.679 89.12ZM218.116 89L218.016 87.95V85.9C218.016 85.47 217.924 85.1617 217.741 84.975C217.558 84.785 217.283 84.69 216.916 84.69C216.709 84.69 216.521 84.72 216.351 84.78C216.184 84.84 216.051 84.9333 215.951 85.06C215.854 85.1833 215.806 85.3433 215.806 85.54H214.936C214.936 85.1933 215.021 84.915 215.191 84.705C215.361 84.4917 215.594 84.3383 215.891 84.245C216.191 84.1483 216.533 84.1 216.916 84.1C217.283 84.1 217.608 84.1617 217.891 84.285C218.174 84.4083 218.396 84.605 218.556 84.875C218.716 85.1417 218.796 85.49 218.796 85.92V89H218.116ZM216.486 89.12C216.093 89.12 215.768 89.05 215.511 88.91C215.254 88.77 215.063 88.5883 214.936 88.365C214.809 88.1417 214.746 87.9067 214.746 87.66C214.746 87.3367 214.826 87.0733 214.986 86.87C215.149 86.6667 215.371 86.5183 215.651 86.425C215.931 86.3283 216.246 86.28 216.596 86.28C216.846 86.28 217.096 86.305 217.346 86.355C217.599 86.405 217.846 86.4733 218.086 86.56V87.05C217.886 86.97 217.659 86.9067 217.406 86.86C217.156 86.8133 216.926 86.79 216.716 86.79C216.396 86.79 216.126 86.8567 215.906 86.99C215.686 87.12 215.576 87.3433 215.576 87.66C215.576 87.8933 215.659 88.0933 215.826 88.26C215.996 88.4267 216.266 88.51 216.636 88.51C216.896 88.51 217.129 88.45 217.336 88.33C217.546 88.2067 217.711 88.0533 217.831 87.87C217.954 87.6867 218.016 87.5033 218.016 87.32H218.206C218.206 87.64 218.136 87.9367 217.996 88.21C217.859 88.4833 217.663 88.7033 217.406 88.87C217.149 89.0367 216.843 89.12 216.486 89.12ZM222.374 89.12C221.987 89.12 221.632 89.0167 221.309 88.81C220.985 88.6 220.727 88.3067 220.534 87.93C220.34 87.55 220.244 87.1033 220.244 86.59C220.244 86.08 220.339 85.6383 220.529 85.265C220.719 84.8917 220.97 84.605 221.284 84.405C221.6 84.2017 221.947 84.1 222.324 84.1C222.674 84.1 222.98 84.185 223.244 84.355C223.51 84.525 223.717 84.77 223.864 85.09C224.01 85.41 224.084 85.7967 224.084 86.25H223.784C223.784 85.9333 223.72 85.6667 223.594 85.45C223.47 85.2333 223.309 85.07 223.109 84.96C222.909 84.8467 222.694 84.79 222.464 84.79C222.204 84.79 221.965 84.8633 221.749 85.01C221.535 85.1533 221.364 85.36 221.234 85.63C221.107 85.8967 221.044 86.2167 221.044 86.59C221.044 86.97 221.107 87.2967 221.234 87.57C221.364 87.8433 221.535 88.0533 221.749 88.2C221.965 88.3467 222.204 88.42 222.464 88.42C222.68 88.42 222.889 88.3633 223.089 88.25C223.292 88.1367 223.459 87.9717 223.589 87.755C223.719 87.535 223.784 87.27 223.784 86.96H224.084C224.084 87.4233 224.007 87.8167 223.854 88.14C223.704 88.46 223.499 88.7033 223.239 88.87C222.982 89.0367 222.694 89.12 222.374 89.12ZM223.914 89L223.784 87.88V82.18H224.564V89H223.914ZM227.032 83.09C226.872 83.09 226.745 83.045 226.652 82.955C226.558 82.8617 226.512 82.74 226.512 82.59C226.512 82.4433 226.558 82.3267 226.652 82.24C226.745 82.1533 226.872 82.11 227.032 82.11C227.192 82.11 227.318 82.1533 227.412 82.24C227.505 82.3267 227.552 82.4433 227.552 82.59C227.552 82.74 227.505 82.8617 227.412 82.955C227.318 83.045 227.192 83.09 227.032 83.09ZM226.642 89V84.21H227.422V89H226.642ZM232.97 89V86.19C232.97 85.7333 232.86 85.3867 232.64 85.15C232.423 84.91 232.127 84.79 231.75 84.79C231.463 84.79 231.215 84.8683 231.005 85.025C230.795 85.1817 230.633 85.4067 230.52 85.7C230.407 85.99 230.35 86.3367 230.35 86.74H230.05C230.05 86.1833 230.123 85.7083 230.27 85.315C230.417 84.9217 230.63 84.6217 230.91 84.415C231.193 84.205 231.537 84.1 231.94 84.1C232.317 84.1 232.638 84.185 232.905 84.355C233.175 84.5217 233.382 84.7617 233.525 85.075C233.668 85.3883 233.74 85.76 233.74 86.19V89H232.97ZM229.57 89V84.22H230.24L230.35 85.32V89H229.57ZM237.295 91.46C236.805 91.46 236.38 91.39 236.02 91.25C235.66 91.1133 235.38 90.9283 235.18 90.695C234.984 90.465 234.885 90.21 234.885 89.93C234.885 89.56 235.02 89.2767 235.29 89.08C235.564 88.8867 235.915 88.79 236.345 88.79L236.775 89.06C236.415 89.06 236.137 89.135 235.94 89.285C235.744 89.435 235.645 89.64 235.645 89.9C235.645 90.16 235.785 90.38 236.065 90.56C236.345 90.74 236.755 90.83 237.295 90.83C237.695 90.83 238.045 90.7717 238.345 90.655C238.649 90.5417 238.884 90.3917 239.05 90.205C239.22 90.0217 239.305 89.8233 239.305 89.61C239.305 89.46 239.25 89.33 239.14 89.22C239.03 89.1133 238.862 89.06 238.635 89.06H236.775C236.452 89.06 236.172 89.0117 235.935 88.915C235.702 88.815 235.522 88.685 235.395 88.525C235.269 88.365 235.205 88.19 235.205 88C235.205 87.8 235.262 87.63 235.375 87.49C235.489 87.35 235.635 87.2433 235.815 87.17C235.999 87.0967 236.195 87.06 236.405 87.06L236.555 87.35C236.455 87.35 236.354 87.3733 236.25 87.42C236.15 87.4633 236.065 87.53 235.995 87.62C235.929 87.7067 235.895 87.8167 235.895 87.95C235.895 88.1033 235.959 88.2317 236.085 88.335C236.212 88.4383 236.442 88.49 236.775 88.49H238.635C239.085 88.49 239.439 88.585 239.695 88.775C239.955 88.965 240.085 89.23 240.085 89.57C240.085 89.8833 239.974 90.1833 239.75 90.47C239.527 90.76 239.207 90.9967 238.79 91.18C238.374 91.3667 237.875 91.46 237.295 91.46ZM237.435 87.6C237.069 87.6 236.737 87.5267 236.44 87.38C236.147 87.2333 235.914 87.0283 235.74 86.765C235.57 86.5017 235.485 86.1967 235.485 85.85C235.485 85.5 235.57 85.1933 235.74 84.93C235.914 84.6667 236.147 84.4633 236.44 84.32C236.737 84.1733 237.069 84.1 237.435 84.1C237.792 84.1 238.115 84.1733 238.405 84.32C238.699 84.4633 238.932 84.6667 239.105 84.93C239.279 85.1933 239.365 85.5 239.365 85.85C239.365 86.1967 239.279 86.5017 239.105 86.765C238.932 87.0283 238.699 87.2333 238.405 87.38C238.115 87.5267 237.792 87.6 237.435 87.6ZM237.435 87.04C237.802 87.04 238.087 86.9267 238.29 86.7C238.494 86.4733 238.595 86.19 238.595 85.85C238.595 85.5 238.494 85.2167 238.29 85C238.087 84.78 237.802 84.67 237.435 84.67C237.072 84.67 236.785 84.78 236.575 85C236.369 85.2167 236.265 85.5 236.265 85.85C236.265 86.19 236.369 86.4733 236.575 86.7C236.785 86.9267 237.072 87.04 237.435 87.04ZM239.005 84.86L238.635 84.71C238.635 84.43 238.69 84.185 238.8 83.975C238.91 83.7617 239.067 83.5967 239.27 83.48C239.474 83.36 239.715 83.3 239.995 83.3L239.935 84.07C239.635 84.07 239.405 84.135 239.245 84.265C239.085 84.3917 239.005 84.59 239.005 84.86Z" fill="#23262C"/>
</svg>
