<?xml version="1.0" encoding="UTF-8"?>
<svg version="1.1" xmlns="http://www.w3.org/2000/svg" width="750" height="750">
<path d="M0 0 C247.5 0 495 0 750 0 C750 247.5 750 495 750 750 C502.5 750 255 750 0 750 C0 502.5 0 255 0 0 Z " fill="#0B090C" transform="translate(0,0)"/>
<path d="M0 0 C247.5 0 495 0 750 0 C750 114.51 750 229.02 750 347 C742.00468795 340.60375036 736.25963884 332.55066411 730.48828125 324.15234375 C728.76685123 321.66282159 726.97001569 319.29835163 725 317 C724.29875 316.154375 723.5975 315.30875 722.875 314.4375 C718.98587632 311.14019949 714.77618716 309.66007282 710 308 C710.6855394 304.13669983 711.76686371 300.53457681 713 296.8125 C714.76892512 291.18526719 715.73436947 285.88371616 716 280 C715.33613281 280.06960938 714.67226563 280.13921875 713.98828125 280.2109375 C706.87888394 280.64684215 706.87888394 280.64684215 704.328125 278.76953125 C703.0625 277.1875 703.0625 277.1875 701 274 C700.47148438 273.55914062 699.94296875 273.11828125 699.3984375 272.6640625 C697.36326953 270.24232631 697.62805149 268.31469148 697.5625 265.1875 C697.1171276 256.92027481 695.65905732 247.98858598 691 241 C690.01 240.67 689.02 240.34 688 240 C688 238.68 688 237.36 688 236 C686.72125 235.79375 685.4425 235.5875 684.125 235.375 C681.9140625 234.84375 681.9140625 234.84375 680 234 C678.5 230.875 678.5 230.875 678 228 C676.948125 227.855625 675.89625 227.71125 674.8125 227.5625 C671.84539451 227.12473034 668.93205634 226.62195134 666 226 C666 226.66 666 227.32 666 228 C665.2265625 228.01417969 664.453125 228.02835938 663.65625 228.04296875 C657.18074124 228.33949576 652.77021245 229.0339979 647.5234375 232.94140625 C646 234 646 234 644 234 C644 234.66 644 235.32 644 236 C642.5459375 237.2065625 642.5459375 237.2065625 641.0625 238.4375 C637.80624673 240.70684377 637.80624673 240.70684377 637 244 C636.79831626 246.33056772 636.63622631 248.66469175 636.5 251 C636.11111111 257.66666667 636.11111111 257.66666667 635 261 C634.29331082 270.99791407 634.81139252 279.69759062 639 289 C639.33 289.33 639.66 289.66 640 290 C640.04063832 291.66617115 640.042721 293.33388095 640 295 C639.38125 294.835 638.7625 294.67 638.125 294.5 C627.32651382 292.77224221 617.2459187 294.47246678 607.83666992 300.05957031 C604.79917205 301.61485966 601.58366476 302.19973617 598.25 302.75 C597.20283813 302.93212036 597.20283813 302.93212036 596.13452148 303.11791992 C587.00180972 304.61045396 578.96093646 304.35040956 570 302 C570.33 297.71 570.66 293.42 571 289 C571.99 289 572.98 289 574 289 C573.62875 287.783125 573.2575 286.56625 572.875 285.3125 C572.15356407 282.40614384 571.98697623 281.06121172 572.625 278.0625 C574 276 574 276 576.0625 275.3125 C576.701875 275.209375 577.34125 275.10625 578 275 C579.61636011 271.76727978 579.4434675 268.50462511 579 265 C577.17137457 259.58369098 574.34072712 255.74034993 570 252 C567.45130279 250.90295207 565.13400287 250.02716124 562.5 249.25 C561.84902344 249.04246094 561.19804688 248.83492187 560.52734375 248.62109375 C553.79445234 246.51281462 548.41096131 245.8961357 541.4375 246.375 C540.68275391 246.41882813 539.92800781 246.46265625 539.15039062 246.5078125 C533.98082431 246.76445254 533.98082431 246.76445254 529 248 C528.67 248.99 528.34 249.98 528 251 C526.5625 252.6875 526.5625 252.6875 525 254 C524.34 254 523.68 254 523 254 C518.67280689 265.10019102 517.51649054 276.29122636 522 287.5 C524.09555018 292.73887545 524.93055822 298.4745508 526 304 C520.25 306 520.25 306 518 306 C517.67 306.99 517.34 307.98 517 309 C515.1796875 310.32421875 515.1796875 310.32421875 512.875 311.6875 C508.66641077 314.36813008 505.65254066 317.31681614 502.5078125 321.16796875 C501 323 501 323 499.5546875 324.42578125 C499.04164063 324.94527344 498.52859375 325.46476562 498 326 C496.95585938 327.01126953 496.95585938 327.01126953 495.890625 328.04296875 C493.16509111 332.30583891 493.08716458 336.34283461 492.75 341.3125 C492.63398437 342.70952148 492.63398437 342.70952148 492.515625 344.13476562 C492.32792109 346.42240701 492.15658841 348.71005367 492 351 C491.01 351 490.02 351 489 351 C487 349 487 349 486.4375 346.0625 C483.83233428 335.98072048 473.08157164 327.67091615 465.0234375 321.78125 C462.92361853 319.93276072 462.07274612 318.54904912 461 316 C459.14225278 312.34991527 459.14225278 312.34991527 456 310 C456 309.34 456 308.68 456 308 C455.34 308 454.68 308 454 308 C454 307.34 454 306.68 454 306 C453.39671875 305.86464844 452.7934375 305.72929687 452.171875 305.58984375 C447.80450883 304.41347254 445.47221069 303.54131469 442.4375 300.0625 C440.11276996 294.96100908 440.14368212 289.45637258 441 284 C442.12890625 281.70703125 442.12890625 281.70703125 443.5 279.5 C447.90659238 271.97776062 446.39804141 262.41398295 446 254 C445.01 254.33 444.02 254.66 443 255 C443 254.175 443 253.35 443 252.5 C441.49334913 247.22672195 438.67050912 243.88472622 434 241 C430.80871218 240.57531958 428.02817015 240.66403916 424.83203125 241.01171875 C420.45937098 240.99362498 418.01132686 239.01132686 415 236 C414.896875 236.639375 414.79375 237.27875 414.6875 237.9375 C414.460625 238.618125 414.23375 239.29875 414 240 C413.01 240.33 412.02 240.66 411 241 C410.34 240.01 409.68 239.02 409 238 C409.66 238 410.32 238 411 238 C410.67 237.34 410.34 236.68 410 236 C407.00667261 236.9977758 406.05233685 237.7522025 404 240 C403.566875 238.7934375 403.566875 238.7934375 403.125 237.5625 C402.26737432 234.8673532 402.26737432 234.8673532 400 234 C400 233.34 400 232.68 400 232 C399.34 232 398.68 232 398 232 C398 232.66 398 233.32 398 234 C397.01 234 396.02 234 395 234 C395 233.34 395 232.68 395 232 C393.68 231.67 392.36 231.34 391 231 C391 231.99 391 232.98 391 234 C389.02 234 387.04 234 385 234 C385 235.65 385 237.3 385 239 C384.01 239.33 383.02 239.66 382 240 C381.75196219 242.79117245 381.52585666 245.58115074 381.3125 248.375 C381.23966797 249.1690625 381.16683594 249.963125 381.09179688 250.78125 C380.87160223 253.35167167 380.87160223 253.35167167 381 257 C381.99 257.66 382.98 258.32 384 259 C383.56360594 261.9456599 382.85154873 263.18443946 380.9375 265.5625 C378.68887794 267.87245668 378.68887794 267.87245668 379 271 C379.99 271.33 380.98 271.66 382 272 C382.06058594 272.56847656 382.12117188 273.13695312 382.18359375 273.72265625 C382.70176573 278.49781037 383.29243859 283.2492305 384 288 C385.65 288.66 387.3 289.32 389 290 C387.21255741 294.73672286 384.91653967 299.17824038 382.56640625 303.65234375 C380.48134129 307.72403712 379.12657018 311.59511058 378 316 C374.46259017 314.69603986 371.22591667 313.07004257 367.93652344 311.23291016 C361.06107674 307.39749291 354.32702029 304.45608197 346.828125 302.0078125 C344 301 344 301 341 299 C330.98362671 298.14647446 317.05915065 297.47762753 309 304 C308.34 304 307.68 304 307 304 C307 303.34 307 302.68 307 302 C307.99 302 308.98 302 310 302 C310 300.68 310 299.36 310 298 C310.66 298 311.32 298 312 298 C312.12375 297.401875 312.2475 296.80375 312.375 296.1875 C313 294 313 294 315 291 C315.33 290.34 315.66 289.68 316 289 C316.66 289 317.32 289 318 289 C317.9690625 287.39125 317.9690625 287.39125 317.9375 285.75 C318 282 318 282 318.484375 280.15234375 C320.24400214 272.80723347 319.81795642 264.7953835 316.34375 258.0703125 C313.24237016 253.29202379 309.7475119 249.16500793 305 246 C292.89989028 244.72978821 292.89989028 244.72978821 281.6875 248.5 C279.67568165 250.14370073 279.67568165 250.14370073 278 252 C277.49339844 252.53367188 276.98679687 253.06734375 276.46484375 253.6171875 C271.25845902 260.44772141 269.70716555 270.93982075 270.1953125 279.375 C270.90169158 283.59084977 271.61031615 286.41547422 274 290 C274.38499891 291.65549531 274.72793135 293.3222433 275 295 C275.33 295 275.66 295 276 295 C276.15850736 301.97432386 276.15850736 301.97432386 275 305 C273.35546875 306.08984375 273.35546875 306.08984375 271.1875 306.9375 C270.37539063 307.2675 269.56328125 307.5975 268.7265625 307.9375 C267.82679688 308.288125 266.92703125 308.63875 266 309 C250.57263615 314.05331531 250.57263615 314.05331531 240 325 C239.56785995 327.87821581 239.31477448 330.70243084 239.17578125 333.609375 C239 336 239 336 238 338 C237.61076473 340.36950521 237.2619422 342.7457572 236.9375 345.125 C236.76089844 346.40632813 236.58429688 347.68765625 236.40234375 349.0078125 C236.26957031 349.99523437 236.13679687 350.98265625 236 352 C235.67 352 235.34 352 235 352 C234.75765625 350.94941406 234.5153125 349.89882813 234.265625 348.81640625 C232.61975063 341.86430581 230.98828732 335.32254829 227.796875 328.890625 C227 327 227 327 226.5625 323.1875 C225.83601479 319.07075047 224.21029772 318.48798073 221 316 C220.64080679 314.00448218 220.30503431 312.00451121 220 310 C218.04836882 308.56362302 218.04836882 308.56362302 216 308 C216 307.34 216 306.68 216 306 C215.13375 305.87625 214.2675 305.7525 213.375 305.625 C210.10486147 305.01941879 207.12743101 304.11693965 204 303 C205.10517146 299.96077847 206.34305049 297.44904011 208.0625 294.6875 C210.34533026 290.83469354 210.68883115 287.43415607 211 283 C212.98 282.34 214.96 281.68 217 281 C218.27087983 271.95072311 218.39002261 264.97203317 213.125 257.25 C212.42375 256.5075 211.7225 255.765 211 255 C210.175 254.113125 209.35 253.22625 208.5 252.3125 C203.69755678 247.87024003 199.3152575 247.4257477 193 247 C191.84177734 246.91878906 191.84177734 246.91878906 190.66015625 246.8359375 C185.43688141 246.63950665 181.6132528 247.28632188 177 250 C171.42912217 256.45049011 171.92144833 263.34238416 172.04296875 271.41796875 C172 274 172 274 171.3125 277.375 C170.90109844 280.83077308 171.96580324 282.26165821 174 285 C174.33 285.33 174.66 285.66 175 286 C175.04080783 287.99958364 175.04254356 290.00045254 175 292 C173.9171875 292.309375 173.9171875 292.309375 172.8125 292.625 C168.65471282 294.65769595 166.08589756 297.82820488 164 302 C160.47614894 302.47640047 156.97936543 302.79000172 153.43359375 303.03515625 C148.38469163 303.49731828 145.82342909 304.4416992 142 308 C141.01 308.33 140.02 308.66 139 309 C138.71125 309.721875 138.4225 310.44375 138.125 311.1875 C136.70219419 314.74451453 134.4513167 317.07037761 132 320 C130.94205668 321.96996343 129.92163538 323.96270075 129 326 C126.09614779 326.12099384 124.64136711 326.09604392 122 325 C118.26122315 321.47579643 114.34258691 317.60212079 113.65234375 312.359375 C114 310 114 310 116 307 C116.38499891 305.34450469 116.72793135 303.6777567 117 302 C116.195625 302.12375 115.39125 302.2475 114.5625 302.375 C106.38371798 301.51407558 99.83635721 294.37517367 94 289 C94.27585937 288.34644531 94.55171875 287.69289063 94.8359375 287.01953125 C96.27356067 283.29039464 97.45103376 279.50630296 98.625 275.6875 C98.85445313 274.94693359 99.08390625 274.20636719 99.3203125 273.44335938 C99.88203299 271.6294703 100.44126824 269.81481192 101 268 C101.99 268 102.98 268 104 268 C104 266.68 104 265.36 104 264 C104.66 264 105.32 264 106 264 C106.82129356 255.07006209 106.33164637 248.9426817 101.3125 241.40234375 C95.12726951 234.9768087 89.28698541 233.15235105 80.5 232.875 C79.60152344 232.80796875 78.70304687 232.7409375 77.77734375 232.671875 C71.85522746 232.4132673 68.35530325 233.36821821 63.57617188 236.91064453 C62 238 62 238 60 238 C60 238.66 60 239.32 60 240 C59.34 240 58.68 240 58 240 C57.4648501 242.51853031 56.94670571 245.03870748 56.4375 247.5625 C56.28603516 248.26697266 56.13457031 248.97144531 55.97851562 249.69726562 C55.03712519 254.44800341 55.13145307 258.17956455 56 263 C56.21100402 265.6440627 56.39850214 268.290106 56.5625 270.9375 C56.60568359 271.62134766 56.64886719 272.30519531 56.69335938 273.00976562 C56.79803995 274.67302365 56.89937594 276.33649163 57 278 C54.69 278.33 52.38 278.66 50 279 C47.44995116 286.19113772 45 293.31306416 45 301 C43.625 302.75 43.625 302.75 42 304 C41.34 304 40.68 304 40 304 C40 304.66 40 305.32 40 306 C38.73160474 306.50615298 37.46016898 307.00469099 36.1875 307.5 C35.12595703 307.91765625 35.12595703 307.91765625 34.04296875 308.34375 C32 309 32 309 29 309 C28.773125 309.598125 28.54625 310.19625 28.3125 310.8125 C27 313 27 313 24.55859375 314.30859375 C21.44963769 316.3638273 20.90237138 317.75382241 19.75 321.25 C19.43546875 322.16265625 19.1209375 323.0753125 18.796875 324.015625 C17.32699084 329.52048528 16.88664612 334.90449463 16.89453125 340.5859375 C16.7505679 356.99775945 15.12271091 371.67335038 10.62890625 387.578125 C9.81497696 390.71251108 9.35731367 393.78417701 9 397 C6.03 397 3.06 397 0 397 C0 265.99 0 134.98 0 0 Z " fill="#144D7A" transform="translate(0,0)"/>
<path d="M0 0 C0.89420654 0.02876221 1.78841309 0.05752441 2.7097168 0.0871582 C10.3230531 0.61272536 15.6047553 3.01811198 20.65234375 8.79296875 C21.20019531 9.64503906 21.74804688 10.49710938 22.3125 11.375 C22.87839844 12.23480469 23.44429687 13.09460938 24.02734375 13.98046875 C26.56623707 18.13836651 26.33868649 20.40910961 25.9375 25.3125 C25.83566406 26.59382813 25.73382813 27.87515625 25.62890625 29.1953125 C25.54511719 30.18273437 25.46132812 31.17015625 25.375 32.1875 C24.715 32.1875 24.055 32.1875 23.375 32.1875 C23.375 33.5075 23.375 34.8275 23.375 36.1875 C22.385 36.1875 21.395 36.1875 20.375 36.1875 C20.189375 37.48107422 20.189375 37.48107422 20 38.80078125 C19.3837116 42.14029401 18.4807248 45.16758505 17.375 48.375 C16.8490625 49.91220703 16.8490625 49.91220703 16.3125 51.48046875 C16.003125 52.37378906 15.69375 53.26710938 15.375 54.1875 C15.045 55.1775 14.715 56.1675 14.375 57.1875 C16.10072488 58.62913007 17.8307347 60.06563165 19.5625 61.5 C20.52542969 62.30050781 21.48835938 63.10101563 22.48046875 63.92578125 C27.09875157 67.534399 30.50969089 69.50548731 36.375 70.1875 C35.5 77.0625 35.5 77.0625 34.375 78.1875 C34.03270712 81.35370913 34.11867901 82.79233847 35.875 85.5 C36.37 86.056875 36.865 86.61375 37.375 87.1875 C36.385 87.1875 35.395 87.1875 34.375 87.1875 C33.715 86.5275 33.055 85.8675 32.375 85.1875 C31.83875 85.496875 31.3025 85.80625 30.75 86.125 C27.84678291 87.42380765 25.56361555 88.05464102 22.375 88.1875 C20.25 86.3125 20.25 86.3125 18.375 84.1875 C15.83609114 83.26426042 14.11118508 83.1875 11.375 83.1875 C13.125 77.4375 13.125 77.4375 15.375 75.1875 C17.46875 74.7734375 17.46875 74.7734375 19.875 74.5625 C21.06609375 74.45035156 21.06609375 74.45035156 22.28125 74.3359375 C23.6433114 74.23937345 25.00951992 74.1875 26.375 74.1875 C22.085 74.1875 17.795 74.1875 13.375 74.1875 C13.375 73.5275 13.375 72.8675 13.375 72.1875 C12.385 71.5275 11.395 70.8675 10.375 70.1875 C11.035 69.5275 11.695 68.8675 12.375 68.1875 C8.61199626 66.93316542 5.10289091 67.08054578 1.1875 67.125 C0.43791016 67.12951172 -0.31167969 67.13402344 -1.08398438 67.13867188 C-2.93102383 67.15043646 -4.77802213 67.16837135 -6.625 67.1875 C-6.625 66.5275 -6.625 65.8675 -6.625 65.1875 C-7.43582031 65.42726563 -8.24664062 65.66703125 -9.08203125 65.9140625 C-16.08209387 67.78835168 -21.1838584 68.36234974 -28.234375 66.671875 C-31.23422532 66.06406219 -33.68564897 66.3930808 -36.625 67.1875 C-34.70192308 50.26442308 -34.70192308 50.26442308 -30.625 46.1875 C-27 46.0625 -27 46.0625 -23.625 46.1875 C-23.9370785 43.83327678 -24.24965262 41.47912106 -24.5625 39.125 C-24.64951172 38.46822266 -24.73652344 37.81144531 -24.82617188 37.13476562 C-24.91318359 36.48056641 -25.00019531 35.82636719 -25.08984375 35.15234375 C-25.1762915 34.48992676 -25.26273926 33.82750977 -25.35180664 33.14501953 C-25.60995524 31.29530063 -25.92439009 29.45369031 -26.2421875 27.61328125 C-26.64654561 23.99468879 -26.39758262 21.0237618 -25.8125 17.4375 C-25.64105469 16.32890625 -25.46960937 15.2203125 -25.29296875 14.078125 C-24.625 11.1875 -24.625 11.1875 -22.625 8.1875 C-21.965 8.1875 -21.305 8.1875 -20.625 8.1875 C-20.625 7.5275 -20.625 6.8675 -20.625 6.1875 C-14.81626649 0.00299936 -7.95503196 -0.33067976 0 0 Z " fill="#0D0E15" transform="translate(80.625,231.8125)"/>
<path d="M0 0 C-0.73669772 6.26193061 -2.20302786 12.26820078 -3.75 18.375 C-4.01659424 19.43557617 -4.28318848 20.49615234 -4.55786133 21.58886719 C-6.46695317 29.1026167 -8.54944838 36.54253287 -10.82421875 43.953125 C-12.41641324 49.24832494 -13.68762584 54.63013272 -15 60 C-18.93260944 60.07421454 -22.86494722 60.12863136 -26.7980957 60.16479492 C-28.79327701 60.18728333 -30.78826213 60.22540198 -32.78320312 60.26367188 C-34.03681641 60.27333984 -35.29042969 60.28300781 -36.58203125 60.29296875 C-37.73936768 60.3086792 -38.8967041 60.32438965 -40.08911133 60.34057617 C-43 60 -43 60 -44.86474609 58.80664062 C-46.37807344 56.39833474 -46.46326197 54.63870307 -46.58203125 51.80078125 C-46.62827637 50.76348877 -46.67452148 49.72619629 -46.72216797 48.6574707 C-46.75197754 47.55363037 -46.78178711 46.44979004 -46.8125 45.3125 C-46.84746582 44.1886792 -46.88243164 43.0648584 -46.91845703 41.90698242 C-47.47444647 17.50813777 -47.47444647 17.50813777 -41.78417969 11.29711914 C-37.89043722 8.46632361 -33.06645352 7.79405437 -28.4375 6.8125 C-27.41591797 6.57853516 -26.39433594 6.34457031 -25.34179688 6.10351562 C-23.28018068 5.63135999 -21.21684328 5.16665711 -19.15185547 4.70947266 C-13.24691068 3.38028834 -5.89186862 0 0 0 Z " fill="#CDC5C0" transform="translate(371,339)"/>
<path d="M0 0 C0.33 0 0.66 0 1 0 C1.33 5.94 1.66 11.88 2 18 C11.57 18.33 21.14 18.66 31 19 C30 27 30 27 29.4375 30.3125 C28.9196622 33.0396907 28.9196622 33.0396907 29 36 C28.84626937 37.89692612 28.67833145 39.79272833 28.5 41.6875 C28.36078125 43.17830078 28.36078125 43.17830078 28.21875 44.69921875 C28.1465625 45.45847656 28.074375 46.21773438 28 47 C26.89591797 46.98259766 26.89591797 46.98259766 25.76953125 46.96484375 C24.79371094 46.95582031 23.81789063 46.94679688 22.8125 46.9375 C21.84957031 46.92589844 20.88664062 46.91429687 19.89453125 46.90234375 C17.00691381 46.91793976 17.00691381 46.91793976 14.26171875 47.56640625 C12 48 12 48 10 47 C10 46.01 10 45.02 10 44 C12.475 43.505 12.475 43.505 15 43 C14.01 42.34 13.02 41.68 12 41 C12.495 40.505 12.495 40.505 13 40 C11.83210938 39.91105469 11.83210938 39.91105469 10.640625 39.8203125 C8 39 8 39 6.671875 36.7421875 C6.36765625 35.79601562 6.0634375 34.84984375 5.75 33.875 C5.4303125 32.88628906 5.110625 31.89757812 4.78125 30.87890625 C3.87981032 27.55710104 3.30442436 24.42477399 3 21 C2.01 21.33 1.02 21.66 0 22 C0 18.7 0 15.4 0 12 C-0.66 11.67 -1.32 11.34 -2 11 C-2 9.68 -2 8.36 -2 7 C-1.34 7 -0.68 7 0 7 C0 4.69 0 2.38 0 0 Z " fill="#2D2C39" transform="translate(324,380)"/>
<path d="M0 0 C4.9313111 0.42268381 6.69151135 2.46068656 10 6 C11.33920015 7.24545614 12.69435831 8.47390765 14.0625 9.6875 C14.71347656 10.26886719 15.36445312 10.85023438 16.03515625 11.44921875 C19.84859612 14.45903113 23.20661258 15.34635626 28 16 C27.125 22.875 27.125 22.875 26 24 C25.65770712 27.16620913 25.74367901 28.60483847 27.5 31.3125 C28.2425 32.1478125 28.2425 32.1478125 29 33 C28.01 33 27.02 33 26 33 C25.34 32.34 24.68 31.68 24 31 C23.195625 31.4640625 23.195625 31.4640625 22.375 31.9375 C19.47178291 33.23630765 17.18861555 33.86714102 14 34 C11.875 32.125 11.875 32.125 10 30 C7.46109114 29.07676042 5.73618508 29 3 29 C4.75 23.25 4.75 23.25 7 21 C9.09375 20.5859375 9.09375 20.5859375 11.5 20.375 C12.2940625 20.30023438 13.088125 20.22546875 13.90625 20.1484375 C15.2683114 20.05187345 16.63451992 20 18 20 C13.71 20 9.42 20 5 20 C5 19.34 5 18.68 5 18 C4.01 17.34 3.02 16.68 2 16 C2.99 14.68 3.98 13.36 5 12 C3.02 10.35 1.04 8.7 -1 7 C-0.67 6.01 -0.34 5.02 0 4 C0.99 4 1.98 4 3 4 C3 3.34 3 2.68 3 2 C2.01 1.67 1.02 1.34 0 1 C0 0.67 0 0.34 0 0 Z " fill="#1A2836" transform="translate(89,286)"/>
<path d="M0 0 C-1.03777311 3.27297674 -2.15507789 6.32804938 -3.625 9.4375 C-5.08887867 13.23027654 -5.24651354 15.97361223 -5 20 C-5.99 20.33 -6.98 20.66 -8 21 C-8 20.34 -8 19.68 -8 19 C-8.763125 18.95875 -9.52625 18.9175 -10.3125 18.875 C-11.199375 18.58625 -12.08625 18.2975 -13 18 C-13.45375 17.071875 -13.9075 16.14375 -14.375 15.1875 C-16.19648907 11.61457913 -17.54576672 10.41131103 -21.0234375 8.61328125 C-24.54209159 7.52152494 -27.42767129 8.27342467 -31 9 C-31.66 9 -32.32 9 -33 9 C-34.6446674 11.46326712 -34.6446674 11.46326712 -36 14 C-37 12 -37 12 -36.546875 10.1953125 C-35.08335796 6.39303783 -33.72062778 3.10928889 -31 0 C-30.67 0.99 -30.34 1.98 -30 3 C-28.45892578 2.566875 -28.45892578 2.566875 -26.88671875 2.125 C-8.55553024 -2.85184341 -8.55553024 -2.85184341 0 0 Z " fill="#212A33" transform="translate(415,301)"/>
<path d="M0 0 C0.33 0 0.66 0 1 0 C1 1.65 1 3.3 1 5 C1.66 5.33 2.32 5.66 3 6 C2.01 7.485 2.01 7.485 1 9 C0.72456155 11.42045438 0.72456155 11.42045438 0.8046875 14.10546875 C0.81113281 15.08837891 0.81757813 16.07128906 0.82421875 17.08398438 C0.84097656 18.10814453 0.85773437 19.13230469 0.875 20.1875 C0.88853516 21.74114258 0.88853516 21.74114258 0.90234375 23.32617188 C0.9259214 25.88434685 0.9588297 28.44205748 1 31 C1.66 31 2.32 31 3 31 C3 31.66 3 32.32 3 33 C3.99 33.33 4.98 33.66 6 34 C6 34.66 6 35.32 6 36 C3.525 36.495 3.525 36.495 1 37 C1.99 37.66 2.98 38.32 4 39 C2.35 39.99 0.7 40.98 -1 42 C-2.65 41.01 -4.3 40.02 -6 39 C-6.99 39.66 -7.98 40.32 -9 41 C-9 29.78 -9 18.56 -9 7 C-6.03 7 -3.06 7 0 7 C0 4.69 0 2.38 0 0 Z " fill="#161C26" transform="translate(9,390)"/>
<path d="M0 0 C4.14714804 1.03678701 7.30959643 2.56557103 10.953125 4.73828125 C11.56414062 5.08181641 12.17515625 5.42535156 12.8046875 5.77929688 C16.19249932 7.75058913 18.62687775 9.5782087 20.703125 12.92578125 C15.30292037 14.00582218 9.8500117 14.59590193 4.41015625 13.4375 C1.07996594 12.8079835 -2.16072717 12.73521044 -5.546875 12.61328125 C-11.91204302 12.23922632 -16.79152656 11.13350459 -22.296875 7.92578125 C-22.296875 7.26578125 -22.296875 6.60578125 -22.296875 5.92578125 C-21.26046875 5.74402344 -20.2240625 5.56226563 -19.15625 5.375 C-17.78635296 5.12166288 -16.41656694 4.86772495 -15.046875 4.61328125 C-14.36496094 4.49533203 -13.68304688 4.37738281 -12.98046875 4.25585938 C-9.92717269 3.67780818 -7.68877772 3.2451371 -5.25 1.2578125 C-3.296875 -0.07421875 -3.296875 -0.07421875 0 0 Z " fill="#A0A8B5" transform="translate(336.296875,309.07421875)"/>
<path d="M0 0 C0.33 0 0.66 0 1 0 C1.33 5.94 1.66 11.88 2 18 C11.57 18.33 21.14 18.66 31 19 C30 27 30 27 29 29 C21.05854257 30.3692168 13.03236485 30.09524543 5 30 C3.25434889 26.78360346 2.795563 24.67986596 3 21 C2.01 21.33 1.02 21.66 0 22 C0 18.7 0 15.4 0 12 C-0.66 11.67 -1.32 11.34 -2 11 C-2 9.68 -2 8.36 -2 7 C-1.34 7 -0.68 7 0 7 C0 4.69 0 2.38 0 0 Z " fill="#985648" transform="translate(324,380)"/>
<path d="M0 0 C0.66 0.33 1.32 0.66 2 1 C2 1.99 2 2.98 2 4 C3.98 4.33 5.96 4.66 8 5 C8 8.38023517 7.12544378 10.83468937 6 14 C2.89448334 14 1.64738916 13.4606285 -1 12 C-2.32 12.99 -3.64 13.98 -5 15 C-5.66 14.01 -6.32 13.02 -7 12 C-10.79996772 12.47499596 -14.42471445 13.07059836 -18.125 14.0625 C-21.31321027 14.83384119 -23.7624802 15.20234499 -27 15 C-27 15.99 -27 16.98 -27 18 C-29.375 20.6875 -29.375 20.6875 -32 23 C-32.66 23 -33.32 23 -34 23 C-33.57931046 18.23218516 -31.5474998 15.082655 -28 12 C-22.24959772 8.41506452 -15.93058027 6.1305661 -9.5546875 3.91796875 C-7.28782492 3.10342333 -5.12540757 2.19066924 -2.9375 1.1875 C-1.968125 0.795625 -0.99875 0.40375 0 0 Z " fill="#1A2331" transform="translate(273,305)"/>
<path d="M0 0 C1.77305664 0.25587405 3.54344608 0.53027739 5.3125 0.8125 C6.29863281 0.96332031 7.28476562 1.11414063 8.30078125 1.26953125 C11.2024674 2.05479219 12.05132038 2.81770674 14 5 C15.97888961 5.72693904 17.97954558 6.39816251 20 7 C20.66 7.33 21.32 7.66 22 8 C20.48446596 11.47775179 18.4226544 13.9557984 15.875 16.75 C15.15054687 17.54921875 14.42609375 18.3484375 13.6796875 19.171875 C13.12539063 19.77515625 12.57109375 20.3784375 12 21 C11.401875 20.835 10.80375 20.67 10.1875 20.5 C7.88655664 19.8885876 7.88655664 19.8885876 5 20 C5.33 19.34 5.66 18.68 6 18 C6.66 18 7.32 18 8 18 C8 17.34 8 16.68 8 16 C6.35 16 4.7 16 3 16 C1.9375 14.1875 1.9375 14.1875 1 12 C1.33 11.01 1.66 10.02 2 9 C0.68 9 -0.64 9 -2 9 C-2 8.34 -2 7.68 -2 7 C-2.99 6.67 -3.98 6.34 -5 6 C-4.34 5.01 -3.68 4.02 -3 3 C-2.34 3 -1.68 3 -1 3 C-0.67 2.01 -0.34 1.02 0 0 Z " fill="#1D252E" transform="translate(298,311)"/>
<path d="M0 0 C0 1.65 0 3.3 0 5 C0.66 5 1.32 5 2 5 C2.33 5.99 2.66 6.98 3 8 C3.66 8.495 4.32 8.99 5 9.5 C8.25270199 13.56587748 7.75626129 17.88148715 8 23 C4.04 23 0.08 23 -4 23 C-3.34 21.02 -2.68 19.04 -2 17 C-5.63 16.67 -9.26 16.34 -13 16 C-13 13 -13 13 -11.6875 11.625 C-11.130625 11.08875 -10.57375 10.5525 -10 10 C-9.319375 8.824375 -9.319375 8.824375 -8.625 7.625 C-3.9047619 0 -3.9047619 0 0 0 Z " fill="#171C27" transform="translate(477,411)"/>
<path d="M0 0 C1 2 1 2 0.0625 5.125 C-0.4634375 6.548125 -0.4634375 6.548125 -1 8 C-4.93260944 8.07421454 -8.86494722 8.12863136 -12.7980957 8.16479492 C-14.79327701 8.18728333 -16.78826213 8.22540198 -18.78320312 8.26367188 C-20.03681641 8.27333984 -21.29042969 8.28300781 -22.58203125 8.29296875 C-23.73936768 8.3086792 -24.8967041 8.32438965 -26.08911133 8.34057617 C-29 8 -29 8 -30.96362305 6.73168945 C-32 5 -32 5 -31 1 C-15.655 0.505 -15.655 0.505 0 0 Z " fill="#D5A980" transform="translate(357,391)"/>
<path d="M0 0 C4.62 0 9.24 0 14 0 C14 0.66 14 1.32 14 2 C14.66 2 15.32 2 16 2 C16 5.3 16 8.6 16 12 C11.38 12 6.76 12 2 12 C1.77213542 10.046875 1.54427083 8.09375 1.31640625 6.140625 C0.98698863 3.67008077 0.98698863 3.67008077 0 0 Z " fill="#1B212D" transform="translate(120,442)"/>
<path d="M0 0 C0.495 0.99 0.495 0.99 1 2 C-1.45454545 7.72727273 -1.45454545 7.72727273 -4 9 C-6.0374763 9.22858114 -8.08040303 9.41024278 -10.125 9.5625 C-11.22070312 9.64628906 -12.31640625 9.73007812 -13.4453125 9.81640625 C-14.28835937 9.87699219 -15.13140625 9.93757813 -16 10 C-17.19685192 12.89737903 -18.17662067 15.65128873 -19 18.6875 C-20 22 -20 22 -22 24 C-22.66 22.02 -23.32 20.04 -24 18 C-25.98 19.32 -27.96 20.64 -30 22 C-30.66 21.01 -31.32 20.02 -32 19 C-30.46163868 15.1540967 -29.59520414 13.34011665 -25.9375 11.25 C-24.968125 10.8375 -23.99875 10.425 -23 10 C-22.34 9.34 -21.68 8.68 -21 8 C-18.10032243 7.69324768 -15.28216822 7.48826629 -12.375 7.375 C-11.57320312 7.33632813 -10.77140625 7.29765625 -9.9453125 7.2578125 C-7.96392444 7.16346069 -5.98199355 7.08063785 -4 7 C-3.71125 6.21625 -3.4225 5.4325 -3.125 4.625 C-2 2 -2 2 0 0 Z " fill="#111C28" transform="translate(168,295)"/>
<path d="M0 0 C0.33 0.66 0.66 1.32 1 2 C-0.03761883 4.2922754 -1.12274251 6.47597786 -2.3125 8.6875 C-4.83843703 13.40022019 -6.68601893 17.80410533 -8 23 C-12.42003389 21.36168628 -16.48553028 19.2314329 -20.625 17 C-21.29273438 16.64421875 -21.96046875 16.2884375 -22.6484375 15.921875 C-25.52174225 14.38178365 -28.28543704 12.80970864 -31 11 C-29.02 11 -27.04 11 -25 11 C-25 11.66 -25 12.32 -25 13 C-24.46375 12.79375 -23.9275 12.5875 -23.375 12.375 C-20.14769984 11.86542629 -18.07853363 12.93435374 -15 14 C-12.3360215 14.44239354 -9.68839835 14.72188983 -7 15 C-6.7525 13.0509375 -6.7525 13.0509375 -6.5 11.0625 C-6.36078125 9.96615234 -6.36078125 9.96615234 -6.21875 8.84765625 C-5.98040465 7.14458268 -5.98040465 7.14458268 -6 6 C-5.67449498 4.33178677 -5.34153937 2.66500443 -5 1 C-3.35 0.67 -1.7 0.34 0 0 Z " fill="#91A4B3" transform="translate(386,293)"/>
<path d="M0 0 C1.79206547 0.14084796 3.58364917 0.28783701 5.375 0.4375 C6.87160156 0.55931641 6.87160156 0.55931641 8.3984375 0.68359375 C11 1 11 1 13 2 C12.67 7.61 12.34 13.22 12 19 C11.01 19 10.02 19 9 19 C7 17 7 17 6.1875 13.75 C5.12065914 10.38102886 4.59884515 9.27439055 2.375 6.8125 C0 4 0 4 0 0 Z " fill="#B0B7C4" transform="translate(480,332)"/>
<path d="M0 0 C5.56286254 1.68571592 11.09727789 3.51909684 15 8 C8.91744556 9.27309279 4.61249322 8.65034402 -1 6 C-1.33 5.34 -1.66 4.68 -2 4 C-2.1546875 4.9590625 -2.1546875 4.9590625 -2.3125 5.9375 C-2.539375 6.618125 -2.76625 7.29875 -3 8 C-3.99 8.33 -4.98 8.66 -6 9 C-6.66 8.01 -7.32 7.02 -8 6 C-7.34 6 -6.68 6 -6 6 C-6.33 5.34 -6.66 4.68 -7 4 C-9.99332739 4.9977758 -10.94766315 5.7522025 -13 8 C-13.66 6.02 -14.32 4.04 -15 2 C-10.2643646 -1.15709027 -5.54004428 -0.64569281 0 0 Z " fill="#1E3040" transform="translate(417,232)"/>
<path d="M0 0 C2.64 0 5.28 0 8 0 C8.02699725 2.27076842 8.04639453 4.54162821 8.0625 6.8125 C8.07410156 8.07707031 8.08570313 9.34164063 8.09765625 10.64453125 C8 14 8 14 7 17 C4.69 17 2.38 17 0 17 C0 11.39 0 5.78 0 0 Z " fill="#30333D" transform="translate(0,403)"/>
<path d="M0 0 C0.33 0 0.66 0 1 0 C1.33 5.94 1.66 11.88 2 18 C11.57 18.33 21.14 18.66 31 19 C31 20.65 31 22.3 31 24 C30.505 23.01 30.505 23.01 30 22 C21.42 22 12.84 22 4 22 C3.67 23.32 3.34 24.64 3 26 C3 24.35 3 22.7 3 21 C2.01 21.33 1.02 21.66 0 22 C0 18.7 0 15.4 0 12 C-0.66 11.67 -1.32 11.34 -2 11 C-2 9.68 -2 8.36 -2 7 C-1.34 7 -0.68 7 0 7 C0 4.69 0 2.38 0 0 Z " fill="#724242" transform="translate(324,380)"/>
<path d="M0 0 C3.63 0.66 7.26 1.32 11 2 C11.33 4.31 11.66 6.62 12 9 C11.34 8.67 10.68 8.34 10 8 C10.33 7.01 10.66 6.02 11 5 C8.9375006 6.81222534 8.9375006 6.81222534 7 9 C7 9.99 7 10.98 7 12 C7.99 12.66 8.98 13.32 10 14 C7.69 14.33 5.38 14.66 3 15 C2.34 14.01 1.68 13.02 1 12 C1.33 11.01 1.66 10.02 2 9 C0.68 9 -0.64 9 -2 9 C-2 8.34 -2 7.68 -2 7 C-2.99 6.67 -3.98 6.34 -5 6 C-4.34 5.01 -3.68 4.02 -3 3 C-2.34 3 -1.68 3 -1 3 C-0.67 2.01 -0.34 1.02 0 0 Z " fill="#161B23" transform="translate(298,311)"/>
<path d="M0 0 C1 3 1 3 0 6 C0.66 6 1.32 6 2 6 C1 9 1 9 -1 10 C-1.46523063 11.89533342 -1.46523063 11.89533342 -1.625 14.0625 C-1.810625 16.0115625 -1.810625 16.0115625 -2 18 C-2.99 18.33 -3.98 18.66 -5 19 C-5.12375 19.78375 -5.2475 20.5675 -5.375 21.375 C-6 24 -6 24 -8 26 C-10.56051143 20.87897713 -8.8103179 14.16594306 -7.73046875 8.78515625 C-7.48941406 8.19605469 -7.24835938 7.60695313 -7 7 C-6.01 6.67 -5.02 6.34 -4 6 C-3.29788106 4.34795544 -2.63028587 2.68076231 -2 1 C-1.34 0.67 -0.68 0.34 0 0 Z " fill="#0E1827" transform="translate(501,322)"/>
<path d="M0 0 C1.4552777 2.9105554 0.63516661 4.95849052 0.0625 8.125 C-0.13214844 9.22070312 -0.32679687 10.31640625 -0.52734375 11.4453125 C-0.68332031 12.28835938 -0.83929688 13.13140625 -1 14 C-3.97 14 -6.94 14 -10 14 C-10 9.71 -10 5.42 -10 1 C-8.02 1 -6.04 1 -4 1 C-4 1.66 -4 2.32 -4 3 C-3.34 3 -2.68 3 -2 3 C-2 2.34 -2 1.68 -2 1 C-1.34 0.67 -0.68 0.34 0 0 Z " fill="#CBB397" transform="translate(10,383)"/>
<path d="M0 0 C0.66 0.33 1.32 0.66 2 1 C2 1.99 2 2.98 2 4 C4.97 4.495 4.97 4.495 8 5 C8 8.38023517 7.12544378 10.83468937 6 14 C2.89448334 14 1.64738916 13.4606285 -1 12 C-2.32 12.99 -3.64 13.98 -5 15 C-5.99 13.02 -6.98 11.04 -8 9 C-7.01 8.34 -6.02 7.68 -5 7 C-3.71306419 4.83252916 -3 3.53199972 -3 1 C-2.01 0.67 -1.02 0.34 0 0 Z " fill="#141A25" transform="translate(273,305)"/>
<path d="M0 0 C0 0.66 0 1.32 0 2 C-0.66 2 -1.32 2 -2 2 C-2.309375 3.2065625 -2.309375 3.2065625 -2.625 4.4375 C-3.07875 5.283125 -3.5325 6.12875 -4 7 C-7.125 7.8125 -7.125 7.8125 -10 8 C-9.67 6.68 -9.34 5.36 -9 4 C-10.32 4.33 -11.64 4.66 -13 5 C-13.31420417 9.60832783 -12.82887853 11.43315316 -10 15 C-10.33 15.99 -10.66 16.98 -11 18 C-11.99 16.68 -12.98 15.36 -14 14 C-14.99 15.485 -14.99 15.485 -16 17 C-16.07347656 15.95199219 -16.07347656 15.95199219 -16.1484375 14.8828125 C-16.26058594 13.51769531 -16.26058594 13.51769531 -16.375 12.125 C-16.44460938 11.22007812 -16.51421875 10.31515625 -16.5859375 9.3828125 C-16.79568132 6.82058097 -16.79568132 6.82058097 -19 5 C-12.90627233 -0.39730165 -7.78059981 -0.15256078 0 0 Z " fill="#182837" transform="translate(534,304)"/>
<path d="M0 0 C0.33 0.66 0.66 1.32 1 2 C1.66 2 2.32 2 3 2 C3 2.99 3 3.98 3 5 C3.99 5.33 4.98 5.66 6 6 C6 6.66 6 7.32 6 8 C4.68 8.33 3.36 8.66 2 9 C2.33 9.99 2.66 10.98 3 12 C3.66 12 4.32 12 5 12 C5 12.66 5 13.32 5 14 C5.66 14.33 6.32 14.66 7 15 C6.01 15.495 6.01 15.495 5 16 C6.65 16 8.3 16 10 16 C10.33 17.32 10.66 18.64 11 20 C8.3333581 21.33332095 6.83319697 20.67102033 4 20 C3.67 21.65 3.34 23.3 3 25 C3.66 25 4.32 25 5 25 C5.103125 25.61875 5.20625 26.2375 5.3125 26.875 C5.87525373 29.36526484 5.87525373 29.36526484 9 31 C8.01 31.33 7.02 31.66 6 32 C5.34 31.67 4.68 31.34 4 31 C3.67 31.66 3.34 32.32 3 33 C1.70309019 22.00774498 0.61947712 11.05277595 0 0 Z " fill="#171A22" transform="translate(241,430)"/>
<path d="M0 0 C0.99 0 1.98 0 3 0 C3 0.66 3 1.32 3 2 C4.98 1.67 6.96 1.34 9 1 C9.2700558 8.8316181 8.23107719 16.27279225 7 24 C6.67 24 6.34 24 6 24 C4 16 2 8 0 0 Z " fill="#B6B9C3" transform="translate(229,328)"/>
<path d="M0 0 C3.56059508 2.03462576 7.3813678 3.14919714 11.296875 4.3125 C10.966875 4.9725 10.636875 5.6325 10.296875 6.3125 C9.306875 6.3125 8.316875 6.3125 7.296875 6.3125 C7.296875 5.6525 7.296875 4.9925 7.296875 4.3125 C6.636875 4.56 5.976875 4.8075 5.296875 5.0625 C1.02215901 5.41872633 -2.24609476 3.80026943 -5.703125 1.3125 C-6.033125 0.3225 -6.363125 -0.6675 -6.703125 -1.6875 C-7.858125 -1.5225 -9.013125 -1.3575 -10.203125 -1.1875 C-13.1382914 -0.80826611 -15.93378483 -0.66551885 -18.890625 -0.75 C-22.46000569 -0.69148556 -24.55241252 -0.26285624 -27.703125 1.3125 C-28.033125 -0.0075 -28.363125 -1.3275 -28.703125 -2.6875 C-18.64493753 -4.56955348 -9.02404484 -5.32963722 0 0 Z " fill="#132433" transform="translate(348.703125,301.6875)"/>
<path d="M0 0 C0.66 0 1.32 0 2 0 C0.97731417 2.6747168 -0.04032224 5.06451558 -1.5625 7.5 C-3.44511785 12.08376519 -3.55565827 16.35137066 -3.7890625 21.26953125 C-4 24 -4 24 -5 25 C-5.15655027 26.48638992 -5.25066943 27.97949127 -5.31640625 29.47265625 C-5.35830078 30.37177734 -5.40019531 31.27089844 -5.44335938 32.19726562 C-5.48267578 33.14279297 -5.52199219 34.08832031 -5.5625 35.0625 C-5.60568359 36.01189453 -5.64886719 36.96128906 -5.69335938 37.93945312 C-5.79979276 40.29281353 -5.90181008 42.64628354 -6 45 C-8.24451528 40.98411348 -8.26463315 37.44775939 -8.1875 32.9375 C-8.18685547 32.21755859 -8.18621094 31.49761719 -8.18554688 30.75585938 C-8.15902862 27.58250863 -8.00983535 25.02950606 -7 22 C-6.72833561 18.45111434 -6.55459248 14.90249891 -6.37890625 11.34765625 C-6.03670308 8.32427364 -5.57856767 6.54999393 -4 4 C-3.34 4 -2.68 4 -2 4 C-1.34 2.68 -0.68 1.36 0 0 Z " fill="#091D2F" transform="translate(642,236)"/>
<path d="M0 0 C4.39198197 0.4391982 6.41933362 1.5201431 9.75 4.375 C10.4140625 6.515625 10.4140625 6.515625 10.75 8.375 C9.64591797 8.35759766 9.64591797 8.35759766 8.51953125 8.33984375 C7.54371094 8.33082031 6.56789063 8.32179688 5.5625 8.3125 C4.59957031 8.30089844 3.63664062 8.28929687 2.64453125 8.27734375 C-0.24308619 8.29293976 -0.24308619 8.29293976 -2.98828125 8.94140625 C-5.25 9.375 -5.25 9.375 -7.25 8.375 C-7.25 7.385 -7.25 6.395 -7.25 5.375 C-5.6 5.045 -3.95 4.715 -2.25 4.375 C-3.24 3.715 -4.23 3.055 -5.25 2.375 C-3.25 0.375 -3.25 0.375 0 0 Z " fill="#1E222F" transform="translate(341.25,418.625)"/>
<path d="M0 0 C2.9651327 0.32945919 4.78260543 0.84903155 7.25 2.5625 C9.73398489 6.0223361 9.7184615 8.77692253 10 13 C11.65 13.33 13.3 13.66 15 14 C14.67 14.66 14.34 15.32 14 16 C11.03 15.67 8.06 15.34 5 15 C4.67 13.68 4.34 12.36 4 11 C1.52338502 8.75149517 1.52338502 8.75149517 -1 7 C-0.67 6.01 -0.34 5.02 0 4 C0.99 4 1.98 4 3 4 C3 3.34 3 2.68 3 2 C2.01 1.67 1.02 1.34 0 1 C0 0.67 0 0.34 0 0 Z " fill="#18222D" transform="translate(89,286)"/>
<path d="M0 0 C1.32 0 2.64 0 4 0 C4 1.65 4 3.3 4 5 C5.65 5 7.3 5 9 5 C9.75 6.75 9.75 6.75 10 9 C8.1875 11.25 8.1875 11.25 6 13 C5.34 13 4.68 13 4 13 C3.34 14.65 2.68 16.3 2 18 C0.4375 16.9375 0.4375 16.9375 -1 15 C-0.6875 11.3125 -0.6875 11.3125 0 8 C0.99 8 1.98 8 3 8 C3 6.68 3 5.36 3 4 C2.01 3.67 1.02 3.34 0 3 C0 2.01 0 1.02 0 0 Z " fill="#0C1F31" transform="translate(570,264)"/>
<path d="M0 0 C0.93779297 0.00322266 1.87558594 0.00644531 2.84179688 0.00976562 C4.30649414 0.02233398 4.30649414 0.02233398 5.80078125 0.03515625 C7.28288086 0.04192383 7.28288086 0.04192383 8.79492188 0.04882812 C11.23443599 0.06061322 13.67382814 0.07706614 16.11328125 0.09765625 C14.79328125 0.42765625 13.47328125 0.75765625 12.11328125 1.09765625 C12.11328125 1.75765625 12.11328125 2.41765625 12.11328125 3.09765625 C11.47390625 3.20078125 10.83453125 3.30390625 10.17578125 3.41015625 C9.49515625 3.63703125 8.81453125 3.86390625 8.11328125 4.09765625 C7.78328125 5.08765625 7.45328125 6.07765625 7.11328125 7.09765625 C5.77994792 5.76432292 4.44661458 4.43098958 3.11328125 3.09765625 C3.11328125 3.75765625 3.11328125 4.41765625 3.11328125 5.09765625 C1.65382837 5.01056956 0.19562257 4.90238718 -1.26171875 4.78515625 C-2.07382812 4.72714844 -2.8859375 4.66914063 -3.72265625 4.609375 C-5.88671875 4.09765625 -5.88671875 4.09765625 -7.88671875 1.09765625 C-4.94539984 0.11721661 -3.0617021 -0.01855577 0 0 Z " fill="#3B3543" transform="translate(336.88671875,408.90234375)"/>
<path d="M0 0 C0 0.66 0 1.32 0 2 C-1.65 2.33 -3.3 2.66 -5 3 C-4.01 3.66 -3.02 4.32 -2 5 C-4.475 6.485 -4.475 6.485 -7 8 C-8.65 7.01 -10.3 6.02 -12 5 C-12.99 5.66 -13.98 6.32 -15 7 C-15 4.69 -15 2.38 -15 0 C-9.62374766 -0.84888195 -5.34629602 -1.0024305 0 0 Z " fill="#1E2733" transform="translate(15,424)"/>
<path d="M0 0 C1.98 0 3.96 0 6 0 C9 5.75 9 5.75 9 8 C7.02 7.34 5.04 6.68 3 6 C3.34227572 8.97065509 3.34227572 8.97065509 4 12 C4.66 12.33 5.32 12.66 6 13 C4.68 13.33 3.36 13.66 2 14 C1.67 12.68 1.34 11.36 1 10 C0.34 10 -0.32 10 -1 10 C-1.33 8.68 -1.66 7.36 -2 6 C-1.01 5.67 -0.02 5.34 1 5 C0.67 3.35 0.34 1.7 0 0 Z " fill="#17242E" transform="translate(515,322)"/>
<path d="M0 0 C1.98 0.99 3.96 1.98 6 3 C6.66 2.34 7.32 1.68 8 1 C8.66 1.66 9.32 2.32 10 3 C9.96712417 5.72869407 9.43602229 8.2966618 9 11 C5.37673261 12.2077558 4.35853631 11.54311128 1 10 C1 8.35 1 6.7 1 5 C0.34 4.67 -0.32 4.34 -1 4 C-0.67 2.68 -0.34 1.36 0 0 Z " fill="#211C20" transform="translate(249,383)"/>
<path d="M0 0 C1.32 0 2.64 0 4 0 C4.38218767 1.65614657 4.71395102 3.32457024 5 5 C4.67 5.33 4.34 5.66 4 6 C3.76712992 7.68183948 3.58735834 9.3712416 3.4375 11.0625 C3.35371094 11.98160156 3.26992188 12.90070313 3.18359375 13.84765625 C3.12300781 14.55792969 3.06242187 15.26820313 3 16 C2.67 15.01 2.34 14.02 2 13 C0.34795544 12.29788106 -1.31923769 11.63028587 -3 11 C-3.33 10.34 -3.66 9.68 -4 9 C-2.02 9.495 -2.02 9.495 0 10 C-0.639375 9.236875 -1.27875 8.47375 -1.9375 7.6875 C-4 5 -4 5 -5 2 C-3.35 2 -1.7 2 0 2 C0 1.34 0 0.68 0 0 Z " fill="#292833" transform="translate(349,410)"/>
<path d="M0 0 C3.41659491 -0.05816623 6.83306205 -0.09365195 10.25 -0.125 C11.21808594 -0.14175781 12.18617188 -0.15851563 13.18359375 -0.17578125 C14.11816406 -0.18222656 15.05273438 -0.18867188 16.015625 -0.1953125 C16.87446289 -0.20578613 17.73330078 -0.21625977 18.61816406 -0.22705078 C21.17903596 0.01706677 22.79511029 0.71009488 25 2 C25 2.33 25 2.66 25 3 C16.98340366 4.12513633 9.07861415 4.09579384 1 4 C0.67 2.68 0.34 1.36 0 0 Z " fill="#6D494E" transform="translate(328,406)"/>
<path d="M0 0 C2 2 2 2 2 5 C-4.90823655 8.08697772 -11.51379318 9.91834274 -19 11 C-19 10.34 -19 9.68 -19 9 C-15.64416636 6.66311948 -12.2299759 5.24904139 -8.375 3.9375 C-5.16316743 2.84195711 -2.84701782 1.89801188 0 0 Z " fill="#1F3140" transform="translate(269,306)"/>
<path d="M0 0 C0.33 0 0.66 0 1 0 C0.67 5.94 0.34 11.88 0 18 C-1.32 18.33 -2.64 18.66 -4 19 C-4.33 18.34 -4.66 17.68 -5 17 C-4.34 17 -3.68 17 -3 17 C-3 16.34 -3 15.68 -3 15 C-2.34 15 -1.68 15 -1 15 C-1 13.68 -1 12.36 -1 11 C-2.65 11 -4.3 11 -6 11 C-5.67 8.36 -5.34 5.72 -5 3 C-3.68 3 -2.36 3 -1 3 C-0.67 2.01 -0.34 1.02 0 0 Z " fill="#0F141D" transform="translate(30,445)"/>
<path d="M0 0 C2 2 2 2 2.01171875 4.1015625 C1.90472656 4.93429687 1.79773438 5.76703125 1.6875 6.625 C1.57921875 7.511875 1.4709375 8.39875 1.359375 9.3125 C1.24078125 10.199375 1.1221875 11.08625 1 12 C0.81223681 13.54163463 0.62470671 15.08329769 0.4375 16.625 C0.293125 17.73875 0.14875 18.8525 0 20 C-1.65 20.66 -3.3 21.32 -5 22 C-4.51071609 17.18870823 -3.79423585 13.48558963 -2 9 C-1.78169454 7.58775235 -1.59613805 6.17018825 -1.4375 4.75 C-1 1 -1 1 0 0 Z " fill="#372E31" transform="translate(324,359)"/>
<path d="M0 0 C2 1.375 2 1.375 4 3 C4 3.66 4 4.32 4 5 C4.639375 5.2475 5.27875 5.495 5.9375 5.75 C8 7 8 7 8.625 9.0625 C8.74875 9.701875 8.8725 10.34125 9 11 C9.66 11.33 10.32 11.66 11 12 C10.01 13.485 10.01 13.485 9 15 C7.35 14.67 5.7 14.34 4 14 C3.22678118 11.01758453 2.58803797 8.02419525 2 5 C1.34 5 0.68 5 0 5 C0 3.35 0 1.7 0 0 Z " fill="#0E171F" transform="translate(519,317)"/>
<path d="M0 0 C0.66 0 1.32 0 2 0 C2.06058594 1.09699219 2.12117188 2.19398438 2.18359375 3.32421875 C2.26804498 4.77865654 2.35269066 6.23308305 2.4375 7.6875 C2.49647461 8.7693457 2.49647461 8.7693457 2.55664062 9.87304688 C2.73993711 12.96088764 2.95588016 15.81072851 3.66015625 18.83203125 C4 21 4 21 2 24 C1.34 23.67 0.68 23.34 0 23 C0.33 21.68 0.66 20.36 1 19 C0.01 18.34 -0.98 17.68 -2 17 C-1.85941524 14.54126232 -1.71277001 12.08314825 -1.5625 9.625 C-1.52318359 8.92632812 -1.48386719 8.22765625 -1.44335938 7.5078125 C-1.11328125 2.2265625 -1.11328125 2.2265625 0 0 Z " fill="#071626" transform="translate(382,240)"/>
<path d="M0 0 C2.97 0.495 2.97 0.495 6 1 C6 7.27 6 13.54 6 20 C4.36051082 16.72102163 3.36329498 14.05725489 2.4375 10.5625 C2.18871094 9.63566406 1.93992187 8.70882813 1.68359375 7.75390625 C1.04456621 5.17953818 0.49645622 2.60521314 0 0 Z " fill="#B8B7BD" transform="translate(120,347)"/>
<path d="M0 0 C0.78568359 -0.00386719 1.57136719 -0.00773438 2.38085938 -0.01171875 C3.19232422 -0.00011719 4.00378906 0.01148438 4.83984375 0.0234375 C5.65517578 0.01183594 6.47050781 0.00023437 7.31054688 -0.01171875 C8.48713867 -0.00591797 8.48713867 -0.00591797 9.6875 0 C10.40043213 0.00338379 11.11336426 0.00676758 11.84790039 0.01025391 C13.77734375 0.3984375 13.77734375 0.3984375 16.77734375 3.3984375 C8.52734375 3.3984375 0.27734375 3.3984375 -8.22265625 3.3984375 C-3.71487835 0.01760407 -3.71487835 0.01760407 0 0 Z " fill="#08192C" transform="translate(291.22265625,244.6015625)"/>
<path d="M0 0 C0.33 0 0.66 0 1 0 C1 1.65 1 3.3 1 5 C1.66 5.33 2.32 5.66 3 6 C1.02 6.99 1.02 6.99 -1 8 C-1 9.65 -1 11.3 -1 13 C-3.64 13 -6.28 13 -9 13 C-9 11.02 -9 9.04 -9 7 C-6.03 7 -3.06 7 0 7 C0 4.69 0 2.38 0 0 Z " fill="#2C1E22" transform="translate(9,390)"/>
<path d="M0 0 C3 2 3 2 4 5.5625 C4.33 6.696875 4.66 7.83125 5 9 C5.99 9.33 6.98 9.66 8 10 C8 10.66 8 11.32 8 12 C4.66666667 12 1.33333333 12 -2 12 C-3.6442351 7.06729471 -2.18615592 4.45975807 0 0 Z " fill="#1D2029" transform="translate(484,341)"/>
<path d="M0 0 C1.65 0.33 3.3 0.66 5 1 C5 2.32 5 3.64 5 5 C5.226875 5.845625 5.45375 6.69125 5.6875 7.5625 C5.790625 8.366875 5.89375 9.17125 6 10 C4.5625 11.8125 4.5625 11.8125 3 13 C3 11.68 3 10.36 3 9 C3.66 9 4.32 9 5 9 C5 8.34 5 7.68 5 7 C2.69 7.66 0.38 8.32 -2 9 C-1.51421457 5.87709365 -1.0013988 3.00419641 0 0 Z " fill="#131B22" transform="translate(406,235)"/>
<path d="M0 0 C-0.33 2.97 -0.66 5.94 -1 9 C-3.31 9 -5.62 9 -8 9 C-8 7.68 -8 6.36 -8 5 C-7.34 5 -6.68 5 -6 5 C-6 4.01 -6 3.02 -6 2 C-1.125 0 -1.125 0 0 0 Z " fill="#222B36" transform="translate(8,411)"/>
<path d="M0 0 C6.27661041 3.31354052 10.11817898 7.0743414 14 13 C8.94940789 13 5.52827275 9.39935509 2 6 C0.4375 2.5625 0.4375 2.5625 0 0 Z " fill="#212F3C" transform="translate(461,314)"/>
<path d="M0 0 C-0.33 0.99 -0.66 1.98 -1 3 C-1.73605469 2.97679687 -2.47210938 2.95359375 -3.23046875 2.9296875 C-4.69419922 2.90261719 -4.69419922 2.90261719 -6.1875 2.875 C-7.63189453 2.84019531 -7.63189453 2.84019531 -9.10546875 2.8046875 C-12.12812778 3.0086456 -14.26769985 3.73125368 -17 5 C-17.33 3.68 -17.66 2.36 -18 1 C-12.03325384 -0.32594359 -6.07416385 -0.0884587 0 0 Z " fill="#111B28" transform="translate(338,298)"/>
<path d="M0 0 C0.66 0 1.32 0 2 0 C2 2.97 2 5.94 2 9 C1.01 9.33 0.02 9.66 -1 10 C-1 9.34 -1 8.68 -1 8 C-2.65 7.67 -4.3 7.34 -6 7 C-6.33 6.01 -6.66 5.02 -7 4 C-6.67 3.34 -6.34 2.68 -6 2 C-4.02 2 -2.04 2 0 2 C0 1.34 0 0.68 0 0 Z " fill="#1D2228" transform="translate(408,312)"/>
<path d="M0 0 C6.64932346 0.68198189 13.44796848 2.9421872 18 8 C14.18510326 9.46726798 11.70988378 8.43336419 8 7 C8 6.01 8 5.02 8 4 C7.236875 3.896875 6.47375 3.79375 5.6875 3.6875 C2.82940576 2.95635961 1.84257115 2.23048087 0 0 Z " fill="#1C3A53" transform="translate(414,232)"/>
<path d="M0 0 C0 3 0 3 -1.375 4.6875 C-3 6 -3 6 -5 6 C-5 6.66 -5 7.32 -5 8 C-7.64 8.99 -10.28 9.98 -13 11 C-11.86708963 6.46835852 -11.37233085 6.1712568 -7.625 3.8125 C-6.83351563 3.30332031 -6.04203125 2.79414063 -5.2265625 2.26953125 C-3 1 -3 1 0 0 Z " fill="#233645" transform="translate(45,298)"/>
<path d="M0 0 C0.95003906 -0.02578125 1.90007812 -0.0515625 2.87890625 -0.078125 C5.81227202 0.29806237 6.64915852 0.96188633 8.4375 3.25 C7.261875 3.04375 6.08625 2.8375 4.875 2.625 C0.63958765 2.08526604 -2.5098009 2.84714262 -6.5625 4.25 C-7.284375 4.415 -8.00625 4.58 -8.75 4.75 C-10.85028884 5.32939003 -12.64609667 6.22335536 -14.5625 7.25 C-13.4108054 3.79491619 -12.57403326 3.14296376 -9.5625 1.25 C-6.36876643 0.23191026 -3.34193604 0.05456222 0 0 Z " fill="#111720" transform="translate(101.5625,304.75)"/>
<path d="M0 0 C-0.33 1.32 -0.66 2.64 -1 4 C-1.66 4 -2.32 4 -3 4 C-3 4.99 -3 5.98 -3 7 C-5.375 9.6875 -5.375 9.6875 -8 12 C-8.66 12 -9.32 12 -10 12 C-9.55396127 6.94489444 -7.35299176 4.59833262 -4 1 C-2 0 -2 0 0 0 Z " fill="#111B27" transform="translate(249,316)"/>
<path d="M0 0 C0.99 0.33 1.98 0.66 3 1 C3.144375 2.134375 3.28875 3.26875 3.4375 4.4375 C3.61171478 7.80777201 3.61171478 7.80777201 5 9 C5.07179964 10.51928038 5.08392007 12.04167482 5.0625 13.5625 C5.05347656 14.38878906 5.04445312 15.21507812 5.03515625 16.06640625 C5.02355469 16.70449219 5.01195312 17.34257812 5 18 C4.67 18 4.34 18 4 18 C3.731875 16.948125 3.46375 15.89625 3.1875 14.8125 C2.21395943 11.06759131 2.21395943 11.06759131 0.3125 8.4375 C-1.40337402 5.25087682 -0.87739817 3.42982922 0 0 Z " fill="#06121D" transform="translate(171,274)"/>
<path d="M0 0 C1.98 0 3.96 0 6 0 C6 0.66 6 1.32 6 2 C6.66 2 7.32 2 8 2 C8 3.32 8 4.64 8 6 C5.36 6 2.72 6 0 6 C0 4.02 0 2.04 0 0 Z " fill="#CEBD9C" transform="translate(0,384)"/>
<path d="M0 0 C1.98 0 3.96 0 6 0 C5.67 0.99 5.34 1.98 5 3 C6.32 3 7.64 3 9 3 C9 3.66 9 4.32 9 5 C7.35 5 5.7 5 4 5 C3.67 6.98 3.34 8.96 3 11 C2.67 11 2.34 11 2 11 C2 9.02 2 7.04 2 5 C1.01 5 0.02 5 -1 5 C-0.67 3.35 -0.34 1.7 0 0 Z " fill="#161820" transform="translate(455,458)"/>
<path d="M0 0 C0.33 0 0.66 0 1 0 C1 7.92 1 15.84 1 24 C-3.15633846 15.68732307 -1.62097034 8.90863863 0 0 Z " fill="#0D1A2B" transform="translate(271,263)"/>
<path d="M0 0 C0.33 0.66 0.66 1.32 1 2 C0.67 2.99 0.34 3.98 0 5 C-2.82043484 5.91441466 -5.49014065 6.62777544 -8.375 7.25 C-9.54675781 7.5284375 -9.54675781 7.5284375 -10.7421875 7.8125 C-16.59429209 9.13523597 -16.59429209 9.13523597 -20 8 C-16.19486939 6.03182899 -13.12361928 4.86682591 -8.8125 4.9375 C-6.9253125 4.9684375 -6.9253125 4.9684375 -5 5 C-5 4.34 -5 3.68 -5 3 C-3.68 3 -2.36 3 -1 3 C-0.67 2.01 -0.34 1.02 0 0 Z " fill="#151A22" transform="translate(355,477)"/>
<path d="M0 0 C3.49238487 4.65651317 3.25378455 5.69011529 2.6875 11.25 C2.50767578 13.14492188 2.50767578 13.14492188 2.32421875 15.078125 C2.21722656 16.04234375 2.11023438 17.0065625 2 18 C1.34 18 0.68 18 0 18 C0 12.06 0 6.12 0 0 Z " fill="#07172A" transform="translate(104,246)"/>
<path d="M0 0 C3.21524305 1.40844718 5.32183868 3.10344786 7.75 5.625 C8.67039062 6.57246094 8.67039062 6.57246094 9.609375 7.5390625 C10.29773438 8.26222656 10.29773438 8.26222656 11 9 C10.67 9.66 10.34 10.32 10 11 C9.34 10.67 8.68 10.34 8 10 C8 9.34 8 8.68 8 8 C7.236875 8.0825 6.47375 8.165 5.6875 8.25 C3 8 3 8 1.1875 6.25 C0 4 0 4 0 0 Z " fill="#142A3C" transform="translate(432,240)"/>
<path d="M0 0 C0.66 0.66 1.32 1.32 2 2 C1.67 2.99 1.34 3.98 1 5 C1.33 5.99 1.66 6.98 2 8 C-2.455 9.485 -2.455 9.485 -7 11 C-5.88249284 6.52997136 -5.40180439 6.52391938 -2 4 C-2 3.01 -2 2.02 -2 1 C-1.34 0.67 -0.68 0.34 0 0 Z " fill="#537D9D" transform="translate(107,264)"/>
<path d="M0 0 C3.42464196 3.42464196 2.96713369 8.32641143 3 13 C2.0625 16.6875 2.0625 16.6875 1 19 C0.34 18.67 -0.32 18.34 -1 18 C-0.505 9.09 -0.505 9.09 0 0 Z " fill="#0D2A41" transform="translate(216,262)"/>
<path d="M0 0 C0.33 0 0.66 0 1 0 C1.06058594 1.09699219 1.12117188 2.19398438 1.18359375 3.32421875 C1.26804498 4.77865654 1.35269066 6.23308305 1.4375 7.6875 C1.47681641 8.40873047 1.51613281 9.12996094 1.55664062 9.87304688 C1.78185678 13.66707282 2.12839305 17.28651492 3 21 C2.01 21.33 1.02 21.66 0 22 C0 18.7 0 15.4 0 12 C-0.66 11.67 -1.32 11.34 -2 11 C-2 9.68 -2 8.36 -2 7 C-1.34 7 -0.68 7 0 7 C0 4.69 0 2.38 0 0 Z " fill="#412F2D" transform="translate(324,380)"/>
<path d="M0 0 C1.485 0.99 1.485 0.99 3 2 C3 2.66 3 3.32 3 4 C3.99 4.33 4.98 4.66 6 5 C7.1875 7.0625 7.1875 7.0625 8 9 C7.01 9.33 6.02 9.66 5 10 C5 9.34 5 8.68 5 8 C3.35 8 1.7 8 0 8 C0 5.36 0 2.72 0 0 Z " fill="#12222D" transform="translate(720,312)"/>
<path d="M0 0 C4.40114397 0.50298788 6.71195019 2.08772731 10 5 C9.34 5 8.68 5 8 5 C8 5.66 8 6.32 8 7 C7.01 7.33 6.02 7.66 5 8 C4.01 7.34 3.02 6.68 2 6 C1.8125 3.375 1.8125 3.375 2 1 C1.34 0.67 0.68 0.34 0 0 Z " fill="#233443" transform="translate(104,307)"/>
<path d="M0 0 C1.98 0.66 3.96 1.32 6 2 C6 2.66 6 3.32 6 4 C6.66 4 7.32 4 8 4 C8 4.66 8 5.32 8 6 C8.99 6.33 9.98 6.66 11 7 C10.34 7.66 9.68 8.32 9 9 C8.34 8.34 7.68 7.68 7 7 C6.01 8.32 5.02 9.64 4 11 C3 6.25 3 6.25 3 4 C2.01 3.67 1.02 3.34 0 3 C0 2.01 0 1.02 0 0 Z " fill="#192634" transform="translate(448,304)"/>
<path d="M0 0 C0.33 0.66 0.66 1.32 1 2 C0.22265625 4.1640625 0.22265625 4.1640625 -0.9375 6.625 C-1.31777344 7.44226563 -1.69804687 8.25953125 -2.08984375 9.1015625 C-2.39019531 9.72804688 -2.69054687 10.35453125 -3 11 C-3.99 10.67 -4.98 10.34 -6 10 C-6 6.78430922 -5.64857671 4.16181148 -5 1 C-3.35 0.67 -1.7 0.34 0 0 Z " fill="#7D99AF" transform="translate(386,293)"/>
<path d="M0 0 C0.99 0 1.98 0 3 0 C2.67 2.97 2.34 5.94 2 9 C1.34 9 0.68 9 0 9 C-0.66 10.98 -1.32 12.96 -2 15 C-2.66 14.34 -3.32 13.68 -4 13 C-3.34 11.35 -2.68 9.7 -2 8 C-1.34 8 -0.68 8 0 8 C0 5.36 0 2.72 0 0 Z " fill="#102438" transform="translate(316,280)"/>
<path d="M0 0 C0.33 0 0.66 0 1 0 C1 1.98 1 3.96 1 6 C2.98 5.67 4.96 5.34 7 5 C7 5.99 7 6.98 7 8 C5.37581255 8.08090971 3.75048255 8.13914995 2.125 8.1875 C0.76761719 8.23970703 0.76761719 8.23970703 -0.6171875 8.29296875 C-1.79667969 8.14794922 -1.79667969 8.14794922 -3 8 C-3.66 7.01 -4.32 6.02 -5 5 C-3.35 5 -1.7 5 0 5 C0 3.35 0 1.7 0 0 Z " fill="#1F2E3D" transform="translate(57,273)"/>
<path d="M0 0 C2 1 2 1 2 1 Z M-7 1 C-4.0625 1.8125 -4.0625 1.8125 -1 3 C-0.67 3.99 -0.34 4.98 0 6 C-0.94875 5.938125 -1.8975 5.87625 -2.875 5.8125 C-4.421875 5.9053125 -4.421875 5.9053125 -6 6 C-6.66 6.99 -7.32 7.98 -8 9 C-8.04241723 6.66705225 -8.04092937 4.33297433 -8 2 C-7.67 1.67 -7.34 1.34 -7 1 Z M-1 1 C-0.34 1.66 0.32 2.32 1 3 C0.34 3 -0.32 3 -1 3 C-1 2.34 -1 1.68 -1 1 Z " fill="#121114" transform="translate(124,434)"/>
<path d="M0 0 C0.97710937 -0.02578125 1.95421875 -0.0515625 2.9609375 -0.078125 C5.625 0.25 5.625 0.25 7.4765625 1.765625 C7.85554688 2.25546875 8.23453125 2.7453125 8.625 3.25 C6.68780622 3.30406122 4.75018079 3.34282025 2.8125 3.375 C1.73355469 3.39820313 0.65460938 3.42140625 -0.45703125 3.4453125 C-3.375 3.25 -3.375 3.25 -6.375 1.25 C-4.64280072 -0.48219928 -2.35473192 0.03708239 0 0 Z " fill="#232F3A" transform="translate(97.375,300.75)"/>
<path d="M0 0 C0.99 0.99 1.98 1.98 3 3 C3.66 2.34 4.32 1.68 5 1 C6 2 6 2 6.09765625 3.84765625 C6.06510417 5.8984375 6.03255208 7.94921875 6 10 C0.25581395 5.76744186 0.25581395 5.76744186 -1 2 C-0.67 1.34 -0.34 0.68 0 0 Z " fill="#9CA6B0" transform="translate(744,337)"/>
<path d="M0 0 C0.56655968 2.18530161 1.05723894 4.33525664 1.4375 6.5625 C1.90385426 9.238632 1.90385426 9.238632 4 12 C3.67 12.99 3.34 13.98 3 15 C2.01 13.68 1.02 12.36 0 11 C-0.66 11.99 -1.32 12.98 -2 14 C-2.05389087 12.04196493 -2.09274217 10.08351091 -2.125 8.125 C-2.14820313 7.03445313 -2.17140625 5.94390625 -2.1953125 4.8203125 C-2 2 -2 2 0 0 Z " fill="#112230" transform="translate(520,307)"/>
<path d="M0 0 C2.97 0 5.94 0 9 0 C7.515 1.485 7.515 1.485 6 3 C5.34 3 4.68 3 4 3 C4.66 3.66 5.32 4.32 6 5 C5.34 5.66 4.68 6.32 4 7 C3.34 6.67 2.68 6.34 2 6 C2 5.34 2 4.68 2 4 C1.01 3.67 0.02 3.34 -1 3 C-0.67 2.01 -0.34 1.02 0 0 Z " fill="#181B22" transform="translate(286,312)"/>
<path d="M0 0 C0.89203125 0.01804687 1.7840625 0.03609375 2.703125 0.0546875 C3.71632813 0.08949219 3.71632813 0.08949219 4.75 0.125 C4.42 1.115 4.09 2.105 3.75 3.125 C-0.76617599 3.20154536 -4.84085217 3.22728696 -9.25 2.125 C-6.03817851 0.21891902 -3.71117397 -0.09766247 0 0 Z " fill="#929AA5" transform="translate(347.25,319.875)"/>
<path d="M0 0 C0.33 0 0.66 0 1 0 C1.33 1.65 1.66 3.3 2 5 C4.31 5.66 6.62 6.32 9 7 C9 7.66 9 8.32 9 9 C4.80530429 8.40075776 0.99000166 7.42500059 -3 6 C-1.125 1.125 -1.125 1.125 0 0 Z " fill="#7F97A9" transform="translate(207,297)"/>
<path d="M0 0 C0.33 0 0.66 0 1 0 C1 4.29 1 8.58 1 13 C-0.98 13.99 -0.98 13.99 -3 15 C-2.35812082 9.86496656 -1.31727753 5.0056546 0 0 Z " fill="#101B2F" transform="translate(47,284)"/>
<path d="M0 0 C2.0625 0.4375 2.0625 0.4375 4 1 C4 2.32 4 3.64 4 5 C3.38125 5.28875 2.7625 5.5775 2.125 5.875 C-0.13325765 6.93720042 -0.13325765 6.93720042 -2 9 C-3.21185923 5.36442231 -2.59260392 4.36216382 -1 1 C-0.67 0.67 -0.34 0.34 0 0 Z " fill="#456F8E" transform="translate(575,275)"/>
<path d="M0 0 C-0.625 1.9375 -0.625 1.9375 -2 4 C-5 4.875 -5 4.875 -8 5 C-8.66 4.34 -9.32 3.68 -10 3 C-6.68152292 -0.06320961 -4.44849969 -0.3033068 0 0 Z " fill="#0D1A2D" transform="translate(660,228)"/>
<path d="M0 0 C3.12290635 0.48578543 5.99580359 0.9986012 9 2 C8.67 3.32 8.34 4.64 8 6 C5.0280615 4.87548273 2.66559313 3.77706209 0 2 C0 1.34 0 0.68 0 0 Z " fill="#161C25" transform="translate(16,424)"/>
<path d="M0 0 C-0.59861742 2.35171131 -1.26924352 4.6859378 -2 7 C-2.99 7.495 -2.99 7.495 -4 8 C-4.33 7.01 -4.66 6.02 -5 5 C-4.01 5 -3.02 5 -2 5 C-2 4.34 -2 3.68 -2 3 C-3.65 2.67 -5.3 2.34 -7 2 C-7 1.34 -7 0.68 -7 0 C-2.25 -1.125 -2.25 -1.125 0 0 Z " fill="#171F28" transform="translate(363,461)"/>
<path d="M0 0 C0.66 0.33 1.32 0.66 2 1 C2 1.99 2 2.98 2 4 C4.97 4.495 4.97 4.495 8 5 C7.67 5.66 7.34 6.32 7 7 C4.625 7.75 4.625 7.75 2 8 C1.01 7.34 0.02 6.68 -1 6 C-1.25 3.4375 -1.25 3.4375 -1 1 C-0.67 0.67 -0.34 0.34 0 0 Z " fill="#12141C" transform="translate(273,305)"/>
<path d="M0 0 C0.99 1.32 1.98 2.64 3 4 C2.21625 4.9075 1.4325 5.815 0.625 6.75 C-1.30052496 9.05190236 -2.82205741 11.21577207 -4 14 C-5 12 -5 12 -4.51171875 10.1953125 C-4.23972656 9.51210938 -3.96773438 8.82890625 -3.6875 8.125 C-3.40648437 7.41601562 -3.12546875 6.70703125 -2.8359375 5.9765625 C-1.97300885 3.93617979 -1.05542174 1.9484709 0 0 Z " fill="#182636" transform="translate(383,301)"/>
<path d="M0 0 C4 4 4 4 4.27734375 6.0703125 C3.94740524 8.06511313 3.47545299 10.0347943 3 12 C2.01 12.66 1.02 13.32 0 14 C0 9.38 0 4.76 0 0 Z " fill="#4E7A95" transform="translate(218,264)"/>
<path d="M0 0 C0 3 0 6 0 9 C-1.9375 8.6875 -1.9375 8.6875 -4 8 C-5 5 -5 5 -4.1875 2.875 C-3.04139659 1.06536304 -2.29117956 0 0 0 Z " fill="#35678B" transform="translate(53,254)"/>
<path d="M0 0 C0.33 0.99 0.66 1.98 1 3 C-2.63 3 -6.26 3 -10 3 C-10.33 2.34 -10.66 1.68 -11 1 C-7.32589215 -0.17571451 -3.83070817 -0.07366746 0 0 Z " fill="#1C202B" transform="translate(352,429)"/>
<path d="M0 0 C1.63001953 0.01353516 1.63001953 0.01353516 3.29296875 0.02734375 C4.12441406 0.03894531 4.95585937 0.05054688 5.8125 0.0625 C5.8125 0.3925 5.8125 0.7225 5.8125 1.0625 C0.939239 2.6537689 -2.99540596 3.27442221 -8.1875 3.0625 C-8.5175 2.4025 -8.8475 1.7425 -9.1875 1.0625 C-5.90230525 -0.03256492 -3.45086585 -0.03710608 0 0 Z " fill="#4C3A49" transform="translate(338.1875,408.9375)"/>
<path d="M0 0 C4.16216275 -0.32644414 6.36313462 -0.40650982 9.9375 1.875 C12 4 12 4 12 6 C12.66 6.33 13.32 6.66 14 7 C12.68 7 11.36 7 10 7 C9.34 6.01 8.68 5.02 8 4 C6.05167065 2.99831469 6.05167065 2.99831469 3.875 2.3125 C2.78832031 1.93544922 2.78832031 1.93544922 1.6796875 1.55078125 C1.12539063 1.36902344 0.57109375 1.18726563 0 1 C0 0.67 0 0.34 0 0 Z " fill="#325D80" transform="translate(562,248)"/>
<path d="M0 0 C0.33 0 0.66 0 1 0 C1 1.65 1 3.3 1 5 C1.66 5 2.32 5 3 5 C3.1546875 5.928125 3.1546875 5.928125 3.3125 6.875 C3.87525373 9.36526484 3.87525373 9.36526484 7 11 C6.01 11.33 5.02 11.66 4 12 C3.34 11.67 2.68 11.34 2 11 C1.67 11.66 1.34 12.32 1 13 C0.67 8.71 0.34 4.42 0 0 Z " fill="#12161E" transform="translate(243,450)"/>
<path d="M0 0 C0.66 0.33 1.32 0.66 2 1 C2 1.66 2 2.32 2 3 C3.98 3 5.96 3 8 3 C8 3.33 8 3.66 8 4 C6.9275 4.103125 5.855 4.20625 4.75 4.3125 C1.07624166 4.98602236 -0.25157596 5.65874989 -3 8 C-3.66 8 -4.32 8 -5 8 C-5 7.34 -5 6.68 -5 6 C-4.01 6 -3.02 6 -2 6 C-2 4.68 -2 3.36 -2 2 C-1.34 2 -0.68 2 0 2 C0 1.34 0 0.68 0 0 Z " fill="#31465B" transform="translate(312,296)"/>
<path d="M0 0 C0.66 1.32 1.32 2.64 2 4 C1.67 4.33 1.34 4.66 1 5 C3.97 5.495 3.97 5.495 7 6 C7 6.33 7 6.66 7 7 C4.03 7 1.06 7 -2 7 C-2.66 5.35 -3.32 3.7 -4 2 C-2.68 1.34 -1.36 0.68 0 0 Z " fill="#68849A" transform="translate(316,292)"/>
<path d="M0 0 C1.65 0.33 3.3 0.66 5 1 C4.01 2.485 4.01 2.485 3 4 C3 3.34 3 2.68 3 2 C2.34 2 1.68 2 1 2 C1 2.99 1 3.98 1 5 C-0.32 5 -1.64 5 -3 5 C-3 5.66 -3 6.32 -3 7 C-3.99 7.33 -4.98 7.66 -6 8 C-6 6.68 -6 5.36 -6 4 C-4.35 3.67 -2.7 3.34 -1 3 C-0.67 2.01 -0.34 1.02 0 0 Z " fill="#0A2845" transform="translate(391,230)"/>
<path d="M0 0 C0.66 0.66 1.32 1.32 2 2 C1.9765625 4.3828125 1.9765625 4.3828125 1.625 7.125 C1.51414062 8.03507812 1.40328125 8.94515625 1.2890625 9.8828125 C1.19367188 10.58148438 1.09828125 11.28015625 1 12 C-0.515625 10.7578125 -0.515625 10.7578125 -2 9 C-2.15359723 6.18039374 -1.54265907 3.80373851 -1 1 C-0.67 0.67 -0.34 0.34 0 0 Z " fill="#4E474B" transform="translate(324,359)"/>
<path d="M0 0 C0 1.65 0 3.3 0 5 C-1.98 5.33 -3.96 5.66 -6 6 C-5.67 4.35 -5.34 2.7 -5 1 C-2 0 -2 0 0 0 Z " fill="#0C202C" transform="translate(144,307)"/>
<path d="M0 0 C0.99 0 1.98 0 3 0 C2.43454163 3.95820859 1.19097652 6.6659053 -1 10 C-1.66 9.34 -2.32 8.68 -3 8 C-2.01 5.36 -1.02 2.72 0 0 Z " fill="#142737" transform="translate(208,288)"/>
<path d="M0 0 C0.33 0 0.66 0 1 0 C2.24200752 5.3177215 3.30834212 10.58201328 4 16 C3.34 15.67 2.68 15.34 2 15 C2 14.01 2 13.02 2 12 C1.34 12 0.68 12 0 12 C0 8.04 0 4.08 0 0 Z " fill="#51748F" transform="translate(632,268)"/>
<path d="M0 0 C2.97 0 5.94 0 9 0 C9 0.99 9 1.98 9 3 C6.03 3 3.06 3 0 3 C0 2.01 0 1.02 0 0 Z " fill="#A07E66" transform="translate(0,394)"/>
<path d="M0 0 C2.125 0.375 2.125 0.375 4 1 C3.34 1.433125 2.68 1.86625 2 2.3125 C1.34 2.869375 0.68 3.42625 0 4 C0 4.99 0 5.98 0 7 C-1.98 7.99 -1.98 7.99 -4 9 C-2.25 2.25 -2.25 2.25 0 0 Z " fill="#192029" transform="translate(96,307)"/>
<path d="M0 0 C0.99 0 1.98 0 3 0 C4.75 1.8125 4.75 1.8125 6 4 C5.67 4.99 5.34 5.98 5 7 C2.525 6.01 2.525 6.01 0 5 C0 3.35 0 1.7 0 0 Z " fill="#142332" transform="translate(109,304)"/>
<path d="M0 0 C0.33 0 0.66 0 1 0 C1.125 2.375 1.125 2.375 1 5 C-1 7 -1 7 -3.625 7.125 C-4.40875 7.08375 -5.1925 7.0425 -6 7 C-5.67 5.68 -5.34 4.36 -5 3 C-3.68 3 -2.36 3 -1 3 C-0.67 2.01 -0.34 1.02 0 0 Z " fill="#141A24" transform="translate(30,445)"/>
<path d="M0 0 C0.66 0 1.32 0 2 0 C4.875 6.625 4.875 6.625 6 10 C3 9 3 9 2 7.125 C1.505 6.073125 1.505 6.073125 1 5 C-0.5412312 3.29078411 -0.5412312 3.29078411 -2 2 C-1.34 1.34 -0.68 0.68 0 0 Z " fill="#101B27" transform="translate(218,310)"/>
<path d="M0 0 C3.63 0 7.26 0 11 0 C11.33 0.99 11.66 1.98 12 3 C10.37419034 2.88601335 8.74932843 2.75844341 7.125 2.625 C6.22007812 2.55539062 5.31515625 2.48578125 4.3828125 2.4140625 C2 2 2 2 0 0 Z " fill="#323240" transform="translate(337,417)"/>
<path d="M0 0 C0.66 0 1.32 0 2 0 C2.32613618 4.67461851 1.70582788 7.16674383 -1 11 C-2.60080151 6.99799622 -1.29279692 3.95443764 0 0 Z " fill="#43372A" transform="translate(360,380)"/>
<path d="M0 0 C0.66 0 1.32 0 2 0 C2.33 2.64 2.66 5.28 3 8 C1.68 8.33 0.36 8.66 -1 9 C-0.67 6.03 -0.34 3.06 0 0 Z " fill="#29241D" transform="translate(12,376)"/>
<path d="M0 0 C2.97 0 5.94 0 9 0 C9 0.66 9 1.32 9 2 C6.04335481 3.4783226 3.25770263 3.06032783 0 3 C0 2.01 0 1.02 0 0 Z " fill="#1F2831" transform="translate(525,304)"/>
<path d="M0 0 C0 1.32 0 2.64 0 4 C-2.64 4 -5.28 4 -8 4 C-5.29881977 1.17603885 -4.05589853 0 0 0 Z " fill="#04172A" transform="translate(616,296)"/>
<path d="M0 0 C0.33 0.66 0.66 1.32 1 2 C3.31 2 5.62 2 8 2 C8.33 1.34 8.66 0.68 9 0 C9.66 0.33 10.32 0.66 11 1 C11 1.99 11 2.98 11 4 C7.7 4 4.4 4 1 4 C0.67 2.68 0.34 1.36 0 0 Z " fill="#4C708A" transform="translate(705,276)"/>
<path d="M0 0 C2.15377564 2.62198774 3.40072174 4.64404172 4 8 C2.35 7.67 0.7 7.34 -1 7 C-1.625 5.1875 -1.625 5.1875 -2 3 C-1.34 2.01 -0.68 1.02 0 0 Z " fill="#141217" transform="translate(259,387)"/>
<path d="M0 0 C1.485 0.99 1.485 0.99 3 2 C2.67 3.65 2.34 5.3 2 7 C1.01 7.33 0.02 7.66 -1 8 C-0.67 5.36 -0.34 2.72 0 0 Z " fill="#262A36" transform="translate(484,341)"/>
<path d="M0 0 C0 0.66 0 1.32 0 2 C-2 3.625 -2 3.625 -4 5 C-5.32 3.35 -6.64 1.7 -8 0 C-4.71303767 -0.79953138 -3.28976808 -1.09658936 0 0 Z " fill="#7391A2" transform="translate(726,309)"/>
<path d="M0 0 C1.24546405 2.49092811 0.7767578 3.41080733 0 6 C-0.66 6 -1.32 6 -2 6 C-2 5.34 -2 4.68 -2 4 C-2.99 4 -3.98 4 -5 4 C-5 3.01 -5 2.02 -5 1 C-3.35 0.67 -1.7 0.34 0 0 Z " fill="#D3B28F" transform="translate(357,391)"/>
<path d="M0 0 C0.99 0.33 1.98 0.66 3 1 C3 2.32 3 3.64 3 5 C2.34 5 1.68 5 1 5 C0.67 6.32 0.34 7.64 0 9 C-1.125 2.25 -1.125 2.25 0 0 Z " fill="#0C1A29" transform="translate(171,274)"/>
<path d="M0 0 C0.66 0.33 1.32 0.66 2 1 C2.40729228 3.32156597 2.74438677 5.6568787 3 8 C2.01 8.495 2.01 8.495 1 9 C1 8.01 1 7.02 1 6 C0.34 6 -0.32 6 -1 6 C-0.67 4.02 -0.34 2.04 0 0 Z " fill="#547691" transform="translate(169,266)"/>
<path d="M0 0 C3.40320742 1.01176437 4.75725331 1.64843582 6.8125 4.625 C7.204375 5.40875 7.59625 6.1925 8 7 C4.59679258 5.98823563 3.24274669 5.35156418 1.1875 2.375 C0.795625 1.59125 0.40375 0.8075 0 0 Z " fill="#18202B" transform="translate(391,305)"/>
<path d="M0 0 C-0.99 0.495 -0.99 0.495 -2 1 C-2.33 1.66 -2.66 2.32 -3 3 C-5.0625 4.125 -5.0625 4.125 -7 5 C-7.66 4.34 -8.32 3.68 -9 3 C-5.92807025 0.26939578 -4.09590633 -0.34132553 0 0 Z " fill="#0D101B" transform="translate(287,248)"/>
<path d="M0 0 C1.32 1.32 2.64 2.64 4 4 C3.01 4.495 3.01 4.495 2 5 C2 5.99 2 6.98 2 8 C1.01 8 0.02 8 -1 8 C-0.67 5.36 -0.34 2.72 0 0 Z " fill="#25181A" transform="translate(355,399)"/>
<path d="M0 0 C-1.29299694 2.88437779 -2.65941363 4.87219421 -5 7 C-5 3 -5 3 -3.625 1.25 C-2 0 -2 0 0 0 Z " fill="#13141B" transform="translate(319,323)"/>
<path d="M0 0 C2.64 0.66 5.28 1.32 8 2 C7.01 2.495 7.01 2.495 6 3 C5.67 3.66 5.34 4.32 5 5 C2.5 3.625 2.5 3.625 0 2 C0 1.34 0 0.68 0 0 Z " fill="#141F2D" transform="translate(208,304)"/>
<path d="M0 0 C0.66 0.66 1.32 1.32 2 2 C1.67 2.99 1.34 3.98 1 5 C1.33 5.99 1.66 6.98 2 8 C-0.475 7.01 -0.475 7.01 -3 6 C-2.625 3.5625 -2.625 3.5625 -2 1 C-1.34 0.67 -0.68 0.34 0 0 Z " fill="#467391" transform="translate(107,264)"/>
<path d="M0 0 C0.66 0 1.32 0 2 0 C1.3125 2.375 1.3125 2.375 0 5 C-2.625 6.3125 -2.625 6.3125 -5 7 C-4.67 6.01 -4.34 5.02 -4 4 C-3.34 4 -2.68 4 -2 4 C-1.34 2.68 -0.68 1.36 0 0 Z " fill="#0D2336" transform="translate(642,236)"/>
<path d="M0 0 C2.64 0 5.28 0 8 0 C8 0.66 8 1.32 8 2 C5.69 2.33 3.38 2.66 1 3 C0.67 2.01 0.34 1.02 0 0 Z " fill="#CB9F73" transform="translate(0,392)"/>
<path d="M0 0 C1.50559539 1.96382007 2.89131683 3.78263366 4 6 C3.01 7.32 2.02 8.64 1 10 C-0.60725635 6.78548731 -0.05748185 3.56387464 0 0 Z " fill="#1E2330" transform="translate(492,338)"/>
<path d="M0 0 C1.65 0 3.3 0 5 0 C4.625 2.4375 4.625 2.4375 4 5 C3.01 5.495 3.01 5.495 2 6 C1.34 4.02 0.68 2.04 0 0 Z " fill="#1D3042" transform="translate(112,304)"/>
<path d="M0 0 C2.64 0 5.28 0 8 0 C7.67 0.99 7.34 1.98 7 3 C4.69 2.67 2.38 2.34 0 2 C0 1.34 0 0.68 0 0 Z " fill="#312931" transform="translate(0,403)"/>
<path d="M0 0 C0.66 0.33 1.32 0.66 2 1 C2 2.65 2 4.3 2 6 C0.02 6.99 0.02 6.99 -2 8 C-1.34 5.36 -0.68 2.72 0 0 Z " fill="#372F2D" transform="translate(364,367)"/>
<path d="M0 0 C0.99 0 1.98 0 3 0 C2.74438677 2.3431213 2.40729228 4.67843403 2 7 C1.01 7.495 1.01 7.495 0 8 C0 5.36 0 2.72 0 0 Z " fill="#10162A" transform="translate(316,280)"/>
<path d="M0 0 C1 3 1 3 0.0625 5.1875 C-0.4634375 6.0846875 -0.4634375 6.0846875 -1 7 C-1.99 6.67 -2.98 6.34 -4 6 C-3.34 4.68 -2.68 3.36 -2 2 C-1.34 2 -0.68 2 0 2 C0 1.34 0 0.68 0 0 Z " fill="#5A7E96" transform="translate(217,279)"/>
</svg>
