<?xml version="1.0" encoding="UTF-8"?>
<svg version="1.1" xmlns="http://www.w3.org/2000/svg" width="300" height="300">
<path d="M0 0 C99 0 198 0 300 0 C300 99 300 198 300 300 C201 300 102 300 0 300 C0 201 0 102 0 0 Z " fill="#010100" transform="translate(0,0)"/>
<path d="M0 0 C8.12588655 5.13213887 9.5091665 13.21641462 11.70703125 22.078125 C13.41354083 28.74209258 14.92368021 32.14052429 20.70703125 36.078125 C24.88845869 38.16883872 30.15361738 37.51263377 34.70703125 37.078125 C39.43026178 34.75794158 42.73760834 31.84310583 44.50317383 26.80737305 C44.70064209 25.99308838 44.89811035 25.17880371 45.1015625 24.33984375 C45.45250977 22.98536133 45.45250977 22.98536133 45.81054688 21.60351562 C46.27976356 19.7253563 46.74083231 17.84514088 47.19335938 15.96289062 C49.18555223 8.36664306 51.98556577 3.50928317 58.625 -0.828125 C65.13663385 -3.13897098 72.8538197 -3.16217915 79.4375 -1.04296875 C87.95017312 3.39651482 93.80353776 9.947045 96.70703125 19.078125 C97.93259972 23.71123198 98.86268671 28.36178625 99.70703125 33.078125 C99.91457031 34.150625 100.12210938 35.223125 100.3359375 36.328125 C104.30115991 60.28583243 104.16430262 89.48310526 91.0078125 110.8359375 C89.34323255 113.04290867 87.59456615 115.06055992 85.70703125 117.078125 C85.20945313 117.68785156 84.711875 118.29757813 84.19921875 118.92578125 C78.94932403 124.92754531 71.83991863 127.8774704 64.70703125 131.078125 C63.97226563 131.41972656 63.2375 131.76132813 62.48046875 132.11328125 C52.33665302 136.408216 40.71645384 136.42876023 29.87841797 136.39379883 C27.84027527 136.39063779 25.80359015 136.41421744 23.765625 136.43945312 C4.165297 136.53288135 -13.04933177 131.91265739 -27.60546875 118.203125 C-31.42379737 114.18584539 -33.97684945 110.09515018 -36.29296875 105.078125 C-37.06833984 103.45777344 -37.06833984 103.45777344 -37.859375 101.8046875 C-48.82363508 77.67146918 -46.85540219 43.9588584 -39.29296875 19.078125 C-35.91862363 10.2126869 -30.5032226 2.72579794 -21.66015625 -1.265625 C-14.82620653 -3.16018532 -6.50311064 -3.01196703 0 0 Z " fill="#FCFCFC" transform="translate(121.29296875,79.921875)"/>
<path d="M0 0 C6.1333915 4.20855055 10.12990368 9.01307649 12.75 16 C13.61195444 22.89563548 12.30702998 28.87668903 10.6875 35.5625 C10.22334947 37.53891961 9.75980637 39.51548197 9.296875 41.4921875 C9.07193359 42.44319336 8.84699219 43.39419922 8.61523438 44.37402344 C7.85069594 47.63726764 7.13498752 50.90930868 6.4375 54.1875 C6.20933594 55.25355469 5.98117188 56.31960937 5.74609375 57.41796875 C5.16025867 60.23059057 4.59292303 63.04506258 4.03515625 65.86328125 C3.8637915 66.71317627 3.69242676 67.56307129 3.51586914 68.4387207 C3.18103075 70.10118617 2.85298631 71.76503988 2.53295898 73.43041992 C1.35418216 79.24233409 -0.02555041 83.98167375 -4.28515625 88.3359375 C-7.55348148 90.33925628 -9.62138651 90.598031 -13.4375 90.625 C-14.52933594 90.65851563 -15.62117188 90.69203125 -16.74609375 90.7265625 C-21.07503527 89.75995611 -23.40945106 87.46205603 -26 84 C-27.15973751 81.30952732 -27.70798652 78.61721763 -28.23046875 75.7421875 C-28.3924324 74.95788361 -28.55439606 74.17357971 -28.7212677 73.36550903 C-29.23152917 70.87244081 -29.71036148 68.37459644 -30.1875 65.875 C-30.51802394 64.22092141 -30.85068917 62.56726919 -31.18554688 60.9140625 C-31.6746155 58.49868419 -32.16232631 56.0831682 -32.64125061 53.66575623 C-33.72358255 48.22681594 -34.96039937 42.84709287 -36.36181641 37.48022461 C-38.80512216 27.98460748 -40.87627268 19.04608889 -36 10 C-27.35657785 -2.26159887 -13.83176211 -6.94040545 0 0 Z " fill="#BD4798" transform="translate(163,24)"/>
<path d="M0 0 C11.22 0 22.44 0 34 0 C35.32 4.62 36.64 9.24 38 14 C38.73476562 16.50400391 38.73476562 16.50400391 39.484375 19.05859375 C39.90650907 20.51815426 40.32839352 21.977787 40.75 23.4375 C41.08064453 24.54254883 41.08064453 24.54254883 41.41796875 25.66992188 C43.59466447 33.28835689 43.81749184 39.91808051 40 47 C35.40820519 53.51394148 30.00773047 58.39845391 22 60 C12.78498898 60.81493295 6.42445641 59.25032972 -0.75 53.375 C-5.85460156 48.57015051 -8.77954269 43.74336519 -9.1953125 36.68359375 C-8.98867636 32.78643608 -8.29701544 29.3996244 -7.3125 25.625 C-7.13750977 24.94888672 -6.96251953 24.27277344 -6.78222656 23.57617188 C-4.70463008 15.66462646 -2.35018475 7.83394915 0 0 Z " fill="#95CD44" transform="translate(133,219)"/>
<path d="M0 0 C-0.36679983 11.00399479 -5.27753348 20.08742024 -12.78515625 28.02734375 C-21.1298102 35.45953113 -29.44243827 38.49704696 -40.4921875 38.3125 C-45.36432843 37.87845626 -48.87380145 36.56385152 -53 34 C-54.01126953 33.38125 -54.01126953 33.38125 -55.04296875 32.75 C-64.42693093 26.36091937 -70.90699356 16.88500343 -74 6 C-74.125 2.640625 -74.125 2.640625 -74 0 C-53.0338442 -9.6704362 -21.02664203 -9.54072304 0 0 Z " fill="#FB71AE" transform="translate(187,154)"/>
<path d="M0 0 C3.29174203 1.29396228 6.38529963 2.70031521 9.5 4.375 C17.22278944 8.28263897 25.45135469 10.72026268 34 12 C32.76192144 19.09081357 30.94010156 25.87988979 28.8527832 32.75756836 C28.64355225 33.44858643 28.43432129 34.13960449 28.21875 34.8515625 C28.01121094 35.53541016 27.80367187 36.21925781 27.58984375 36.92382812 C26.99351029 39.0228429 26.50955175 41.12917205 26.03125 43.2578125 C24.37020803 49.28538146 21.05533364 53.12141835 15.73828125 56.390625 C8.53850734 59.68327523 0.82798446 60.53679505 -6.7734375 58.1171875 C-13.92351169 54.87496167 -18.08786469 50.49459213 -21.8125 43.6875 C-24.07198473 36.6712053 -24.83851158 30.55944811 -22.34179688 23.51953125 C-19.4609785 18.1101343 -14.71693611 14.11229015 -10.3125 9.9375 C-9.31306894 8.96822209 -8.31500892 7.99752838 -7.31835938 7.02539062 C-4.89199098 4.66935175 -2.45273695 2.32852355 0 0 Z " fill="#01A759" transform="translate(96,206)"/>
<path d="M0 0 C4.42917018 2.88005669 7.97418851 6.88013524 11.69677734 10.59716797 C12.56818359 11.44408203 13.43958984 12.29099609 14.33740234 13.16357422 C15.17013672 13.99244141 16.00287109 14.82130859 16.86083984 15.67529297 C17.62090332 16.42713867 18.3809668 17.17898437 19.1640625 17.95361328 C24.12439436 24.17719832 23.66855657 31.7784917 23.07177734 39.34716797 C21.67197004 45.82862866 17.19319711 51.10223382 11.91552734 54.89794922 C4.47265447 59.18726719 -3.19866706 59.74271782 -11.51025391 57.71826172 C-17.44323228 55.46433638 -21.53434709 51.65714664 -24.92822266 46.34716797 C-26.82881367 41.38471266 -28.08038747 36.31815688 -29.30322266 31.15966797 C-29.64616561 29.79260068 -29.99120455 28.42605742 -30.33837891 27.06005859 C-31.65159078 21.84543802 -32.91126517 16.62876587 -33.92822266 11.34716797 C-32.47416016 11.05326172 -32.47416016 11.05326172 -30.99072266 10.75341797 C-22.32670657 8.86320611 -14.87561492 6.23962794 -7.15869141 1.81396484 C-2.40771134 -0.81517094 -2.40771134 -0.81517094 0 0 Z " fill="#FCF300" transform="translate(203.92822265625,206.65283203125)"/>
<path d="M0 0 C6.30763775 4.2427596 10.8534245 10.1089324 12.3984375 17.61328125 C13.46737263 25.73718827 11.78660851 33.02257286 6.890625 39.65625 C1.86031824 45.14279388 -3.9033879 48.3710931 -11.359375 48.859375 C-15.84939 48.76569127 -19.79419941 47.62134115 -24.0390625 46.23828125 C-25.52653486 45.77215043 -27.01481268 45.30858174 -28.50390625 44.84765625 C-29.2088623 44.62916016 -29.91381836 44.41066406 -30.64013672 44.18554688 C-33.10222976 43.46720656 -35.58122836 42.95755695 -38.1015625 42.48828125 C-39.2565625 42.19953125 -40.4115625 41.91078125 -41.6015625 41.61328125 C-42.6015625 38.61328125 -42.6015625 38.61328125 -41.6015625 35.61328125 C-41.44887069 33.17547748 -41.34473553 30.76044224 -41.28515625 28.3203125 C-41.26437515 27.61428391 -41.24359406 26.90825531 -41.22218323 26.18083191 C-41.15688759 23.92924574 -41.09789603 21.67754463 -41.0390625 19.42578125 C-40.99585825 17.89777465 -40.95224334 16.36977961 -40.90820312 14.84179688 C-40.80122676 11.09907563 -40.69990328 7.35623895 -40.6015625 3.61328125 C-37.93550301 2.81952263 -35.26875083 2.02823054 -32.6015625 1.23828125 C-31.85777344 1.0165625 -31.11398438 0.79484375 -30.34765625 0.56640625 C-9.98560725 -5.4536778 -9.98560725 -5.4536778 0 0 Z " fill="#FA8F2D" transform="translate(266.6015625,127.38671875)"/>
<path d="M0 0 C1.81274414 0.50080078 1.81274414 0.50080078 3.66210938 1.01171875 C6.63121271 1.83320979 9.59778292 2.66284354 12.5625 3.5 C12.58755615 4.40242432 12.6126123 5.30484863 12.63842773 6.23461914 C12.73404627 9.60988834 12.83324827 12.98501394 12.93481445 16.36010742 C12.97789933 17.8157953 13.01959075 19.27152517 13.05981445 20.72729492 C13.11816411 22.83004361 13.18166516 24.93258606 13.24609375 27.03515625 C13.30108032 28.92826538 13.30108032 28.92826538 13.35717773 30.85961914 C13.56107453 34.47472628 13.99693786 37.92749891 14.5625 41.5 C13.8104126 41.676521 13.0583252 41.85304199 12.28344727 42.03491211 C8.89641174 42.8320621 5.51070171 43.63470475 2.125 44.4375 C0.34899414 44.85418945 0.34899414 44.85418945 -1.46289062 45.27929688 C-2.58759766 45.54677734 -3.71230469 45.81425781 -4.87109375 46.08984375 C-6.43428345 46.45903931 -6.43428345 46.45903931 -8.02905273 46.83569336 C-10.37028013 47.26823459 -10.37028013 47.26823459 -11.4375 48.5 C-18.08669285 49.40535885 -23.85392715 48.22895855 -29.4375 44.5 C-36.21826638 38.04545606 -39.77919028 33.02191725 -40.40234375 23.640625 C-40.48151975 16.56756916 -38.99962224 11.02256903 -34.4375 5.5 C-23.31131248 -5.76883095 -14.29788394 -4.04053676 0 0 Z " fill="#01AEEC" transform="translate(61.4375,127.5)"/>
<path d="M0 0 C0.35191406 0.95519531 0.70382813 1.91039062 1.06640625 2.89453125 C4.87330223 12.9630787 9.05600435 22.45493863 17 30 C15.53169836 33.38666654 13.64074491 35.61664718 11.04296875 38.22265625 C10.25986328 39.00833984 9.47675781 39.79402344 8.66992188 40.60351562 C7.85072266 41.41498047 7.03152344 42.22644531 6.1875 43.0625 C5.37990234 43.87783203 4.57230469 44.69316406 3.74023438 45.53320312 C2.95326172 46.31759766 2.16628906 47.10199219 1.35546875 47.91015625 C0.64028076 48.62308838 -0.07490723 49.33602051 -0.81176758 50.07055664 C-6.49098137 55.07812404 -11.56880704 56.13983428 -19 56 C-26.48889532 54.96477035 -32.18594619 51.8387748 -37 46 C-41.67899816 38.77089092 -43.40051825 31.52835912 -42 23 C-39.81197334 16.16603127 -36.11677617 10.83594438 -30 7 C-24.56037523 4.55036765 -18.78255751 3.37225667 -13 2 C-12.12859375 1.78988281 -11.2571875 1.57976562 -10.359375 1.36328125 C-6.71925605 0.51351838 -3.78414825 0 0 0 Z " fill="#00ACA7" transform="translate(77,172)"/>
<path d="M0 0 C5.88829351 0.75118148 11.64603346 1.89090301 17.4375 3.1875 C18.34048828 3.37119141 19.24347656 3.55488281 20.17382812 3.74414062 C27.54367059 5.41449594 32.98948329 8.35030776 37.83984375 14.23046875 C38.38318359 15.19919922 38.38318359 15.19919922 38.9375 16.1875 C39.50791016 17.16783203 39.50791016 17.16783203 40.08984375 18.16796875 C43.02025415 24.06652016 43.03301916 31.29460517 41.28125 37.578125 C38.00442599 45.34736903 33.58424792 50.27682375 26 54 C22.55247523 55.1195188 19.23649404 55.19948959 15.625 55.25 C14.52414063 55.27578125 13.42328125 55.3015625 12.2890625 55.328125 C6.14283405 54.71496207 2.26417316 51.63944926 -1.9609375 47.33203125 C-2.84394531 46.43935547 -3.72695312 45.54667969 -4.63671875 44.62695312 C-5.54035156 43.69818359 -6.44398438 42.76941406 -7.375 41.8125 C-8.31049468 40.8619376 -9.24668664 39.91206091 -10.18359375 38.96289062 C-12.46267004 36.64857089 -14.73443054 34.32753104 -17 32 C-15.75980078 29.34404825 -14.63664324 27.57772052 -12.6875 25.3125 C-6.42458983 17.92924519 -3.26773125 8.99668986 0 0 Z " fill="#FCC625" transform="translate(223,172)"/>
<path d="M0 0 C2.80859375 2.33984375 2.80859375 2.33984375 5.4375 4.9375 C6.32308594 5.79214844 7.20867187 6.64679688 8.12109375 7.52734375 C10 10 10 10 9.90234375 12.0234375 C9.45568359 13.00183594 9.45568359 13.00183594 9 14 C8.57074219 15.08861328 8.57074219 15.08861328 8.1328125 16.19921875 C7.80023438 17.02035156 7.46765625 17.84148437 7.125 18.6875 C4.55297415 25.63942494 3.49007181 32.74780967 2.32470703 40.03515625 C1.66198343 44.04538147 0.82244419 48.02025691 0 52 C-4.97168191 50.86378035 -9.93593968 49.70207929 -14.89306641 48.50390625 C-16.61658236 48.09170035 -18.34481354 47.6992539 -20.07421875 47.3125 C-27.19876638 45.52297469 -32.18144596 42.07655274 -36.3828125 36 C-40.08500855 28.95806066 -40.43626445 20.75886702 -38.15234375 13.19140625 C-35.06027767 6.30500824 -30.48015456 1.11909111 -23.61328125 -2.12890625 C-15.22308938 -5.06613198 -7.69492555 -4.43520099 0 0 Z " fill="#007DC5" transform="translate(74,76)"/>
<path d="M0 0 C5.30146589 3.81282963 9.70858872 9.06003764 11.15625 15.55078125 C12.32134784 25.42822183 10.6846866 32.33957214 4.86328125 40.32421875 C-2.66465736 48.27598232 -17.60545564 49.60113588 -27.84375 51.55078125 C-27.97426758 50.75494629 -28.10478516 49.95911133 -28.23925781 49.13916016 C-28.84575416 45.48265632 -29.4696199 41.82931477 -30.09375 38.17578125 C-30.29871094 36.92410156 -30.50367188 35.67242187 -30.71484375 34.3828125 C-31.85622937 27.7766109 -33.22848763 21.74847893 -35.96777344 15.61474609 C-36.84202239 13.55485182 -37.55041163 11.77295504 -37.84375 9.55078125 C-36.21585538 7.43482139 -34.69355322 5.74795043 -32.78125 3.92578125 C-32.30236328 3.4359375 -31.82347656 2.94609375 -31.33007812 2.44140625 C-22.88996824 -5.82922352 -9.90226353 -5.70666161 0 0 Z " fill="#FB542B" transform="translate(253.84375,76.44921875)"/>
<path d="M0 0 C7.80534217 5.9889219 9.74347219 12.28249575 11.69140625 21.77734375 C11.95050781 22.9271875 12.20960937 24.07703125 12.4765625 25.26171875 C13.69439204 30.85471369 14.66597281 36.05111055 14.31640625 41.77734375 C13.50558594 41.41640625 12.69476563 41.05546875 11.859375 40.68359375 C3.27404815 37.08555223 -3.93983463 34.56554722 -12.9296875 38.02734375 C-19.36778915 41.11298976 -19.36778915 41.11298976 -24.68359375 45.77734375 C-30.65738086 43.17827009 -35.743181 38.16274472 -38.96875 32.53515625 C-41.62162797 25.60065662 -40.71545702 19.10223651 -38.55859375 12.15234375 C-34.86967467 5.51228941 -30.51753388 0.16123412 -23.265625 -2.59375 C-14.95215235 -4.61866543 -7.57488261 -3.91259154 0 0 Z " fill="#4E3F99" transform="translate(112.68359375,38.22265625)"/>
<path d="M0 0 C4.54125357 3.25511752 8.42573975 7.42672857 10.3359375 12.76171875 C10.81226621 15.78394228 10.88631203 18.73410456 10.92578125 21.79296875 C10.9515625 22.98664062 10.97734375 24.1803125 11.00390625 25.41015625 C10.38763159 31.99842581 7.2260302 35.76853459 2.61328125 40.29296875 C1.73542969 41.16695312 0.85757813 42.0409375 -0.046875 42.94140625 C-2.32421875 44.91796875 -2.32421875 44.91796875 -4.32421875 44.91796875 C-4.32421875 44.25796875 -4.32421875 43.59796875 -4.32421875 42.91796875 C-13.78543737 38.13372442 -23.26711544 33.45769552 -34.0234375 36.7421875 C-37.74042478 38.20185112 -40.99355725 39.69752775 -44.32421875 41.91796875 C-43.87004326 39.08391371 -43.41099477 36.25078701 -42.94921875 33.41796875 C-42.82289063 32.62648437 -42.6965625 31.835 -42.56640625 31.01953125 C-41.72739106 25.90153859 -40.61724623 20.93985142 -39.32421875 15.91796875 C-39.0892837 14.58563971 -38.85946596 13.25238953 -38.63671875 11.91796875 C-37.02627084 5.57604985 -32.20882543 0.73307107 -26.69921875 -2.58203125 C-17.62734549 -6.46997693 -8.35116348 -4.65674149 0 0 Z " fill="#FB4E9A" transform="translate(216.32421875,39.08203125)"/>
<path d="M0 0 C2.13074046 3.1961107 2.6210525 5.23122521 3.37109375 8.96484375 C3.75563721 10.84405518 3.75563721 10.84405518 4.14794922 12.76123047 C4.35324249 13.7846756 4.35324249 13.7846756 4.56268311 14.82879639 C5.34731317 18.72435051 6.16275645 22.61354207 6.97265625 26.50390625 C7.31843472 28.16730205 7.66413713 29.83071366 8.00976562 31.49414062 C8.18290283 32.3266333 8.35604004 33.15912598 8.53442383 34.0168457 C8.88975328 35.72975379 9.24356747 37.44297682 9.59594727 39.15649414 C10.113102 41.66903396 10.63608386 44.18030149 11.16015625 46.69140625 C11.31541275 47.45288467 11.47066925 48.2143631 11.63063049 48.99891663 C13.41251279 57.58744363 13.41251279 57.58744363 19 64 C22.09608549 64.63241044 22.09608549 64.63241044 25.4375 64.5 C26.54996094 64.5103125 27.66242188 64.520625 28.80859375 64.53125 C32.68432286 63.88608579 34.28413609 62.81166158 37 60 C41.31629075 51.43841012 42.38618366 40.61938719 44.16210938 31.28637695 C45.36169137 24.99698441 46.74554492 18.7987896 48.36230469 12.6027832 C49.14531523 9.40688909 49.62877317 6.26679615 50 3 C50.495 4.98 50.495 4.98 51 7 C51.66 7 52.32 7 53 7 C52.26990593 12.33748381 51.38713289 17.63500441 50.4375 22.9375 C50.29892578 23.71673828 50.16035156 24.49597656 50.01757812 25.29882812 C49.67943843 27.1994064 49.3398683 29.09973008 49 31 C49.93199219 30.36578125 50.86398438 29.7315625 51.82421875 29.078125 C57.87693684 25.11742878 62.97068273 24.71882731 70 25 C70 25.33 70 25.66 70 26 C69.25234375 26.09796875 68.5046875 26.1959375 67.734375 26.296875 C60.39348469 27.27754799 60.39348469 27.27754799 55 32 C54.01 32.680625 53.02 33.36125 52 34.0625 C46.20716083 38.84852329 45.14053441 47.26802934 43.625 54.25 C42.1578837 60.42311232 39.58645593 64.72678596 34.17578125 68.15625 C29.65932852 69.90769307 24.74797131 69.5155304 20 69 C14.97578589 66.57761106 11.09208052 63.09777315 9.19775391 57.72436523 C8.18055284 54.08333341 7.27157641 50.42084504 6.37695312 46.74804688 C4.86016108 40.94125443 3.33447631 37.2138881 -1 33 C-7.69546715 29.4131426 -14.50552724 29.13921162 -22 30 C-26.5312239 31.46029965 -30.35065415 33.95887846 -34 37 C-32.36862389 30.24144185 -32.36862389 30.24144185 -29.8828125 28.61328125 C-22.14575999 24.96393495 -15.51232284 23.30390067 -7.15625 25.875 C-4.01779245 27.10152364 -1.01179879 28.4941006 2 30 C1.61603267 25.1620116 1.10778328 20.42344429 0.1953125 15.65625 C0.05134033 14.89948975 -0.09263184 14.14272949 -0.2409668 13.36303711 C-0.53641284 11.84090037 -0.84241747 10.32077152 -1.15942383 8.80297852 C-2.21910939 3.32866409 -2.21910939 3.32866409 0 0 Z " fill="#120B12" transform="translate(124,49)"/>
<path d="M0 0 C-0.36679983 11.00399479 -5.27753348 20.08742024 -12.78515625 28.02734375 C-21.1298102 35.45953113 -29.44243827 38.49704696 -40.4921875 38.3125 C-45.36432843 37.87845626 -48.87380145 36.56385152 -53 34 C-54.01126953 33.38125 -54.01126953 33.38125 -55.04296875 32.75 C-64.42693093 26.36091937 -70.90699356 16.88500343 -74 6 C-74.125 2.640625 -74.125 2.640625 -74 0 C-53.0338442 -9.6704362 -21.02664203 -9.54072304 0 0 Z M-70 2 C-70 11.24248697 -66.05277078 17.66447778 -59.81640625 24.3359375 C-52.4869722 31.16996787 -44.73005133 35.50295651 -34.55859375 35.3359375 C-24.33973826 33.99422518 -16.09747927 27.21427343 -9.921875 19.35546875 C-5.90037875 13.51122115 -4.11637706 9.09900055 -4 2 C-14.47384855 -2.07316332 -25.59018299 -2.35854108 -36.6875 -2.3125 C-38.65529419 -2.30947876 -38.65529419 -2.30947876 -40.6628418 -2.30639648 C-56.05127961 -2.90389582 -56.05127961 -2.90389582 -70 2 Z " fill="#3A56A5" transform="translate(187,154)"/>
<path d="M0 0 C1.2077781 3.62333429 0.37064583 4.64147825 -1.16308594 7.96630859 C-2.66630937 11.61912398 -3.34974167 15.45171353 -4.125 19.3125 C-4.29386719 20.10333984 -4.46273437 20.89417969 -4.63671875 21.70898438 C-6.96860518 33.01037096 -7.13012911 44.13315478 -7.0625 55.625 C-7.05747303 57.12109225 -7.05291225 58.61718613 -7.04882812 60.11328125 C-7.03792185 63.74222219 -7.02072382 67.37110027 -7 71 C-7.33 71 -7.66 71 -8 71 C-8 68.69 -8 66.38 -8 64 C-8.66 64 -9.32 64 -10 64 C-10 66.97 -10 69.94 -10 73 C-10.33 73 -10.66 73 -11 73 C-11 62.77 -11 52.54 -11 42 C-13.64 41.67 -16.28 41.34 -19 41 C-20.36261524 40.71335583 -21.72051775 40.39878527 -23.0625 40.02734375 C-23.71347656 39.85009766 -24.36445312 39.67285156 -25.03515625 39.49023438 C-26.00775391 39.21663086 -26.00775391 39.21663086 -27 38.9375 C-27.67933594 38.75123047 -28.35867187 38.56496094 -29.05859375 38.37304688 C-30.70709008 37.92029084 -32.35375191 37.46086372 -34 37 C-32.02 36.505 -32.02 36.505 -30 36 C-30 35.34 -30 34.68 -30 34 C-27.20760027 34.64279009 -24.41609416 35.28908665 -21.625 35.9375 C-20.8309375 36.11990234 -20.036875 36.30230469 -19.21875 36.49023438 C-18.07792969 36.75610352 -18.07792969 36.75610352 -16.9140625 37.02734375 C-16.2123291 37.18968506 -15.5105957 37.35202637 -14.78759766 37.51928711 C-13 38 -13 38 -11 39 C-10.90203125 37.87464844 -10.8040625 36.74929687 -10.703125 35.58984375 C-9.60580533 23.99051438 -8.24408107 11.5845607 -3 1 C-2.01 0.67 -1.02 0.34 0 0 Z " fill="#03080B" transform="translate(85,89)"/>
<path d="M0 0 C-1.98 0.99 -1.98 0.99 -4 2 C-3.505 2.99 -3.505 2.99 -3 4 C-4.02222656 3.84015625 -5.04445312 3.6803125 -6.09765625 3.515625 C-12.52224294 2.71978338 -18.97244118 2.76608024 -25.4375 2.75 C-26.10042053 2.74766357 -26.76334106 2.74532715 -27.4463501 2.74291992 C-37.90173951 2.7290127 -47.83811694 3.49677954 -58 6 C-58.103125 6.639375 -58.20625 7.27875 -58.3125 7.9375 C-58.539375 8.618125 -58.76625 9.29875 -59 10 C-59.99 10.33 -60.98 10.66 -62 11 C-63 10 -63 10 -63.0625 6.9375 C-63.041875 5.968125 -63.02125 4.99875 -63 4 C-43.48120236 -5.00285628 -20.71567562 -2.83291291 0 0 Z " fill="#3F5BA8" transform="translate(176,150)"/>
<path d="M0 0 C0.33 0 0.66 0 1 0 C1.08196118 4.18001995 0.89445704 7.92212105 0 12 C0.95519531 12.25394531 1.91039062 12.50789062 2.89453125 12.76953125 C10.603394 14.8209625 18.30721379 16.88888196 26 19 C25.01 19.33 24.02 19.66 23 20 C22.34 19.67 21.68 19.34 21 19 C21.495 20.485 21.495 20.485 22 22 C19.31199023 21.37713159 16.6246008 20.75176793 13.9375 20.125 C12.80924805 19.86396484 12.80924805 19.86396484 11.65820312 19.59765625 C7.06256983 18.52335236 2.52702051 17.33465943 -2 16 C-2.0825 16.78375 -2.165 17.5675 -2.25 18.375 C-3.24365069 23.177645 -5.08713518 27.49809489 -7 32 C-7.99 32 -8.98 32 -10 32 C-11.3143753 28.0568741 -10.31328644 26.67540325 -8.75 22.875 C-6.86138172 18.19269153 -5.13693995 13.53871554 -3.67578125 8.70703125 C-3 7 -3 7 -1 5 C-0.35232207 2.42938689 -0.35232207 2.42938689 0 0 Z " fill="#201A0F" transform="translate(225,156)"/>
<path d="M0 0 C3.742074 1.30537465 5.89566793 3.47970835 7.6875 6.9375 C8.21775111 9.8538811 8.03867166 11.92745721 7.6875 14.9375 C5.6875 16.9375 5.6875 16.9375 3.375 17.4375 C0.12927501 16.83364419 -1.37343228 15.53953804 -3.375 12.9375 C-5.16479423 9.11927231 -4.67822836 5.0499122 -4.3125 0.9375 C-2.3125 -0.0625 -2.3125 -0.0625 0 0 Z " fill="#53C379" transform="translate(170.3125,125.0625)"/>
<path d="M0 0 C1 1 1 1 1.25 4.75 C1.20156017 8.61134614 0.44921932 10.91579789 -2 14 C-5 16 -5 16 -9 16 C-11.50304378 12.24543433 -11.45280074 10.45254066 -11 6 C-7.84504576 0.32108237 -6.39136133 -1.6388106 0 0 Z " fill="#E04A35" transform="translate(133,126)"/>
<path d="M0 0 C0.66 0.33 1.32 0.66 2 1 C1.34 1.66 0.68 2.32 0 3 C0.495 3.99 0.495 3.99 1 5 C-18.16088045 14.28011294 -18.16088045 14.28011294 -27 14 C-27 13.34 -27 12.68 -27 12 C-28.98 12 -30.96 12 -33 12 C-33 11.67 -33 11.34 -33 11 C-32.23558594 10.92523438 -31.47117188 10.85046875 -30.68359375 10.7734375 C-20.57918664 9.53318536 -10.89262139 6.67470417 -2.1875 1.24609375 C-1.1046875 0.62927734 -1.1046875 0.62927734 0 0 Z " fill="#1F1F13" transform="translate(198,204)"/>
<path d="M0 0 C0.33 0 0.66 0 1 0 C0.39620773 7.24550723 -1.13851839 13.98145455 -3 21 C-3.39869275 22.58261573 -3.79496613 24.16584545 -4.1875 25.75 C-4.455625 26.8225 -4.72375 27.895 -5 29 C-5.66 28.34 -6.32 27.68 -7 27 C-7.66 27.99 -8.32 28.98 -9 30 C-8.18986911 24.11904985 -6.61491672 18.46825439 -5.0625 12.75 C-4.79759766 11.74453125 -4.53269531 10.7390625 -4.25976562 9.703125 C-4.00001953 8.7440625 -3.74027344 7.785 -3.47265625 6.796875 C-3.12086304 5.48734863 -3.12086304 5.48734863 -2.76196289 4.15136719 C-2 2 -2 2 0 0 Z " fill="#070E05" transform="translate(131,219)"/>
<path d="M0 0 C0.69738281 0.05220703 1.39476562 0.10441406 2.11328125 0.15820312 C3.82596203 0.28724072 5.53805066 0.42409614 7.25 0.5625 C7.58 1.8825 7.91 3.2025 8.25 4.5625 C-9 4.5625 -9 4.5625 -12.75 3.5625 C-12.42 2.5725 -12.09 1.5825 -11.75 0.5625 C-8.0624121 -1.10786779 -3.92769868 -0.32297711 0 0 Z " fill="#A6A6A6" transform="translate(283.75,288.4375)"/>
<path d="M0 0 C2.22535794 3.33803691 2.28978404 4.62819711 2.4140625 8.54296875 C2.45273438 9.61611328 2.49140625 10.68925781 2.53125 11.79492188 C2.57765625 13.47424805 2.57765625 13.47424805 2.625 15.1875 C2.66367188 16.31865234 2.70234375 17.44980469 2.7421875 18.61523438 C2.83652533 21.4099925 2.92211652 24.20474278 3 27 C2.67 27 2.34 27 2 27 C2 24.69 2 22.38 2 20 C1.34 20 0.68 20 0 20 C0 22.97 0 25.94 0 29 C-0.33 29 -0.66 29 -1 29 C-1.02465881 25.03069011 -1.04284023 21.06140966 -1.05493164 17.09204102 C-1.05997057 15.74079614 -1.06680177 14.38955674 -1.07543945 13.03833008 C-1.08752419 11.09979566 -1.09269828 9.161222 -1.09765625 7.22265625 C-1.10289307 6.05484619 -1.10812988 4.88703613 -1.11352539 3.68383789 C-1 1 -1 1 0 0 Z " fill="#0E1517" transform="translate(75,133)"/>
<path d="M0 0 C5.61 0 11.22 0 17 0 C17 1.32 17 2.64 17 4 C11.39 4 5.78 4 0 4 C0 2.68 0 1.36 0 0 Z " fill="#AEAEAE" transform="translate(253,289)"/>
<path d="M0 0 C-1.98 0.99 -1.98 0.99 -4 2 C-3.67 2.66 -3.34 3.32 -3 4 C-4.0621875 3.84660156 -5.124375 3.69320312 -6.21875 3.53515625 C-11.96097142 2.81737857 -17.72098415 2.6483373 -23.5 2.4375 C-24.60859375 2.39431641 -25.7171875 2.35113281 -26.859375 2.30664062 C-29.57281506 2.20137786 -32.28633417 2.09924154 -35 2 C-35 1.67 -35 1.34 -35 1 C-33.83082031 0.93941406 -32.66164062 0.87882813 -31.45703125 0.81640625 C-29.90884386 0.73195966 -28.36066732 0.64731375 -26.8125 0.5625 C-26.04357422 0.52318359 -25.27464844 0.48386719 -24.48242188 0.44335938 C-3.01710526 -0.75427632 -3.01710526 -0.75427632 0 0 Z " fill="#4C56A4" transform="translate(176,150)"/>
<path d="M0 0 C0.69951063 2.413762 1.38483919 4.83010234 2.0625 7.25 C2.26166016 7.93191406 2.46082031 8.61382812 2.66601562 9.31640625 C4.40009269 15.58342161 4.40009269 15.58342161 3 19 C3 18.01 3 17.02 3 16 C2.34 16 1.68 16 1 16 C0.67 16.66 0.34 17.32 0 18 C-1.32 12.39 -2.64 6.78 -4 1 C-1 0 -1 0 0 0 Z " fill="#1D2004" transform="translate(174,230)"/>
<path d="M0 0 C8.415 1.98 8.415 1.98 17 4 C16.01 4.495 16.01 4.495 15 5 C15 5.66 15 6.32 15 7 C8.51527007 6.26309887 2.30760257 4.64681249 -4 3 C-2.68 2.67 -1.36 2.34 0 2 C0 1.34 0 0.68 0 0 Z " fill="#00131B" transform="translate(55,123)"/>
<path d="M0 0 C1.20525471 3.61576413 0.38285465 4.63540999 -1.1640625 7.94921875 C-2.61264815 11.50299196 -3.27580793 15.24272116 -4 19 C-5.5078125 17.734375 -5.5078125 17.734375 -7 16 C-6.8127388 10.38216412 -5.63172415 5.95978782 -3 1 C-2.01 0.67 -1.02 0.34 0 0 Z " fill="#0C1317" transform="translate(85,89)"/>
<path d="M0 0 C6.20970773 -0.33266291 10.28264895 0.54970669 16 3 C15.67 5.31 15.34 7.62 15 10 C14.34 9.34 13.68 8.68 13 8 C13 7.01 13 6.02 13 5 C12.22914063 4.89042969 11.45828125 4.78085938 10.6640625 4.66796875 C9.15972656 4.43013672 9.15972656 4.43013672 7.625 4.1875 C6.62726563 4.03667969 5.62953125 3.88585937 4.6015625 3.73046875 C2 3 2 3 0 0 Z " fill="#3252A3" transform="translate(171,151)"/>
<path d="M0 0 C6.95660771 0.57021375 13.31427305 2.01302694 20 4 C19.01 4.33 18.02 4.66 17 5 C16.34 4.67 15.68 4.34 15 4 C15.33 4.99 15.66 5.98 16 7 C14.08191891 6.54762239 12.16557967 6.08785537 10.25 5.625 C9.18265625 5.36976563 8.1153125 5.11453125 7.015625 4.8515625 C4.44147278 4.12466459 2.32399814 3.2973776 0 2 C0 1.34 0 0.68 0 0 Z " fill="#1B1405" transform="translate(231,171)"/>
<path d="M0 0 C0.99 0 1.98 0 3 0 C2.84817368 2.65696068 2.52675976 4.44234524 0.66796875 6.41015625 C-3.93729235 10.25347634 -6.21856431 11.12533442 -12.125 11.0625 C-13.22070312 11.05347656 -14.31640625 11.04445313 -15.4453125 11.03515625 C-16.70988281 11.01775391 -16.70988281 11.01775391 -18 11 C-18 10.67 -18 10.34 -18 10 C-14.37 10 -10.74 10 -7 10 C-6.67 8.68 -6.34 7.36 -6 6 C-4.37373596 4.61767557 -2.7074998 3.28062485 -1 2 C-0.67 1.34 -0.34 0.68 0 0 Z " fill="#1F1A1E" transform="translate(162,107)"/>
<path d="M0 0 C-6.375 4.25 -6.375 4.25 -10.6875 5.125 C-11.49574219 5.29257813 -12.30398437 5.46015625 -13.13671875 5.6328125 C-13.75160156 5.75398437 -14.36648437 5.87515625 -15 6 C-15 4.68 -15 3.36 -15 2 C-13.25364835 1.46706165 -11.50272348 0.94909337 -9.75 0.4375 C-8.77546875 0.14746094 -7.8009375 -0.14257812 -6.796875 -0.44140625 C-4.03756068 -0.99249836 -2.6087176 -0.93789609 0 0 Z " fill="#01151B" transform="translate(70,171)"/>
<path d="M0 0 C-0.99 0.33 -1.98 0.66 -3 1 C-2.01 1.66 -1.02 2.32 0 3 C-7.425 4.485 -7.425 4.485 -15 6 C-13 2 -13 2 -10.9765625 0.91796875 C-10.20054687 0.67691406 -9.42453125 0.43585938 -8.625 0.1875 C-7.85414063 -0.06644531 -7.08328125 -0.32039063 -6.2890625 -0.58203125 C-3.82655314 -1.03167033 -2.35084396 -0.78898188 0 0 Z " fill="#1F0E06" transform="translate(249,123)"/>
<path d="M0 0 C0.33 0 0.66 0 1 0 C1.19392201 5.52677733 0.7479503 9.75614911 -1 15 C-1.99 14.67 -2.98 14.34 -4 14 C-2.86792453 2.86792453 -2.86792453 2.86792453 0 0 Z " fill="#0D080C" transform="translate(167,94)"/>
<path d="M0 0 C0.66 0.33 1.32 0.66 2 1 C1.34 1.66 0.68 2.32 0 3 C0.33 3.66 0.66 4.32 1 5 C-4.41538462 8.07692308 -4.41538462 8.07692308 -7.375 7.6875 C-7.91125 7.460625 -8.4475 7.23375 -9 7 C-6.25604436 4.05278838 -3.61662784 1.80831392 0 0 Z " fill="#191810" transform="translate(198,204)"/>
<path d="M0 0 C1.46534385 3.80989402 0.55203911 6.3241179 -1 10 C-1.99 10.495 -1.99 10.495 -3 11 C-3.36923077 4.6 -3.36923077 4.6 -1.5 1.5625 C-1.005 1.046875 -0.51 0.53125 0 0 Z " fill="#0C0B0A" transform="translate(225,152)"/>
<path d="M0 0 C0 0.33 0 0.66 0 1 C-0.75925781 1.10957031 -1.51851562 1.21914062 -2.30078125 1.33203125 C-3.29464844 1.49058594 -4.28851563 1.64914063 -5.3125 1.8125 C-6.29863281 1.96332031 -7.28476563 2.11414063 -8.30078125 2.26953125 C-11.12699269 3.03436705 -12.1959128 3.75258762 -14 6 C-14.99 5.67 -15.98 5.34 -17 5 C-13.01010646 -0.9848403 -6.54161806 -0.26166472 0 0 Z " fill="#391225" transform="translate(194,74)"/>
<path d="M0 0 C0 0.33 0 0.66 0 1 C-0.94875 1.103125 -1.8975 1.20625 -2.875 1.3125 C-6.29107501 1.68539295 -6.29107501 1.68539295 -8 5 C-9.32 4.67 -10.64 4.34 -12 4 C-11.67 3.01 -11.34 2.02 -11 1 C-7.50970582 -0.47666292 -3.72563614 -0.07164685 0 0 Z " fill="#858585" transform="translate(283,288)"/>
<path d="M0 0 C2.475 0.495 2.475 0.495 5 1 C4.67 2.65 4.34 4.3 4 6 C2.68 5.34 1.36 4.68 0 4 C0 2.68 0 1.36 0 0 Z " fill="#E6ACC6" transform="translate(167,127)"/>
<path d="M0 0 C0.99 0 1.98 0 3 0 C2.67 1.98 2.34 3.96 2 6 C0.68 6 -0.64 6 -2 6 C-1.125 1.125 -1.125 1.125 0 0 Z " fill="#9FCDE4" transform="translate(127,127)"/>
<path d="M0 0 C0.33 0 0.66 0 1 0 C1 2.64 1 5.28 1 8 C-0.98 8.99 -0.98 8.99 -3 10 C-2.69201674 8.51988629 -2.378482 7.04092675 -2.0625 5.5625 C-1.88847656 4.73878906 -1.71445313 3.91507812 -1.53515625 3.06640625 C-1 1 -1 1 0 0 Z " fill="#0A0409" transform="translate(172,71)"/>
<path d="M0 0 C0.99 0 1.98 0 3 0 C3 3.3 3 6.6 3 10 C2.34 8.68 1.68 7.36 1 6 C0.34 6.99 -0.32 7.98 -1 9 C-0.67 6.03 -0.34 3.06 0 0 Z " fill="#2B0F20" transform="translate(171,66)"/>
<path d="M0 0 C1.65 0 3.3 0 5 0 C5.33 1.32 5.66 2.64 6 4 C4.02 4 2.04 4 0 4 C0 2.68 0 1.36 0 0 Z " fill="#8C8C8C" transform="translate(253,289)"/>
<path d="M0 0 C-0.33 0.66 -0.66 1.32 -1 2 C-4.4375 2.75 -4.4375 2.75 -8 3 C-8.66 2.34 -9.32 1.68 -10 1 C-6.52674819 -0.1577506 -3.63932552 -0.06866652 0 0 Z " fill="#2A4EA1" transform="translate(135,150)"/>
<path d="M0 0 C1.65 0 3.3 0 5 0 C5.33 0.99 5.66 1.98 6 3 C4.35 3.33 2.7 3.66 1 4 C0.67 2.68 0.34 1.36 0 0 Z " fill="#BFBFBF" transform="translate(258,289)"/>
<path d="M0 0 C2.97 0.33 5.94 0.66 9 1 C7.02 1.99 7.02 1.99 5 3 C5.33 3.66 5.66 4.32 6 5 C4.68 4.67 3.36 4.34 2 4 C2 3.34 2 2.68 2 2 C1.34 1.34 0.68 0.68 0 0 Z " fill="#6676B6" transform="translate(167,149)"/>
<path d="M0 0 C1.98 0 3.96 0 6 0 C6 0.99 6 1.98 6 3 C4.02 3.33 2.04 3.66 0 4 C0 2.68 0 1.36 0 0 Z " fill="#CBCBCB" transform="translate(277,289)"/>
<path d="M0 0 C0.66 0.33 1.32 0.66 2 1 C-1.75 6.875 -1.75 6.875 -4 8 C-3.42415568 5.61435923 -2.77772405 3.33317216 -2 1 C-1.34 0.67 -0.68 0.34 0 0 Z " fill="#1B1A1E" transform="translate(94,78)"/>
</svg>
